<?xml version="1.0" encoding="utf-8"?>
<!-- Generator: Adobe Illustrator 19.2.1, SVG Export Plug-In . SVG Version: 6.00 Build 0)  -->
<svg version="1.1" id="Layer_1" xmlns="http://www.w3.org/2000/svg" xmlns:xlink="http://www.w3.org/1999/xlink" x="0px" y="0px"
	 viewBox="0 0 100 100" style="enable-background:new 0 0 100 100;" xml:space="preserve">
<style type="text/css">
	.st0{fill:#010101;}
</style>
<g id="Forma_1_2_">
	<path class="st0" d="M88.8,78.2H72.6c1.1-1.4,1.6-3.2,1.2-5l-3.3-17.5c-0.4-2.2-2-4-4.1-4.7l-8.5-2.8c-0.1-0.1-0.3-0.1-0.4-0.1
		v-2.3c1.6-1.8,2.5-4.1,2.5-6.6v-2.8c1.5-0.5,2.5-1.9,2.5-3.5v-6.2c0-4.1-3.3-7.4-7.4-7.4H45c-1.7,0-3.1,1.1-3.5,2.6
		c-2.2,0.5-3.9,2.5-3.9,4.8v6.3c0,1.6,1,3,2.5,3.5V39c0,2.6,1,5,2.5,6.8v2.4c-0.1,0-0.3,0-0.4,0.1l-8.5,2.8
		c-2.1,0.7-3.7,2.5-4.1,4.7l-3.3,17.5c-0.3,1.8,0.1,3.6,1.2,5H11.2c-0.7,0-1.2,0.5-1.2,1.2s0.5,1.2,1.2,1.2h21.1h0.2H35H65h2.5h0.2
		h21.1c0.7,0,1.2-0.5,1.2-1.2C90,78.8,89.5,78.2,88.8,78.2z M40.1,31.9v1.9c-0.1-0.2-0.2-0.4-0.2-0.6v-6.3c0-1.4,1.2-2.6,2.6-2.6
		c0.7,0,1.2-0.5,1.2-1.2c0-0.7,0.6-1.3,1.3-1.3h10c2.8,0,5.1,2.3,5.1,5.1v6.3c0,0.2-0.1,0.4-0.2,0.6v-1.9c0-2-1.6-3.7-3.7-3.7H43.7
		C41.7,28.2,40.1,29.8,40.1,31.9z M42.4,39v-7.1c0-0.7,0.6-1.3,1.3-1.3h12.5c0.7,0,1.3,0.6,1.3,1.3v7.5c0,2.1-0.8,4-2.3,5.5
		c-1.5,1.4-3.5,2.2-5.5,2.1C45.7,46.8,42.4,43.3,42.4,39z M56.3,50.5C56.3,50.5,56.3,50.5,56.3,50.5c-0.2,2.9-3,5.2-6.3,5.2
		c-3.3,0-6-2.3-6.3-5.2c0,0,0,0,0.1,0c0.7,0,1.2-0.5,1.2-1.2v-1.6c1.4,0.9,3,1.4,4.8,1.5c0.1,0,0.2,0,0.3,0c1.8,0,3.6-0.5,5.1-1.4
		v1.5C55.1,50,55.6,50.5,56.3,50.5z M65.1,78.2C65.1,78.2,65.1,78.2,65.1,78.2L35,78.2c0,0-0.1,0-0.1-0.1V61.9c0,0,0-0.1,0.1-0.1H65
		c0,0,0.1,0,0.1,0.1V78.2z M70.7,76.8c-0.7,0.9-1.8,1.4-3,1.4h-0.2h-0.1c0,0,0-0.1,0-0.1V61.9c0-1.3-1.1-2.4-2.4-2.4H35
		c-1.3,0-2.4,1.1-2.4,2.4v16.3c0,0,0,0.1,0,0.1h-0.1h-0.2c-1.2,0-2.2-0.5-3-1.4c-0.7-0.9-1-2-0.8-3.2l3.3-17.5
		c0.3-1.4,1.2-2.5,2.5-2.9l7-2.3c0.5,4,4.2,7.1,8.6,7.1c4.4,0,8.1-3.1,8.6-7.1l7,2.3c1.3,0.4,2.3,1.6,2.5,2.9l3.3,17.5
		C71.7,74.8,71.4,76,70.7,76.8z M50,67c-2,0-3.7,1.6-3.7,3.7s1.6,3.7,3.7,3.7s3.7-1.6,3.7-3.7S52,67,50,67z M50,72
		c-0.7,0-1.3-0.6-1.3-1.3s0.6-1.3,1.3-1.3s1.3,0.6,1.3,1.3S50.7,72,50,72z"/>
</g>
</svg>
