
<svg version="1.1" id="Layer_1" xmlns="http://www.w3.org/2000/svg" xmlns:xlink="http://www.w3.org/1999/xlink" x="0px" y="0px"
	 viewBox="0 0 200 100" style="enable-background:new 0 0 200 100;" xml:space="preserve">
<path d="M30.1,37.4c0.1-0.1,0.1-0.2,0.2-0.3c0.5-1.5,1.1-1.9,2.6-1.9c5.9,0,11.8,0,17.7,0c1.8,0,2.8,1,2.8,2.7c0,2.4,0,4.9,0,7.3
	c0,3.4,0,6.8,0,10.2c0,0.5,0,0.9-0.2,1.4c-0.4,1.2-1.1,1.7-2.4,1.7c-6,0-11.9,0-17.9,0c-1.4,0-2.1-0.5-2.6-1.9
	c0-0.1-0.1-0.3-0.2-0.4C30.1,50,30.1,43.7,30.1,37.4z M48.1,41.1c-3.2,2.7-6.4,5.4-9.6,8.1c-1-1.7-2-3.4-3-5.1
	c-0.8,1.2-1.5,2.4-2.2,3.5c1.6,1.7,3.2,3.3,4.7,5c4.1-2.6,8.1-5.1,12.2-7.7C49.5,43.6,48.8,42.4,48.1,41.1z"/>
<path d="M76.5,35.1c0,0.3,0,0.5,0,0.8c0,7.2,0,14.4,0,21.6c0,0.3,0,0.6,0,1c-1.2,0-2.4,0-3.6,0c-0.1,0-0.3-0.2-0.3-0.4
	c-0.1-0.2,0-0.4,0-0.6c0-7.2,0-14.4,0-21.6c0-0.3,0-0.6,0-0.9C73.9,35.1,75.2,35.1,76.5,35.1z"/>
<path d="M158.1,56.9c0,1.3,0,2.7,0,4c0,1.3,0,2.7,0,4.1c-1.3,0-2.5,0-3.9,0c0-7.4,0-14.9,0-22.4c1,0,2.1,0,3.3,0
	c0.1,0.8,0.2,1.5,0.2,2.4c0.2-0.2,0.4-0.4,0.5-0.5c2.8-3.3,7.8-3.1,10.3,0.4c2.1,3,2.1,8.2-0.1,11.2c-1.8,2.5-5.2,3.5-7.9,2.3
	C159.6,58.1,158.9,57.5,158.1,56.9z M158.1,50.7C158.1,50.7,158.1,50.7,158.1,50.7c0.1,0.5,0.1,1,0.1,1.5c0.1,1.8,1.2,3.2,2.9,3.6
	c1.7,0.4,3.4-0.3,4.2-1.9c1-2.1,1.1-4.3,0.1-6.4c-0.7-1.5-2.3-2.3-3.8-2.1c-1.6,0.2-2.9,1.5-3.2,3.1
	C158.1,49.1,158.1,49.9,158.1,50.7z"/>
<path d="M105.1,48.1c0.2-1.7-0.9-3-2.7-3.1c-1.7-0.1-3.3,0.3-4.9,1.1c-0.2-0.8-0.5-1.5-0.7-2.3c0-0.1,0.2-0.4,0.3-0.5
	c2.7-1.2,5.4-1.6,8.2-0.7c2.2,0.7,3.5,2.7,3.6,5.3c0.1,1.8,0,3.6,0,5.3c0,1.7,0.1,3.4,0.1,5.2c-1.1,0-2.2,0-3.4,0
	c-0.1-0.5-0.2-1.1-0.4-1.7c-0.2,0.2-0.4,0.4-0.5,0.5c-1.7,1.6-4.5,2.1-6.6,1.2c-3.2-1.4-3.7-6.1-0.8-8.3c1.5-1.2,3.2-1.6,5-1.8
	C103.4,48.2,104.3,48.1,105.1,48.1z M105.4,50.7c-0.6,0-1.1-0.1-1.6,0c-1,0.2-2,0.4-3,0.9c-1,0.5-1.3,1.4-1.2,2.5
	c0.1,0.9,0.5,1.5,1.4,1.8c1.6,0.6,3.8-0.4,4.2-2.1C105.4,52.9,105.3,51.8,105.4,50.7z"/>
<path d="M83.3,51.6c-0.2,2,1.2,3.7,3.4,4.1c1.8,0.4,3.5,0.1,5.3-0.3c0.2,0,0.4-0.1,0.7-0.2c0.2,0.9,0.4,1.7,0.6,2.7
	c-1,0.2-2,0.5-3,0.7c-1.8,0.3-3.6,0.3-5.4-0.2c-2.8-0.8-4.5-2.6-5.2-5.5c-0.6-2.5-0.3-4.8,1-7.1c2.1-3.8,6.4-4.5,9.5-3.2
	c2.4,1,3.4,3,3.8,5.4C94,49,94,49.9,94,50.8c0,0.6-0.2,0.8-0.9,0.8c-3,0-6,0-9.1,0C83.8,51.6,83.6,51.6,83.3,51.6z M90.3,48.8
	c0-1.4-0.4-2.7-1.6-3.5c-1.2-0.8-2.5-0.7-3.7,0c-1.2,0.8-1.7,2-1.9,3.4C85.6,48.8,87.9,48.8,90.3,48.8z"/>
<path d="M132.9,55.6c0,0.8,0,1.6,0,2.4c0,0.2-0.2,0.5-0.4,0.5c-1.3,0.3-2.6,0.4-3.9,0.1c-1.9-0.5-3.1-1.9-3.2-4.1
	c-0.1-2.7-0.1-5.4-0.1-8.1c0-0.3,0-0.6,0-1c-0.8,0-1.4,0-2.2,0c0-1,0-1.9,0-2.9c0.7,0,1.4,0,2.2,0c0-0.9,0-1.7,0-2.5
	c0-0.2,0.2-0.5,0.3-0.6c1.1-0.4,2.3-0.7,3.5-1c0,1.1,0.1,2.2,0,3.2c0,0.8,0.2,1,1,0.9c0.9-0.1,1.9,0,2.9,0c0,0.9,0,1.9,0,2.9
	c-1,0-2,0-3,0c-0.7,0-0.9,0.2-0.9,0.9c0.1,2.4,0,4.8,0.1,7.2c0.1,1.6,0.8,2.1,2.4,2.1C132.1,55.6,132.4,55.6,132.9,55.6z"/>
<path d="M69.6,55.2c0.2,0.8,0.3,1.6,0.5,2.4c0,0.2-0.2,0.5-0.3,0.6c-3,0.9-5.9,1.1-8.7-0.6c-2.3-1.3-3.4-3.5-3.5-6.1
	c-0.1-1.3,0.1-2.7,0.5-3.9c1.1-3.3,3.6-4.9,6.9-5.3c1.6-0.2,3.2-0.1,4.7,0.4c0.5,0.1,0.6,0.4,0.5,0.8c-0.2,0.7-0.4,1.5-0.6,2.3
	c-2.7-0.7-5.3-1-7.1,1.6c-1.3,1.8-1.2,4.7,0.1,6.4C64.3,56.3,66.8,56,69.6,55.2z"/>
<path d="M112.8,42.6c0.9,0,1.9,0,2.9,0c0.2,0,0.4,0.3,0.4,0.5c0.1,0.5,0,1.1,0.1,1.6c0,0.2,0.1,0.5,0.1,0.8c2.1-3,3.4-3.7,5.4-3.2
	c0,1.1,0,2.3,0,3.6c-0.6,0-1.2-0.1-1.7,0c-2,0.3-3.2,1.8-3.2,4.2c0,2.5,0,5,0,7.5c0,0.7-0.2,1-0.9,0.9c-0.8-0.1-1.5,0-2.3,0
	c-0.6,0-0.8-0.2-0.8-0.8c0-3.8,0-7.6,0-11.3C112.8,45.2,112.8,43.9,112.8,42.6z"/>
<path d="M135.5,42.6c0.9,0,1.9,0,2.8,0c0.5,0,0.5,0.3,0.5,0.6c0,0.7,0.1,1.5,0.2,2.3c1.1-2.2,2.7-3.5,5.4-3.2c0,1.2,0,2.4,0,3.6
	c-0.6,0-1.2-0.1-1.8,0c-1.9,0.3-3.1,1.8-3.1,4c0,2.6,0,5.2,0,7.7c0,0.7-0.2,0.9-0.9,0.8c-0.8,0-1.6,0-2.3,0c-0.6,0-0.8-0.2-0.8-0.7
	c0-3.9,0-7.8,0-11.8C135.5,44.9,135.5,43.8,135.5,42.6z"/>
<path d="M146.5,42.6c1.3,0,2.5,0,3.8,0c0,0.2,0,0.5,0,0.7c0,4.8,0,9.6,0,14.5c0,0.6-0.2,0.8-0.8,0.8c-0.9,0-1.7,0-2.6,0
	c-0.4,0-0.6-0.1-0.6-0.5c0-5,0-10.1,0-15.1C146.5,42.8,146.5,42.7,146.5,42.6z"/>
<path d="M146.2,38c0-1.3,1-2.2,2.3-2.1c1.2,0,2.2,0.9,2.2,2.2c0,1.2-1,2.2-2.3,2.2C147.1,40.1,146.2,39.2,146.2,38z"/>
</svg>
