<?xml version="1.0" encoding="utf-8"?>
<!-- Generator: Adobe Illustrator 20.1.0, SVG Export Plug-In . SVG Version: 6.00 Build 0)  -->
<svg version="1.1" id="Layer_1" xmlns="http://www.w3.org/2000/svg" xmlns:xlink="http://www.w3.org/1999/xlink" x="0px" y="0px"
	 viewBox="0 0 200 200" style="enable-background:new 0 0 200 200;" xml:space="preserve">
<g>
	<g>
		<g>
			<path d="M100,168.3c-15.7,0-30.4-5.2-42.7-15l2.8-3.4c11.4,9.2,25.3,14,39.9,14c14.7,0,28.5-4.8,39.9-14l2.8,3.4
				C130.4,163.1,115.7,168.3,100,168.3z"/>
			<path d="M57.3,153.3C41,140.3,31.7,120.8,31.7,100c0-37.7,30.6-68.3,68.3-68.3s68.3,30.6,68.3,68.3c0,20.8-9.3,40.3-25.6,53.3
				l-2.8-3.4c15.2-12.2,24-30.4,24-49.9c0-35.2-28.7-63.9-63.9-63.9S36.1,64.8,36.1,100c0,19.5,8.7,37.7,24,49.9L57.3,153.3z"/>
		</g>
		<path d="M56.1,114.3c-8.8,0-16-7.2-16-16s7.2-16,16-16s16,7.2,16,16S64.9,114.3,56.1,114.3z M56.1,86.7c-6.4,0-11.6,5.2-11.6,11.6
			c0,6.4,5.2,11.6,11.6,11.6c6.4,0,11.6-5.2,11.6-11.6S62.5,86.7,56.1,86.7z"/>
		<path d="M72.1,127.3c-4.3-4.2-10-6.4-16-6.4c-5.7,0-11.2,2.1-15.4,5.9l-3-3.3c5-4.6,11.6-7.1,18.4-7.1c7.1,0,13.9,2.7,19,7.7
			L72.1,127.3z"/>
		<path d="M143.9,114.3c-8.8,0-16-7.2-16-16s7.2-16,16-16s16,7.2,16,16S152.7,114.3,143.9,114.3z M143.9,86.7
			c-6.4,0-11.6,5.2-11.6,11.6c0,6.4,5.2,11.6,11.6,11.6c6.4,0,11.6-5.2,11.6-11.6C155.5,91.9,150.3,86.7,143.9,86.7z"/>
		<path d="M128,127.2l-3-3.2c5.1-4.8,11.8-7.5,18.9-7.5c6.8,0,13.3,2.5,18.4,7.1l-3,3.3c-4.2-3.8-9.7-5.9-15.4-5.9
			C138,120.9,132.3,123.1,128,127.2z"/>
		<path d="M100,114.3c-14,0-25.3-11.4-25.3-25.3S86,63.6,100,63.6S125.3,75,125.3,89S114,114.3,100,114.3z M100,68
			C88.5,68,79.1,77.4,79.1,89c0,11.5,9.4,20.9,20.9,20.9s20.9-9.4,20.9-20.9C120.9,77.4,111.5,68,100,68z"/>
		<path d="M60.8,152.1l-4.3-1c4.7-20.4,22.5-34.6,43.5-34.6c20.9,0,38.8,14.2,43.5,34.6l-4.3,1c-4.2-18.4-20.3-31.2-39.2-31.2
			C81.2,120.9,65.1,133.7,60.8,152.1z"/>
	</g>
</g>
</svg>
