
<svg class="icon-development" version="1.1" id="Layer_1" xmlns="http://www.w3.org/2000/svg" xmlns:xlink="http://www.w3.org/1999/xlink" x="0px" y="0px"
	 viewBox="0 0 100 100" style="enable-background:new 0 0 100 100;" xml:space="preserve">
<g id="Forma_1">
	<path class="st0" d="M38.5,45.6c-0.4-0.6-1.2-0.8-1.8-0.4L21.9,54c-0.4,0.2-0.6,0.6-0.6,1.1c0,0.4,0.2,0.9,0.6,1.1L36.7,65
		c0.2,0.1,0.4,0.2,0.7,0.2c0.4,0,0.9-0.2,1.1-0.6c0.4-0.6,0.2-1.4-0.4-1.8l-13-7.8l13-7.8C38.6,47,38.8,46.2,38.5,45.6z M61.5,64.6
		c0.2,0.4,0.7,0.6,1.1,0.6c0.2,0,0.4-0.1,0.7-0.2l14.9-8.8c0.4-0.2,0.6-0.6,0.6-1.1c0-0.4-0.2-0.9-0.6-1.1l-14.9-8.8
		c-0.6-0.4-1.4-0.2-1.8,0.4S61.4,47,62,47.3l13,7.8l-13,7.8C61.4,63.2,61.2,64,61.5,64.6z M54.9,45.5L43,63.2
		c-0.4,0.6-0.2,1.4,0.4,1.8c0.2,0.1,0.5,0.2,0.7,0.2c0.4,0,0.8-0.2,1.1-0.6L57,47c0.4-0.6,0.2-1.4-0.4-1.8
		C56.1,44.8,55.3,44.9,54.9,45.5z M88.7,67.4c0.7,0,1.3-0.6,1.3-1.3v-51c0-0.7-0.6-1.3-1.3-1.3H11.3c-0.7,0-1.3,0.6-1.3,1.3v69.7
		c0,0.7,0.6,1.3,1.3,1.3h77.4c0.7,0,1.3-0.6,1.3-1.3V71.2c0-0.7-0.6-1.3-1.3-1.3s-1.3,0.6-1.3,1.3v12.3H12.5v-57h74.9v39.5
		C87.4,66.9,88,67.4,88.7,67.4z M59.8,24.1H12.5v-7.7h47.2L59.8,24.1L59.8,24.1z M62.3,24.1v-7.7h25.1v7.7H62.3z M74.9,18.9
		c-0.7,0-1.4,0.6-1.4,1.4c0,0.7,0.6,1.4,1.4,1.4c0.7,0,1.4-0.6,1.4-1.4C76.3,19.5,75.7,18.9,74.9,18.9z M68,18.9
		c-0.7,0-1.4,0.6-1.4,1.4c0,0.7,0.6,1.4,1.4,1.4c0.7,0,1.4-0.6,1.4-1.4C69.3,19.5,68.7,18.9,68,18.9z M81.9,18.9
		c-0.7,0-1.4,0.6-1.4,1.4c0,0.7,0.6,1.4,1.4,1.4c0.7,0,1.4-0.6,1.4-1.4C83.3,19.5,82.7,18.9,81.9,18.9z"/>
</g>
</svg>
