<svg version="1.1" id="Layer_1" xmlns="http://www.w3.org/2000/svg" xmlns:xlink="http://www.w3.org/1999/xlink" x="0px" y="0px"
	 viewBox="0 0 100 100" style="enable-background:new 0 0 100 100;" xml:space="preserve">
	<g>
		<path class="st0" d="M50,21.8c-13.9,0-25.2,11.3-25.2,25.2c0,10.5,6.5,19.9,16.3,23.6v13.5c0,0.8,0.7,1.5,1.5,1.5h1.5v3
			c0,0.8,0.7,1.5,1.5,1.5h8.9c0.8,0,1.5-0.7,1.5-1.5v-3h1.5c0.8,0,1.5-0.7,1.5-1.5V70.5c9.8-3.7,16.3-13,16.3-23.6
			C75.2,33,63.9,21.8,50,21.8z M55.9,82.5h-1.5c-0.8,0-1.5,0.7-1.5,1.5v3H47v-3c0-0.8-0.7-1.5-1.5-1.5H44v-7.4h11.8v7.4H55.9z
			 M56.9,68c-0.6,0.2-1,0.8-1,1.4v2.7H44.1v-2.7c0-0.6-0.4-1.2-1-1.4C34,65,27.8,56.5,27.8,46.9c0-12.3,10-22.2,22.2-22.2
			s22.2,10,22.2,22.2C72.2,56.6,66.1,65,56.9,68z M50,18.8c0.8,0,1.5-0.7,1.5-1.5v-5.9c0-0.8-0.7-1.5-1.5-1.5s-1.5,0.7-1.5,1.5v5.9
			C48.5,18.1,49.2,18.8,50,18.8z M85.5,45.5h-5.9c-0.8,0-1.5,0.7-1.5,1.5s0.7,1.5,1.5,1.5h5.9c0.8,0,1.5-0.7,1.5-1.5
			C87,46.1,86.3,45.5,85.5,45.5z M20.4,45.5h-5.9c-0.8,0-1.5,0.6-1.5,1.4s0.7,1.5,1.5,1.5h5.9c0.8,0,1.5-0.7,1.5-1.5
			S21.2,45.5,20.4,45.5z M74.1,20.7l-4.2,4.2c-0.6,0.6-0.6,1.5,0,2.1c0.3,0.3,0.7,0.4,1,0.4c0.4,0,0.8-0.1,1-0.4l4.2-4.2
			c0.6-0.6,0.6-1.5,0-2.1C75.6,20.2,74.6,20.2,74.1,20.7z M28,66.8L23.8,71c-0.6,0.6-0.6,1.5,0,2.1c0.3,0.3,0.7,0.4,1,0.4
			c0.4,0,0.8-0.1,1-0.4l4.2-4.2c0.6-0.6,0.6-1.5,0-2.1C29.5,66.3,28.6,66.3,28,66.8z M72,66.8c-0.6-0.6-1.5-0.6-2.1,0
			s-0.6,1.5,0,2.1l4.2,4.2c0.3,0.3,0.7,0.4,1,0.4c0.4,0,0.8-0.1,1-0.4c0.6-0.6,0.6-1.5,0-2.1L72,66.8z M28,27c0.3,0.3,0.7,0.4,1,0.4
			s0.8-0.1,1-0.4c0.6-0.6,0.6-1.5,0-2.1l-4.2-4.2c-0.6-0.6-1.5-0.6-2.1,0c-0.6,0.6-0.6,1.5,0,2.1L28,27z M50,29.2
			c-9.8,0-17.8,8-17.8,17.8c0,0.8,0.7,1.5,1.5,1.5s1.5-0.7,1.5-1.5c0-8.2,6.6-14.8,14.8-14.8c0.8,0,1.5-0.7,1.5-1.5
			C51.5,29.8,50.8,29.2,50,29.2z"/>
	</g>
</svg>
