<?xml version="1.0" encoding="utf-8"?>
<!-- Generator: Adobe Illustrator 20.1.0, SVG Export Plug-In . SVG Version: 6.00 Build 0)  -->
<svg version="1.1" id="Layer_1" xmlns="http://www.w3.org/2000/svg" xmlns:xlink="http://www.w3.org/1999/xlink" x="0px" y="0px"
	 viewBox="0 0 200 200" style="enable-background:new 0 0 200 200;" xml:space="preserve">
<g>
	<g>
		<path d="M94.1,139.1c-28.6,0-52-23.3-52-52c0-28.6,23.3-52,52-52s52,23.3,52,52C146.1,115.8,122.8,139.1,94.1,139.1z M94.1,41.1
			c-25.4,0-46.1,20.7-46.1,46.1c0,25.4,20.7,46,46.1,46s46.1-20.7,46.1-46C140.2,61.8,119.5,41.1,94.1,41.1z"/>
	</g>
	<g>
		<path d="M93.8,151c-9.1,0-18.4-2.1-27.5-6.2l2.4-5.4c8.9,4,17.9,5.9,26.7,5.6c21.7-0.6,41.7-13.5,50.9-32.8
			c13.7-29,1.3-63.8-27.5-77.5l2.5-5.3c31.8,15.1,45.4,53.4,30.3,85.4c-10.1,21.4-32.1,35.6-56,36.2C95,150.9,94.4,151,93.8,151z"/>
	</g>
	<g>
		<rect x="91.2" y="148" width="5.9" height="19.8"/>
	</g>
	<g>
		<rect x="72" y="164.8" width="44" height="5.9"/>
	</g>
</g>
</svg>
