<?xml version="1.0" encoding="utf-8"?>
<!-- Generator: Adobe Illustrator 19.2.1, SVG Export Plug-In . SVG Version: 6.00 Build 0)  -->
<svg version="1.1" id="Layer_1" xmlns="http://www.w3.org/2000/svg" xmlns:xlink="http://www.w3.org/1999/xlink" x="0px" y="0px"
	 viewBox="0 0 450 125.5" style="enable-background:new 0 0 450 125.5;" xml:space="preserve">
<style type="text/css">
	.st0{clip-path:url(#SVGID_2_);}
	.st1{fill:#FFFFFF;}
	.st2{fill:#888888;}
	.st3{fill:#FBB03B;}
	.st4{fill:#94C7EB;}
</style>
<g>
	<defs>
		<rect id="SVGID_1_" x="35.5" y="-3.4" width="379" height="128.9"/>
	</defs>
	<clipPath id="SVGID_2_">
		<use xlink:href="#SVGID_1_"  style="overflow:visible;"/>
	</clipPath>
	<g class="st0">
		<g>
			<path class="st1" d="M229,86.3c0,16.7-9.1,21.4-20.3,21.6c-15.9,0.4-20.3-5-20.3-21.6s5.5-20.6,19.2-19.4
				c2.7,0.2,1.4,6.1,5.1,8.1C217.5,77.6,229,77,229,86.3z"/>
		</g>
		<g>
			<path class="st2" d="M229,86.3h-0.2c0,8.3-2.3,13.6-5.9,16.8c-3.6,3.2-8.6,4.5-14.2,4.6c-0.5,0-1,0-1.4,0c-3.7,0-6.7-0.3-9.1-1.1
				c-3.6-1.1-6-3.2-7.5-6.5c-1.5-3.3-2.1-7.8-2.1-13.9c0-7.4,1.1-12.3,3.5-15.2c1.2-1.5,2.7-2.5,4.6-3.2c1.9-0.7,4.1-1,6.8-1
				c1.3,0,2.6,0.1,4.1,0.2c0.3,0,0.5,0.1,0.7,0.3c0.3,0.3,0.6,0.8,0.8,1.4c0.3,1,0.6,2.2,1,3.4c0.5,1.2,1.2,2.3,2.5,3
				c1.2,0.7,2.9,1.1,4.6,1.6c2.6,0.7,5.6,1.4,7.8,2.7c1.1,0.7,2.1,1.5,2.7,2.6c0.7,1.1,1.1,2.5,1.1,4.2H229h0.2
				c0-2.4-0.7-4.2-1.9-5.5c-1.8-2-4.5-3-7.3-3.8c-2.7-0.8-5.5-1.3-7.2-2.2c-0.9-0.5-1.5-1.2-1.9-2c-0.6-1.2-0.9-2.7-1.3-3.8
				c-0.2-0.6-0.4-1.1-0.7-1.5c-0.3-0.4-0.8-0.7-1.3-0.8c-1.5-0.1-2.9-0.2-4.1-0.2c-2.7,0-5,0.3-6.9,1c-2.9,1-5,3-6.4,6
				c-1.3,3.1-2,7.2-2,12.8c0,8.1,1,13.6,4,17c1.5,1.7,3.4,3,5.9,3.7c2.5,0.8,5.5,1.1,9.2,1.1c0.5,0,1,0,1.4,0
				c5.6-0.1,10.8-1.4,14.5-4.7c3.7-3.4,6-8.8,6-17.1H229z"/>
		</g>
		<g>
			<path class="st1" d="M218.7,62.5c1.1,1.6,9.9,6.1,10.6,7c0.7,0.9-5.6,17.5-5.6,32.9c-2.6,1.3-2.9,0.8-5.2,0.6
				c-1.6-3.1-13-10.6-13.8-13.8c0-2.3-0.2-12.1-0.2-12.1s0.2,5.7,0.2,11.9c0,2.5,10.9,10.6,13.2,12.5l-2.5,2.6
				c-14.9-4.8-18.9-9.8-18.9-9.8s-1.6-25.3,0.2-27.5c1.6-1.9,1.5-1.7,5.4-4.1c3.4-2.1,3.8-5.7,4.8-10.8l-1.8,8.4
				c2.7,4.2,10,19.3,13.7,2.1"/>
		</g>
		<g>
			<path class="st2" d="M218.5,62.6c0.2,0.2,0.4,0.5,0.8,0.8c1.2,1,3.6,2.4,5.6,3.6c1,0.6,2,1.2,2.8,1.7c0.4,0.2,0.7,0.4,0.9,0.6
				c0.2,0.2,0.4,0.3,0.5,0.4l0.1,0l-0.1,0l0,0l0.1,0l-0.1,0l0,0l0,0l0,0l0,0l0,0c0,0,0,0.1,0,0.2c0,0.3-0.1,0.8-0.2,1.4
				c-0.5,2.4-1.9,7-3.1,12.6c-1.2,5.6-2.3,12.2-2.3,18.6h0.2l-0.1-0.2c-1.4,0.7-2,0.9-2.7,0.9c-0.6,0-1.3-0.2-2.4-0.3l0,0.2l0.2-0.1
				c-0.4-0.8-1.4-1.9-2.7-3.1c-2-1.8-4.6-3.9-6.8-5.8c-1.1-1-2.1-1.9-2.9-2.7c-0.8-0.8-1.3-1.6-1.4-2.1l-0.2,0.1l0.2,0
				c0-0.2,0-0.4,0-0.6c0-3-0.2-11.5-0.2-11.5l-0.2,0l-0.2,0c0,0,0,0.4,0,1c0.1,1.9,0.2,6.3,0.2,10.9c0,0.4,0.2,0.8,0.5,1.3
				c0.5,0.8,1.5,1.8,2.6,2.9c1.7,1.6,3.9,3.4,5.8,5c1.9,1.5,3.6,2.8,4.3,3.4l0.1-0.2l-0.2-0.2l-2.5,2.6l0.2,0.2l0.1-0.2
				c-7.4-2.4-12.1-4.8-14.9-6.7c-1.4-0.9-2.4-1.7-3-2.2c-0.3-0.3-0.5-0.5-0.6-0.6c-0.1-0.1-0.1-0.1-0.1-0.2l0,0l0,0l-0.2,0.1l0.2,0
				c0,0,0-0.6-0.1-1.7C196.4,89.2,196,82,196,76c0-2.3,0.1-4.4,0.2-6c0.1-0.8,0.2-1.5,0.3-2.1c0.1-0.5,0.3-0.9,0.4-1.1
				c0.8-1,1.2-1.4,1.8-1.9c0.6-0.5,1.6-1,3.5-2.2c1.8-1.1,2.7-2.6,3.4-4.4c0.7-1.8,1-4,1.5-6.5l-0.4-0.1l-1.8,8.5l0.1,0.1
				c0.9,1.3,2.3,3.9,3.9,6.1c0.8,1.1,1.7,2.1,2.5,2.9c0.9,0.8,1.8,1.3,2.7,1.3c0.5,0,1-0.1,1.5-0.5c0.7-0.5,1.3-1.3,1.9-2.5
				c0.6-1.3,1.1-3,1.6-5.2l-0.4-0.1c-0.6,3-1.4,4.9-2.2,6.2c-0.4,0.6-0.8,1-1.2,1.3c-0.4,0.3-0.8,0.4-1.2,0.4
				c-0.8,0-1.6-0.4-2.4-1.1c-1.3-1.1-2.5-2.8-3.6-4.5c-1.1-1.7-2-3.4-2.7-4.4l-0.2,0.1l0.2,0l1.8-8.4l-0.2,0l-0.2,0
				c-0.5,2.5-0.9,4.7-1.5,6.5c-0.6,1.8-1.6,3.1-3.2,4.2c-1.9,1.2-2.9,1.7-3.6,2.2c-0.7,0.5-1.1,1-1.9,1.9c-0.2,0.3-0.4,0.7-0.5,1.3
				c-0.4,1.7-0.5,4.7-0.5,8.2c0,8,0.7,18.2,0.7,18.2l0,0.1l0,0.1c0,0,4.1,5.1,19,9.9l0.1,0l2.8-2.9l-0.2-0.2c-1.1-1-4.4-3.4-7.4-6
				c-1.5-1.3-2.9-2.6-4-3.7c-0.5-0.6-1-1.1-1.2-1.5c-0.3-0.4-0.4-0.8-0.4-1c0-6.2-0.2-11.9-0.2-11.9l-0.5,0c0,0,0,0.5,0,1.4
				c0,2.5,0.1,7.9,0.1,10.2c0,0.2,0,0.4,0,0.6l0,0l0,0c0.1,0.4,0.4,0.9,0.8,1.5c1.4,1.8,4.4,4.3,7.1,6.6c1.4,1.2,2.7,2.3,3.8,3.3
				c1.1,1,1.9,1.9,2.2,2.5l0.1,0.1l0.1,0c1.1,0.1,1.8,0.3,2.5,0.3c0.8,0,1.5-0.2,2.9-0.9l0.1-0.1v-0.1c0-7.2,1.4-14.8,2.8-20.8
				c0.7-3,1.4-5.6,1.9-7.7c0.3-1,0.5-1.9,0.6-2.6c0.2-0.7,0.2-1.2,0.2-1.5c0-0.2,0-0.3-0.1-0.4c-0.1-0.1-0.1-0.2-0.3-0.3
				c-0.4-0.3-1.2-0.8-2.2-1.4c-1.4-0.9-3.3-1.9-4.9-2.9c-0.8-0.5-1.5-1-2.1-1.4c-0.6-0.4-1-0.8-1.2-1L218.5,62.6L218.5,62.6z"/>
		</g>
		<g>
			<path class="st1" d="M162.7,86.3c0,16.7-9.1,21.4-20.3,21.6c-15.9,0.4-20.3-5-20.3-21.6S128.6,66,142.4,66
				C153.6,66,162.7,69.7,162.7,86.3z"/>
		</g>
		<g>
			<path class="st2" d="M162.7,86.3h-0.2c0,8.3-2.3,13.6-5.9,16.8c-3.6,3.2-8.6,4.5-14.2,4.6c-0.5,0-1,0-1.4,0
				c-3.7,0-6.7-0.3-9.1-1.1c-3.6-1.1-6-3.2-7.5-6.5c-1.5-3.3-2.1-7.8-2.1-13.9c0-4.1,0.4-7.4,1.2-10.1c1.2-4,3.3-6.5,6.4-8
				c3.1-1.5,7.1-2,12.2-2c0.1,0,0.2,0,0.3,0c5.6,0,10.6,0.9,14.2,3.9c1.8,1.5,3.3,3.5,4.3,6.1c1,2.7,1.6,6,1.6,10.1H162.7h0.2
				c0-4.2-0.6-7.6-1.6-10.3c-1.6-4.1-4.2-6.7-7.5-8.2c-3.3-1.5-7.2-2.1-11.5-2.1c-0.1,0-0.2,0-0.3,0c-6.8,0-11.9,0.9-15.3,4
				c-1.7,1.5-2.9,3.6-3.8,6.3c-0.8,2.7-1.2,6.1-1.2,10.2c0,8.1,1,13.6,4,17c1.5,1.7,3.4,3,5.9,3.7c2.5,0.8,5.5,1.1,9.2,1.1
				c0.5,0,1,0,1.4,0c5.6-0.1,10.8-1.4,14.5-4.7c3.7-3.4,6-8.8,6-17.1H162.7z"/>
		</g>
		<g>
			<rect x="39.8" y="101.6" class="st1" width="336.3" height="7.5"/>
		</g>
		<g>
			<polygon class="st2" points="376.1,109.1 376.1,108.9 40,108.9 40,101.8 375.9,101.8 375.9,109.1 376.1,109.1 376.1,108.9 
				376.1,109.1 376.4,109.1 376.4,101.4 39.6,101.4 39.6,109.3 376.4,109.3 376.4,109.1 			"/>
		</g>
		<g>
			<path class="st3" d="M132.4,64.1c1.7-1.6,0.9-3.3,2.4-6.9c2.6-6.7-2.1-11.3,0.5-18.2c0.3-0.8,3.7-8.4,8.9-9.5
				c2.2-0.5,3.8,0,4.9,1.2c0.9-0.9,2.6-1.8,5.2-1.2c5.4,1.1,8.4,8.1,8.7,9.6c2.2,8.7-0.9,9.9-0.2,16.4c0.5,4.5,2.9,8.2,3.4,8.2
				c-3.3,8.7-9.2,5.4-18.5,5.1C138.5,68.4,134.5,70.7,132.4,64.1z"/>
		</g>
		<g>
			<path class="st1" d="M145.7,54.8c0,0,1,7.3-2.4,8.9c-3.3,1.6-11.4,0.5-11.6,17.1c-0.1,8.3-0.1,15.9-0.1,15.9h38.9
				c0,0,0.2-8.6,0.2-14c-0.7-12.5-0.6-15.5-10.8-18.6c-3.5-1.1-4.4-1.8-4.6-9.1L145.7,54.8z"/>
		</g>
		<g>
			<path class="st2" d="M145.7,54.8l-0.2,0c0,0,0,0.1,0,0.2c0,0.3,0.1,1.1,0.1,2.1c0,1.1-0.1,2.5-0.4,3.7c-0.2,0.6-0.4,1.2-0.7,1.6
				c-0.3,0.5-0.7,0.8-1.2,1.1c-0.8,0.4-1.9,0.6-3.2,1c-1.9,0.6-4,1.5-5.7,3.9c-1.7,2.4-2.8,6.2-2.9,12.4c-0.1,8.3-0.1,15.9-0.1,15.9
				V97h39.3l0-0.2c0,0,0.2-6.2,0.2-11.3c0-0.9,0-1.8,0-2.7l0,0l0,0c-0.3-6.2-0.5-10.1-1.9-12.9c-0.7-1.4-1.7-2.5-3.2-3.4
				c-1.5-0.9-3.4-1.7-5.9-2.5c-0.9-0.3-1.6-0.5-2.1-0.8c-0.8-0.5-1.4-1.1-1.7-2.3c-0.4-1.2-0.5-3-0.6-5.8l0-0.2l-10-0.2l0,0.3
				L145.7,54.8l0,0.2l9.6,0.2l0-0.2l-0.2,0c0.1,3.7,0.4,5.7,1.1,7c0.4,0.7,0.9,1.1,1.5,1.5c0.6,0.4,1.3,0.6,2.2,0.9
				c2.5,0.8,4.4,1.6,5.8,2.5c2.1,1.4,3.2,3,3.8,5.5c0.6,2.5,0.8,5.8,1,10.5l0.2,0l-0.2,0c0,0.8,0,1.7,0,2.7c0,2.6,0,5.4-0.1,7.6
				c0,1.1,0,2-0.1,2.7c0,0.7,0,1,0,1l0.2,0v-0.2h-38.9v0.2h0.2c0,0,0-0.5,0-1.3c0-2.5,0-8.4,0.1-14.6c0-4.1,0.6-7.1,1.4-9.4
				c1.2-3.3,3.1-4.9,5-5.8c1.9-0.9,3.8-1.1,5.1-1.7c0.6-0.3,1-0.7,1.4-1.2c1-1.6,1.3-3.9,1.3-5.6c0-1.3-0.1-2.3-0.1-2.3L145.7,54.8
				l0,0.2L145.7,54.8z"/>
		</g>
		<g>
			<path class="st4" d="M141.9,64.2c-3.3,1.6-9.8,1.9-10.1,7.4c-0.3,8.3-0.2,25.2-0.2,25.2h38.9c0,0,0.4-19.4,0.3-24.8
				c0.1-3.4-4.3-5.8-10.9-7.8C156.7,68,149,76.6,141.9,64.2z"/>
		</g>
		<g>
			<path class="st2" d="M141.9,64.2l-0.1-0.2c-1.6,0.8-4.1,1.3-6.2,2.2c-1.1,0.5-2,1.1-2.7,2c-0.7,0.9-1.2,2-1.2,3.4
				c-0.2,4.6-0.2,11.8-0.2,17.3c0,4.5,0,7.9,0,7.9l0,0.2h39.3l0-0.2c0,0,0.3-15.7,0.3-22.8c0-0.8,0-1.5,0-2l-0.2,0l0.2,0
				c0-0.1,0-0.1,0-0.2c0-0.9-0.3-1.7-0.8-2.5c-0.8-1.1-2.2-2.1-3.9-3c-1.8-0.9-3.9-1.7-6.4-2.4l-0.1,0l-0.1,0.1
				c-1,1.2-2.4,2.8-4,4.1c-1.7,1.3-3.6,2.3-5.6,2.3c-1.3,0-2.6-0.4-3.9-1.4c-1.3-1-2.7-2.6-4.1-5l-0.1-0.2l-0.2,0.1L141.9,64.2
				l-0.2,0.1c1.4,2.4,2.8,4.1,4.2,5.1c1.4,1,2.8,1.5,4.2,1.5c2.2,0,4.2-1.1,5.9-2.4c1.7-1.4,3.1-3,4.1-4.2l-0.2-0.1l-0.1,0.2
				c3.2,1,6,2.1,7.9,3.3c0.9,0.6,1.7,1.3,2.2,2c0.5,0.7,0.8,1.4,0.8,2.2c0,0.1,0,0.1,0,0.2l0,0l0,0c0,0.5,0,1.2,0,2
				c0,3.5-0.1,9.2-0.2,14c0,2.4-0.1,4.6-0.1,6.2c0,1.6,0,2.6,0,2.6l0.2,0v-0.2h-38.9v0.2l0.2,0c0,0,0-0.8,0-2.3c0-1.4,0-3.4,0-5.6
				c0-5.5,0-12.7,0.2-17.3c0.1-1.3,0.5-2.3,1.1-3.1c1-1.2,2.5-1.9,4.2-2.5c1.6-0.6,3.3-1,4.6-1.6L141.9,64.2l-0.2,0.1L141.9,64.2z"
				/>
		</g>
		<g>
			<path class="st1" d="M158.7,48.2c0,5.7-2,10.4-6.1,10.4c-4.1,0-8.7-4.7-8.7-10.4c0-5.7,3.3-10.3,7.4-10.3S158.7,42.5,158.7,48.2z
				"/>
		</g>
		<g>
			<path class="st2" d="M158.7,48.2h-0.2c0,2.8-0.5,5.4-1.5,7.3c-0.5,0.9-1.1,1.7-1.8,2.2c-0.7,0.5-1.6,0.8-2.6,0.8
				c-2,0-4.1-1.1-5.7-3c-1.6-1.9-2.8-4.4-2.8-7.2c0-2.8,0.8-5.3,2.1-7.2c1.3-1.8,3.1-2.9,5.1-2.9c2,0,3.7,1.1,5.1,2.9
				c1.3,1.8,2.1,4.4,2.1,7.2H158.7h0.2c0-2.9-0.8-5.5-2.2-7.4c-1.4-1.9-3.3-3.1-5.4-3.1c-2.1,0-4.1,1.2-5.4,3.1
				c-1.4,1.9-2.2,4.5-2.2,7.4c0,2.9,1.2,5.6,2.9,7.5c1.7,1.9,3.9,3.2,6.1,3.2c1.1,0,2-0.3,2.8-0.9c1.2-0.8,2.1-2.2,2.7-3.9
				c0.6-1.7,0.9-3.7,0.9-5.9H158.7z"/>
		</g>
		<g>
			<path class="st2" d="M161.4,59.2c0.4,1,1,1.8,1.5,2.7l0.4-0.3c-0.6-0.8-1.1-1.7-1.5-2.6L161.4,59.2L161.4,59.2z"/>
		</g>
		<g>
			<path class="st2" d="M150.9,32c0.8-0.7,1.6-1,2.4-1c0.8,0,1.6,0.3,2.4,0.8c1.2,0.8,2.3,2,3.2,3.3c0.9,1.3,1.6,2.6,1.9,3.6
				c0.5,1.5,0.6,2.9,0.6,4.3c0,3.6-1,7.2-1,10.9c0,1.1,0.1,2.3,0.4,3.4l0.4-0.1c-0.3-1.1-0.4-2.2-0.4-3.3c0-3.6,1-7.2,1-10.9
				c0-1.5-0.2-3-0.7-4.5c-0.5-1.4-1.5-3.4-3-5c-0.7-0.8-1.5-1.6-2.4-2.1c-0.8-0.5-1.8-0.9-2.7-0.9c-0.9,0-1.8,0.3-2.7,1.1L150.9,32
				L150.9,32z"/>
		</g>
		<g>
			<path class="st3" d="M143.8,41.7c4.1,3.3,1.6,12.2-1.7,14.3"/>
		</g>
		<g>
			<path class="st2" d="M143.6,41.9c1.4,1.2,2,3.1,2,5.2c0,1.8-0.4,3.7-1.1,5.2c-0.7,1.6-1.6,2.9-2.6,3.5l0.2,0.4
				c1.1-0.7,2-2.1,2.8-3.7c0.7-1.6,1.1-3.6,1.1-5.4c0-2.2-0.6-4.3-2.2-5.6L143.6,41.9L143.6,41.9z"/>
		</g>
		<g>
			<path class="st3" d="M154,35.8c-0.4,5.5,1.3,6.1,5.1,6.5"/>
		</g>
		<g>
			<path class="st2" d="M153.8,35.8c0,0.5-0.1,1-0.1,1.5c0,1.1,0.1,1.9,0.3,2.6c0.3,1,0.9,1.7,1.8,2c0.9,0.4,1.9,0.6,3.2,0.7
				l0.1-0.5c-1.7-0.2-3-0.4-3.8-1.1c-0.4-0.3-0.7-0.8-0.9-1.4c-0.2-0.6-0.3-1.4-0.3-2.4c0-0.4,0-0.9,0.1-1.4L153.8,35.8L153.8,35.8z
				"/>
		</g>
		<g>
			<path class="st3" d="M155.4,33.9c0.5,7.7-9.4,11.2-16.3,8.6"/>
		</g>
		<g>
			<path class="st2" d="M155.2,33.9c0,0.2,0,0.3,0,0.5c0,2.8-1.4,4.9-3.5,6.4c-2.1,1.5-4.9,2.3-7.7,2.3c-1.7,0-3.3-0.3-4.8-0.9
				l-0.2,0.4c1.6,0.6,3.3,0.9,5,0.9c2.9,0,5.8-0.8,8-2.4c2.2-1.5,3.7-3.8,3.7-6.8c0-0.2,0-0.4,0-0.5L155.2,33.9L155.2,33.9z"/>
		</g>
		<g>
			<path class="st2" d="M140.8,68.5c0.5,1.6,1.8,3.3,3.7,4.6c1.9,1.3,4.2,2.3,6.6,2.3c0.1,0,0.1,0,0.2,0c2.8,0,5.1-1.5,6.8-3.2
				c0.8-0.8,1.5-1.7,2-2.5c0.5-0.8,0.8-1.4,1-1.7l-0.4-0.2c-0.1,0.3-0.4,0.9-0.9,1.6c-0.7,1.1-1.9,2.5-3.3,3.6
				c-1.4,1.1-3.2,1.9-5.1,1.9c-0.1,0-0.1,0-0.2,0c-2.3-0.1-4.6-1-6.4-2.2c-1.8-1.3-3.1-2.9-3.5-4.4L140.8,68.5L140.8,68.5z"/>
		</g>
		<g>
			<path class="st1" d="M126.3,101.1V78.2c0-1.8,1.5-3.3,3.3-3.3H173c1.8,0,3.3,1.5,3.3,3.3v22.9H126.3z"/>
		</g>
		<g>
			<path class="st2" d="M126.3,101.1h0.2V78.2c0-0.8,0.3-1.6,0.9-2.1c0.6-0.6,1.3-0.9,2.1-0.9H173c0.8,0,1.6,0.3,2.1,0.9
				c0.6,0.6,0.9,1.3,0.9,2.1v22.7h-49.7V101.1h0.2H126.3v0.2h50.2V78.2c0-1.9-1.6-3.5-3.5-3.5h-43.4c-1.9,0-3.5,1.6-3.5,3.5v23.2
				h0.2V101.1z"/>
		</g>
		<g>
			<path class="st1" d="M61.5,101.1V78.2c0-1.8,1.5-3.3,3.3-3.3h43.4c1.8,0,3.3,1.5,3.3,3.3v22.9H61.5z"/>
		</g>
		<g>
			<path class="st2" d="M61.5,101.1h0.2V78.2c0-0.8,0.3-1.6,0.9-2.1c0.6-0.6,1.3-0.9,2.1-0.9h43.4c0.8,0,1.6,0.3,2.1,0.9
				c0.6,0.6,0.9,1.3,0.9,2.1v22.7H61.5V101.1h0.2H61.5v0.2h50.2V78.2c0-1.9-1.6-3.5-3.5-3.5H64.7c-1.9,0-3.5,1.6-3.5,3.5v23.2h0.2
				V101.1z"/>
		</g>
		<g>
			<path class="st2" d="M129.6,82.3c0,0,0-0.6,0-1.3s0-1.3,0-1.3c0-0.4,0-0.7,0.1-1c0.1-0.4,0.2-0.6,0.5-0.7
				c0.3-0.1,0.7-0.2,1.4-0.2c0.1,0,23.8,0,23.8,0l0-0.5c0,0-5.9,0-11.8,0c-5.9,0-11.9,0-12,0c-0.5,0-0.9,0-1.2,0.1
				c-0.5,0.1-0.9,0.4-1.1,0.8c-0.2,0.4-0.3,0.9-0.3,1.5c0,0.1,0,2.6,0,2.6H129.6L129.6,82.3z"/>
		</g>
		<g>
			<path class="st2" d="M173.8,87.3c0,0,0-7.6,0-7.6c0-0.4,0-0.8-0.1-1.1c-0.1-0.5-0.4-0.8-0.8-1c-0.4-0.2-0.9-0.3-1.6-0.3
				c-0.1,0-1.5,0-1.5,0l0,0.5c0,0,1.4,0,1.5,0c0.5,0,0.8,0,1.1,0.1c0.4,0.1,0.6,0.3,0.8,0.5c0.1,0.3,0.2,0.7,0.2,1.3
				c0,0.1,0,7.6,0,7.6H173.8L173.8,87.3z"/>
		</g>
		<g>
			<path class="st2" d="M109,87.3c0,0,0-7.6,0-7.6c0-0.4,0-0.8-0.1-1.1c-0.1-0.5-0.4-0.8-0.8-1c-0.4-0.2-0.9-0.3-1.6-0.3
				c-0.1,0-1.5,0-1.5,0l0,0.5c0,0,1.4,0,1.5,0c0.5,0,0.8,0,1.1,0.1c0.4,0.1,0.6,0.3,0.8,0.5c0.1,0.3,0.2,0.7,0.2,1.3
				c0,0.1,0,7.6,0,7.6H109L109,87.3z"/>
		</g>
		<g>
			<path class="st2" d="M129.6,86c0-0.7,0-1.5,0-2.2h-0.5c0,0.7,0,1.5,0,2.2H129.6L129.6,86z"/>
		</g>
		<g>
			<path class="st4" d="M152.5,87.1c-0.1,0-0.3-0.1-0.4-0.2c-0.5-0.4-1-0.9-0.9-0.8c0,0.1-0.1,0.8-0.7,1.1c-0.9,0.4-1.7,1.2-1.9,2.2
				c-0.3,1.6,0.8,3.1,2.4,3.3c1.7,0.3,3.3-0.8,3.6-2.4C155,88.9,154,87.5,152.5,87.1z"/>
		</g>
		<g>
			<path class="st2" d="M152.5,87.1l0.1-0.2c-0.1,0-0.2-0.1-0.3-0.1c-0.2-0.2-0.4-0.4-0.6-0.5c-0.1-0.1-0.2-0.1-0.2-0.2l-0.1-0.1
				l0,0l0,0c0,0,0,0-0.1,0c0,0-0.1,0-0.2,0.1c-0.1,0.1-0.1,0.1-0.1,0.2c0,0.1,0,0.1,0,0.1l0,0l0.2-0.1l-0.2,0.1l0.2-0.1l-0.2,0
				c0,0,0,0,0,0.1l0.2-0.1l-0.2,0l0.1,0l-0.1,0l0,0l0.1,0l-0.1,0c0,0,0,0.1,0,0.1c0,0.1-0.1,0.2-0.2,0.4c-0.1,0.1-0.2,0.2-0.4,0.3
				c-1,0.4-1.8,1.2-2,2.3c0,0.2-0.1,0.4-0.1,0.6c0,1.5,1.1,2.8,2.7,3c0.2,0,0.4,0,0.6,0c1.6,0,3-1.1,3.3-2.6c0-0.2,0.1-0.4,0.1-0.6
				c0-1.4-1-2.6-2.4-3L152.5,87.1l-0.1,0.2c1.2,0.3,2,1.4,2,2.5c0,0.2,0,0.3,0,0.5c-0.3,1.3-1.5,2.2-2.8,2.2c-0.2,0-0.3,0-0.5,0
				c-1.4-0.2-2.3-1.3-2.3-2.6c0-0.2,0-0.3,0-0.5c0.2-0.9,0.9-1.6,1.7-2c0.3-0.1,0.5-0.4,0.7-0.6c0.1-0.1,0.1-0.2,0.1-0.3
				c0-0.1,0-0.2,0-0.3l0-0.1c0,0,0,0,0-0.1l0,0l0,0l-0.1,0.1l0.1,0l0,0l-0.1,0.1l0.1,0l-0.2,0.1l0.2,0c0-0.1,0-0.1,0-0.1l-0.2,0.1
				l0.2,0h-0.2l0.2,0.2c0.1-0.1,0.1-0.1,0.1-0.2h-0.2l0.2,0.2l-0.2-0.2v0.2c0,0,0.1,0,0.2-0.1l-0.2-0.2v0.2v-0.2l-0.1,0.2
				c0,0,0,0,0.1,0v-0.2l-0.1,0.2l0.1-0.1l-0.1,0.1l0,0l0.1-0.1l-0.1,0.1c0,0,0,0,0.1,0.1c0.2,0.1,0.5,0.4,0.8,0.7
				c0.1,0.1,0.3,0.2,0.5,0.2L152.5,87.1z"/>
		</g>
		<g>
			<path class="st1" d="M152.8,90.3c0.4,0,0.6-0.3,1.1-0.5c0.7-0.1,0.6,1.5,0,1.5c-0.4,0-0.5-0.8-1-0.7c-0.4,0-1,1.1-2.1,0.9
				c-1.1-0.2-0.6-1.6,0.3-1.7C151.9,89.8,152.5,90.3,152.8,90.3z"/>
		</g>
		<g>
			<path class="st2" d="M152.8,90.3l0,0.2l0.1,0c0.1,0,0.2,0,0.3-0.1c0.3-0.1,0.5-0.3,0.8-0.5l-0.1-0.2l0,0.2l0,0l0.1,0
				c0,0,0.1,0.1,0.1,0.1c0,0.1,0,0.2,0,0.3c0,0.2,0,0.4-0.1,0.5c0,0.1-0.1,0.1-0.1,0.1l-0.1,0l0,0c0,0,0,0-0.1,0
				c-0.1-0.1-0.2-0.2-0.3-0.4c-0.1-0.1-0.1-0.2-0.2-0.2c-0.1-0.1-0.2-0.1-0.4-0.1L152.8,90.3l0.1,0.3l0-0.2l0,0
				c-0.1,0-0.2,0-0.2,0.1c-0.1,0.1-0.2,0.2-0.3,0.2c-0.2,0.1-0.3,0.3-0.5,0.4c-0.2,0.1-0.4,0.2-0.7,0.2c-0.1,0-0.2,0-0.2,0
				c-0.2,0-0.3-0.1-0.4-0.2c-0.1-0.1-0.1-0.2-0.1-0.3c0-0.2,0.1-0.4,0.2-0.5c0.1-0.2,0.3-0.3,0.6-0.3l0-0.2l0,0.2l0.1,0
				c0.3,0,0.6,0.1,0.9,0.2c0.1,0.1,0.2,0.1,0.4,0.2c0.1,0,0.2,0.1,0.3,0.1L152.8,90.3l0,0.2L152.8,90.3l0-0.2l0,0
				c-0.1,0-0.3-0.2-0.6-0.3c-0.3-0.1-0.6-0.2-0.9-0.2l-0.1,0l0,0l0,0c-0.4,0-0.7,0.2-0.9,0.4c-0.2,0.2-0.3,0.5-0.3,0.8
				c0,0.2,0.1,0.4,0.2,0.6c0.1,0.2,0.4,0.3,0.6,0.3c0.1,0,0.2,0,0.3,0c0.6,0,1-0.3,1.3-0.5c0.2-0.1,0.3-0.2,0.4-0.3
				c0,0,0.1-0.1,0.1-0.1l0,0l0,0l0,0v0l0,0l0,0v0v-0.1l0,0.1l0,0v-0.1l0,0.1l0,0l0,0l0,0c0.1,0,0.1,0,0.1,0.1
				c0.1,0.1,0.2,0.2,0.3,0.4c0.1,0.1,0.1,0.1,0.2,0.2c0.1,0.1,0.2,0.1,0.3,0.1l0,0c0.1,0,0.2-0.1,0.3-0.1c0.1-0.1,0.2-0.3,0.3-0.4
				c0.1-0.2,0.1-0.3,0.1-0.5c0-0.2,0-0.4-0.1-0.6c0-0.1-0.1-0.2-0.2-0.2c-0.1-0.1-0.2-0.1-0.3-0.1l-0.1,0l0,0l0,0
				c-0.3,0.1-0.5,0.2-0.7,0.3c-0.1,0.1-0.1,0.1-0.2,0.1c-0.1,0-0.1,0-0.1,0l0,0l0,0l0,0L152.8,90.3z"/>
		</g>
		<g>
			<path class="st2" d="M196.3,127.4c1,0,1.9,0,2.9,0v-0.5c-1,0-1.9,0-2.9,0V127.4L196.3,127.4z"/>
		</g>
		<g>
			<path class="st2" d="M188.6,127.4c1.9,0,3.8,0,5.8,0v-0.5c-1.9,0-3.8,0-5.8,0V127.4L188.6,127.4z"/>
		</g>
		<g>
			<polyline class="st2" points="160.4,127.4 187,127.4 187,126.9 160.4,126.9 			"/>
		</g>
		<g>
			<path class="st2" d="M259.9,118.1c1.3,0,2.5,0,3.8,0v-0.5c-1.3,0-2.5,0-3.8,0V118.1L259.9,118.1z"/>
		</g>
		<g>
			<path class="st2" d="M237,118.1c7.1,0,21.2,0,21.2,0v-0.5c0,0-14.1,0-21.2,0V118.1L237,118.1z"/>
		</g>
		<g>
			<path class="st2" d="M319.2,118.1c1.3,0,2.5,0,3.8,0v-0.5c-1.3,0-2.5,0-3.8,0V118.1L319.2,118.1z"/>
		</g>
		<g>
			<path class="st2" d="M302,118.1c7.1,0,15.5,0,15.5,0v-0.5c0,0-8.4,0-15.5,0V118.1L302,118.1z"/>
		</g>
		<g>
			<path class="st2" d="M293.2,127.6c1.3,0,2.5,0,3.8,0v-0.5c-1.3,0-2.5,0-3.8,0V127.6L293.2,127.6z"/>
		</g>
		<g>
			<path class="st2" d="M257.4,127.6c7.1,0,34,0,34,0v-0.5c0,0-27,0-34,0V127.6L257.4,127.6z"/>
		</g>
		<g>
			<rect x="50.1" y="112.3" class="st3" width="57.5" height="6.8"/>
		</g>
		<g>
			<rect x="94.4" y="120.9" class="st4" width="61.1" height="6.8"/>
		</g>
		<g>
			<rect x="175.9" y="111.6" class="st4" width="57.5" height="6.8"/>
		</g>
		<g>
			<rect x="325.9" y="111.6" class="st4" width="43.2" height="6.8"/>
		</g>
		<g>
			<rect x="301.6" y="120.8" class="st4" width="38.5" height="6.8"/>
		</g>
		<g>
			<rect x="205.9" y="120.8" class="st3" width="47.1" height="6.8"/>
		</g>
		<g>
			<rect x="267.3" y="111.6" class="st3" width="30" height="6.8"/>
		</g>
		<g>
			<rect x="343.8" y="120.9" class="st3" width="25.2" height="6.8"/>
		</g>
		<g>
			<rect x="137.8" y="111.9" class="st3" width="33.1" height="6.8"/>
		</g>
		<g>
			<polyline class="st2" points="122.1,118.8 135.8,118.8 135.8,118.4 122.1,118.4 			"/>
		</g>
		<g>
			<path class="st2" d="M116.7,118.8c1.1,0,2.3,0,3.4,0v-0.5c-1.1,0-2.3,0-3.4,0V118.8L116.7,118.8z"/>
		</g>
		<g>
			<path class="st2" d="M110.9,118.8c1.4,0,2.8,0,4.2,0v-0.5c-1.4,0-2.8,0-4.2,0V118.8L110.9,118.8z"/>
		</g>
		<g>
			<path class="st2" d="M222.1,40.5c0,0.6,0.1,1.3,0.1,2c0,1.8-0.1,4.1-0.4,6.2c-0.3,2.1-0.7,4.1-1.3,5.3c-0.3,0.7-0.8,1.2-1.3,1.5
				c-0.5,0.3-1.1,0.4-1.8,0.4c-1.3,0-2.6-0.5-3.6-0.8l-0.2,0.4c1,0.4,2.4,0.9,3.8,0.9c0.7,0,1.4-0.1,2-0.5c0.6-0.3,1.1-0.9,1.5-1.7
				c0.6-1.3,1.1-3.3,1.3-5.5c0.3-2.1,0.4-4.4,0.4-6.3c0-0.8,0-1.5-0.1-2.1L222.1,40.5L222.1,40.5z"/>
		</g>
		<g>
			<path class="st2" d="M215.9,56.1c0,0.2,0,0.5,0,0.7c0,1,0.1,1.8,0.4,2.6c0.2,0.8,0.6,1.5,1.2,2.3l0.4-0.2
				c-0.5-0.8-0.9-1.5-1.1-2.2c-0.2-0.7-0.3-1.5-0.3-2.5c0-0.2,0-0.4,0-0.6L215.9,56.1L215.9,56.1z"/>
		</g>
		<g>
			<path class="st2" d="M205.2,47.1c-0.8,0.5-1.2,1.3-1.2,2.1c0,0.7,0.3,1.4,0.7,1.9c0.5,0.5,1.1,0.9,1.9,0.9c0.2,0,0.3,0,0.5-0.1
				l-0.1-0.4c-0.2,0-0.3,0-0.4,0c-0.6,0-1.2-0.3-1.5-0.7c-0.4-0.4-0.6-1-0.6-1.6c0-0.7,0.3-1.3,1-1.7L205.2,47.1L205.2,47.1z"/>
		</g>
		<g>
			<polyline class="st2" points="39.8,101.9 41.7,105.3 42.1,105 40.2,101.6 			"/>
		</g>
		<g>
			<polyline class="st2" points="42.1,101.9 44,105.3 44.4,105 42.5,101.6 			"/>
		</g>
		<g>
			<polyline class="st2" points="44.4,101.9 46.3,105.3 46.7,105 44.8,101.6 			"/>
		</g>
		<g>
			<polyline class="st2" points="46.7,101.9 48.5,105.3 48.9,105 47.1,101.6 			"/>
		</g>
		<g>
			<polyline class="st2" points="48.9,101.9 50.8,105.3 51.2,105 49.3,101.6 			"/>
		</g>
		<g>
			<polyline class="st2" points="51.2,101.9 53.1,105.3 53.5,105 51.6,101.6 			"/>
		</g>
		<g>
			<polyline class="st2" points="53.5,101.9 55.4,105.3 55.8,105 53.9,101.6 			"/>
		</g>
		<g>
			<polyline class="st2" points="55.8,101.9 57.7,105.3 58.1,105 56.2,101.6 			"/>
		</g>
		<g>
			<polyline class="st2" points="58.1,101.9 60,105.3 60.4,105 58.5,101.6 			"/>
		</g>
		<g>
			<polyline class="st2" points="60.4,101.9 62.3,105.3 62.7,105 60.8,101.6 			"/>
		</g>
		<g>
			<polyline class="st2" points="62.7,101.9 64.6,105.3 65,105 63.1,101.6 			"/>
		</g>
		<g>
			<polyline class="st2" points="65,101.9 66.9,105.3 67.2,105 65.4,101.6 			"/>
		</g>
		<g>
			<polyline class="st2" points="67.2,101.9 69.1,105.3 69.5,105 67.6,101.6 			"/>
		</g>
		<g>
			<polyline class="st2" points="69.5,101.9 71.4,105.3 71.8,105 69.9,101.6 			"/>
		</g>
		<g>
			<polyline class="st2" points="71.8,101.9 73.7,105.3 74.1,105 72.2,101.6 			"/>
		</g>
		<g>
			<polyline class="st2" points="74.1,101.9 76,105.3 76.4,105 74.5,101.6 			"/>
		</g>
		<g>
			<polyline class="st2" points="76.4,101.9 78.3,105.3 78.7,105 76.8,101.6 			"/>
		</g>
		<g>
			<polyline class="st2" points="78.7,101.9 80.6,105.3 81,105 79.1,101.6 			"/>
		</g>
		<g>
			<polyline class="st2" points="81,101.9 82.9,105.3 83.3,105 81.4,101.6 			"/>
		</g>
		<g>
			<polyline class="st2" points="83.3,101.9 85.2,105.3 85.6,105 83.7,101.6 			"/>
		</g>
		<g>
			<polyline class="st2" points="85.6,101.9 87.4,105.3 87.8,105 86,101.6 			"/>
		</g>
		<g>
			<polyline class="st2" points="87.8,101.9 89.7,105.3 90.1,105 88.2,101.6 			"/>
		</g>
		<g>
			<polyline class="st2" points="90.1,101.9 92,105.3 92.4,105 90.5,101.6 			"/>
		</g>
		<g>
			<polyline class="st2" points="92.4,101.9 94.3,105.3 94.7,105 92.8,101.6 			"/>
		</g>
		<g>
			<polyline class="st2" points="94.7,101.9 96.6,105.3 97,105 95.1,101.6 			"/>
		</g>
		<g>
			<polyline class="st2" points="97,101.9 98.9,105.3 99.3,105 97.4,101.6 			"/>
		</g>
		<g>
			<polyline class="st2" points="99.3,101.9 101.2,105.3 101.6,105 99.7,101.6 			"/>
		</g>
		<g>
			<polyline class="st2" points="101.6,101.9 103.5,105.3 103.9,105 102,101.6 			"/>
		</g>
		<g>
			<polyline class="st2" points="103.9,101.9 105.8,105.3 106.2,105 104.3,101.6 			"/>
		</g>
		<g>
			<polyline class="st2" points="106.2,101.9 108,105.3 108.4,105 106.5,101.6 			"/>
		</g>
		<g>
			<polyline class="st2" points="108.4,101.9 110.3,105.3 110.7,105 108.8,101.6 			"/>
		</g>
		<g>
			<polyline class="st2" points="110.7,101.9 112.6,105.3 113,105 111.1,101.6 			"/>
		</g>
		<g>
			<polyline class="st2" points="113,101.9 114.9,105.3 115.3,105 113.4,101.6 			"/>
		</g>
		<g>
			<polyline class="st2" points="115.3,101.9 117.2,105.3 117.6,105 115.7,101.6 			"/>
		</g>
		<g>
			<polyline class="st2" points="117.6,101.9 119.5,105.3 119.9,105 118,101.6 			"/>
		</g>
		<g>
			<polyline class="st2" points="119.9,101.9 121.8,105.3 122.2,105 120.3,101.6 			"/>
		</g>
		<g>
			<polyline class="st2" points="122.2,101.9 124.1,105.3 124.5,105 122.6,101.6 			"/>
		</g>
		<g>
			<polyline class="st2" points="124.5,101.9 126.3,105.3 126.7,105 124.9,101.6 			"/>
		</g>
		<g>
			<polyline class="st2" points="126.7,101.9 128.6,105.3 129,105 127.1,101.6 			"/>
		</g>
		<g>
			<polyline class="st2" points="129,101.9 130.9,105.3 131.3,105 129.4,101.6 			"/>
		</g>
		<g>
			<polyline class="st2" points="131.3,101.9 133.2,105.3 133.6,105 131.7,101.6 			"/>
		</g>
		<g>
			<polyline class="st2" points="133.6,101.9 135.5,105.3 135.9,105 134,101.6 			"/>
		</g>
		<g>
			<polyline class="st2" points="135.9,101.9 137.8,105.3 138.2,105 136.3,101.6 			"/>
		</g>
		<g>
			<polyline class="st2" points="138.2,101.9 140.1,105.3 140.5,105 138.6,101.6 			"/>
		</g>
		<g>
			<polyline class="st2" points="140.5,101.9 142.4,105.3 142.8,105 140.9,101.6 			"/>
		</g>
		<g>
			<polyline class="st2" points="142.8,101.9 144.7,105.3 145.1,105 143.2,101.6 			"/>
		</g>
		<g>
			<polyline class="st2" points="145.1,101.9 146.9,105.3 147.3,105 145.4,101.6 			"/>
		</g>
		<g>
			<polyline class="st2" points="147.3,101.9 149.2,105.3 149.6,105 147.7,101.6 			"/>
		</g>
		<g>
			<polyline class="st2" points="149.6,101.9 151.5,105.3 151.9,105 150,101.6 			"/>
		</g>
		<g>
			<polyline class="st2" points="151.9,101.9 153.8,105.3 154.2,105 152.3,101.6 			"/>
		</g>
		<g>
			<polyline class="st2" points="154.2,101.9 156.1,105.3 156.5,105 154.6,101.6 			"/>
		</g>
		<g>
			<polyline class="st2" points="156.5,101.9 158.4,105.3 158.8,105 156.9,101.6 			"/>
		</g>
		<g>
			<polyline class="st2" points="158.8,101.9 160.7,105.3 161.1,105 159.2,101.6 			"/>
		</g>
		<g>
			<polyline class="st2" points="161.1,101.9 163,105.3 163.4,105 161.5,101.6 			"/>
		</g>
		<g>
			<polyline class="st2" points="163.4,101.9 165.2,105.3 165.6,105 163.8,101.6 			"/>
		</g>
		<g>
			<polyline class="st2" points="165.6,101.9 167.5,105.3 167.9,105 166,101.6 			"/>
		</g>
		<g>
			<polyline class="st2" points="167.9,101.9 169.8,105.3 170.2,105 168.3,101.6 			"/>
		</g>
		<g>
			<polyline class="st2" points="170.2,101.9 172.1,105.3 172.5,105 170.6,101.6 			"/>
		</g>
		<g>
			<polyline class="st2" points="172.5,101.9 174.4,105.3 174.8,105 172.9,101.6 			"/>
		</g>
		<g>
			<polyline class="st2" points="174.8,101.9 176.7,105.3 177.1,105 175.2,101.6 			"/>
		</g>
		<g>
			<polyline class="st2" points="177.1,101.9 179,105.3 179.4,105 177.5,101.6 			"/>
		</g>
		<g>
			<polyline class="st2" points="179.4,101.9 181.3,105.3 181.7,105 179.8,101.6 			"/>
		</g>
		<g>
			<polyline class="st2" points="181.7,101.9 183.6,105.3 184,105 182.1,101.6 			"/>
		</g>
		<g>
			<polyline class="st2" points="184,101.9 185.8,105.3 186.2,105 184.3,101.6 			"/>
		</g>
		<g>
			<polyline class="st2" points="186.2,101.9 188.1,105.3 188.5,105 186.6,101.6 			"/>
		</g>
		<g>
			<polyline class="st2" points="188.5,101.9 190.4,105.3 190.8,105 188.9,101.6 			"/>
		</g>
		<g>
			<polyline class="st2" points="190.8,101.9 192.7,105.3 193.1,105 191.2,101.6 			"/>
		</g>
		<g>
			<polyline class="st2" points="193.1,101.9 195,105.3 195.4,105 193.5,101.6 			"/>
		</g>
		<g>
			<polyline class="st2" points="195.4,101.9 197.3,105.3 197.7,105 195.8,101.6 			"/>
		</g>
		<g>
			<polyline class="st2" points="197.7,101.9 199.6,105.3 200,105 198.1,101.6 			"/>
		</g>
		<g>
			<polyline class="st2" points="200,101.9 201.9,105.3 202.3,105 200.4,101.6 			"/>
		</g>
		<g>
			<polyline class="st2" points="202.3,101.9 204.1,105.3 204.5,105 202.7,101.6 			"/>
		</g>
		<g>
			<polyline class="st2" points="204.5,101.9 206.4,105.3 206.8,105 204.9,101.6 			"/>
		</g>
		<g>
			<polyline class="st2" points="206.8,101.9 208.7,105.3 209.1,105 207.2,101.6 			"/>
		</g>
		<g>
			<polyline class="st2" points="209.1,101.9 211,105.3 211.4,105 209.5,101.6 			"/>
		</g>
		<g>
			<polyline class="st2" points="211.4,101.9 213.3,105.3 213.7,105 211.8,101.6 			"/>
		</g>
		<g>
			<polyline class="st2" points="213.7,101.9 215.6,105.3 216,105 214.1,101.6 			"/>
		</g>
		<g>
			<polyline class="st2" points="216,101.9 217.9,105.3 218.3,105 216.4,101.6 			"/>
		</g>
		<g>
			<polyline class="st2" points="218.3,101.9 220.2,105.3 220.6,105 218.7,101.6 			"/>
		</g>
		<g>
			<polyline class="st2" points="220.6,101.9 222.5,105.3 222.9,105 221,101.6 			"/>
		</g>
		<g>
			<polyline class="st2" points="222.9,101.9 224.7,105.3 225.1,105 223.2,101.6 			"/>
		</g>
		<g>
			<polyline class="st2" points="225.1,101.9 227,105.3 227.4,105 225.5,101.6 			"/>
		</g>
		<g>
			<polyline class="st2" points="227.4,101.9 229.3,105.3 229.7,105 227.8,101.6 			"/>
		</g>
		<g>
			<polyline class="st2" points="229.7,101.9 231.6,105.3 232,105 230.1,101.6 			"/>
		</g>
		<g>
			<polyline class="st2" points="232,101.9 233.9,105.3 234.3,105 232.4,101.6 			"/>
		</g>
		<g>
			<polyline class="st2" points="234.3,101.9 236.2,105.3 236.6,105 234.7,101.6 			"/>
		</g>
		<g>
			<polyline class="st2" points="236.6,101.9 238.5,105.3 238.9,105 237,101.6 			"/>
		</g>
		<g>
			<polyline class="st2" points="238.9,101.9 240.8,105.3 241.2,105 239.3,101.6 			"/>
		</g>
		<g>
			<polyline class="st2" points="241.2,101.9 243,105.3 243.4,105 241.6,101.6 			"/>
		</g>
		<g>
			<polyline class="st2" points="243.4,101.9 245.3,105.3 245.7,105 243.8,101.6 			"/>
		</g>
		<g>
			<polyline class="st2" points="245.7,101.9 247.6,105.3 248,105 246.1,101.6 			"/>
		</g>
		<g>
			<polyline class="st2" points="248,101.9 249.9,105.3 250.3,105 248.4,101.6 			"/>
		</g>
		<g>
			<polyline class="st2" points="250.3,101.9 252.2,105.3 252.6,105 250.7,101.6 			"/>
		</g>
		<g>
			<polyline class="st2" points="252.6,101.9 254.5,105.3 254.9,105 253,101.6 			"/>
		</g>
		<g>
			<polyline class="st2" points="254.9,101.9 256.8,105.3 257.2,105 255.3,101.6 			"/>
		</g>
		<g>
			<polyline class="st2" points="257.2,101.9 259.1,105.3 259.5,105 257.6,101.6 			"/>
		</g>
		<g>
			<polyline class="st2" points="259.5,101.9 261.4,105.3 261.8,105 259.9,101.6 			"/>
		</g>
		<g>
			<polyline class="st2" points="261.8,101.9 263.6,105.3 264,105 262.1,101.6 			"/>
		</g>
		<g>
			<polyline class="st2" points="264,101.9 265.9,105.3 266.3,105 264.4,101.6 			"/>
		</g>
		<g>
			<polyline class="st2" points="266.3,101.9 268.2,105.3 268.6,105 266.7,101.6 			"/>
		</g>
		<g>
			<polyline class="st2" points="268.6,101.9 270.5,105.3 270.9,105 269,101.6 			"/>
		</g>
		<g>
			<polyline class="st2" points="270.9,101.9 272.8,105.3 273.2,105 271.3,101.6 			"/>
		</g>
		<g>
			<polyline class="st2" points="273.2,101.9 275.1,105.3 275.5,105 273.6,101.6 			"/>
		</g>
		<g>
			<polyline class="st2" points="275.5,101.9 277.4,105.3 277.8,105 275.9,101.6 			"/>
		</g>
		<g>
			<polyline class="st2" points="277.8,101.9 279.7,105.3 280.1,105 278.2,101.6 			"/>
		</g>
		<g>
			<polyline class="st2" points="280.1,101.9 281.9,105.3 282.3,105 280.5,101.6 			"/>
		</g>
		<g>
			<polyline class="st2" points="282.3,101.9 284.2,105.3 284.6,105 282.7,101.6 			"/>
		</g>
		<g>
			<polyline class="st2" points="284.6,101.9 286.5,105.3 286.9,105 285,101.6 			"/>
		</g>
		<g>
			<polyline class="st2" points="286.9,101.9 288.8,105.3 289.2,105 287.3,101.6 			"/>
		</g>
		<g>
			<polyline class="st2" points="289.2,101.9 291.1,105.3 291.5,105 289.6,101.6 			"/>
		</g>
		<g>
			<polyline class="st2" points="291.5,101.9 293.4,105.3 293.8,105 291.9,101.6 			"/>
		</g>
		<g>
			<polyline class="st2" points="293.8,101.9 295.7,105.3 296.1,105 294.2,101.6 			"/>
		</g>
		<g>
			<polyline class="st2" points="296.1,101.9 298,105.3 298.4,105 296.5,101.6 			"/>
		</g>
		<g>
			<polyline class="st2" points="298.4,101.9 300.3,105.3 300.7,105 298.8,101.6 			"/>
		</g>
		<g>
			<polyline class="st2" points="300.7,101.9 302.5,105.3 302.9,105 301,101.6 			"/>
		</g>
		<g>
			<polyline class="st2" points="302.9,101.9 304.8,105.3 305.2,105 303.3,101.6 			"/>
		</g>
		<g>
			<polyline class="st2" points="305.2,101.9 307.1,105.3 307.5,105 305.6,101.6 			"/>
		</g>
		<g>
			<polyline class="st2" points="307.5,101.9 309.4,105.3 309.8,105 307.9,101.6 			"/>
		</g>
		<g>
			<polyline class="st2" points="309.8,101.9 311.7,105.3 312.1,105 310.2,101.6 			"/>
		</g>
		<g>
			<polyline class="st2" points="312.1,101.9 314,105.3 314.4,105 312.5,101.6 			"/>
		</g>
		<g>
			<polyline class="st2" points="314.4,101.9 316.3,105.3 316.7,105 314.8,101.6 			"/>
		</g>
		<g>
			<polyline class="st2" points="316.7,101.9 318.6,105.3 319,105 317.1,101.6 			"/>
		</g>
		<g>
			<polyline class="st2" points="319,101.9 320.9,105.3 321.2,105 319.4,101.6 			"/>
		</g>
		<g>
			<polyline class="st2" points="321.2,101.9 323.1,105.3 323.5,105 321.6,101.6 			"/>
		</g>
		<g>
			<polyline class="st2" points="323.5,101.9 325.4,105.3 325.8,105 323.9,101.6 			"/>
		</g>
		<g>
			<polyline class="st2" points="325.8,101.9 327.7,105.3 328.1,105 326.2,101.6 			"/>
		</g>
		<g>
			<polyline class="st2" points="328.1,101.9 330,105.3 330.4,105 328.5,101.6 			"/>
		</g>
		<g>
			<polyline class="st2" points="330.4,101.9 332.3,105.3 332.7,105 330.8,101.6 			"/>
		</g>
		<g>
			<polyline class="st2" points="332.7,101.9 334.6,105.3 335,105 333.1,101.6 			"/>
		</g>
		<g>
			<polyline class="st2" points="335,101.9 336.9,105.3 337.3,105 335.4,101.6 			"/>
		</g>
		<g>
			<polyline class="st2" points="337.3,101.9 339.2,105.3 339.6,105 337.7,101.6 			"/>
		</g>
		<g>
			<polyline class="st2" points="339.6,101.9 341.4,105.3 341.8,105 339.9,101.6 			"/>
		</g>
		<g>
			<polyline class="st2" points="341.8,101.9 343.7,105.3 344.1,105 342.2,101.6 			"/>
		</g>
		<g>
			<polyline class="st2" points="344.1,101.9 346,105.3 346.4,105 344.5,101.6 			"/>
		</g>
		<g>
			<polyline class="st2" points="346.4,101.9 348.3,105.3 348.7,105 346.8,101.6 			"/>
		</g>
		<g>
			<polyline class="st2" points="348.7,101.9 350.6,105.3 351,105 349.1,101.6 			"/>
		</g>
		<g>
			<polyline class="st2" points="351,101.9 352.9,105.3 353.3,105 351.4,101.6 			"/>
		</g>
		<g>
			<polyline class="st2" points="353.3,101.9 355.2,105.3 355.6,105 353.7,101.6 			"/>
		</g>
		<g>
			<polyline class="st2" points="355.6,101.9 357.5,105.3 357.9,105 356,101.6 			"/>
		</g>
		<g>
			<polyline class="st2" points="357.9,101.9 359.8,105.3 360.1,105 358.3,101.6 			"/>
		</g>
		<g>
			<polyline class="st2" points="360.1,101.9 362,105.3 362.4,105 360.5,101.6 			"/>
		</g>
		<g>
			<polyline class="st2" points="362.4,101.9 364.3,105.3 364.7,105 362.8,101.6 			"/>
		</g>
		<g>
			<polyline class="st2" points="364.7,101.9 366.6,105.3 367,105 365.1,101.6 			"/>
		</g>
		<g>
			<polyline class="st2" points="367,101.9 368.9,105.3 369.3,105 367.4,101.6 			"/>
		</g>
		<g>
			<polyline class="st2" points="369.3,101.9 371.2,105.3 371.6,105 369.7,101.6 			"/>
		</g>
		<g>
			<polyline class="st2" points="371.6,101.9 373.5,105.3 373.9,105 372,101.6 			"/>
		</g>
		<g>
			<polyline class="st2" points="373.9,101.9 375.8,105.3 376.2,105 374.3,101.6 			"/>
		</g>
		<g>
			<path class="st1" d="M263.3,92.6h-45.7c-1.7,0-3-1.4-3-3V63.7c0-1.7,1.4-3,3-3h45.7c1.7,0,3,1.4,3,3v25.9
				C266.3,91.3,264.9,92.6,263.3,92.6z"/>
		</g>
		<g>
			<path class="st2" d="M263.3,92.6v-0.2h-45.7c-0.8,0-1.5-0.3-2-0.8c-0.5-0.5-0.8-1.2-0.8-2V63.7c0-0.8,0.3-1.5,0.8-2
				c0.5-0.5,1.2-0.8,2-0.8h45.7c0.8,0,1.5,0.3,2,0.8c0.5,0.5,0.8,1.2,0.8,2v25.9c0,0.8-0.3,1.5-0.8,2c-0.5,0.5-1.2,0.8-2,0.8V92.6
				v0.2c1.8,0,3.3-1.5,3.3-3.3V63.7c0-1.8-1.5-3.3-3.3-3.3h-45.7c-1.8,0-3.3,1.5-3.3,3.3v25.9c0,1.8,1.5,3.3,3.3,3.3h45.7V92.6z"/>
		</g>
		<g>
			<polygon class="st3" points="236.8,74.2 242.9,74.2 242.6,79 240,80.8 237.1,79.1 			"/>
		</g>
		<g>
			<polygon class="st2" points="236.8,74.2 236.8,74.5 242.6,74.4 242.4,78.8 239.9,80.5 237.3,79 237.1,74.2 236.8,74.2 
				236.8,74.5 236.8,74.2 236.6,74.2 236.9,79.2 240,81 242.8,79.1 243.1,74 236.6,74 236.6,74.2 			"/>
		</g>
		<g>
			<path class="st1" d="M403,87.6h-90.4c-3.3,0-6-2.7-6-6V21.4c0-3.3,2.7-6,6-6H403c3.3,0,6,2.7,6,6v60.2
				C409,84.9,406.3,87.6,403,87.6z"/>
		</g>
		<g>
			<path class="st2" d="M403,87.6v-0.2h-90.4c-1.6,0-3-0.7-4.1-1.7c-1.1-1.1-1.7-2.5-1.7-4.1V21.4c0-1.6,0.7-3,1.7-4.1
				c1.1-1.1,2.5-1.7,4.1-1.7H403c1.6,0,3,0.7,4.1,1.7c1.1,1.1,1.7,2.5,1.7,4.1v60.2c0,1.6-0.7,3-1.7,4.1c-1.1,1.1-2.5,1.7-4.1,1.7
				V87.6v0.2c3.4,0,6.2-2.8,6.2-6.2V21.4c0-3.4-2.8-6.2-6.2-6.2h-90.4c-3.4,0-6.2,2.8-6.2,6.2v60.2c0,3.4,2.8,6.2,6.2,6.2H403V87.6z
				"/>
		</g>
		<g>
			<path class="st2" d="M261.8,72c0,0,0-3.9,0-4c0-0.7,0-1.2-0.2-1.7c-0.2-0.7-0.5-1.2-1.1-1.5c-0.6-0.3-1.4-0.4-2.5-0.4
				c-0.1,0-7.5,0-14.8,0c-3.7,0-7.3,0-10.1,0c-1.4,0-2.5,0-3.3,0c-0.8,0-1.3,0-1.3,0l0,0.5c0,0,29.2,0,29.5,0c0.7,0,1.3,0,1.7,0.2
				c0.7,0.2,1,0.4,1.2,0.9c0.2,0.5,0.3,1.1,0.3,2.1c0,0.1,0,4,0,4H261.8L261.8,72z"/>
		</g>
		<g>
			<rect x="320.6" y="46" class="st3" width="18.6" height="13.1"/>
		</g>
		<g>
			<rect x="348" y="45.9" class="st4" width="18.6" height="13.1"/>
		</g>
		<g>
			<rect x="375.3" y="45.9" class="st3" width="18.6" height="13.1"/>
		</g>
		<g>
			<path class="st2" d="M261.8,78.3c0-1.1,0-2.2,0-3.4h-0.5c0,1.1,0,2.2,0,3.4H261.8L261.8,78.3z"/>
		</g>
		<g>
			<path class="st2" d="M404.3,66.6c0,0,0-41.1,0-41.2c0-1.4-0.7-2.8-1.8-3.9c-1.1-1.1-2.5-1.8-4-1.8c-0.1,0-6.9,0-13.7,0
				c-3.4,0-6.8,0-9.3,0c-1.3,0-2.3,0-3.1,0c-0.7,0-1.2,0-1.2,0l0,0.5c0,0,27.1,0,27.3,0c1.3,0,2.7,0.7,3.7,1.7c1,1,1.7,2.3,1.7,3.6
				c0,0.1,0,41.2,0,41.2H404.3L404.3,66.6z"/>
		</g>
		<g>
			<path class="st2" d="M404.3,73c0-1.1,0-2.2,0-3.4h-0.5c0,1.1,0,2.2,0,3.4H404.3L404.3,73z"/>
		</g>
		<g>
			<path class="st2" d="M238.9,75h0.5v2c0,0.3-0.1,0.5-0.3,0.7c-0.2,0.2-0.4,0.2-0.7,0.2c-0.3,0-0.5-0.1-0.7-0.2s-0.2-0.4-0.2-0.6
				h0.5c0,0.2,0,0.3,0.1,0.3c0.1,0.1,0.2,0.1,0.3,0.1c0.1,0,0.2,0,0.3-0.1c0.1-0.1,0.1-0.2,0.1-0.4V75z"/>
			<path class="st2" d="M241.5,77.1c0-0.1,0-0.2-0.1-0.3c-0.1-0.1-0.3-0.1-0.5-0.2c-0.2-0.1-0.4-0.1-0.6-0.2
				c-0.3-0.2-0.4-0.4-0.4-0.6c0-0.2,0.1-0.4,0.3-0.6c0.2-0.2,0.4-0.2,0.7-0.2c0.2,0,0.4,0,0.5,0.1c0.2,0.1,0.3,0.2,0.4,0.3
				c0.1,0.1,0.1,0.3,0.1,0.5h-0.5c0-0.2,0-0.3-0.1-0.4c-0.1-0.1-0.2-0.1-0.4-0.1c-0.2,0-0.3,0-0.4,0.1c-0.1,0.1-0.1,0.2-0.1,0.3
				c0,0.1,0,0.2,0.1,0.3c0.1,0.1,0.3,0.1,0.5,0.2c0.2,0.1,0.4,0.1,0.5,0.2c0.1,0.1,0.2,0.2,0.3,0.3c0.1,0.1,0.1,0.2,0.1,0.4
				c0,0.2-0.1,0.4-0.3,0.6c-0.2,0.1-0.4,0.2-0.8,0.2c-0.2,0-0.4,0-0.6-0.1c-0.2-0.1-0.3-0.2-0.4-0.3c-0.1-0.1-0.1-0.3-0.1-0.5h0.5
				c0,0.2,0.1,0.3,0.2,0.4c0.1,0.1,0.3,0.1,0.5,0.1c0.2,0,0.3,0,0.4-0.1C241.5,77.3,241.5,77.2,241.5,77.1z"/>
		</g>
		<g>
			<path class="st4" d="M207.9,28.3c-1.7-0.3-3.7-0.6-5.6,1.1c-11.1,9.8-1,29.8-8.4,32.8c1.1,1.2,5,1.2,5,1.2
				c2.7,3.4,12.9,3.7,13.5,2.7c-4.2-13-2.8-29.8,0.9-28.3c4.2,1.8,11.7,7.8,12.5-4.4c-2.9,0.6-3.2-2.3-6.2-4.3
				C212.2,24.3,208.4,28.4,207.9,28.3z"/>
		</g>
		<g>
			<rect x="228.2" y="97.6" class="st1" width="24.7" height="3.6"/>
		</g>
		<g>
			<polygon class="st2" points="252.8,101.2 252.8,101 228.4,101 228.4,97.9 252.6,97.9 252.6,101.2 252.8,101.2 252.8,101 
				252.8,101.2 253,101.2 253,97.4 227.9,97.4 227.9,101.4 253,101.4 253,101.2 			"/>
		</g>
		<g>
			<path class="st2" d="M228.3,97.8c3-0.8,4.6-2,5.5-3c0.5-0.5,0.7-0.9,0.9-1.3c0.1-0.2,0.1-0.3,0.2-0.4c0-0.1,0-0.1,0-0.1l0-0.1
				l0-0.1l0-0.1l-0.1-0.1c0,0-0.1,0-0.1,0c-0.1,0-0.1,0-0.1,0c0,0-0.1,0-0.1,0.1c0,0,0,0.1,0,0.1l0.4,0.1l-0.2-0.1l0.2,0.1l0,0
				l-0.2-0.1l0.2,0.1l-0.2-0.1l0.2,0.2l0,0l-0.2-0.1l0.2,0.2l-0.2-0.2l0.1,0.2l0,0l-0.2-0.2l0.1,0.2l-0.1-0.2v0.2c0.1,0,0.1,0,0.1,0
				l-0.1-0.2v0.2v-0.2l-0.1,0.2c0,0,0.1,0,0.1,0v-0.2l-0.1,0.2l0.1-0.2l-0.2,0.1c0,0,0,0.1,0.1,0.1l0.1-0.2l-0.2,0.1l0.2-0.1l-0.2,0
				c0,0,0,0,0,0.1l0.2-0.1l-0.2,0h0.1l-0.1,0l0,0h0.1l-0.1,0c0,0,0,0.1,0,0.2c-0.2,0.6-1.2,2.9-6.3,4.3L228.3,97.8L228.3,97.8z"/>
		</g>
		<g>
			<path class="st2" d="M86,128.4c1,0,2,0,2.9,0v-0.5c-1,0-2,0-2.9,0V128.4L86,128.4z"/>
		</g>
		<g>
			<path class="st2" d="M76.8,128.4c2.4,0,4.9,0,7.3,0v-0.5c-2.4,0-4.9,0-7.3,0V128.4L76.8,128.4z"/>
		</g>
		<g>
			<polyline class="st2" points="50.1,128.4 75.1,128.4 75.1,127.9 50.1,127.9 			"/>
		</g>
		<g>
			<path class="st2" d="M252.9,97.4c-2.9-0.8-4.5-1.9-5.3-2.9c-0.4-0.5-0.7-0.9-0.8-1.2c-0.1-0.1-0.1-0.3-0.1-0.4c0,0,0-0.1,0-0.1
				l0,0l0,0l-0.1,0l0.1,0l0,0l-0.1,0l0.1,0h-0.2l0.2,0l0,0h-0.2l0.2,0l-0.2,0l0.2,0.1l0-0.1l-0.2,0l0.2,0.1l-0.2-0.1l0.1,0.2
				l0.1-0.1l-0.2-0.1l0.1,0.2l-0.1-0.2v0.2c0.1,0,0.1,0,0.1-0.1l-0.1-0.2v0.2v-0.2l-0.2,0.2c0,0,0.1,0.1,0.2,0.1v-0.2l-0.2,0.2
				l0.2-0.2l-0.2,0.1l0,0.1l0.2-0.2l-0.2,0.1l0.2-0.1l-0.2,0.1l0,0l0.2-0.1l-0.2,0.1l0.4-0.2l0,0l0,0c0,0-0.1-0.1-0.2-0.1
				c-0.1,0-0.1,0-0.1,0.1c-0.1,0.1-0.1,0.1-0.1,0.1c0,0.1,0,0.1,0,0.1l0,0.1c0.1,0.5,1,3.2,6.6,4.8L252.9,97.4L252.9,97.4z"/>
		</g>
		<g>
			<path class="st2" d="M210.3,30.2c0.2-0.2,0.8-0.4,1.4-0.5c0.6-0.1,1.4-0.2,2-0.2c0.5,0,0.9,0,1.2,0.1c1.4,0.4,2.4,0.9,3.1,1.5
				c1,0.9,1.5,1.8,2.1,2.7c0.3,0.4,0.7,0.8,1.2,1.2c0.5,0.3,1.2,0.6,2,0.7l0.1-0.4c-1.1-0.2-1.8-0.5-2.3-0.9
				c-0.8-0.7-1.1-1.6-1.9-2.6c-0.8-1-1.9-1.9-4.1-2.5c-0.3-0.1-0.8-0.1-1.3-0.1c-0.7,0-1.4,0.1-2.1,0.2c-0.7,0.1-1.2,0.3-1.6,0.6
				L210.3,30.2L210.3,30.2z"/>
		</g>
		<g>
			<rect x="320.4" y="64.9" class="st4" width="18.6" height="13.1"/>
		</g>
		<g>
			<rect x="347.8" y="64.8" class="st3" width="18.6" height="13.1"/>
		</g>
		<g>
			<rect x="375.1" y="64.8" class="st4" width="18.6" height="13.1"/>
		</g>
		<g>
			<path class="st1" d="M100.6,135.7H52.1c-1.7,0-3.2-1.4-3.2-3.2v-3.6c0-1.7,1.4-3.2,3.2-3.2h48.4c1.7,0,3.2,1.4,3.2,3.2v3.6
				C103.7,134.3,102.3,135.7,100.6,135.7z"/>
		</g>
		<g>
			<path class="st2" d="M100.6,135.7v-0.2H52.1c-0.8,0-1.5-0.3-2.1-0.9c-0.5-0.5-0.9-1.3-0.9-2.1v-3.6c0-0.8,0.3-1.5,0.9-2.1
				c0.5-0.5,1.3-0.9,2.1-0.9h48.4c0.8,0,1.5,0.3,2.1,0.9c0.5,0.5,0.9,1.3,0.9,2.1v3.6c0,0.8-0.3,1.5-0.9,2.1
				c-0.5,0.5-1.3,0.9-2.1,0.9V135.7v0.2c1.9,0,3.4-1.5,3.4-3.4v-3.6c0-1.9-1.5-3.4-3.4-3.4H52.1c-1.9,0-3.4,1.5-3.4,3.4v3.6
				c0,1.9,1.5,3.4,3.4,3.4h48.4V135.7z"/>
		</g>
		<g>
			<path class="st2" d="M101.6,131.9c0,0,0-0.8,0-0.9c0-0.7,0-1.2-0.2-1.7c-0.2-0.7-0.5-1.2-1.1-1.5c-0.6-0.3-1.4-0.4-2.5-0.4
				c-0.1,0-7.5,0-14.8,0c-3.7,0-7.3,0-10.1,0c-1.4,0-2.5,0-3.3,0c-0.8,0-1.3,0-1.3,0l0,0.5c0,0,29.2,0,29.5,0c0.7,0,1.3,0,1.7,0.2
				c0.7,0.2,1,0.4,1.2,0.9c0.2,0.5,0.3,1.1,0.3,2.1c0,0.1,0,0.9,0,0.9H101.6L101.6,131.9z"/>
		</g>
		<g>
			<path class="st1" d="M88.7,108.6H61.8c-4.7,0-8.6-3.9-8.6-8.6V73.1c0-4.7,3.9-8.6,8.6-8.6c0,0,3.9-0.1,4.4-0.3
				c2.8-0.5,3.9-8,3.9-8l10.5,0.2c0,0,0.2,6.2,2.2,7.5c1.2,0.8,5.9,0.5,5.9,0.5c4.7,0,8.6,3.9,8.6,8.6V100
				C97.3,104.7,93.4,108.6,88.7,108.6z"/>
		</g>
		<g>
			<path class="st2" d="M88.7,108.6v-0.2H61.8c-2.3,0-4.4-0.9-5.9-2.5c-1.5-1.5-2.5-3.6-2.5-5.9V73.1c0-2.3,0.9-4.4,2.5-5.9
				c1.5-1.5,3.6-2.5,5.9-2.5h0l0,0c0,0,1,0,2-0.1c0.5,0,1.1-0.1,1.5-0.1c0.4,0,0.8-0.1,1-0.1c0.8-0.2,1.4-0.8,1.9-1.6
				c0.8-1.2,1.3-2.8,1.6-4.2c0.3-1.3,0.5-2.4,0.5-2.4l-0.2,0l0,0.2l10.5,0.2l0-0.2l-0.2,0c0,0,0,1.6,0.3,3.3
				c0.1,0.9,0.4,1.8,0.7,2.6c0.3,0.8,0.7,1.5,1.3,1.8c0.2,0.1,0.5,0.2,0.8,0.3c1,0.2,2.4,0.3,3.6,0.3c0.9,0,1.6,0,1.6,0l0-0.2v0.2
				c2.3,0,4.4,0.9,5.9,2.5c1.5,1.5,2.5,3.6,2.5,5.9V100c0,2.3-0.9,4.4-2.5,5.9c-1.5,1.5-3.6,2.5-5.9,2.5V108.6v0.2
				c4.8,0,8.8-4,8.8-8.8V73.1c0-4.8-4-8.8-8.8-8.8h0l0,0c0,0-0.2,0-0.5,0c-0.3,0-0.7,0-1.2,0c-0.7,0-1.6,0-2.4-0.1
				c-0.4,0-0.8-0.1-1.1-0.2c-0.3-0.1-0.5-0.2-0.7-0.3c-0.4-0.3-0.8-0.9-1.1-1.6c-0.4-1.1-0.7-2.5-0.8-3.7c-0.1-0.6-0.1-1.1-0.1-1.4
				c0-0.2,0-0.3,0-0.4c0-0.1,0-0.2,0-0.2l0-0.2L70,56.1l0,0.2c0,0,0,0.1-0.1,0.3c-0.1,0.7-0.5,2.5-1.1,4.1c-0.3,0.8-0.7,1.6-1.1,2.2
				c-0.4,0.6-0.9,1-1.5,1.1c-0.1,0-0.5,0.1-0.9,0.1c-0.7,0-1.5,0.1-2.2,0.1c-0.7,0-1.3,0.1-1.3,0.1l0,0.2v-0.2c-4.8,0-8.8,4-8.8,8.8
				V100c0,4.8,4,8.8,8.8,8.8h26.9V108.6z"/>
		</g>
		<g>
			<path class="st4" d="M88.7,108.6H61.8c-4.7,0-8.6-3.9-8.6-8.6V73.1c0-4.7,3.9-8.6,8.6-8.6c0,0,3.1-0.2,3.6-0.3
				c1.7-0.4,2.3-3,2.3-3h13.7c0,0,0.5,2.2,1.9,2.8c1.3,0.5,5.4,0.5,5.4,0.5c4.7,0,8.6,3.9,8.6,8.6V100
				C97.3,104.7,93.4,108.6,88.7,108.6z"/>
		</g>
		<g>
			<path class="st2" d="M88.7,108.6v-0.2H61.8c-2.3,0-4.4-0.9-5.9-2.5c-1.5-1.5-2.5-3.6-2.5-5.9V73.1c0-2.3,0.9-4.4,2.5-5.9
				c1.5-1.5,3.6-2.5,5.9-2.5h0l0,0c0,0,0.8,0,1.6-0.1c0.4,0,0.9-0.1,1.2-0.1c0.4,0,0.7-0.1,0.8-0.1c0.5-0.1,0.9-0.4,1.2-0.7
				c1-1,1.3-2.4,1.3-2.5l-0.2-0.1v0.2h13.7v-0.2l-0.2,0c0,0,0.1,0.6,0.4,1.2c0.3,0.7,0.8,1.4,1.6,1.7c0.3,0.1,0.7,0.2,1.2,0.3
				c1.4,0.2,3.3,0.2,4,0.2c0.2,0,0.3,0,0.3,0l0-0.2v0.2c2.3,0,4.4,0.9,5.9,2.5c1.5,1.5,2.5,3.6,2.5,5.9V100c0,2.3-0.9,4.4-2.5,5.9
				c-1.5,1.5-3.6,2.5-5.9,2.5V108.6v0.2c4.8,0,8.8-4,8.8-8.8V73.1c0-4.8-4-8.8-8.8-8.8h0l0,0c0,0-0.1,0-0.3,0c-0.5,0-1.5,0-2.5-0.1
				c-0.5,0-1-0.1-1.5-0.1c-0.4-0.1-0.8-0.1-1.1-0.2c-0.6-0.3-1.1-0.9-1.4-1.5c-0.1-0.3-0.2-0.6-0.3-0.8c0-0.1-0.1-0.2-0.1-0.3l0-0.1
				l0,0l0-0.2h-14l0,0.2l0,0c0,0.1-0.2,0.8-0.6,1.4c-0.2,0.3-0.4,0.6-0.7,0.9c-0.3,0.3-0.6,0.4-0.9,0.5c-0.1,0-0.4,0.1-0.8,0.1
				c-0.5,0.1-1.3,0.1-1.8,0.1c-0.6,0-1,0.1-1,0.1l0,0.2v-0.2c-4.8,0-8.8,4-8.8,8.8V100c0,4.8,4,8.8,8.8,8.8h26.9V108.6z"/>
		</g>
		<g>
			<path class="st1" d="M100.9,101.7c0,19.1-3.8,30.8-25.8,30.6c-22.7-0.2-25.8-11.5-25.8-30.6s5.2-23.1,25.8-23.4
				C96,78,100.9,82.5,100.9,101.7z"/>
		</g>
		<g>
			<path class="st2" d="M100.9,101.7h-0.2c0,9.5-1,17.1-4.5,22.3c-1.8,2.6-4.2,4.6-7.6,6c-3.3,1.4-7.6,2.1-12.9,2.1
				c-0.2,0-0.3,0-0.5,0c-5.6,0-10.1-0.8-13.5-2.1c-5.2-2.1-8.1-5.5-9.9-10.3c-1.7-4.8-2.2-10.8-2.2-18c0-4.8,0.3-8.6,1.1-11.6
				c0.6-2.3,1.5-4.1,2.7-5.6c1.8-2.2,4.3-3.7,7.9-4.6c3.5-0.9,8.1-1.3,13.9-1.4c0.6,0,1.3,0,1.9,0c4.8,0,8.7,0.3,11.8,1
				c4.7,1.1,7.6,3.2,9.4,6.7c1.8,3.5,2.4,8.5,2.4,15.4H100.9h0.2c0-4.6-0.3-8.4-1-11.5c-1.1-4.6-3.2-7.7-6.9-9.5
				C89.4,78.7,84.2,78,77,78c-0.6,0-1.2,0-1.9,0c-5.1,0.1-9.3,0.4-12.7,1.1c-2.6,0.5-4.7,1.3-6.4,2.4c-2.6,1.6-4.3,4-5.4,7.2
				c-1.1,3.3-1.5,7.5-1.5,12.9c0,9.6,0.8,17.2,4.4,22.6c1.8,2.7,4.4,4.7,7.9,6.1c3.5,1.4,8,2.1,13.7,2.2c0.2,0,0.3,0,0.5,0
				c5.4,0,9.7-0.7,13.1-2.1c5.1-2.1,8.3-5.7,10.1-10.6c1.8-4.9,2.3-11,2.3-18.1H100.9z"/>
		</g>
		<g>
			<path class="st1" d="M77.2,56.9c0,0-8.2,0-8.7-8.7v-6.7c0-4.8,3.9-8.7,8.7-8.7h0c4.8,0,10.4,2.8,10.4,7.6l0.2,8.6
				C87.6,59.6,82.8,59.5,77.2,56.9z"/>
		</g>
		<g>
			<path class="st2" d="M77.2,56.9v-0.2h0c-0.1,0-2.1,0-4.1-1.1c-1-0.5-2.1-1.3-2.9-2.5c-0.8-1.2-1.4-2.8-1.5-4.9l-0.2,0h0.2v-6.7
				c0-2.3,1-4.5,2.5-6c1.5-1.5,3.7-2.5,6-2.5l0,0c2.4,0,4.9,0.7,6.9,2c2,1.3,3.3,3.1,3.3,5.4v0l0.2,8.6l0.2,0l-0.2,0
				c-0.1,3.5-0.6,5.8-1.5,7.2c-0.5,0.7-1,1.2-1.6,1.5c-0.6,0.3-1.3,0.4-2,0.4c-1.5,0-3.3-0.6-5.1-1.4l0,0h0V56.9l-0.1,0.2
				c1.9,0.9,3.7,1.5,5.3,1.5c0.8,0,1.6-0.2,2.2-0.5c1-0.5,1.8-1.5,2.4-3c0.6-1.5,0.9-3.5,1-6.2l0,0l-0.2-8.6l-0.2,0h0.2
				c0-2.5-1.5-4.5-3.5-5.8c-2-1.3-4.7-2-7.1-2h0c-4.9,0-9,4-9,9v6.7l0,0c0.1,2.2,0.7,3.9,1.6,5.2c1.3,1.9,3.1,2.8,4.6,3.3
				c1.5,0.5,2.7,0.5,2.8,0.5h0V56.9l-0.1,0.2L77.2,56.9z"/>
		</g>
		<g>
			<path class="st3" d="M89.2,37.3c0,1.1-5,10.3-6,7.4c-1.3-3.6-3.1-0.8-3.3-0.3c-1.7,4.3,0.7,4.9,1.8,5c-1.4,5.7-3.6,8.4-7.8,8.3
				c-8-0.1-8-4.5-9.7-14.3c0-9,3.2-13.6,9.5-13.5C78.6,28.5,89.2,28.3,89.2,37.3z"/>
		</g>
		<g>
			<path class="st2" d="M89.2,37.3H89c0,0,0,0.1,0,0.2c-0.1,0.4-0.4,1-0.8,1.8c-0.6,1.2-1.4,2.6-2.3,3.8c-0.4,0.6-0.8,1.1-1.2,1.4
				C84.3,44.9,84,45,83.8,45c-0.1,0-0.1,0-0.2-0.1c-0.1-0.1-0.1-0.2-0.2-0.3c-0.3-0.7-0.5-1.2-0.8-1.5c-0.3-0.3-0.6-0.5-1-0.5
				c-0.3,0-0.5,0.1-0.7,0.2c-0.3,0.2-0.6,0.5-0.8,0.8c-0.2,0.3-0.3,0.5-0.4,0.7c-0.4,1.1-0.6,1.9-0.6,2.6c0,1.1,0.4,1.8,1,2.2
				c0.6,0.4,1.2,0.5,1.6,0.6l0-0.2l-0.2-0.1c-0.7,2.8-1.6,4.8-2.8,6.2c-1.2,1.3-2.7,2-4.7,2c0,0-0.1,0-0.1,0c-2,0-3.5-0.3-4.6-0.9
				c-0.8-0.4-1.5-1-2-1.7c-0.8-1.1-1.3-2.6-1.7-4.5c-0.4-1.9-0.8-4.2-1.2-7l-0.2,0h0.2c0-4.4,0.8-7.7,2.3-9.9
				c1.5-2.2,3.7-3.3,6.7-3.3c0.1,0,0.2,0,0.3,0l0,0l0,0c1.4-0.4,3.4-0.8,5.4-0.8c2.4,0,4.8,0.4,6.7,1.6c1.8,1.2,3.1,3.1,3.1,6.2
				H89.2h0.2c0-3.2-1.3-5.3-3.3-6.6c-2-1.3-4.5-1.7-6.9-1.7c-2.1,0-4.1,0.3-5.6,0.8l0.1,0.2l0-0.2c-0.1,0-0.2,0-0.3,0
				c-3.1,0-5.5,1.2-7.1,3.5C64.8,35.6,64,39,64,43.4v0l0,0c0.9,4.9,1.3,8.5,2.5,10.9c0.6,1.2,1.5,2.1,2.7,2.7
				c1.2,0.6,2.7,0.9,4.8,0.9c0.1,0,0.1,0,0.2,0c2.1,0,3.7-0.7,5-2.1c1.3-1.4,2.2-3.5,2.9-6.3l0.1-0.3l-0.3,0c-0.4,0-1-0.2-1.4-0.5
				c-0.4-0.3-0.8-0.8-0.8-1.8c0-0.6,0.2-1.4,0.6-2.4c0.1-0.1,0.3-0.5,0.6-0.8c0.1-0.2,0.3-0.3,0.5-0.4c0.2-0.1,0.3-0.2,0.5-0.2
				c0.2,0,0.4,0.1,0.6,0.3c0.2,0.3,0.5,0.7,0.7,1.4c0.1,0.2,0.2,0.4,0.3,0.5c0.1,0.1,0.3,0.2,0.5,0.2c0.3,0,0.6-0.1,0.8-0.3
				c0.5-0.4,1-1,1.6-1.7c0.8-1.1,1.6-2.4,2.2-3.6c0.3-0.6,0.6-1.1,0.7-1.6c0.1-0.2,0.2-0.4,0.2-0.6c0-0.2,0.1-0.3,0.1-0.4H89.2z"/>
		</g>
		<g>
			<path class="st2" d="M93,122.3c-0.8,1-1.9,2.3-2.9,2.8l0.2,0.4c1.1-0.6,2.3-1.9,3-2.9L93,122.3L93,122.3z"/>
		</g>
		<g>
			<path class="st2" d="M79.8,82c0.2,0,0.5,0,0.7,0c3.7,0,6.6,0.5,8.8,1.5c3.3,1.5,5.3,4.1,6.4,8c1.1,3.9,1.4,9.2,1.4,15.8
				c0,2-0.3,4.7-0.9,7.2c-0.6,2.5-1.4,4.9-2.5,6.4l0.4,0.3c1.1-1.6,2-4,2.5-6.6c0.6-2.6,0.9-5.2,0.9-7.3c0-8.8-0.5-15.2-2.9-19.5
				c-1.2-2.1-2.9-3.7-5.2-4.7c-2.3-1-5.3-1.5-9-1.5c-0.2,0-0.4,0-0.7,0L79.8,82L79.8,82z"/>
		</g>
		<g>
			<path class="st2" d="M72,82c1.2-0.1,2.2-0.1,3.4-0.1c0.8,0,1.6,0,2.7,0.1l0-0.5c-1.1-0.1-2-0.1-2.7-0.1c-1.2,0-2.2,0.1-3.4,0.1
				L72,82L72,82z"/>
		</g>
		<g>
			<path class="st2" d="M79.2,30.7c0.1,0,0.2,0,0.3,0c3.6,0,6,1.7,7.5,3.9l0.4-0.3c-1.6-2.3-4.2-4.1-7.9-4.1c-0.1,0-0.2,0-0.3,0
				L79.2,30.7L79.2,30.7z"/>
		</g>
		<g>
			<path class="st2" d="M75.4,31.3c0.8-0.4,1.7-0.5,2.7-0.6l0-0.5c-0.9,0.1-1.9,0.2-2.8,0.6L75.4,31.3L75.4,31.3z"/>
		</g>
		<g>
			<path class="st1" d="M295.7,47.7c0.2-0.3,2.2-0.3,2.3-0.3c0.6-0.2,1.1-3.7,1.1-4c1.3,0.1,3.2,0.3,5.2-1.2c-2.2,1.9-5.6,1.1-7,0.9
				c-4-0.5-3.9-4.7-3.9-6.3c-0.1-2.9,0.5-4.7,0.4-8.1c-0.1-4.5,4.2-6.6,6.9-6.9c2.3-0.3,6.1,0.2,7.6,2.1c2.1,2.8,2.3,5.3,2.8,8.4
				c0.4,2.8-2.3,7.9-0.8,15.4c0.4,1.7,0.8,4.2-0.2,5.6c-0.8,1.2-2.7,3.6-7.5,3.5C297.1,56.8,295.7,47.7,295.7,47.7z"/>
		</g>
		<g>
			<path class="st2" d="M295.7,47.7l0.2,0.1l0,0l0,0l0,0l0,0l0,0c0,0,0,0,0.1,0c0.2-0.1,0.7-0.1,1.2-0.1c0.2,0,0.4,0,0.6,0
				c0.1,0,0.1,0,0.2,0l0.1,0l0,0l0.1,0c0.2-0.1,0.2-0.2,0.3-0.3c0.1-0.2,0.3-0.6,0.4-0.9c0.2-0.6,0.3-1.2,0.4-1.8
				c0.1-0.3,0.1-0.5,0.1-0.7c0-0.2,0.1-0.3,0.1-0.4l-0.2,0l0,0.2c0.4,0,0.9,0.1,1.4,0.1c1.1,0,2.5-0.2,4-1.3l-0.1-0.2l-0.1-0.2
				c-1.1,0.9-2.5,1.2-3.8,1.2c-1.2,0-2.3-0.2-3-0.3l0,0l0,0c-1-0.1-1.6-0.5-2.2-0.9c-0.8-0.7-1.2-1.7-1.4-2.6
				c-0.2-1-0.2-1.9-0.2-2.6c0-0.3,0-0.5,0-0.8c0-2.3,0.5-4,0.5-6.8c0-0.2,0-0.3,0-0.5v0c0,0,0-0.1,0-0.1c0-2.1,1-3.6,2.4-4.7
				c1.3-1.1,3-1.6,4.3-1.8c0.4,0,0.7-0.1,1.2-0.1c1.1,0,2.4,0.1,3.5,0.5c1.1,0.3,2.1,0.9,2.7,1.6c1,1.4,1.6,2.6,2,4
				c0.4,1.3,0.5,2.8,0.8,4.3c0,0.2,0,0.4,0,0.6c0,1.1-0.3,2.5-0.6,4.1c-0.3,1.7-0.7,3.7-0.7,5.9c0,1.5,0.1,3,0.5,4.7
				c0.2,0.9,0.4,2.1,0.4,3.1c0,0.9-0.2,1.7-0.6,2.3c-0.4,0.6-1,1.4-2.1,2.1c-1.1,0.7-2.6,1.3-4.9,1.3c-0.1,0-0.2,0-0.3,0
				c-1.3,0-2.4-0.6-3.3-1.4c-1.3-1.3-2.2-3.2-2.7-4.7c-0.3-0.8-0.4-1.5-0.6-2c-0.1-0.3-0.1-0.5-0.1-0.6c0-0.1,0-0.2,0-0.2
				L295.7,47.7l0.2,0.1L295.7,47.7l-0.2,0c0,0,0.3,2.3,1.4,4.6c0.5,1.2,1.2,2.3,2.2,3.2c0.9,0.9,2.1,1.5,3.6,1.5c0.1,0,0.2,0,0.3,0
				c2.4,0,4-0.6,5.2-1.3c1.2-0.7,1.8-1.7,2.3-2.2c0.5-0.7,0.7-1.6,0.7-2.6c0-1.1-0.2-2.3-0.4-3.2c-0.3-1.7-0.5-3.2-0.5-4.6
				c0-2.2,0.3-4.2,0.6-5.9c0.3-1.7,0.7-3.1,0.7-4.2c0-0.2,0-0.5,0-0.7c-0.2-1.6-0.4-3-0.8-4.4c-0.4-1.4-1-2.7-2-4.1
				c-0.6-0.9-1.7-1.4-2.9-1.8c-1.2-0.4-2.5-0.5-3.7-0.5c-0.4,0-0.8,0-1.2,0.1c-1.4,0.2-3.1,0.8-4.6,1.9c-1.4,1.1-2.5,2.8-2.5,5.1
				c0,0,0,0.1,0,0.1v0c0,0.2,0,0.3,0,0.5c0,2.7-0.5,4.4-0.5,6.8c0,0.3,0,0.5,0,0.8c0,0.8,0,2.3,0.5,3.6c0.2,0.7,0.6,1.3,1.2,1.9
				c0.6,0.5,1.4,0.9,2.4,1l0-0.2l0,0.2c0.7,0.1,1.8,0.3,3.1,0.3c1.4,0,2.9-0.3,4.1-1.3l-0.3-0.4c-1.4,1-2.6,1.2-3.7,1.2
				c-0.5,0-0.9,0-1.3-0.1l-0.2,0l0,0.2c0,0.1-0.1,0.3-0.1,0.7c-0.1,0.5-0.2,1.3-0.4,2c-0.1,0.3-0.2,0.6-0.3,0.8
				c0,0.1-0.1,0.2-0.1,0.2l0,0.1l0,0l0,0l0,0l0,0l0,0l0,0l0,0l0.1,0.2l0-0.2l0,0l0.1,0.2l0-0.2c0,0-0.1,0-0.1,0
				c-0.2,0-0.7,0-1.2,0.1c-0.2,0-0.4,0-0.6,0.1c-0.1,0-0.2,0-0.3,0.1c-0.1,0-0.2,0.1-0.2,0.2l-0.1,0.1l0,0.1L295.7,47.7z"/>
		</g>
		<g>
			<path class="st3" d="M279.2,92l9.6-22.1c0,0,1.1,21.5,1.2,23c0.3,3.9,5.9,3.5,5.9,3.5s18.5-0.1,18.6-0.1c5.7,0,5.1-4.9,5.1-4.9
				l-0.2-25.6c0,0,6,13.9,10,13.2c1.4-0.2,17.5-12.9,17.5-12.9l-3.7-5.3c0,0-8.8,6.7-11.8,7c-1.3-0.9-7.5-16.7-14.4-19.7
				c-1.3-0.6-2.2-0.8-5.6-1c-1.9-0.1-0.7,6.9-7.8,6.9c-6.7,0-5.6-6.8-7.3-6.7c-1.7,0.1-1.8,0.1-2.6,0.2c-7.9,1.3-10.3,6.9-12.4,13.9
				c-1.2,4-7.8,25.1-8.7,28.5L279.2,92z"/>
		</g>
		<g>
			<path class="st2" d="M279.2,92l0.2,0.1l9.6-22.1l-0.2-0.1l-0.2,0c0,0,1.1,21.5,1.2,23c0.1,0.9,0.4,1.5,0.8,2
				c0.7,0.8,1.7,1.2,2.6,1.4c0.9,0.2,1.8,0.3,2.3,0.3c0.3,0,0.5,0,0.5,0l0-0.2l0,0.2c0,0,1.2,0,2.9,0c5.2,0,15.6-0.1,15.7-0.1
				c2.4,0,3.7-0.9,4.5-1.9c0.7-1,0.8-2.2,0.8-2.8c0-0.3,0-0.4,0-0.4l-0.2,0l0.2,0l-0.2-25.6l-0.2,0l-0.2,0.1c0,0,1.4,3.3,3.4,6.7
				c1,1.7,2.1,3.3,3.2,4.6c0.6,0.6,1.1,1.2,1.7,1.5c0.6,0.4,1.1,0.6,1.7,0.6c0.1,0,0.2,0,0.3,0c0.1,0,0.3-0.1,0.5-0.2
				c0.8-0.4,2.2-1.4,3.9-2.7c5.2-3.8,13.1-10.1,13.1-10.1l0.2-0.1l-4-5.7l-0.2,0.1c0,0-0.1,0.1-0.4,0.3c-0.9,0.6-3.1,2.3-5.4,3.8
				c-1.2,0.7-2.3,1.5-3.4,2c-1,0.5-2,0.9-2.6,1l0,0.2l0.1-0.2c0,0-0.1-0.1-0.2-0.3c-0.4-0.6-1.1-1.9-2-3.6c-1.4-2.6-3.2-6-5.2-9
				c-2.1-3-4.4-5.7-6.9-6.8c-0.6-0.3-1.2-0.5-2-0.7c-0.8-0.2-1.9-0.3-3.6-0.3l0,0c-0.3,0-0.6,0.2-0.8,0.4c-0.3,0.4-0.5,1-0.8,1.7
				c-0.4,1-0.8,2.2-1.7,3.2c-0.9,0.9-2.3,1.7-4.5,1.7c-1.6,0-2.7-0.4-3.6-1c-1.2-0.9-1.8-2.2-2.2-3.4c-0.2-0.6-0.4-1.1-0.6-1.5
				c-0.1-0.2-0.2-0.4-0.4-0.5c-0.1-0.1-0.3-0.2-0.6-0.2l0,0c-0.9,0-1.3,0.1-1.7,0.1c-0.3,0-0.6,0.1-1,0.1c-4,0.7-6.6,2.4-8.5,4.9
				c-1.9,2.5-3,5.7-4.1,9.2c-0.6,2-2.6,8.3-4.5,14.5c-1.9,6.2-3.8,12.3-4.2,14.1l-0.1,0.2l7,2l0.1-0.2L279.2,92l0.1-0.2l-6.6-1.9
				l-0.1,0.2l0.2,0.1c0.5-1.7,2.3-7.8,4.2-14c1.9-6.2,3.8-12.5,4.5-14.5c1.1-3.5,2.2-6.6,4-9c1.8-2.4,4.3-4.1,8.2-4.7
				c0.4-0.1,0.6-0.1,0.9-0.1c0.3,0,0.8,0,1.6-0.1l0,0c0.1,0,0.2,0,0.3,0.2c0.2,0.3,0.4,0.8,0.6,1.5c0.3,1,0.8,2.2,1.7,3.2
				c0.9,1,2.4,1.8,4.6,1.8c1.8,0,3.1-0.4,4-1.1c1.4-1,2.1-2.5,2.5-3.7c0.2-0.6,0.4-1.1,0.6-1.5c0.1-0.2,0.2-0.3,0.3-0.4
				c0.1-0.1,0.2-0.1,0.3-0.1l0,0c1.7,0.1,2.8,0.2,3.5,0.3c0.8,0.2,1.3,0.3,1.9,0.6c1.6,0.7,3.3,2.3,4.8,4.2c2.3,2.8,4.4,6.5,6.1,9.6
				c0.8,1.5,1.5,2.9,2.1,3.9c0.3,0.5,0.5,1,0.7,1.3c0.2,0.3,0.4,0.6,0.6,0.7l0.1,0l0.1,0c0.8-0.1,1.9-0.6,3.2-1.3
				c3.8-2,8.7-5.8,8.7-5.8l-0.1-0.2l-0.2,0.1l3.7,5.3l0.2-0.1l-0.1-0.2c0,0-0.3,0.2-0.7,0.5c-1.5,1.2-5.4,4.3-9.1,7
				c-1.8,1.4-3.6,2.7-5,3.7c-0.7,0.5-1.3,0.9-1.8,1.2c-0.2,0.1-0.4,0.3-0.6,0.3c-0.2,0.1-0.3,0.1-0.3,0.1c-0.1,0-0.2,0-0.2,0
				c-0.4,0-0.9-0.2-1.4-0.5c-0.9-0.6-1.9-1.7-2.8-3c-1.4-1.9-2.7-4.3-3.7-6.3c-0.5-1-0.9-1.8-1.2-2.4c-0.1-0.3-0.2-0.5-0.3-0.7
				c-0.1-0.2-0.1-0.3-0.1-0.3l-0.4-1l0.2,26.7l0,0l0,0c0,0,0,0.2,0,0.4c0,0.6-0.1,1.6-0.7,2.6c-0.6,0.9-1.8,1.7-4.1,1.7
				c-0.1,0-18.6,0.1-18.6,0.1l0,0l0,0c0,0,0,0-0.1,0c-0.1,0-0.2,0-0.3,0c-0.7,0-1.9-0.1-3.1-0.5c-0.6-0.2-1.1-0.5-1.5-1
				c-0.4-0.4-0.7-1-0.7-1.8c-0.1-0.8-0.4-6.5-0.6-12.1c-0.1-2.8-0.3-5.5-0.4-7.5c-0.1-1-0.1-1.9-0.1-2.5c0-0.6,0-0.9,0-0.9l0-1
				l-10,22.9L279.2,92l0.1-0.2L279.2,92z"/>
		</g>
		<g>
			<path class="st4" d="M287.9,24.2c0.5,3.2,3.8,3.9,5.8,4.4c0-6.8,13.7-8.3,13.3,1.6c2.5-4.6,5.6,4.5,2.1,5.2
				c1.1,3.9-1.3,7.8,0.8,7c10.2-12.9,6-26.7,1.6-22.7c-2.4-5.5-6.9-5.1-10.1-5.4c-5-0.5-10.3,3.2-9.6,6.6
				C292.8,25,287.9,24.2,287.9,24.2z"/>
		</g>
		<g>
			<path class="st2" d="M287.9,24.2l-0.2,0c0.3,1.7,1.3,2.7,2.5,3.4c1.2,0.7,2.5,0.9,3.6,1.2l0.3,0.1l0-0.3c0-1.6,0.8-2.9,2-3.8
				c1.2-0.9,2.9-1.4,4.5-1.4c1.6,0,3.2,0.5,4.3,1.5c1.2,1,2,2.6,2,4.9c0,0.1,0,0.3,0,0.4l0,1l0.5-0.9c0.2-0.4,0.5-0.7,0.7-0.9
				c0.2-0.2,0.4-0.2,0.6-0.3c0.2,0,0.4,0.1,0.7,0.3c0.3,0.3,0.7,0.8,0.9,1.4c0.2,0.6,0.4,1.3,0.4,2c0,0.6-0.1,1.1-0.3,1.5
				c-0.2,0.4-0.5,0.7-1,0.8l-0.2,0l0.1,0.2c0.2,0.8,0.3,1.6,0.3,2.3c0,0.8-0.1,1.6-0.2,2.3c-0.1,0.7-0.2,1.3-0.2,1.7
				c0,0.2,0,0.4,0.1,0.6c0.1,0.1,0.1,0.2,0.2,0.2c0.1,0.1,0.2,0.1,0.3,0.1c0.2,0,0.3,0,0.5-0.1l0.1,0l0,0c4.7-6,6.4-12.1,6.4-16.6
				c0-2.1-0.4-3.9-0.9-5.1c-0.3-0.6-0.7-1.1-1.1-1.5c-0.4-0.4-0.9-0.6-1.4-0.6c-0.6,0-1.1,0.2-1.7,0.7l0.2,0.2l0.2-0.1
				c-1.2-2.8-3-4.2-4.9-4.8c-1.9-0.6-3.8-0.6-5.4-0.8c-0.3,0-0.7-0.1-1-0.1c-2.3,0-4.5,0.8-6.1,2c-0.8,0.6-1.5,1.3-2,2
				c-0.5,0.7-0.8,1.5-0.8,2.3c0,0.2,0,0.4,0.1,0.6l0,0c0.1,0.3,0.1,0.6,0.1,0.9c0,0.5-0.1,0.9-0.3,1.2c-0.3,0.5-0.7,0.7-1.2,0.9
				c-0.5,0.2-1,0.2-1.5,0.2c-0.2,0-0.5,0-0.6,0c-0.1,0-0.1,0-0.2,0l-0.1,0l-0.3-0.1l0.1,0.3L287.9,24.2l0,0.2c0,0,0.4,0.1,0.9,0.1
				c0.6,0,1.5-0.1,2.2-0.5c0.4-0.2,0.7-0.5,0.9-0.9c0.2-0.4,0.4-0.9,0.4-1.5c0-0.3,0-0.6-0.1-1l0,0c0-0.2-0.1-0.4-0.1-0.5
				c0-0.7,0.3-1.4,0.7-2.1c0.7-1,1.8-2,3.2-2.7c1.4-0.7,3-1.1,4.6-1.1c0.3,0,0.6,0,1,0.1c1.6,0.2,3.5,0.2,5.3,0.8
				c1.8,0.6,3.4,1.8,4.6,4.5l0.1,0.3l0.2-0.2c0.5-0.4,1-0.6,1.4-0.6c0.4,0,0.7,0.1,1.1,0.4c0.5,0.4,1,1.2,1.3,2.3
				c0.3,1.1,0.5,2.4,0.5,4c0,4.4-1.6,10.5-6.3,16.4l0.2,0.1l-0.1-0.2c-0.2,0.1-0.3,0.1-0.4,0.1c-0.1,0-0.1,0-0.1,0c0,0,0,0-0.1-0.1
				c0-0.1,0-0.2,0-0.3c0-0.4,0.1-1,0.2-1.6c0.1-0.7,0.2-1.5,0.2-2.3c0-0.8-0.1-1.6-0.3-2.5l-0.2,0.1l0,0.2c0.6-0.1,1.1-0.5,1.3-1
				c0.3-0.5,0.4-1.1,0.4-1.7c0-1-0.3-2-0.7-2.8c-0.2-0.4-0.4-0.7-0.7-1c-0.3-0.3-0.6-0.4-1-0.4c-0.3,0-0.6,0.1-0.9,0.4
				c-0.3,0.2-0.6,0.6-0.8,1.1l0.2,0.1l0.2,0c0-0.1,0-0.3,0-0.4c0-2.4-0.8-4.1-2.1-5.2c-1.3-1.1-3-1.6-4.6-1.6
				c-1.7,0-3.5,0.5-4.8,1.5c-1.3,1-2.2,2.4-2.2,4.2l0.2,0l0-0.2c-1-0.2-2.3-0.5-3.4-1.1c-1.1-0.6-2-1.5-2.2-3.1L287.9,24.2l0,0.2
				L287.9,24.2z"/>
		</g>
		<g>
			<path class="st2" d="M314.8,29.5c0.2-0.6,0.2-1.4,0.2-2.2c0-1.2-0.2-2.4-0.5-3.4c-0.2-0.5-0.4-0.9-0.7-1.2
				c-0.3-0.3-0.7-0.5-1.1-0.5c-0.5,0-1,0.2-1.6,0.7l0.1,0.2l0.2-0.1c-0.8-2.5-2.1-4.3-3.3-5.4c-0.6-0.5-1.3-0.9-1.8-1.2
				c-0.6-0.3-1-0.4-1.4-0.4l-0.1,0l0,0.5l0.1,0c0.3,0,0.7,0.1,1.2,0.3c1.6,0.7,3.8,2.6,4.9,6.3l0.1,0.3l0.3-0.2
				c0.5-0.5,1-0.6,1.3-0.6c0.3,0,0.5,0.1,0.8,0.4c0.4,0.4,0.6,1,0.8,1.8c0.2,0.8,0.3,1.6,0.3,2.5c0,0.8-0.1,1.5-0.2,2L314.8,29.5
				L314.8,29.5z"/>
		</g>
		<g>
			<path class="st2" d="M313.2,34.2c0.5-1,0.9-2.1,1.2-3.1L314,31c-0.3,1.1-0.7,2.1-1.1,3.1L313.2,34.2L313.2,34.2z"/>
		</g>
		<g>
			<path class="st1" d="M347.5,66.4L347.5,66.4c-2.7,0-4.8-2.2-4.8-4.8v0c0-2.7,2.2-4.8,4.8-4.8c2.7,0,5.8,1.5,4.8,4.8
				C351.3,64.9,350.1,66.4,347.5,66.4z"/>
		</g>
		<g>
			<path class="st2" d="M347.5,66.4v-0.2c-1.3,0-2.4-0.5-3.2-1.4c-0.8-0.8-1.3-2-1.4-3.2l0,0c0-1.3,0.5-2.4,1.3-3.2
				c0.8-0.8,2-1.3,3.2-1.4c1.1,0,2.3,0.3,3.3,0.8c0.5,0.3,0.8,0.6,1.1,1.1c0.3,0.4,0.4,0.9,0.4,1.5c0,0.3-0.1,0.7-0.2,1.1
				c-0.5,1.7-1,2.8-1.7,3.6c-0.7,0.7-1.6,1.1-2.9,1.1V66.4v0.2c1.4,0,2.4-0.4,3.2-1.2c0.8-0.8,1.3-2.1,1.8-3.8
				c0.1-0.4,0.2-0.9,0.2-1.3c0-0.7-0.2-1.3-0.5-1.7c-0.5-0.7-1.2-1.3-2.1-1.6c-0.8-0.3-1.8-0.5-2.7-0.5c-2.8,0-5,2.3-5,5v0
				c0,2.8,2.3,5,5,5V66.4z"/>
		</g>
		<g>
			<path class="st1" d="M273.9,97.5L273.9,97.5c-2.6-0.4-4.4-2.9-4-5.5v0c0.4-2.6,2.9-4.4,5.5-4h0c2.6,0.4,5.5,2.3,4,5.5
				C277.9,96.6,276.5,97.9,273.9,97.5z"/>
		</g>
		<g>
			<path class="st2" d="M273.9,97.5l0-0.2c-2.3-0.3-3.9-2.3-3.9-4.5c0-0.2,0-0.5,0.1-0.7l0,0v0h-0.2l0.2,0c0.3-2.3,2.3-3.9,4.5-3.9
				c0.2,0,0.5,0,0.7,0.1l0,0h0V88l0,0.2c1,0.2,2.1,0.6,2.9,1.2c0.8,0.6,1.3,1.4,1.3,2.4c0,0.5-0.1,1-0.4,1.6c-0.6,1.4-1.3,2.4-2,3
				c-0.7,0.6-1.5,0.9-2.4,0.9c-0.3,0-0.5,0-0.8-0.1L273.9,97.5l0,0.2c0.3,0,0.6,0.1,0.9,0.1c1.1,0,2-0.4,2.8-1.1
				c0.8-0.7,1.4-1.8,2.1-3.2c0.3-0.6,0.4-1.2,0.4-1.7c0-1.2-0.6-2.1-1.5-2.8c-0.9-0.7-2-1.1-3.1-1.3l0,0h0V88l0-0.2
				c-0.3,0-0.5-0.1-0.8-0.1c-2.5,0-4.6,1.8-5,4.3l0,0v0h0.2l-0.2,0c0,0.3-0.1,0.5-0.1,0.8c0,2.5,1.8,4.6,4.3,5L273.9,97.5z"/>
		</g>
		<g>
			<polyline class="st2" points="348.7,59.5 357,44 356.2,43.6 347.9,59.1 			"/>
		</g>
		<g>
			<path class="st2" d="M192.3,97.8c0.3,1.1,0.7,2.1,1.2,3.1l0.4-0.2c-0.4-1-0.8-2-1.2-3.1L192.3,97.8L192.3,97.8z"/>
		</g>
		<g>
			<path class="st2" d="M195,71c-0.8,0.3-1.5,1-2,1.9c-0.8,1.3-1.4,3.2-1.7,5.4c-0.4,2.2-0.5,4.7-0.5,7.1c0,3.8,0.4,7.6,1.1,10.4
				l0.4-0.1c-0.7-2.7-1.1-6.5-1.1-10.3c0-3.3,0.3-6.5,1-9.1c0.3-1.3,0.7-2.4,1.3-3.2c0.5-0.8,1.1-1.4,1.8-1.7L195,71L195,71z"/>
		</g>
		<g>
			<path class="st2" d="M295.1,52.8c0.9,1.8,2.2,3,3.7,3.9c1.5,0.8,3.4,1.2,5.4,1.5c0.3,0,0.6,0.1,0.9,0.1c2.1,0,3.9-1,5.1-2.1
				c0.6-0.5,1.1-1.1,1.5-1.6c0.4-0.5,0.6-0.8,0.7-1l-0.4-0.2c-0.1,0.1-0.3,0.5-0.7,1c-0.5,0.7-1.4,1.6-2.4,2.3
				c-1.1,0.7-2.4,1.2-3.8,1.2c-0.3,0-0.5,0-0.8-0.1c-2-0.3-3.8-0.7-5.2-1.5c-1.5-0.8-2.7-1.9-3.5-3.7L295.1,52.8L295.1,52.8z"/>
		</g>
		<g>
			<path class="st2" d="M327.8,67.8c0.4,0.7,0.8,1.4,1.2,2l0.4-0.2c-0.4-0.7-0.8-1.3-1.2-2L327.8,67.8L327.8,67.8z"/>
		</g>
		<g>
			<path class="st2" d="M317.4,50.8c4.6,4.1,6.8,10.2,9.6,15.6l0.4-0.2c-2.8-5.4-5-11.5-9.7-15.7L317.4,50.8L317.4,50.8z"/>
		</g>
		<g>
			<rect x="320.8" y="28.3" class="st4" width="18.6" height="13.1"/>
		</g>
		<g>
			<rect x="348.3" y="28.2" class="st3" width="18.6" height="13.1"/>
		</g>
		<g>
			<rect x="375.5" y="28.2" class="st4" width="18.6" height="13.1"/>
		</g>
		<g>
			<polyline class="st2" points="338.5,87.7 334.4,96.8 334.8,97 338.9,87.9 			"/>
		</g>
		<g>
			<polyline class="st2" points="346.2,87.7 342.2,96.8 342.6,97 346.6,87.9 			"/>
		</g>
		<g>
			<polyline class="st2" points="348.5,87.7 344.3,96.8 344.8,97 348.9,87.9 			"/>
		</g>
		<g>
			<polyline class="st2" points="358.4,87.9 362.6,97 363,96.8 358.8,87.7 			"/>
		</g>
		<g>
			<polyline class="st2" points="366.1,87.7 370.2,97 370.6,96.8 366.5,87.6 			"/>
		</g>
		<g>
			<polyline class="st2" points="368.5,87.9 372.5,97 372.9,96.8 369,87.7 			"/>
		</g>
		<g>
			<path class="st1" d="M282.6,101.1V78.2c0-1.8,1.5-3.3,3.3-3.3h43.4c1.8,0,3.3,1.5,3.3,3.3v22.9H282.6z"/>
		</g>
		<g>
			<path class="st2" d="M282.6,101.1h0.2V78.2c0-0.8,0.3-1.6,0.9-2.1c0.6-0.6,1.3-0.9,2.1-0.9h43.4c0.8,0,1.6,0.3,2.1,0.9
				c0.6,0.6,0.9,1.3,0.9,2.1v22.7h-49.7V101.1h0.2H282.6v0.2h50.2V78.2c0-1.9-1.6-3.5-3.5-3.5h-43.4c-1.9,0-3.5,1.6-3.5,3.5v23.2
				h0.2V101.1z"/>
		</g>
		<g>
			<path class="st2" d="M285.9,82.3c0,0,0-0.6,0-1.3s0-1.3,0-1.3c0-0.4,0-0.7,0.1-1c0.1-0.4,0.2-0.6,0.5-0.7
				c0.3-0.1,0.7-0.2,1.4-0.2c0.1,0,23.8,0,23.8,0l0-0.5c0,0-5.9,0-11.8,0c-5.9,0-11.9,0-12,0c-0.5,0-0.9,0-1.2,0.1
				c-0.5,0.1-0.9,0.4-1.1,0.8c-0.2,0.4-0.3,0.9-0.3,1.5c0,0.1,0,2.6,0,2.6H285.9L285.9,82.3z"/>
		</g>
		<g>
			<path class="st2" d="M330.1,87.3c0,0,0-7.6,0-7.6c0-0.4,0-0.8-0.1-1.1c-0.1-0.5-0.4-0.8-0.8-1c-0.4-0.2-0.9-0.3-1.6-0.3
				c-0.1,0-1.5,0-1.5,0l0,0.5c0,0,1.4,0,1.5,0c0.5,0,0.8,0,1.1,0.1c0.4,0.1,0.6,0.3,0.8,0.5c0.1,0.3,0.2,0.7,0.2,1.3
				c0,0.1,0,7.6,0,7.6H330.1L330.1,87.3z"/>
		</g>
		<g>
			<path class="st2" d="M285.9,86c0-0.7,0-1.5,0-2.2h-0.5c0,0.7,0,1.5,0,2.2H285.9L285.9,86z"/>
		</g>
		<g>
			<path class="st1" d="M307,87c0,0,0.7-0.6,1.3-0.3c0.7,0.2,0.9,0.7,0.8,0.9c-0.6,0.1-1.1,1.3-0.2,1.6c-0.1,0.5-0.4,0.9-0.9,1.1
				c-0.3,0.1-0.6,0-0.8,0c-0.2,0-1.1,0.6-1.9-0.7c-0.9-1.5-0.6-2.8,0.7-2.9C306.6,86.6,307,87,307,87z"/>
		</g>
		<g>
			<path class="st2" d="M307,87l0.1,0.2l0,0c0,0,0.4-0.3,0.8-0.3c0.1,0,0.2,0,0.3,0c0.2,0.1,0.4,0.2,0.5,0.3
				c0.1,0.1,0.1,0.2,0.1,0.2l0,0l0,0l0,0l0,0l0,0l0,0l0.2,0.1l0-0.2c-0.3,0-0.5,0.2-0.6,0.4c-0.1,0.2-0.2,0.5-0.2,0.7
				c0,0.2,0,0.4,0.2,0.5c0.1,0.2,0.3,0.3,0.5,0.4l0.1-0.2l-0.2,0c0,0.2-0.1,0.4-0.2,0.6c-0.1,0.1-0.3,0.3-0.5,0.4
				c-0.1,0-0.1,0-0.2,0c-0.1,0-0.2,0-0.2,0c-0.1,0-0.2,0-0.3,0l0,0l0,0.2l0-0.2c-0.1,0-0.1,0-0.1,0c-0.1,0-0.3,0.1-0.5,0.1
				c-0.1,0-0.3,0-0.5-0.1c-0.2-0.1-0.4-0.3-0.6-0.6c-0.3-0.5-0.5-1-0.5-1.4c0-0.3,0.1-0.6,0.3-0.8c0.2-0.2,0.4-0.3,0.8-0.3l0.1,0
				c0.2,0,0.4,0.1,0.5,0.1c0.1,0,0.1,0.1,0.1,0.1l0,0l0,0l0,0l-0.1,0l0,0l0,0l-0.1,0l0.1,0.2l0.2-0.1L307,87l0.2-0.2
				c0,0-0.4-0.4-1-0.4c0,0-0.1,0-0.1,0c-0.4,0-0.8,0.2-1.1,0.5c-0.3,0.3-0.4,0.7-0.4,1.1c0,0.5,0.2,1.1,0.5,1.7
				c0.2,0.4,0.5,0.6,0.7,0.8c0.2,0.2,0.5,0.2,0.7,0.2c0.2,0,0.3,0,0.5-0.1c0.1,0,0.1,0,0.1,0l0,0l0,0l0-0.1l0,0.1l0,0l0-0.1l0,0.1
				l0,0l0,0l0,0v0l0,0l0,0v0c0,0,0.1,0,0.2,0c0.1,0,0.2,0,0.4,0c0.1,0,0.2,0,0.3-0.1c0.3-0.1,0.5-0.3,0.7-0.5
				c0.2-0.2,0.3-0.5,0.3-0.8l0-0.2L309,89c-0.1-0.1-0.2-0.1-0.3-0.2c-0.1-0.1-0.1-0.2-0.1-0.3c0-0.2,0.1-0.3,0.2-0.5
				c0.1-0.1,0.2-0.2,0.3-0.2l0.1,0l0.1-0.1c0.1-0.1,0.1-0.2,0.1-0.3c0-0.2-0.1-0.4-0.3-0.5c-0.2-0.2-0.4-0.3-0.7-0.4
				c-0.1-0.1-0.3-0.1-0.4-0.1c-0.3,0-0.6,0.1-0.8,0.2c-0.2,0.1-0.3,0.2-0.3,0.2L307,87l0.2-0.2L307,87z"/>
		</g>
		<g>
			<path class="st1" d="M307,86.2c0,0,0.1-1.1,1.7-1.3C308,86.1,307,86.2,307,86.2z"/>
		</g>
		<g>
			<path class="st2" d="M307,86.2l0.2,0l-0.1,0l0.1,0l0,0l-0.1,0l0.1,0c0,0,0-0.2,0.2-0.5c0.2-0.2,0.6-0.5,1.3-0.6l0-0.2l-0.2-0.1
				c-0.3,0.6-0.7,0.9-1,1.1c-0.2,0.1-0.3,0.1-0.4,0.1c0,0-0.1,0-0.1,0l0,0l0,0l0,0.1l0-0.1l0,0l0,0.1l0-0.1L307,86.2l0.2,0L307,86.2
				l0,0.2c0,0,0.3,0,0.7-0.2c0.4-0.2,0.8-0.6,1.2-1.2l0.2-0.4l-0.5,0.1c-0.9,0.1-1.3,0.5-1.6,0.8c-0.3,0.3-0.3,0.7-0.3,0.7l0,0.3
				l0.3,0L307,86.2z"/>
		</g>
		<g>
			<path class="st2" d="M199.7,37.8c-0.7,2.8-0.9,5.8-0.9,8.1c0,1,0,1.9,0.1,2.5c0,0.3,0.1,1.1,0.2,2.2c0.1,1,0.1,2.3,0.1,3.7
				c0,1.6-0.1,3.2-0.4,4.5c-0.1,0.6-0.3,1.2-0.6,1.6c-0.2,0.4-0.5,0.7-0.9,0.8l0.2,0.4c0.5-0.2,0.8-0.6,1.1-1
				c0.4-0.7,0.7-1.7,0.8-2.8c0.2-1.1,0.2-2.3,0.2-3.6c0-1.3-0.1-2.6-0.1-3.7c-0.1-1-0.1-1.8-0.2-2.2c0-0.6-0.1-1.5-0.1-2.5
				c0-2.3,0.2-5.3,0.9-8L199.7,37.8L199.7,37.8z"/>
		</g>
		<g>
			<path class="st2" d="M205.9,84.5c0.7,1.2,1.5,2,2.4,2.5c0.9,0.5,2,0.8,3.1,0.8c1.1,0,2.2-0.2,3.3-0.6l-0.1-0.4
				c-1.1,0.3-2.2,0.5-3.2,0.5c-1,0-2-0.2-2.8-0.7c-0.9-0.5-1.6-1.2-2.2-2.4L205.9,84.5L205.9,84.5z"/>
		</g>
	</g>
</g>
</svg>
