<?xml version="1.0" encoding="utf-8"?>
<!-- Generator: Adobe Illustrator 19.2.1, SVG Export Plug-In . SVG Version: 6.00 Build 0)  -->
<svg version="1.1" id="Layer_1" xmlns="http://www.w3.org/2000/svg" xmlns:xlink="http://www.w3.org/1999/xlink" x="0px" y="0px"
	 viewBox="0 0 450 125.5" style="enable-background:new 0 0 450 125.5;" xml:space="preserve">
<style type="text/css">
	.st0{fill:#FBB03B;}
	.st1{fill:#FFFFFF;}
	.st2{fill:#999999;}
	.st3{fill:#94C7EB;}
</style>
<g>
	<g>
		<path class="st0" d="M240.3,26c-1.3,5.1,8.5,19-8.9,18.7c-19.5-0.3-9.5-13.5-10.3-18.7c-0.7-4.9,2.4-11.3,9.9-11.2
			C237.1,14.9,241.5,21.5,240.3,26z"/>
	</g>
	<g>
		<path class="st1" d="M227.1,35.7c0,0,0.8,6.1-2,7.4c-2.8,1.3-9.5,0.5-9.6,14.2c-0.1,6.9-0.1,13.2-0.1,13.2h32.2
			c0,0,0.2-7.1,0.1-11.6c-0.6-10.3-0.5-12.9-8.9-15.5c-2.9-0.9-3.7-1.5-3.8-7.6L227.1,35.7z"/>
	</g>
	<g>
		<path class="st2" d="M227.1,35.7l-0.2,0c0,0,0,0,0,0.1c0,0.3,0.1,0.9,0.1,1.7c0,0.9-0.1,2.1-0.4,3.1c-0.1,0.5-0.3,1-0.6,1.4
			c-0.3,0.4-0.6,0.7-1,0.9c-0.7,0.3-1.6,0.5-2.6,0.8c-1.5,0.5-3.3,1.3-4.7,3.2c-1.4,2-2.4,5.1-2.4,10.3c-0.1,6.9-0.1,13.2-0.1,13.2
			v0.2h32.6l0-0.2c0,0,0.1-5.1,0.1-9.4c0-0.8,0-1.5,0-2.2l0,0l0,0c-0.3-5.2-0.4-8.4-1.5-10.7c-0.6-1.2-1.4-2.1-2.6-2.8
			c-1.2-0.8-2.8-1.4-4.9-2.1c-0.7-0.2-1.3-0.4-1.8-0.7c-0.7-0.4-1.1-0.9-1.4-1.9c-0.3-1-0.5-2.5-0.5-4.8l0-0.2l-8.3-0.2l0,0.2
			L227.1,35.7l0,0.2L235,36l0-0.2l-0.2,0c0.1,3,0.3,4.7,0.9,5.8c0.3,0.5,0.7,0.9,1.2,1.2c0.5,0.3,1.1,0.5,1.8,0.7
			c2.1,0.6,3.7,1.3,4.8,2c1.7,1.1,2.6,2.5,3.1,4.5c0.5,2.1,0.6,4.8,0.9,8.7l0.2,0l-0.2,0c0,0.7,0,1.4,0,2.2c0,2.1,0,4.5-0.1,6.3
			c0,0.9,0,1.7,0,2.2c0,0.5,0,0.9,0,0.9l0.2,0v-0.2h-32.2v0.2h0.2c0,0,0-0.4,0-1.1c0-2.1,0-6.9,0.1-12.1c0-3.4,0.5-5.9,1.2-7.8
			c1-2.8,2.6-4.1,4.1-4.8c1.6-0.8,3.1-0.9,4.2-1.5c0.5-0.2,0.8-0.6,1.1-1c0.9-1.3,1-3.2,1-4.6c0-1.1-0.1-1.9-0.1-1.9L227.1,35.7
			l0,0.2L227.1,35.7z"/>
	</g>
	<g>
		<path class="st3" d="M225.1,43c-2.8,1.3-9.5,0.5-9.6,14.2c-0.1,6.9,0,26.2,0,26.2h32.2c0,0,0.2-20.1,0.1-24.6
			c-0.6-10.3-0.5-12.9-8.9-15.5C234.6,48.9,227.6,49.4,225.1,43z"/>
	</g>
	<g>
		<path class="st2" d="M225.1,43l-0.1-0.2c-0.7,0.3-1.6,0.5-2.6,0.8c-1.5,0.5-3.3,1.3-4.7,3.2c-1.4,2-2.4,5.1-2.4,10.3
			c0,3.3,0,9.4,0,14.9c0,6,0,11.3,0,11.3l0,0.2h32.6l0-0.2c0,0,0.1-13.3,0.1-20.7c0-1.7,0-3.1,0-3.9l0,0l0,0
			c-0.3-5.2-0.4-8.4-1.5-10.7c-0.6-1.2-1.4-2.1-2.6-2.8c-1.2-0.8-2.8-1.4-4.9-2.1l-0.1,0l-0.1,0.1c-2.1,2.8-4.9,4.2-7.4,4.2
			c-1.3,0-2.4-0.4-3.5-1.1c-1-0.7-1.9-1.9-2.5-3.4l-0.1-0.2l-0.2,0.1L225.1,43l-0.2,0.1c0.6,1.6,1.6,2.8,2.6,3.6
			c1.1,0.8,2.4,1.2,3.7,1.2c2.7,0,5.5-1.5,7.7-4.4l-0.1-0.1l-0.1,0.2c2.1,0.6,3.7,1.3,4.8,2c1.7,1.1,2.6,2.5,3.1,4.5
			c0.5,2.1,0.6,4.8,0.9,8.7l0.2,0l-0.2,0c0,0.8,0,2.2,0,3.9c0,3.7,0,8.9-0.1,13.1c0,2.1,0,4,0,5.4c0,1.4,0,2.2,0,2.2l0.2,0v-0.2
			h-32.2v0.2l0.2,0c0,0,0-0.3,0-0.9c0-1.8,0-5.9,0-10.4c0-5.5,0-11.6,0-14.9c0-3.4,0.5-5.9,1.2-7.8c1-2.8,2.6-4.1,4.1-4.8
			c1.6-0.8,3.1-0.9,4.2-1.5L225.1,43l-0.2,0.1L225.1,43z"/>
	</g>
	<g>
		<path class="st0" d="M152.5,46.4c1.4-1.3,2.2-1.7,3.3-4.6c2.1-5.3-1.6-8.9,0.4-14.4c0.2-0.6,3-6.6,7-7.5c1.7-0.4,3,0,3.9,1
			c0.7-0.7,2.1-1.4,4.1-1c4.3,0.9,6.6,6.4,6.9,7.6c1.8,6.9-0.8,8.2-0.5,13.3c0.2,4.1,4.3,5.7,4.7,5.7c-3.3,1.3-8.9,4.7-16.3,4.4
			C158.7,50.7,155.6,47.9,152.5,46.4z"/>
	</g>
	<g>
		<path class="st1" d="M162.8,40.8c0,0,0.8,5.8-1.9,7.1c-2.6,1.3-9,0.4-9.2,13.5c-0.1,6.6-0.1,12.6-0.1,12.6h30.8
			c0,0,0.2-6.8,0.1-11.1c-0.5-9.9-0.5-12.3-8.5-14.7c-2.8-0.9-3.5-1.5-3.7-7.2L162.8,40.8z"/>
	</g>
	<g>
		<path class="st2" d="M162.8,40.8l-0.2,0c0,0,0,0,0,0.1c0,0.3,0.1,0.9,0.1,1.7c0,0.9-0.1,2-0.4,3c-0.1,0.5-0.3,0.9-0.6,1.3
			c-0.3,0.4-0.6,0.7-0.9,0.8c-0.6,0.3-1.5,0.5-2.5,0.8c-1.5,0.5-3.2,1.2-4.5,3.1c-1.3,1.9-2.3,4.9-2.3,9.8
			c-0.1,6.6-0.1,12.6-0.1,12.6v0.2h31.1l0-0.2c0,0,0.1-4.9,0.1-9c0-0.7,0-1.5,0-2.1l0,0l0,0c-0.3-4.9-0.4-8-1.5-10.2
			c-0.5-1.1-1.3-2-2.5-2.7c-1.2-0.7-2.7-1.4-4.7-2c-0.7-0.2-1.2-0.4-1.7-0.7c-0.7-0.4-1.1-0.9-1.4-1.9c-0.3-1-0.4-2.4-0.5-4.6l0-0.2
			l-7.9-0.2l0,0.2L162.8,40.8l0,0.2l7.6,0.1l0-0.2l-0.2,0c0.1,2.9,0.3,4.5,0.9,5.5c0.3,0.5,0.7,0.9,1.2,1.2c0.5,0.3,1.1,0.5,1.7,0.7
			c2,0.6,3.5,1.2,4.6,1.9c1.7,1.1,2.5,2.4,3,4.3c0.5,2,0.6,4.6,0.8,8.3l0.2,0l-0.2,0c0,0.7,0,1.4,0,2.1c0,2,0,4.3-0.1,6
			c0,0.9,0,1.6,0,2.1c0,0.5,0,0.8,0,0.8l0.2,0v-0.2h-30.8V74h0.2c0,0,0-0.4,0-1c0-2,0-6.6,0.1-11.6c0-3.3,0.5-5.6,1.1-7.4
			c1-2.6,2.5-3.9,3.9-4.6c1.5-0.7,3-0.9,4-1.4c0.4-0.2,0.8-0.6,1.1-1c0.8-1.2,1-3.1,1-4.4c0-1.1-0.1-1.8-0.1-1.8L162.8,40.8l0,0.2
			L162.8,40.8z"/>
	</g>
	<g>
		<path class="st3" d="M159.8,48.2c-2.6,1.3-7.8,1.5-8,5.8c-0.3,6.6-0.1,19.9-0.1,19.9h30.8c0,0,0.3-15.4,0.2-19.6
			c0.1-2.7-3.4-4.6-8.7-6.2C171.5,51.3,165.4,58,159.8,48.2z"/>
	</g>
	<g>
		<path class="st2" d="M159.8,48.2l-0.1-0.2c-1.3,0.6-3.2,1-4.9,1.8c-0.8,0.4-1.6,0.9-2.2,1.6c-0.6,0.7-0.9,1.6-1,2.7
			c-0.1,3.6-0.2,9.3-0.2,13.7c0,3.6,0,6.2,0,6.2l0,0.2h31.1l0-0.2c0,0,0.2-12.4,0.2-18c0-0.6,0-1.2,0-1.6l-0.2,0l0.2,0
			c0,0,0-0.1,0-0.1c0-0.7-0.2-1.4-0.7-1.9c-0.6-0.9-1.7-1.7-3.1-2.4c-1.4-0.7-3.1-1.3-5-1.9l-0.1,0l-0.1,0.1
			c-0.8,0.9-1.9,2.2-3.2,3.3c-1.3,1-2.8,1.8-4.4,1.8c-1,0-2-0.3-3.1-1.1c-1.1-0.8-2.1-2-3.2-3.9l-0.1-0.1l-0.1,0.1L159.8,48.2
			l-0.2,0.1c1.1,1.9,2.2,3.2,3.3,4c1.1,0.8,2.2,1.2,3.3,1.2c1.7,0,3.3-0.8,4.6-1.9c1.3-1.1,2.5-2.4,3.2-3.3l-0.1-0.1l-0.1,0.2
			c2.6,0.8,4.7,1.6,6.2,2.6c0.7,0.5,1.3,1,1.7,1.5c0.4,0.5,0.6,1.1,0.6,1.7c0,0,0,0.1,0,0.1l0,0l0,0c0,0.4,0,1,0,1.6
			c0,2.8-0.1,7.3-0.1,11.1c0,1.9-0.1,3.6-0.1,4.9c0,1.3,0,2,0,2l0.2,0v-0.2h-30.8V74l0.2,0c0,0,0-0.7,0-1.8c0-1.1,0-2.7,0-4.5
			c0-4.4,0-10,0.2-13.7c0-1,0.4-1.8,0.9-2.5c0.8-0.9,2-1.5,3.3-2c1.3-0.5,2.6-0.8,3.6-1.3L159.8,48.2l-0.2,0.1L159.8,48.2z"/>
	</g>
	<g>
		<path class="st1" d="M86.6,125.5c0-27.1,62.5-49.1,139.7-49.1S366,98.4,366,125.5"/>
	</g>
	<g>
		<path class="st2" d="M86.8,125.5c0-6.7,3.9-13.1,10.9-19c10.6-8.8,28.3-16.3,50.5-21.6c22.3-5.3,49.1-8.4,78.1-8.4
			c38.6,0,73.5,5.5,98.7,14.4c12.6,4.4,22.8,9.7,29.9,15.6c7,5.9,10.9,12.3,10.9,19h0.4c0-6.9-4-13.4-11-19.3
			c-10.6-8.8-28.4-16.4-50.7-21.7c-22.3-5.3-49.2-8.4-78.1-8.4c-38.6,0-73.5,5.5-98.8,14.4c-12.7,4.5-22.9,9.8-30,15.6
			c-7.1,5.9-11,12.4-11,19.3H86.8L86.8,125.5z"/>
	</g>
	<g>
		<path class="st1" d="M184.3,82.7h-34c-1.5,0-2.7-1.2-2.7-2.7V62.8c0-1.5,1.2-2.7,2.7-2.7h34c1.5,0,2.7,1.2,2.7,2.7v17.1
			C187,81.5,185.8,82.7,184.3,82.7z"/>
	</g>
	<g>
		<path class="st2" d="M184.3,82.7v-0.2h-34c-0.7,0-1.3-0.3-1.8-0.8c-0.5-0.5-0.8-1.1-0.8-1.8V62.8c0-0.7,0.3-1.3,0.8-1.8
			c0.5-0.5,1.1-0.8,1.8-0.8h34c0.7,0,1.3,0.3,1.8,0.8c0.5,0.5,0.8,1.1,0.8,1.8v17.1c0,0.7-0.3,1.3-0.8,1.8c-0.5,0.5-1.1,0.8-1.8,0.8
			V82.7v0.2c1.6,0,2.9-1.3,2.9-2.9V62.8c0-1.6-1.3-2.9-2.9-2.9h-34c-1.6,0-2.9,1.3-2.9,2.9v17.1c0,1.6,1.3,2.9,2.9,2.9h34V82.7z"/>
	</g>
	<g>
		<path class="st1" d="M252.5,81.3h-41c-0.3,0-0.6-0.3-0.6-0.6v-2.2c0-0.3,0.3-0.6,0.6-0.6h41c0.3,0,0.6,0.3,0.6,0.6v2.2
			C253.1,81.1,252.8,81.3,252.5,81.3z"/>
	</g>
	<g>
		<path class="st2" d="M252.5,81.3v-0.2h-41c-0.2,0-0.4-0.2-0.4-0.4v-2.2c0-0.2,0.2-0.4,0.4-0.4h41c0.2,0,0.4,0.2,0.4,0.4v2.2
			c0,0.2-0.2,0.4-0.4,0.4V81.3v0.2c0.4,0,0.7-0.3,0.7-0.7v-2.2c0-0.4-0.3-0.7-0.7-0.7h-41c-0.4,0-0.7,0.3-0.7,0.7v2.2
			c0,0.4,0.3,0.7,0.7,0.7h41V81.3z"/>
	</g>
	<g>
		<path class="st1" d="M173.9,36.3c-0.4,4.8-4,9.1-7.4,9.2c-3.2,0.1-7.4-4.4-7.4-9.2c-0.4-7.1,2.1-4.6,7.4-9.3
			C170.4,32,174.7,29,173.9,36.3z"/>
	</g>
	<g>
		<path class="st2" d="M173.9,36.3l-0.2,0c-0.2,2.3-1.2,4.6-2.5,6.2c-1.4,1.7-3.1,2.7-4.7,2.8l-0.1,0c-1.5,0-3.3-1.1-4.7-2.7
			c-1.4-1.7-2.4-3.9-2.4-6.3v0l0,0c0-0.5,0-0.9,0-1.3c0-1.3,0.2-2.2,0.4-2.8c0.2-0.5,0.5-0.8,0.9-1.1c1.2-0.9,3.2-1.4,6-3.9
			l-0.1-0.1l-0.1,0.1c1.8,2.3,3.7,3,5.1,3.7c0.7,0.3,1.3,0.7,1.7,1.3c0.4,0.6,0.6,1.4,0.6,2.6c0,0.5,0,1-0.1,1.6l0,0l0,0L173.9,36.3
			l0.2,0c0.1-0.6,0.1-1.2,0.1-1.7c0-1.3-0.3-2.2-0.7-2.8c-0.3-0.5-0.8-0.8-1.3-1.1c-1.5-0.9-3.6-1.3-5.5-3.8l-0.1-0.1l-0.1,0.1
			c-2.4,2.2-4.3,2.8-5.5,3.6c-0.6,0.4-1.1,0.8-1.5,1.5c-0.3,0.7-0.5,1.6-0.5,3c0,0.4,0,0.8,0,1.3l0.2,0h-0.2c0,2.4,1.1,4.8,2.5,6.5
			c1.5,1.7,3.3,2.9,5,2.9l0.1,0c1.8,0,3.5-1.2,4.9-2.9c1.4-1.7,2.4-4,2.6-6.4L173.9,36.3l0.2,0L173.9,36.3z"/>
	</g>
	<g>
		<path class="st2" d="M169.3,22.5c0.7-0.5,1.3-0.6,1.8-0.6c0.5,0,0.9,0.1,1.3,0.4c1.2,0.7,2,2.4,2.4,3.2c0.9,1.8,1.5,4.1,1.5,6.2
			c0,1.1-0.2,2.2-0.5,3c-0.3,0.8-0.7,2.2-0.7,3.8c0,1,0.1,2.1,0.5,3.3l0.3-0.1c-0.3-1.1-0.5-2.2-0.5-3.2c0-1.6,0.3-3,0.6-3.7
			c0.4-0.9,0.5-2,0.5-3.1c0-2.1-0.5-4.5-1.5-6.3c-0.3-0.6-0.8-1.5-1.4-2.3c-0.3-0.4-0.7-0.8-1.2-1c-0.4-0.3-0.9-0.4-1.5-0.4
			c-0.6,0-1.3,0.2-2,0.7L169.3,22.5L169.3,22.5z"/>
	</g>
	<g>
		<path class="st0" d="M166.7,25.1c0.4,4.1-5.9,7.8-8.9,7.1"/>
	</g>
	<g>
		<path class="st2" d="M166.6,25.2c0,0.1,0,0.3,0,0.4c0,0.9-0.3,1.7-0.8,2.5c-0.8,1.2-2,2.2-3.3,2.9c-1.3,0.7-2.7,1.2-3.8,1.2
			c-0.3,0-0.5,0-0.7-0.1l-0.1,0.3c0.3,0.1,0.5,0.1,0.8,0.1c1.6,0,3.7-0.8,5.3-2.1c0.8-0.6,1.6-1.4,2.1-2.2c0.5-0.8,0.9-1.7,0.9-2.7
			c0-0.1,0-0.3,0-0.4L166.6,25.2L166.6,25.2z"/>
	</g>
	<g>
		<path class="st0" d="M166.2,24.5c-0.3,4.4,2.6,8.2,8,7.9"/>
	</g>
	<g>
		<path class="st2" d="M166.1,24.5c0,0.2,0,0.4,0,0.6c0,2,0.7,3.9,2,5.3c1.3,1.4,3.3,2.2,5.7,2.2c0.2,0,0.3,0,0.5,0l0-0.4
			c-0.2,0-0.3,0-0.5,0c-2.4,0-4.2-0.8-5.5-2.1c-1.3-1.3-1.9-3.1-1.9-5c0-0.2,0-0.4,0-0.6L166.1,24.5L166.1,24.5z"/>
	</g>
	<g>
		<path class="st2" d="M158.9,51.6c0.4,1.3,1.5,2.6,2.9,3.7c1.5,1,3.3,1.8,5.2,1.8c0,0,0.1,0,0.1,0c2.2,0,4-1.2,5.4-2.5
			c0.7-0.7,1.2-1.4,1.6-2c0.4-0.6,0.7-1.1,0.8-1.4l-0.3-0.1c-0.1,0.2-0.3,0.7-0.7,1.3c-0.6,0.9-1.5,2-2.6,2.8
			c-1.1,0.9-2.5,1.5-4.1,1.5c0,0-0.1,0-0.1,0c-1.8,0-3.6-0.8-5-1.8c-1.4-1-2.5-2.3-2.8-3.5L158.9,51.6L158.9,51.6z"/>
	</g>
	<g>
		<path class="st2" d="M150,66c0,0,0-2,0-2.1c0-0.3,0-0.6,0.1-0.8c0.1-0.3,0.2-0.5,0.4-0.6c0.2-0.1,0.6-0.2,1.1-0.2
			c0.1,0,18.8,0,18.8,0l0-0.4c0,0-4.7,0-9.4,0c-4.7,0-9.4,0-9.5,0c-0.4,0-0.7,0-0.9,0.1c-0.4,0.1-0.7,0.3-0.8,0.6
			c-0.2,0.3-0.2,0.7-0.2,1.2c0,0,0,2.1,0,2.1H150L150,66z"/>
	</g>
	<g>
		<path class="st2" d="M185,69.9c0,0,0-6,0-6c0-0.3,0-0.6-0.1-0.9c-0.1-0.4-0.3-0.7-0.6-0.8C184,62,183.6,62,183,62
			c-0.1,0-1.2,0-1.2,0l0,0.4c0,0,1.1,0,1.2,0c0.4,0,0.6,0,0.9,0.1c0.3,0.1,0.5,0.2,0.6,0.4c0.1,0.2,0.2,0.6,0.2,1.1c0,0,0,6,0,6H185
			L185,69.9z"/>
	</g>
	<g>
		<path class="st2" d="M150,68.9c0-0.6,0-1.2,0-1.7h-0.4c0,0.6,0,1.2,0,1.7H150L150,68.9z"/>
	</g>
	<g>
		<path class="st0" d="M168.2,69.8c-0.1,0-0.2-0.1-0.3-0.1c-0.4-0.3-0.8-0.7-0.7-0.6c0,0-0.1,0.6-0.5,0.8c-0.7,0.3-1.3,0.9-1.5,1.7
			c-0.2,1.2,0.6,2.4,1.9,2.6c1.3,0.2,2.6-0.6,2.8-1.9C170.1,71.2,169.4,70.1,168.2,69.8z"/>
	</g>
	<g>
		<path class="st2" d="M168.2,69.8l0-0.2c-0.1,0-0.2-0.1-0.2-0.1c-0.2-0.1-0.4-0.3-0.5-0.4c-0.1-0.1-0.1-0.1-0.2-0.1l-0.1,0l0,0l0,0
			c0,0,0,0-0.1,0c0,0-0.1,0-0.1,0.1c0,0,0,0.1,0,0.1c0,0.1,0,0.1,0,0.1l0,0l0.1-0.1l-0.2,0.1l0.1-0.1l-0.2,0c0,0,0,0,0,0.1l0.1-0.1
			l-0.2,0l0.1,0l-0.1,0l0,0l0.1,0l-0.1,0c0,0,0,0.1,0,0.1c0,0.1-0.1,0.2-0.1,0.3c-0.1,0.1-0.2,0.2-0.3,0.2c-0.8,0.3-1.4,1-1.6,1.8
			c0,0.2,0,0.3,0,0.5c0,1.2,0.9,2.2,2.1,2.4c0.2,0,0.3,0,0.4,0c1.2,0,2.3-0.8,2.6-2c0-0.2,0-0.3,0-0.5c0-1.1-0.8-2-1.9-2.3
			L168.2,69.8l0,0.2c1,0.3,1.6,1.1,1.6,2c0,0.1,0,0.3,0,0.4c-0.2,1-1.2,1.8-2.2,1.8c-0.1,0-0.3,0-0.4,0c-1.1-0.2-1.8-1.1-1.8-2
			c0-0.1,0-0.3,0-0.4c0.1-0.7,0.7-1.3,1.4-1.6c0.3-0.1,0.4-0.3,0.5-0.5c0-0.1,0.1-0.2,0.1-0.3c0-0.1,0-0.1,0-0.2l0,0c0,0,0,0,0-0.1
			l0,0l0,0l0,0l-0.1,0l0.1,0l0,0l-0.1,0l0.1,0l-0.1,0.1l0.2,0c0,0,0-0.1,0-0.1l-0.1,0.1l0.2,0h-0.2l0.1,0.1c0,0,0-0.1,0-0.1h-0.2
			l0.1,0.1l-0.1-0.1v0.2c0,0,0.1,0,0.1-0.1l-0.1-0.1v0.2V69l-0.1,0.2c0,0,0,0,0.1,0V69l-0.1,0.2l0-0.1l-0.1,0.1l0,0l0-0.1l-0.1,0.1
			c0,0,0,0,0.1,0.1c0.1,0.1,0.4,0.3,0.6,0.5c0.1,0.1,0.2,0.1,0.4,0.2L168.2,69.8z"/>
	</g>
	<g>
		<path class="st1" d="M168.4,72.3c0.3,0,0.5-0.3,0.9-0.4c0.5-0.1,0.5,1.2,0,1.2c-0.3,0-0.4-0.6-0.8-0.6c-0.3,0-0.8,0.9-1.7,0.7
			c-0.9-0.2-0.5-1.3,0.3-1.4C167.7,71.9,168.2,72.3,168.4,72.3z"/>
	</g>
	<g>
		<path class="st2" d="M168.4,72.3l0,0.2l0.1,0c0.1,0,0.2,0,0.3-0.1c0.2-0.1,0.4-0.3,0.6-0.4l-0.1-0.2l0,0.2l0,0l0,0
			c0,0,0,0,0.1,0.1c0,0.1,0,0.1,0,0.2c0,0.1,0,0.3-0.1,0.4c0,0-0.1,0.1-0.1,0.1l-0.1,0l0,0c0,0,0,0-0.1,0c-0.1-0.1-0.1-0.2-0.2-0.3
			c0-0.1-0.1-0.1-0.2-0.2c-0.1,0-0.2-0.1-0.3-0.1L168.4,72.3l0.1,0.2L168.4,72.3L168.4,72.3c0,0.1-0.1,0.1-0.1,0.1
			c-0.1,0.1-0.2,0.1-0.3,0.2c-0.1,0.1-0.3,0.2-0.4,0.3c-0.2,0.1-0.3,0.2-0.5,0.2c-0.1,0-0.1,0-0.2,0c-0.1,0-0.2-0.1-0.3-0.1
			c-0.1-0.1-0.1-0.1-0.1-0.2c0-0.1,0.1-0.3,0.2-0.4c0.1-0.1,0.3-0.2,0.4-0.2l0-0.2l0,0.2l0.1,0c0.2,0,0.5,0.1,0.7,0.2
			c0.1,0,0.2,0.1,0.3,0.1c0.1,0,0.2,0.1,0.3,0.1L168.4,72.3l0,0.2L168.4,72.3l0-0.2l0,0c-0.1,0-0.3-0.1-0.5-0.2
			c-0.2-0.1-0.5-0.2-0.7-0.2l-0.1,0l0,0l0,0c-0.3,0-0.5,0.2-0.7,0.3c-0.2,0.2-0.3,0.4-0.3,0.6c0,0.2,0,0.3,0.2,0.5
			c0.1,0.1,0.3,0.2,0.5,0.3c0.1,0,0.2,0,0.3,0c0.4,0,0.8-0.2,1-0.4c0.1-0.1,0.2-0.2,0.3-0.3c0,0,0.1-0.1,0.1-0.1l0,0l0,0l0,0v0l0,0
			l0,0v0v-0.1l0,0.1l0,0v-0.1l0,0.1l0,0l0,0l0,0c0,0,0.1,0,0.1,0.1c0.1,0.1,0.1,0.2,0.2,0.3c0,0.1,0.1,0.1,0.2,0.2
			c0.1,0,0.2,0.1,0.3,0.1l0,0c0.1,0,0.2-0.1,0.3-0.1c0.1-0.1,0.2-0.2,0.2-0.3c0-0.1,0.1-0.3,0.1-0.4c0-0.2,0-0.3-0.1-0.5
			c0-0.1-0.1-0.1-0.2-0.2c-0.1,0-0.2-0.1-0.2-0.1l-0.1,0l0,0l0,0c-0.2,0.1-0.4,0.2-0.5,0.3c-0.1,0-0.1,0.1-0.2,0.1c0,0-0.1,0-0.1,0
			l0,0l0,0l0,0L168.4,72.3z"/>
	</g>
	<g>
		<path class="st3" d="M279.2,42.2c-2.9-5.5-2.1-9.9,0.1-15.8c0.2-0.6,1.3-3.7,4.5-6.1c1.6-1.1,3.3-1.3,4.2-0.3
			c0.7-0.8,3.1-2.6,7.9-1.6c4.6,0.9,7.1,6.9,7.4,8.1c1.9,7.4,1.9,8.7,0.2,14c-1.5,4.5-5,5.7-12.9,5.4
			C282.8,45.7,280.7,45.1,279.2,42.2z"/>
	</g>
	<g>
		<path class="st1" d="M286.9,40.8c0,0,0.8,6.2-2,7.6c-2.8,1.4-9.7,0.5-9.8,14.5c-0.1,7-0.1,13.5-0.1,13.5h33c0,0,0.2-7.3,0.1-11.9
			c-0.6-10.6-0.5-13.2-9.2-15.8c-3-0.9-3.8-1.6-3.9-7.8L286.9,40.8z"/>
	</g>
	<g>
		<path class="st2" d="M286.9,40.8l-0.2,0c0,0,0,0,0,0.1c0,0.3,0.1,0.9,0.1,1.8c0,1-0.1,2.1-0.4,3.2c-0.1,0.5-0.4,1-0.6,1.4
			c-0.3,0.4-0.6,0.7-1,0.9c-0.7,0.3-1.6,0.5-2.7,0.9c-1.6,0.5-3.4,1.3-4.8,3.3c-1.4,2-2.4,5.2-2.5,10.5c-0.1,7.1-0.1,13.5-0.1,13.5
			v0.2h33.3l0-0.2c0,0,0.1-5.2,0.1-9.6c0-0.8,0-1.6,0-2.3l0,0l0,0c-0.3-5.3-0.4-8.6-1.6-10.9c-0.6-1.2-1.4-2.1-2.7-2.9
			c-1.2-0.8-2.9-1.5-5-2.1c-0.7-0.2-1.3-0.4-1.8-0.7c-0.7-0.4-1.2-1-1.5-2c-0.3-1-0.5-2.6-0.5-4.9l0-0.2l-8.5-0.2l0,0.2L286.9,40.8
			l0,0.2l8.1,0.2l0-0.2l-0.2,0c0.1,3.1,0.3,4.8,0.9,5.9c0.3,0.6,0.7,0.9,1.2,1.2c0.5,0.3,1.1,0.5,1.9,0.7c2.1,0.7,3.7,1.3,4.9,2.1
			c1.8,1.2,2.7,2.5,3.2,4.7c0.5,2.1,0.7,5,0.9,8.9l0.2,0l-0.2,0c0,0.7,0,1.5,0,2.3c0,2.2,0,4.6-0.1,6.5c0,0.9,0,1.7-0.1,2.3
			c0,0.6,0,0.9,0,0.9l0.2,0v-0.2h-33v0.2h0.2c0,0,0-0.4,0-1.1c0-2.2,0-7.1,0.1-12.4c0-3.5,0.5-6.1,1.2-7.9c1.1-2.8,2.6-4.2,4.2-4.9
			c1.6-0.8,3.2-1,4.3-1.5c0.5-0.2,0.9-0.6,1.2-1c0.9-1.3,1.1-3.3,1.1-4.8c0-1.1-0.1-2-0.1-2L286.9,40.8l0,0.2L286.9,40.8z"/>
	</g>
	<g>
		<path class="st0" d="M283.7,48.8c-2.8,1.4-8.4,1.6-8.5,6.3c-0.3,7-0.2,21.4-0.2,21.4h33c0,0,0.3-16.5,0.3-21.1
			c0.1-2.9-3.7-4.9-9.3-6.6C296.3,52.1,289.7,59.3,283.7,48.8z"/>
	</g>
	<g>
		<path class="st2" d="M283.7,48.8l-0.1-0.2c-1.4,0.7-3.5,1.1-5.3,1.9c-0.9,0.4-1.7,0.9-2.3,1.7c-0.6,0.7-1,1.7-1.1,2.9
			c-0.1,3.9-0.2,10-0.2,14.7c0,3.8,0,6.7,0,6.7l0,0.2h33.3l0-0.2c0,0,0.3-13.3,0.3-19.3c0-0.7,0-1.3,0-1.7l-0.2,0l0.2,0
			c0,0,0-0.1,0-0.1c0-0.7-0.3-1.4-0.7-2.1c-0.7-1-1.8-1.8-3.3-2.5c-1.5-0.8-3.3-1.4-5.4-2.1l-0.1,0l-0.1,0.1c-0.8,1-2,2.4-3.4,3.5
			c-1.4,1.1-3,2-4.8,2c-1.1,0-2.2-0.3-3.3-1.2c-1.1-0.8-2.3-2.2-3.5-4.2l-0.1-0.1l-0.1,0.1L283.7,48.8l-0.2,0.1
			c1.2,2.1,2.4,3.4,3.6,4.3c1.2,0.9,2.4,1.2,3.6,1.2c1.8,0,3.5-0.9,5-2.1c1.4-1.1,2.6-2.5,3.5-3.6l-0.1-0.1l-0.1,0.2
			c2.8,0.8,5.1,1.8,6.7,2.8c0.8,0.5,1.4,1.1,1.8,1.7c0.4,0.6,0.6,1.2,0.6,1.9c0,0,0,0.1,0,0.1l0,0l0,0c0,0.5,0,1,0,1.7
			c0,3-0.1,7.8-0.1,11.9c0,2-0.1,3.9-0.1,5.2c0,1.3,0,2.2,0,2.2l0.2,0v-0.2h-33v0.2l0.2,0c0,0,0-0.7,0-1.9c0-1.2,0-2.9,0-4.8
			c0-4.7,0-10.8,0.2-14.6c0-1.1,0.4-2,1-2.6c0.8-1,2.2-1.6,3.6-2.1c1.4-0.5,2.8-0.8,3.9-1.4L283.7,48.8l-0.2,0.1L283.7,48.8z"/>
	</g>
	<g>
		<path class="st1" d="M298.9,35.8c-1.1,4.7-3.6,8.8-8.1,8.8c-4.4,0-7.4-4-8.1-8.8c-0.6-4.6,1.2-6.3,3.8-7c1.2-0.3,2.8-2.4,4.2-2.4
			c1.5,0,2.8,2.1,4.2,2.5C297.9,29.7,299.9,31.6,298.9,35.8z"/>
	</g>
	<g>
		<path class="st2" d="M298.9,35.8l-0.2,0c-0.5,2.4-1.4,4.5-2.7,6.1c-1.3,1.6-3,2.5-5.1,2.5c-2.2,0-4-1-5.3-2.5
			c-1.4-1.6-2.2-3.7-2.6-6.1c-0.1-0.6-0.1-1.1-0.1-1.6c0-1.6,0.4-2.8,1.1-3.6c0.7-0.8,1.6-1.3,2.7-1.6c0.3-0.1,0.7-0.3,1-0.5
			c0.5-0.4,1.1-0.8,1.6-1.2c0.5-0.4,1.1-0.6,1.5-0.6c0.3,0,0.7,0.1,1,0.3c0.5,0.3,1,0.7,1.5,1.2c0.5,0.4,1.1,0.8,1.6,1
			c1.1,0.3,2.1,0.8,2.8,1.6c0.7,0.7,1.1,1.8,1.1,3.1c0,0.6-0.1,1.2-0.2,2L298.9,35.8l0.2,0c0.2-0.7,0.3-1.4,0.3-2
			c0-1.5-0.5-2.6-1.2-3.4c-0.8-0.8-1.8-1.3-3-1.7c-0.7-0.2-1.3-0.8-2-1.4c-0.3-0.3-0.7-0.6-1.1-0.8c-0.4-0.2-0.8-0.4-1.2-0.4
			c-0.4,0-0.8,0.1-1.2,0.3c-0.6,0.3-1.1,0.8-1.7,1.2c-0.5,0.4-1,0.8-1.4,0.8c-1.2,0.3-2.2,0.8-2.9,1.7c-0.7,0.9-1.1,2.1-1.1,3.8
			c0,0.5,0,1.1,0.1,1.7c0.3,2.4,1.2,4.7,2.6,6.3c1.4,1.6,3.3,2.6,5.6,2.6c2.3,0,4.1-1,5.4-2.7c1.3-1.6,2.3-3.8,2.8-6.2L298.9,35.8z"
			/>
	</g>
	<g>
		<path class="st2" d="M292,19.8c0.6-0.2,1.1-0.3,1.6-0.3c1.1,0,2,0.3,2.8,0.9c1.2,0.8,2.2,2.1,3,3.3c0.7,1.2,1.2,2.3,1.5,2.8
			c0.9,1.8,2,4.9,2,8.2c0,2.1-0.4,4.3-1.6,6.4l0.3,0.2c1.2-2.2,1.6-4.4,1.6-6.6c0-3.4-1.1-6.4-2-8.3c-0.2-0.3-0.5-1-0.9-1.7
			c-0.6-1.1-1.4-2.5-2.6-3.6c-1.1-1.1-2.5-1.9-4.2-1.9c-0.5,0-1.1,0.1-1.7,0.3L292,19.8L292,19.8z"/>
	</g>
	<g>
		<path class="st3" d="M288.1,26.5c-0.1,4.7-3.3,5.9-6.5,5.2"/>
	</g>
	<g>
		<path class="st2" d="M287.9,26.5c0,1.9-0.6,3.2-1.4,4c-0.8,0.8-2,1.2-3.2,1.2c-0.5,0-1.1-0.1-1.6-0.2l-0.1,0.3
			c0.6,0.1,1.1,0.2,1.7,0.2c1.3,0,2.6-0.4,3.5-1.3c0.9-0.9,1.5-2.3,1.5-4.3L287.9,26.5L287.9,26.5z"/>
	</g>
	<g>
		<path class="st3" d="M287.6,24c-0.6,6.8,4.4,8.9,10.7,6.4"/>
	</g>
	<g>
		<path class="st2" d="M287.4,24c0,0.4,0,0.7,0,1.1c0,2.2,0.6,3.8,1.7,4.9c1.1,1.1,2.7,1.6,4.5,1.6c1.5,0,3.1-0.4,4.8-1l-0.1-0.3
			c-1.7,0.7-3.3,1-4.7,1c-1.8,0-3.2-0.5-4.2-1.5c-1-1-1.6-2.6-1.6-4.7c0-0.3,0-0.7,0-1L287.4,24L287.4,24z"/>
	</g>
	<g>
		<path class="st2" d="M282.8,52.5c0.4,1.4,1.6,2.8,3.1,3.9c1.6,1.1,3.6,1.9,5.6,2c0,0,0.1,0,0.1,0c2.4,0,4.3-1.3,5.7-2.7
			c0.7-0.7,1.3-1.5,1.7-2.1c0.4-0.6,0.7-1.2,0.8-1.5l-0.3-0.1c-0.1,0.3-0.4,0.8-0.8,1.4c-0.6,0.9-1.6,2.1-2.8,3
			c-1.2,0.9-2.7,1.6-4.4,1.6c0,0-0.1,0-0.1,0c-2,0-3.9-0.8-5.4-1.9c-1.5-1.1-2.6-2.5-3-3.7L282.8,52.5L282.8,52.5z"/>
	</g>
	<g>
		<path class="st1" d="M309.9,83.7h-36.5c-1.5,0-2.7-1.2-2.7-2.7V63.9c0-1.5,1.2-2.7,2.7-2.7h36.5c1.5,0,2.7,1.2,2.7,2.7V81
			C312.6,82.5,311.4,83.7,309.9,83.7z"/>
	</g>
	<g>
		<path class="st2" d="M309.9,83.7v-0.2h-36.5c-0.7,0-1.3-0.3-1.8-0.8c-0.5-0.5-0.8-1.1-0.8-1.8V63.9c0-0.7,0.3-1.3,0.8-1.8
			c0.5-0.5,1.1-0.8,1.8-0.8h36.5c0.7,0,1.3,0.3,1.8,0.8c0.5,0.5,0.8,1.1,0.8,1.8V81c0,0.7-0.3,1.3-0.8,1.8c-0.5,0.5-1.1,0.8-1.8,0.8
			V83.7v0.2c1.6,0,2.9-1.3,2.9-2.9V63.9c0-1.6-1.3-2.9-2.9-2.9h-36.5c-1.6,0-2.9,1.3-2.9,2.9V81c0,1.6,1.3,2.9,2.9,2.9h36.5V83.7z"
			/>
	</g>
	<g>
		<path class="st2" d="M273.2,67.8c0,0,0-2.2,0-2.2c0-0.4,0-0.6,0.1-0.9c0.1-0.3,0.2-0.5,0.5-0.6c0.2-0.1,0.6-0.2,1.2-0.2
			c0.1,0,20.2,0,20.2,0l0-0.4c0,0-5,0-10.1,0c-5,0-10.1,0-10.1,0c-0.4,0-0.7,0-1,0.1c-0.4,0.1-0.7,0.3-0.9,0.6
			c-0.2,0.3-0.2,0.7-0.2,1.3c0,0.1,0,2.2,0,2.2H273.2L273.2,67.8z"/>
	</g>
	<g>
		<path class="st2" d="M310.8,72.1c0,0,0-6.4,0-6.5c0-0.4,0-0.7-0.1-0.9c-0.1-0.4-0.3-0.7-0.6-0.9c-0.3-0.2-0.8-0.2-1.4-0.2
			c-0.1,0-1.3,0-1.3,0l0,0.4c0,0,1.2,0,1.3,0c0.4,0,0.7,0,0.9,0.1c0.4,0.1,0.5,0.2,0.7,0.5c0.1,0.2,0.2,0.6,0.2,1.1
			c0,0.1,0,6.5,0,6.5H310.8L310.8,72.1z"/>
	</g>
	<g>
		<path class="st2" d="M273.2,71c0-0.6,0-1.2,0-1.9h-0.4c0,0.6,0,1.2,0,1.9H273.2L273.2,71z"/>
	</g>
	<g>
		<path class="st2" d="M273.2,71c0-0.6,0-1.2,0-1.9h-0.4c0,0.6,0,1.2,0,1.9H273.2L273.2,71z"/>
	</g>
	<g>
		<circle class="st0" cx="291.7" cy="73.3" r="1.9"/>
	</g>
	<g>
		<path class="st2" d="M291.8,71v-0.9c0-0.1-0.1-0.2-0.2-0.2c-0.1,0-0.2,0.1-0.2,0.2V71c0,0.1,0.1,0.2,0.2,0.2
			C291.7,71.2,291.8,71.1,291.8,71"/>
	</g>
	<g>
		<path class="st2" d="M291.8,76.4v-0.9c0-0.1-0.1-0.2-0.2-0.2c-0.1,0-0.2,0.1-0.2,0.2v0.9c0,0.1,0.1,0.2,0.2,0.2
			C291.7,76.6,291.8,76.5,291.8,76.4"/>
	</g>
	<g>
		<path class="st2" d="M294.9,73H294c-0.1,0-0.2,0.1-0.2,0.2s0.1,0.2,0.2,0.2h0.9c0.1,0,0.2-0.1,0.2-0.2S295,73,294.9,73"/>
	</g>
	<g>
		<path class="st2" d="M289.4,73h-0.9c-0.1,0-0.2,0.1-0.2,0.2s0.1,0.2,0.2,0.2h0.9c0.1,0,0.2-0.1,0.2-0.2S289.5,73,289.4,73"/>
	</g>
	<g>
		<path class="st2" d="M290.2,71.6l-0.6-0.6c-0.1-0.1-0.2-0.1-0.2,0c-0.1,0.1-0.1,0.2,0,0.2l0.6,0.6c0.1,0.1,0.2,0.1,0.2,0
			C290.2,71.8,290.2,71.7,290.2,71.6"/>
	</g>
	<g>
		<path class="st2" d="M294,75.5l-0.6-0.6c-0.1-0.1-0.2-0.1-0.2,0c-0.1,0.1-0.1,0.2,0,0.2l0.6,0.6c0.1,0.1,0.2,0.1,0.2,0
			C294.1,75.6,294.1,75.5,294,75.5"/>
	</g>
	<g>
		<path class="st2" d="M293.8,70.8l-0.6,0.6c-0.1,0.1-0.1,0.2,0,0.2c0.1,0.1,0.2,0.1,0.2,0l0.6-0.6c0.1-0.1,0.1-0.2,0-0.2
			C294,70.8,293.9,70.8,293.8,70.8"/>
	</g>
	<g>
		<path class="st2" d="M289.9,74.8l-0.6,0.6c-0.1,0.1-0.1,0.2,0,0.2c0.1,0.1,0.2,0.1,0.2,0l0.6-0.6c0.1-0.1,0.1-0.2,0-0.2
			C290.1,74.7,290,74.7,289.9,74.8"/>
	</g>
	<g>
		<path class="st2" d="M279.7,34.2c-0.1,0.8-0.1,1.5-0.1,2.2c0,2.5,0.5,4.7,2,6.7l0.1,0.1l0.3-0.2l-0.1-0.1c-1.4-1.9-1.9-4-1.9-6.5
			c0-0.7,0-1.4,0.1-2.2l0-0.2l-0.4,0L279.7,34.2L279.7,34.2z"/>
	</g>
	<g>
		<path class="st1" d="M237.8,30.7c-0.9,4.6-3.1,8.6-6.9,8.6c-3.8,0-6.4-3.9-6.9-8.6c-0.5-4.5,1-6.2,3.2-6.8c1-0.3,2.4-2.3,3.6-2.3
			c1.3,0,2.4,2,3.6,2.4C236.9,24.8,238.6,26.6,237.8,30.7z"/>
	</g>
	<g>
		<path class="st2" d="M237.8,30.7l-0.2,0c-0.5,2.3-1.2,4.4-2.3,6c-1.1,1.5-2.5,2.5-4.4,2.5c-1.8,0-3.4-0.9-4.5-2.5
			c-1.2-1.5-1.9-3.6-2.2-6c-0.1-0.6-0.1-1.1-0.1-1.6c0-1.6,0.3-2.7,0.9-3.5c0.6-0.8,1.4-1.3,2.3-1.5c0.3-0.1,0.6-0.3,0.9-0.5
			c0.5-0.4,0.9-0.8,1.4-1.2c0.5-0.4,0.9-0.6,1.3-0.6c0.3,0,0.6,0.1,0.8,0.3c0.4,0.3,0.9,0.7,1.3,1.1c0.4,0.4,0.9,0.8,1.4,1
			c1,0.3,1.8,0.8,2.4,1.5c0.6,0.7,1,1.7,1,3.1c0,0.6-0.1,1.2-0.2,1.9L237.8,30.7l0.2,0c0.1-0.7,0.2-1.4,0.2-2c0-1.4-0.4-2.5-1.1-3.3
			c-0.7-0.8-1.6-1.3-2.6-1.6c-0.3-0.1-0.6-0.3-0.8-0.5c-0.4-0.4-0.9-0.8-1.3-1.2c-0.5-0.4-0.9-0.7-1.5-0.7c-0.3,0-0.7,0.1-1,0.3
			c-0.5,0.3-1,0.7-1.4,1.1c-0.5,0.4-0.9,0.7-1.2,0.8c-1,0.3-1.9,0.8-2.5,1.7c-0.6,0.9-1,2.1-1,3.7c0,0.5,0,1,0.1,1.6
			c0.3,2.4,1,4.5,2.3,6.1c1.2,1.6,2.8,2.6,4.8,2.6c2,0,3.5-1,4.7-2.6c1.1-1.6,1.9-3.8,2.4-6.1L237.8,30.7z"/>
	</g>
	<g>
		<path class="st0" d="M229.5,21.4c-0.4,4.5-3.5,5.3-6.5,4.4"/>
	</g>
	<g>
		<path class="st2" d="M229.3,21.4c-0.2,1.7-0.7,2.8-1.5,3.6c-0.8,0.7-1.8,1-2.9,1c-0.6,0-1.3-0.1-2-0.3l-0.1,0.3
			c0.7,0.2,1.4,0.3,2.1,0.3c1.2,0,2.3-0.3,3.1-1.1c0.8-0.8,1.4-2,1.6-3.8L229.3,21.4L229.3,21.4z"/>
	</g>
	<g>
		<path class="st0" d="M228,18.3c-0.3,6.6,4.8,9.5,11,7.6"/>
	</g>
	<g>
		<path class="st2" d="M227.8,18.3c0,0.2,0,0.4,0,0.6c0,2.5,0.8,4.4,2.1,5.7c1.3,1.3,3.2,2,5.4,2c1.2,0,2.4-0.2,3.7-0.6l-0.1-0.3
			c-1.3,0.4-2.5,0.6-3.6,0.6c-2.1,0-3.9-0.7-5.1-1.9c-1.3-1.2-2-3.1-2-5.5c0-0.2,0-0.4,0-0.6L227.8,18.3L227.8,18.3z"/>
	</g>
	<g>
		<path class="st1" d="M211.1,76.5l41.6,0c0.9,0,1.6-0.7,1.6-1.6V53c0-0.9-0.7-1.6-1.6-1.6l-41.6,0c-0.9,0-1.6,0.7-1.6,1.6v21.9
			C209.5,75.8,210.2,76.5,211.1,76.5z"/>
	</g>
	<g>
		<path class="st2" d="M211.1,76.5l0,0.2l41.6,0c1,0,1.8-0.8,1.8-1.8V53c0-1-0.8-1.8-1.8-1.8l-41.6,0c-1,0-1.8,0.8-1.8,1.8v21.9
			c0,1,0.8,1.8,1.8,1.8V76.5v-0.2c-0.4,0-0.8-0.2-1-0.4c-0.3-0.3-0.4-0.6-0.4-1V53c0-0.4,0.2-0.8,0.4-1c0.3-0.3,0.6-0.4,1-0.4
			l41.6,0c0.4,0,0.8,0.2,1,0.4c0.3,0.3,0.4,0.6,0.4,1v21.9c0,0.4-0.2,0.8-0.4,1c-0.3,0.3-0.6,0.4-1,0.4l-41.6,0V76.5z"/>
	</g>
	<g>
		<path class="st2" d="M212.2,58.7c0,0,0-2.7,0-2.8c0-0.4,0-0.8,0.1-1.1c0.1-0.4,0.3-0.7,0.6-0.8c0.3-0.2,0.8-0.2,1.5-0.2
			c0.2,0,20.4,0,20.4,0l0-0.4c0,0-5.1,0-10.1,0c-5.1,0-10.2,0-10.2,0c-0.5,0-0.9,0-1.2,0.1c-0.5,0.1-0.9,0.4-1.1,0.8
			c-0.2,0.4-0.3,0.9-0.3,1.6c0,0.1,0,2.8,0,2.8H212.2L212.2,58.7z"/>
	</g>
	<g>
		<path class="st2" d="M212.2,62.6c0-0.8,0-1.6,0-2.3h-0.4c0,0.8,0,1.6,0,2.3H212.2L212.2,62.6z"/>
	</g>
	<g>
		<rect x="222.1" y="80.2" class="st1" width="19.3" height="2.8"/>
	</g>
	<g>
		<polygon class="st2" points="222.1,83 222.1,83.2 241.6,83.2 241.6,80 221.9,80 221.9,83.2 222.1,83.2 222.1,83 222.3,83 
			222.3,80.4 241.3,80.4 241.3,82.9 222.1,82.9 222.1,83 222.3,83 		"/>
	</g>
	<g>
		<path class="st1" d="M222.1,80.2c4.9-1.4,5.1-3.8,5.1-3.7h9.2c0-0.1,0.2,2.3,5.1,3.7H222.1z"/>
	</g>
	<g>
		<path class="st2" d="M222.1,80.2l0,0.2c2.3-0.7,3.6-1.6,4.3-2.3c0.4-0.4,0.6-0.7,0.7-1c0.1-0.1,0.1-0.2,0.1-0.3c0,0,0-0.1,0-0.1
			l0-0.1l0,0l0-0.1l0-0.1c0,0-0.1,0-0.1,0c-0.1,0-0.1,0-0.1,0.1l0,0.1l0,0c0,0.1,0,0.1,0,0.2c0,0,0.1,0.1,0.1,0.1h9.2
			c0.1,0,0.1,0,0.1-0.1c0,0,0-0.1,0-0.2l0,0l0,0c0,0-0.1,0-0.1,0c0,0-0.1,0-0.1,0c0,0-0.1,0.1-0.1,0.1c0,0,0,0.1,0,0.1l0,0.1
			c0.1,0.4,0.8,2.5,5.2,3.8l0-0.2V80h-19.3V80.2l0,0.2L222.1,80.2v0.2h19.3c0.1,0,0.2-0.1,0.2-0.2c0-0.1,0-0.2-0.1-0.2
			c-2.3-0.6-3.5-1.5-4.2-2.2c-0.3-0.4-0.5-0.7-0.6-0.9c-0.1-0.1-0.1-0.2-0.1-0.3c0,0,0-0.1,0-0.1l0,0l0,0l-0.1,0h0.1l0,0l-0.1,0h0.1
			h-0.2l0.2,0l0,0h-0.2l0.2,0l-0.2,0l0.2,0.1l0-0.1l-0.2,0l0.2,0.1l-0.2-0.1l0.1,0.1l0-0.1l-0.2-0.1l0.1,0.1l-0.1-0.1v0.2
			c0,0,0.1,0,0.1,0l-0.1-0.1v0.2v-0.2l-0.1,0.1c0,0,0.1,0,0.1,0v-0.2l-0.1,0.1l0.1-0.1l-0.2,0.1l0,0l0.1-0.1l-0.2,0.1l0.1-0.1
			l-0.1,0.1l0,0l0.1-0.1l-0.1,0.1l0.2-0.1v-0.2h-9.2v0.2l0.2,0l-0.2,0l0.1,0.1l0,0l-0.2,0l0.1,0.1l-0.2-0.1l0.1,0.1l0,0l-0.2-0.1
			l0.1,0.1l-0.1-0.1v0.2c0.1,0,0.1,0,0.1-0.1l-0.1-0.1v0.2v-0.2l-0.1,0.1c0,0,0.1,0,0.1,0v-0.2l-0.1,0.1l0.1-0.1l-0.2,0.1
			c0,0,0,0,0.1,0.1l0.1-0.1l-0.2,0.1l0.2-0.1l-0.2,0c0,0,0,0,0,0.1l0.2-0.1l-0.2,0h0.1l-0.1,0l0,0h0.1l-0.1,0c0,0,0,0.1,0,0.1
			c-0.2,0.5-1,2.3-4.9,3.4c-0.1,0-0.1,0.1-0.1,0.2c0,0.1,0.1,0.2,0.2,0.2V80.2z"/>
	</g>
	<g>
		<path class="st3" d="M232.2,62.1c-0.1,0-0.2-0.1-0.3-0.1c-0.4-0.3-0.8-0.7-0.7-0.6c0,0-0.1,0.6-0.5,0.8c-0.7,0.3-1.3,0.9-1.4,1.7
			c-0.2,1.2,0.6,2.4,1.9,2.6c1.3,0.2,2.5-0.6,2.7-1.8C234.1,63.5,233.3,62.4,232.2,62.1z"/>
	</g>
	<g>
		<path class="st2" d="M232.2,62.1l0-0.2c-0.1,0-0.2-0.1-0.2-0.1c-0.2-0.1-0.3-0.3-0.5-0.4c-0.1-0.1-0.1-0.1-0.2-0.1l-0.1,0l0,0l0,0
			c0,0,0,0-0.1,0c0,0-0.1,0-0.1,0.1c0,0-0.1,0.1-0.1,0.1c0,0.1,0,0.1,0,0.1l0,0l0,0l0.1-0.1l-0.2,0c0,0,0,0,0,0.1l0.1-0.1l-0.2,0
			l0.1,0l-0.1,0l0,0l0.1,0l-0.1,0c0,0,0,0,0,0.1c0,0.1-0.1,0.2-0.1,0.3c-0.1,0.1-0.2,0.2-0.3,0.2c-0.8,0.3-1.4,1-1.5,1.8
			c0,0.1,0,0.3,0,0.4c0,1.1,0.9,2.1,2.1,2.3c0.1,0,0.3,0,0.4,0c1.2,0,2.3-0.8,2.5-2c0-0.1,0-0.3,0-0.4c0-1.1-0.7-2-1.8-2.3
			L232.2,62.1l0,0.2c0.9,0.2,1.6,1,1.6,1.9c0,0.1,0,0.2,0,0.4c-0.2,1-1.1,1.7-2.2,1.7c-0.1,0-0.3,0-0.4,0c-1.1-0.2-1.8-1-1.8-2
			c0-0.1,0-0.2,0-0.4c0.1-0.7,0.7-1.3,1.3-1.5c0.3-0.1,0.4-0.3,0.5-0.5c0-0.1,0.1-0.2,0.1-0.3c0-0.1,0-0.1,0-0.2l0,0c0,0,0,0,0-0.1
			l0,0l0,0l-0.1,0l0.1,0l0,0l-0.1,0l0.1,0l-0.1,0.1l0.2,0c0,0,0-0.1,0-0.1l-0.1,0.1l0.2,0h-0.2l0.1,0.1c0,0,0-0.1,0-0.1h-0.2
			l0.1,0.1l-0.1-0.1v0.2c0,0,0.1,0,0.1-0.1l-0.1-0.1v0.2v-0.2l-0.1,0.2c0,0,0,0,0.1,0v-0.2l-0.1,0.2l0-0.1l-0.1,0.1l0,0l0-0.1
			l-0.1,0.1c0,0,0,0,0.1,0.1c0.1,0.1,0.4,0.3,0.6,0.5c0.1,0.1,0.2,0.1,0.4,0.2L232.2,62.1z"/>
	</g>
	<g>
		<path class="st1" d="M232.4,64.6c0.3,0,0.5-0.2,0.9-0.4c0.5-0.1,0.5,1.1,0,1.2c-0.3,0-0.4-0.6-0.8-0.6c-0.3,0-0.7,0.9-1.6,0.7
			c-0.9-0.2-0.5-1.3,0.3-1.3C231.7,64.1,232.2,64.5,232.4,64.6z"/>
	</g>
	<g>
		<path class="st2" d="M232.4,64.6l0,0.2l0.1,0c0.1,0,0.2,0,0.3-0.1c0.2-0.1,0.4-0.3,0.6-0.3l-0.1-0.2l0,0.2l0,0l0,0
			c0,0,0,0,0.1,0.1c0,0.1,0,0.1,0,0.2c0,0.1,0,0.3-0.1,0.4c0,0-0.1,0.1-0.1,0.1l-0.1,0l0,0c0,0,0,0-0.1,0c-0.1-0.1-0.1-0.2-0.2-0.3
			c0-0.1-0.1-0.1-0.2-0.2c-0.1,0-0.2-0.1-0.3-0.1L232.4,64.6l0.1,0.2L232.4,64.6L232.4,64.6c0,0-0.1,0.1-0.1,0.1
			c-0.1,0.1-0.2,0.1-0.2,0.2c-0.1,0.1-0.3,0.2-0.4,0.3c-0.2,0.1-0.3,0.2-0.5,0.2c-0.1,0-0.1,0-0.2,0c-0.1,0-0.2-0.1-0.3-0.1
			c0-0.1-0.1-0.1-0.1-0.2c0-0.1,0.1-0.3,0.2-0.4c0.1-0.1,0.3-0.2,0.4-0.2l0-0.2l0,0.2l0.1,0c0.2,0,0.5,0.1,0.7,0.2
			c0.1,0,0.2,0.1,0.3,0.1c0.1,0,0.2,0.1,0.3,0.1L232.4,64.6l0,0.2L232.4,64.6l0-0.2l0,0c-0.1,0-0.2-0.1-0.4-0.2
			c-0.2-0.1-0.4-0.2-0.7-0.2l-0.1,0l0,0l0,0c-0.3,0-0.5,0.2-0.7,0.3c-0.2,0.2-0.3,0.4-0.3,0.6c0,0.2,0,0.3,0.2,0.4
			c0.1,0.1,0.3,0.2,0.5,0.3c0.1,0,0.2,0,0.3,0c0.4,0,0.7-0.2,1-0.4c0.1-0.1,0.2-0.2,0.3-0.3c0,0,0.1-0.1,0.1-0.1l0,0l0,0l0,0v0l0,0
			l0,0v0v0l0,0l0,0v0l0,0l0,0l0,0l0,0c0,0,0.1,0,0.1,0c0.1,0.1,0.1,0.2,0.2,0.3c0,0.1,0.1,0.1,0.1,0.2c0.1,0,0.1,0.1,0.2,0.1l0,0
			c0.1,0,0.2-0.1,0.3-0.1c0.1-0.1,0.2-0.2,0.2-0.3c0-0.1,0.1-0.3,0.1-0.4c0-0.2,0-0.3-0.1-0.4c0-0.1-0.1-0.1-0.2-0.2
			c-0.1,0-0.2-0.1-0.2-0.1l-0.1,0l0,0l0,0c-0.2,0.1-0.4,0.2-0.5,0.3c-0.1,0-0.1,0.1-0.2,0.1c0,0-0.1,0-0.1,0l0,0l0,0l0,0L232.4,64.6
			z"/>
	</g>
	<g>
		<path class="st2" d="M230.9,16.5c1.6,0,2.7,0.3,3.5,0.7c0.8,0.4,1.2,0.9,1.7,1.3c0.4,0.3,0.9,1,1.4,1.8c0.5,0.8,1,1.7,1.2,2.5
			l0.3-0.1c-0.2-0.8-0.7-1.8-1.2-2.6c-0.5-0.8-1.1-1.5-1.5-1.9c-0.4-0.4-0.9-0.9-1.7-1.3c-0.8-0.4-1.9-0.7-3.6-0.7V16.5L230.9,16.5z
			"/>
	</g>
	<g>
		<path class="st2" d="M90.7,56.1c-0.5,2.5-0.9,4.7-1.5,6.5c-0.6,1.8-1.6,3.2-3.2,4.2C84,68,83,68.5,82.4,69c-0.7,0.5-1,1-1.9,1.9
			c-0.2,0.3-0.3,0.7-0.5,1.2c-0.4,1.7-0.5,4.7-0.5,8.2c0,8,0.7,18.2,0.7,18.2l0,0l0,0c0,0,0.5,0.9,2.7,2.4c2.3,1.5,6.4,3.5,13.9,5.9
			l0.1-0.3c-7.4-2.4-11.5-4.4-13.8-5.9c-1.1-0.7-1.8-1.3-2.2-1.7c-0.2-0.2-0.3-0.3-0.4-0.4c0,0-0.1-0.1-0.1-0.1l0,0l0,0l0,0l0,0l0,0
			l0,0l0,0l-0.2,0.1l0.2,0c0,0,0-0.6-0.1-1.7c-0.2-3.2-0.6-10.5-0.6-16.5c0-2.3,0.1-4.4,0.2-6.1c0.1-0.8,0.2-1.5,0.3-2.1
			c0.1-0.5,0.3-0.9,0.4-1.1c0.8-1,1.2-1.4,1.8-1.9c0.6-0.5,1.6-1,3.5-2.2c1.7-1.1,2.7-2.5,3.4-4.4c0.7-1.8,1-4,1.5-6.5L90.7,56.1
			L90.7,56.1z"/>
	</g>
	<g>
		<path class="st2" d="M106.1,46.4c0,0.4,0,0.8,0,1.2c0,3.2-0.9,7.5-2.2,10.2c-0.4,0.9-1,1.4-1.6,1.8c-0.6,0.3-1.3,0.5-2.1,0.5
			c-1,0-2-0.3-2.8-0.6l-0.1,0.3c0.8,0.3,1.8,0.6,2.9,0.6c0.8,0,1.5-0.1,2.2-0.5c0.7-0.4,1.3-1,1.7-1.9c1.3-2.8,2.2-7.1,2.2-10.3
			c0-0.4,0-0.8,0-1.2L106.1,46.4L106.1,46.4z"/>
	</g>
	<g>
		<path class="st2" d="M100,60c0,0.3,0,0.5,0,0.7c0,2,0.4,3.6,1.5,5.3l0.3-0.2c-1.1-1.6-1.4-3.1-1.4-5.1c0-0.2,0-0.5,0-0.7L100,60
			L100,60z"/>
	</g>
	<g>
		<path class="st2" d="M88.9,64.7c1.7,2.6,4.7,4.5,7.9,4.5c2,0,4.1-0.7,6.1-2.3l-0.2-0.3c-1.9,1.6-4,2.3-5.9,2.3
			c-3.1,0-6-1.8-7.6-4.3L88.9,64.7L88.9,64.7z"/>
	</g>
	<g>
		<path class="st2" d="M88.2,81.5c0,0,0,0.4,0,1c0.1,1.9,0.2,6.3,0.2,10.9c0,0.4,0.2,0.8,0.5,1.2c0.5,0.7,1.4,1.6,2.5,2.5
			c1.6,1.4,3.6,2.8,5.5,4.1c1.8,1.3,3.4,2.4,4.1,3l0.2-0.3c-0.6-0.5-1.6-1.2-2.9-2.1c-1.9-1.3-4.3-3-6.2-4.5c-1-0.8-1.8-1.5-2.4-2.2
			c-0.3-0.3-0.5-0.6-0.7-0.9c-0.2-0.3-0.2-0.5-0.2-0.7c0-6.2-0.2-11.9-0.2-11.9L88.2,81.5L88.2,81.5z"/>
	</g>
	<g>
		<path class="st2" d="M251.8,62c0,0,0-6.4,0-6.5c0-0.4,0-0.7-0.1-0.9c-0.1-0.4-0.3-0.7-0.6-0.9c-0.3-0.2-0.8-0.2-1.4-0.2
			c-0.1,0-1.3,0-1.3,0l0,0.4c0,0,1.2,0,1.3,0c0.4,0,0.7,0,0.9,0.1c0.4,0.1,0.5,0.2,0.7,0.5c0.1,0.2,0.2,0.6,0.2,1.1
			c0,0.1,0,6.5,0,6.5H251.8L251.8,62z"/>
	</g>
	<g>
		<path class="st1" d="M186.6,84.5h-38.7c-0.3,0-0.6-0.3-0.6-0.6v-0.4c0-0.3,0.3-0.6,0.6-0.6h38.7c0.3,0,0.6,0.3,0.6,0.6v0.4
			C187.2,84.2,186.9,84.5,186.6,84.5z"/>
	</g>
	<g>
		<path class="st2" d="M186.6,84.5v-0.2h-38.7c-0.2,0-0.4-0.2-0.4-0.4v-0.4c0-0.2,0.2-0.4,0.4-0.4h38.7c0.2,0,0.4,0.2,0.4,0.4v0.4
			c0,0.2-0.2,0.4-0.4,0.4V84.5v0.2c0.4,0,0.7-0.3,0.7-0.7v-0.4c0-0.4-0.3-0.7-0.7-0.7h-38.7c-0.4,0-0.7,0.3-0.7,0.7v0.4
			c0,0.4,0.3,0.7,0.7,0.7h38.7V84.5z"/>
	</g>
	<g>
		<path class="st2" d="M89.1,51.5c-0.8,0.5-1.2,1.3-1.2,2c0,0.7,0.3,1.3,0.7,1.8c0.4,0.5,1.1,0.9,1.8,0.9c0.2,0,0.3,0,0.5-0.1
			L91,55.8c-0.2,0-0.3,0-0.4,0c-0.7,0-1.2-0.3-1.6-0.7c-0.4-0.4-0.6-1-0.6-1.6c0-0.7,0.3-1.3,1-1.7L89.1,51.5L89.1,51.5z"/>
	</g>
	<g>
		<path class="st1" d="M147.9,95.8h-47.1c-1.3,0-2.4-1.1-2.4-2.4V66.1c0-1.3,1.1-2.4,2.4-2.4h47.1c1.3,0,2.4,1.1,2.4,2.4v27.3
			C150.3,94.7,149.2,95.8,147.9,95.8z"/>
	</g>
	<g>
		<path class="st2" d="M147.9,95.8v-0.2h-47.1c-0.6,0-1.1-0.2-1.5-0.6c-0.4-0.4-0.6-0.9-0.6-1.5V66.1c0-0.6,0.2-1.1,0.6-1.5
			c0.4-0.4,0.9-0.6,1.5-0.6h47.1c0.6,0,1.1,0.2,1.5,0.6c0.4,0.4,0.6,0.9,0.6,1.5v27.3c0,0.6-0.2,1.1-0.6,1.5
			c-0.4,0.4-0.9,0.6-1.5,0.6V95.8V96c1.4,0,2.5-1.1,2.5-2.5V66.1c0-1.4-1.1-2.5-2.5-2.5h-47.1c-1.4,0-2.5,1.1-2.5,2.5v27.3
			c0,1.4,1.1,2.5,2.5,2.5h47.1V95.8z"/>
	</g>
	<g>
		<path class="st2" d="M145.7,74.9c0,0,0-1,0-2c0-1,0-2,0-2.1c0-0.7,0-1.2-0.2-1.7c-0.2-0.7-0.5-1.2-1.1-1.5
			c-0.6-0.3-1.4-0.4-2.4-0.4c-0.1,0-7.5,0-14.8,0c-3.7,0-7.3,0-10.1,0c-1.4,0-2.5,0-3.3,0c-0.8,0-1.3,0-1.3,0l0,0.4
			c0,0,29.3,0,29.5,0c0.7,0,1.3,0,1.7,0.2c0.7,0.2,1,0.4,1.3,0.9c0.2,0.5,0.3,1.2,0.3,2.1c0,0.1,0,4,0,4H145.7L145.7,74.9z"/>
	</g>
	<g>
		<polygon class="st0" points="122,77.5 127.6,77.5 127.3,81.9 124.9,83.6 122.2,82 		"/>
	</g>
	<g>
		<polygon class="st2" points="122,77.5 122,77.7 127.4,77.7 127.2,81.8 124.9,83.4 122.4,81.9 122.2,77.5 122,77.5 122,77.7 
			122,77.5 121.8,77.5 122.1,82.1 124.9,83.8 127.5,82 127.8,77.3 121.8,77.3 121.8,77.5 		"/>
	</g>
	<g>
		<path class="st2" d="M145.7,80.6c0-1.1,0-2.2,0-3.4h-0.4c0,1.1,0,2.2,0,3.4H145.7L145.7,80.6z"/>
	</g>
	<g>
		<path class="st2" d="M123.8,78.2h0.5v2.2c0,0.3-0.1,0.5-0.3,0.7c-0.2,0.2-0.4,0.3-0.7,0.3c-0.3,0-0.6-0.1-0.7-0.2
			c-0.2-0.2-0.3-0.4-0.3-0.7h0.5c0,0.2,0,0.3,0.1,0.4c0.1,0.1,0.2,0.1,0.4,0.1c0.1,0,0.3,0,0.3-0.1c0.1-0.1,0.1-0.2,0.1-0.4V78.2z"
			/>
		<path class="st2" d="M126.5,80.5c0-0.1,0-0.2-0.1-0.3s-0.3-0.1-0.5-0.2c-0.2-0.1-0.4-0.2-0.6-0.2c-0.3-0.2-0.4-0.4-0.4-0.7
			c0-0.2,0.1-0.5,0.3-0.6c0.2-0.2,0.5-0.2,0.8-0.2c0.2,0,0.4,0,0.6,0.1c0.2,0.1,0.3,0.2,0.4,0.3c0.1,0.1,0.1,0.3,0.1,0.5h-0.5
			c0-0.2-0.1-0.3-0.2-0.4c-0.1-0.1-0.2-0.1-0.4-0.1c-0.2,0-0.3,0-0.4,0.1c-0.1,0.1-0.1,0.2-0.1,0.3c0,0.1,0.1,0.2,0.2,0.3
			c0.1,0.1,0.3,0.1,0.5,0.2c0.2,0.1,0.4,0.2,0.6,0.2c0.1,0.1,0.3,0.2,0.3,0.3s0.1,0.3,0.1,0.4c0,0.3-0.1,0.5-0.3,0.6
			c-0.2,0.2-0.5,0.2-0.8,0.2c-0.2,0-0.4,0-0.6-0.1c-0.2-0.1-0.3-0.2-0.4-0.3c-0.1-0.1-0.2-0.3-0.2-0.5h0.5c0,0.2,0.1,0.3,0.2,0.4
			c0.1,0.1,0.3,0.1,0.5,0.1c0.2,0,0.3,0,0.4-0.1C126.5,80.7,126.5,80.6,126.5,80.5z"/>
	</g>
	<g>
		<path class="st0" d="M94.6,38.5c-1-0.5-1.9-1.3-3.2-1.5c-1.7-0.4-3.9-0.1-5.8,1.6c-5.3,4.9,0.3,8.7-4.5,10.7c1.1,1.2,5,1.2,5,1.2
			c2.7,3.4,5.8-0.5,6.3-1.5c0.8-1.4,1.9-7.3,4.8-4.5c5,4.9,13.3,2.2,12.5-4.4c-2.9,0.6-3.2-2.3-6.2-4.3c-7.3-4.9-11.9-0.1-12.1,1
			L94.6,38.5z"/>
	</g>
	<g>
		<path class="st2" d="M94.6,38.5l0.1-0.2c-1-0.5-1.9-1.3-3.2-1.6c-0.5-0.1-0.9-0.2-1.4-0.2c-1.5,0-3.1,0.5-4.5,1.8
			c-1.1,1-1.7,1.9-2.1,2.8C83.1,42.2,83,43,83,43.8c0,0.9,0.1,1.7,0.1,2.4c0,0.6-0.1,1.1-0.4,1.6c-0.3,0.5-0.8,0.9-1.7,1.2l-0.2,0.1
			l0.2,0.2c0.3,0.3,0.8,0.6,1.3,0.8c1.6,0.5,3.8,0.5,3.8,0.5v-0.2L86,50.6c0.8,1,1.7,1.4,2.5,1.4c1,0,1.9-0.6,2.6-1.2
			c0.7-0.6,1.2-1.3,1.4-1.7c0.2-0.3,0.3-0.8,0.5-1.3c0.3-0.8,0.6-1.8,1.1-2.6c0.2-0.4,0.5-0.7,0.7-0.9c0.3-0.2,0.5-0.3,0.8-0.3
			c0.4,0,0.8,0.2,1.3,0.7c1.8,1.8,4.1,2.6,6.2,2.6c1.8,0,3.4-0.6,4.7-1.6c1.2-1.1,2-2.6,2-4.5c0-0.3,0-0.6-0.1-0.9l0-0.2l-0.2,0
			c-0.3,0.1-0.5,0.1-0.7,0.1c-0.5,0-0.9-0.1-1.3-0.4c-0.6-0.4-1.1-1-1.7-1.8c-0.6-0.7-1.3-1.5-2.4-2.2c-2.4-1.6-4.5-2.2-6.3-2.2
			c-1.9,0-3.3,0.6-4.3,1.3c-0.5,0.4-0.9,0.7-1.2,1.1c-0.1,0.2-0.3,0.3-0.3,0.5c-0.1,0.1-0.1,0.3-0.2,0.4l0,0.1l3.3,1.7L94.6,38.5
			l0.1-0.2L94.6,38.5l0.1-0.2l-3.1-1.7l-0.1,0.2l0.2,0c0-0.1,0-0.2,0.1-0.3c0.2-0.4,0.9-1.1,1.8-1.7c0.9-0.6,2.2-1,3.8-1
			c1.7,0,3.8,0.5,6.1,2.1c1.3,0.9,2.1,2,2.8,2.8c0.4,0.4,0.7,0.8,1.2,1.1c0.4,0.3,0.9,0.5,1.5,0.5c0.2,0,0.5,0,0.8-0.1l0-0.2l-0.2,0
			c0,0.3,0.1,0.6,0.1,0.9c0,1.8-0.7,3.3-1.9,4.3c-1.2,1-2.8,1.6-4.5,1.6c-2,0-4.2-0.8-5.9-2.5c-0.6-0.5-1.1-0.8-1.6-0.8
			c-0.5,0-1,0.3-1.3,0.7c-0.5,0.6-1,1.6-1.3,2.5c-0.2,0.4-0.3,0.9-0.5,1.3c-0.1,0.4-0.3,0.7-0.4,0.9c-0.2,0.3-0.7,1-1.3,1.6
			c-0.7,0.6-1.5,1.1-2.4,1.1c-0.7,0-1.5-0.3-2.3-1.3l-0.1-0.1h-0.1c0,0-0.1,0-0.2,0c-0.4,0-1.3,0-2.3-0.2c-0.5-0.1-1-0.2-1.4-0.4
			c-0.4-0.2-0.8-0.4-1-0.6l-0.1,0.1l0.1,0.2c0.9-0.4,1.5-0.8,1.9-1.4c0.3-0.5,0.4-1.1,0.4-1.8c0-0.8-0.1-1.6-0.1-2.4
			c0-0.8,0.1-1.6,0.4-2.4c0.3-0.9,0.9-1.8,2-2.7c1.4-1.3,2.9-1.7,4.2-1.7c0.5,0,0.9,0.1,1.4,0.1c1.2,0.3,2.1,1,3.1,1.5l0.2-0.3
			L94.6,38.5z"/>
	</g>
	<g>
		<rect x="112.1" y="100.6" class="st1" width="24.7" height="3.6"/>
	</g>
	<g>
		<polygon class="st2" points="136.8,104.2 136.8,104 112.2,104 112.2,100.7 136.6,100.7 136.6,104.2 136.8,104.2 136.8,104 
			136.8,104.2 136.9,104.2 136.9,100.4 111.9,100.4 111.9,104.3 136.9,104.3 136.9,104.2 		"/>
	</g>
	<g>
		<path class="st2" d="M112.2,100.7c3-0.8,4.6-2,5.5-3c0.5-0.5,0.7-0.9,0.9-1.3c0.1-0.2,0.1-0.3,0.2-0.4c0-0.1,0-0.1,0-0.1
			c0,0,0-0.1,0-0.1l0,0l0-0.1l0-0.1c0,0-0.1,0-0.1,0c-0.1,0-0.1,0-0.1,0.1l0,0.1l0,0l0.3,0.1l-0.2,0l0.1,0.1l0,0l-0.2,0l0.1,0.1
			l-0.2-0.1l0.1,0.1l0,0l-0.2-0.1l0.1,0.1l-0.1-0.1V96c0.1,0,0.1,0,0.1-0.1l-0.1-0.1V96v-0.2l-0.1,0.1c0,0,0.1,0,0.1,0v-0.2
			l-0.1,0.1l0.1-0.1l-0.2,0.1c0,0,0,0,0.1,0.1l0.1-0.1l-0.2,0.1l0.1-0.1l-0.2,0c0,0,0,0,0,0.1l0.1-0.1l-0.2,0h0.1l-0.1,0l0,0h0.1
			l-0.1,0c0,0,0,0.1,0,0.2c-0.2,0.7-1.2,2.9-6.3,4.4L112.2,100.7L112.2,100.7z"/>
	</g>
	<g>
		<path class="st2" d="M136.9,100.4c-2.9-0.8-4.5-2-5.4-2.9c-0.4-0.5-0.7-0.9-0.8-1.2c-0.1-0.2-0.1-0.3-0.1-0.4c0,0,0-0.1,0-0.1l0,0
			l0,0l-0.1,0h0.1l0,0l-0.1,0h0.1h-0.1l0.1,0l0,0h-0.1l0.1,0l-0.2,0l0.2,0.1l0,0l-0.2,0l0.2,0.1l-0.2-0.1l0.1,0.1l0-0.1l-0.2-0.1
			l0.1,0.1l-0.1-0.1V96c0,0,0.1,0,0.1,0l-0.1-0.1V96v-0.2l-0.1,0.1c0,0,0.1,0,0.1,0v-0.2l-0.1,0.1l0.1-0.1l-0.2,0.1l0,0l0.1-0.1
			l-0.2,0.1l0.1-0.1l-0.1,0.1l0,0l0.1-0.1l-0.1,0.1l0.3-0.1l0,0l0,0c0,0-0.1,0-0.1,0c0,0-0.1,0-0.1,0c0,0,0,0.1-0.1,0.1
			c0,0,0,0,0,0.1c0,0,0,0.1,0,0.1c0.1,0.5,1,3.2,6.6,4.8L136.9,100.4L136.9,100.4z"/>
	</g>
	<g>
		<path class="st2" d="M94.7,36.3c0.2-0.2,0.8-0.4,1.4-0.5c0.6-0.1,1.4-0.2,2-0.2c0.5,0,0.9,0,1.2,0.1c1.4,0.4,2.4,0.9,3.1,1.5
			c1,0.9,1.5,1.8,2.1,2.7c0.3,0.4,0.7,0.8,1.2,1.2c0.5,0.3,1.2,0.6,2,0.7l0.1-0.3c-1.1-0.2-1.8-0.5-2.3-1c-0.8-0.7-1.2-1.6-1.9-2.6
			c-0.8-1-1.9-1.9-4.1-2.5c-0.3-0.1-0.8-0.1-1.3-0.1c-0.7,0-1.4,0.1-2.1,0.2c-0.7,0.1-1.2,0.3-1.6,0.6L94.7,36.3L94.7,36.3z"/>
	</g>
	<g>
		<path class="st1" d="M312,85.5h-41c-0.3,0-0.6-0.3-0.6-0.6v-0.4c0-0.3,0.3-0.6,0.6-0.6h41c0.3,0,0.6,0.3,0.6,0.6V85
			C312.6,85.3,312.3,85.5,312,85.5z"/>
	</g>
	<g>
		<path class="st2" d="M312,85.5v-0.2h-41c-0.2,0-0.4-0.2-0.4-0.4v-0.4c0-0.2,0.2-0.4,0.4-0.4h41c0.2,0,0.4,0.2,0.4,0.4V85
			c0,0.2-0.2,0.4-0.4,0.4V85.5v0.2c0.4,0,0.7-0.3,0.7-0.7v-0.4c0-0.4-0.3-0.7-0.7-0.7h-41c-0.4,0-0.7,0.3-0.7,0.7V85
			c0,0.4,0.3,0.7,0.7,0.7h41V85.5z"/>
	</g>
	<g>
		<path class="st2" d="M359.3,56.3c0.3,2.1,0.3,4.6,1,6.9c0.7,2.3,2.1,4.5,4.9,6.1c1.9,1,2.5,1.4,2.8,1.8c0.2,0.2,0.3,0.3,0.4,0.6
			c0.2,0.2,0.4,0.6,0.8,1c0.1,0.1,0.3,0.5,0.4,1c0.3,1.5,0.4,4.4,0.4,7.7c0,3.8-0.2,8.1-0.3,11.5c-0.1,1.7-0.2,3.1-0.2,4.2
			c-0.1,1-0.1,1.6-0.1,1.6l0.2,0l-0.2-0.1l0.1,0l-0.1,0l0,0l0.1,0l-0.1,0c0,0-0.4,0.8-2.6,2.2c-2.2,1.4-6.1,3.3-13,5.5l0.1,0.3
			c7.1-2.3,11-4.2,13.2-5.6c2.2-1.4,2.6-2.2,2.6-2.3l0,0l0,0c0,0,0.6-9.7,0.6-17.4c0-2.2-0.1-4.2-0.2-5.8c-0.1-0.8-0.2-1.5-0.3-2
			c-0.1-0.5-0.2-0.9-0.4-1.2c-0.4-0.5-0.6-0.8-0.7-1c-0.1-0.2-0.2-0.3-0.3-0.5c-0.2-0.2-0.4-0.4-0.9-0.7c-0.4-0.3-1.1-0.7-2.2-1.3
			c-2.8-1.5-4.1-3.6-4.8-5.9c-0.7-2.3-0.7-4.7-1-6.9L359.3,56.3L359.3,56.3z"/>
	</g>
	<g>
		<path class="st2" d="M345.2,48.3c0,0.4,0,0.8,0,1.2c0,1.7,0.1,3.7,0.4,5.5c0.3,1.9,0.7,3.7,1.4,5c0.4,0.7,0.9,1.1,1.6,1.4
			c0.7,0.3,1.4,0.4,2.1,0.4c0.7,0,1.3-0.1,1.9-0.3l-0.1-0.3c-0.5,0.2-1.1,0.3-1.8,0.3c-0.7,0-1.4-0.1-2-0.4
			c-0.6-0.3-1.1-0.7-1.4-1.2c-0.7-1.2-1.1-3-1.4-4.9c-0.3-1.9-0.4-3.8-0.4-5.5c0-0.4,0-0.8,0-1.2L345.2,48.3L345.2,48.3z"/>
	</g>
	<g>
		<path class="st2" d="M350.5,61.7c-0.2,1.1-0.3,2.1-0.5,3c-0.2,0.9-0.4,1.8-1,2.7l0.3,0.2c0.6-0.9,0.8-1.9,1-2.8
			c0.2-0.9,0.3-1.9,0.5-3L350.5,61.7L350.5,61.7z"/>
	</g>
	<g>
		<path class="st2" d="M361.6,65.9c-1.6,2.5-4.6,4.4-7.8,4.4c-1.8,0-3.6-0.6-5.4-2l-0.2,0.3c1.8,1.5,3.7,2.1,5.6,2.1
			c3.3,0,6.4-2,8.1-4.6L361.6,65.9L361.6,65.9z"/>
	</g>
	<g>
		<path class="st2" d="M361.8,82.5c0,0-0.2,5.5-0.2,11.4c0,0.2-0.1,0.6-0.4,0.9c-0.5,0.7-1.3,1.5-2.3,2.3c-1.5,1.3-3.4,2.7-5.2,3.9
			c-1.7,1.2-3.2,2.2-4,2.8l0.2,0.3c0.5-0.4,1.5-1.2,2.8-2c1.8-1.3,4.1-2.9,5.9-4.3c0.9-0.7,1.7-1.5,2.3-2.1c0.3-0.3,0.5-0.6,0.7-0.9
			c0.2-0.3,0.3-0.6,0.3-0.8c0-2.9,0-5.8,0.1-7.9c0-1.1,0-1.9,0.1-2.5s0-0.9,0-0.9L361.8,82.5L361.8,82.5z"/>
	</g>
	<g>
		<path class="st2" d="M360.9,52.4c0.7,0.4,1,1,1,1.6c0,0.5-0.2,1.1-0.6,1.5c-0.4,0.4-0.9,0.7-1.5,0.7c-0.1,0-0.3,0-0.4,0l-0.1,0.3
			c0.2,0,0.3,0,0.5,0c0.7,0,1.3-0.3,1.8-0.8c0.4-0.5,0.7-1.1,0.7-1.8c0-0.7-0.3-1.5-1.1-2L360.9,52.4L360.9,52.4z"/>
	</g>
	<g>
		<path class="st1" d="M305.5,96.1H350c1.3,0,2.4-1.1,2.4-2.4V68c0-1.3-1.1-2.4-2.4-2.4h-44.6c-1.3,0-2.4,1.1-2.4,2.4v25.8
			C303.1,95.1,304.2,96.1,305.5,96.1z"/>
	</g>
	<g>
		<path class="st2" d="M305.5,96.1v0.2H350c1.4,0,2.5-1.1,2.5-2.5V68c0-1.4-1.1-2.5-2.5-2.5h-44.6c-1.4,0-2.5,1.1-2.5,2.5v25.8
			c0,1.4,1.1,2.5,2.5,2.5V96.1v-0.2c-0.6,0-1.1-0.2-1.5-0.6c-0.4-0.4-0.6-0.9-0.6-1.5V68c0-0.6,0.2-1.1,0.6-1.5
			c0.4-0.4,0.9-0.6,1.5-0.6H350c0.6,0,1.1,0.2,1.5,0.6c0.4,0.4,0.6,0.9,0.6,1.5v25.8c0,0.6-0.2,1.1-0.6,1.5
			c-0.4,0.4-0.9,0.6-1.5,0.6h-44.6V96.1z"/>
	</g>
	<g>
		<path class="st2" d="M307.8,76.2c0,0,0-0.9,0-1.9c0-1,0-1.9,0-2c0-0.6,0-1.1,0.1-1.5c0.1-0.6,0.4-0.9,0.9-1.2
			c0.5-0.2,1.2-0.3,2.2-0.3c0.2,0,28.1,0,28.1,0l0-0.4c0,0-7,0-14,0c-7,0-14,0-14.1,0c-0.7,0-1.2,0-1.7,0.2c-0.7,0.2-1.2,0.5-1.4,1
			c-0.3,0.5-0.4,1.2-0.4,2.2c0,0.1,0,3.8,0,3.8H307.8L307.8,76.2z"/>
	</g>
	<g>
		<path class="st2" d="M307.8,81.7c0-1.1,0-2.1,0-3.2h-0.4c0,1.1,0,2.1,0,3.2H307.8L307.8,81.7z"/>
	</g>
	<g>
		<path class="st3" d="M343.1,35.5c-4,5.4-0.2,10.7,2.1,13.1c12.6-8.7,9.9,6.1,16.1,3.7c5.8-13.2-3.4-16.8-10.2-14.2
			C342.1,41.5,343.1,35.5,343.1,35.5z"/>
	</g>
	<g>
		<path class="st2" d="M343.1,35.5l-0.1-0.1c-1.3,1.7-1.8,3.5-1.8,5.1c0,3.5,2.3,6.5,3.9,8.2l0.1,0.1l0.1-0.1c2.9-2,5-2.7,6.5-2.7
			c1.1,0,2,0.4,2.7,1c1.1,0.9,1.8,2.3,2.5,3.5c0.4,0.6,0.8,1.1,1.3,1.5c0.5,0.4,1.1,0.7,1.8,0.7c0.4,0,0.9-0.1,1.4-0.3l0.1,0l0-0.1
			c1.3-3,1.9-5.5,1.9-7.5c0-2.7-1-4.6-2.4-5.9c-1.5-1.3-3.5-1.8-5.6-1.8c-1.4,0-2.9,0.3-4.3,0.8c-2,0.8-3.5,1-4.6,1
			c-1.5,0-2.3-0.5-2.7-1.1c-0.4-0.6-0.5-1.4-0.5-1.8c0-0.1,0-0.3,0-0.3c0,0,0-0.1,0-0.1l0,0l0.1-0.7l-0.4,0.6L343.1,35.5l-0.2,0
			c0,0,0,0.2,0,0.5c0,0.5,0.1,1.3,0.6,2c0.5,0.7,1.4,1.3,3,1.3c1.2,0,2.7-0.3,4.8-1.1c1.3-0.5,2.8-0.8,4.1-0.8c2,0,3.9,0.6,5.3,1.8
			c1.4,1.2,2.3,3,2.3,5.6c0,2-0.5,4.4-1.8,7.4l0.2,0.1l-0.1-0.2c-0.5,0.2-0.9,0.3-1.2,0.3c-0.8,0-1.4-0.4-2-1
			c-0.8-0.9-1.5-2.3-2.4-3.5c-0.5-0.6-1-1.2-1.6-1.6c-0.6-0.4-1.4-0.6-2.3-0.6c-1.6,0-3.8,0.8-6.7,2.8l0.1,0.1l0.1-0.1
			c-1.6-1.6-3.8-4.6-3.8-8c0-1.6,0.5-3.2,1.7-4.9L343.1,35.5l-0.2,0L343.1,35.5z"/>
	</g>
	<g>
		<path class="st2" d="M361.2,46.8c0.1-0.4,0.1-0.9,0.1-1.2c0-1.1-0.3-2.1-0.8-2.8c-0.7-1.1-1.8-1.8-2.9-2.2
			c-1.1-0.4-2.1-0.5-2.7-0.5c-1.4,0-2.8,0.4-4.1,0.9c-1.3,0.4-2.6,0.9-3.7,0.8c-0.6,0-1.1-0.1-1.6-0.4c-0.5-0.3-0.9-0.8-1.3-1.6
			l-0.3,0.1c0.4,0.8,0.8,1.4,1.4,1.8c0.5,0.4,1.2,0.5,1.8,0.5c1.2,0,2.4-0.4,3.8-0.9c1.3-0.4,2.7-0.9,4-0.8c0.8,0,2.3,0.2,3.6,1
			c0.7,0.4,1.3,0.9,1.7,1.6c0.4,0.7,0.7,1.5,0.7,2.6c0,0.4,0,0.8-0.1,1.2L361.2,46.8L361.2,46.8z"/>
	</g>
	<g>
		<rect x="316" y="100.7" class="st1" width="23.5" height="3.4"/>
	</g>
	<g>
		<polygon class="st2" points="316,104.1 316,104.3 339.7,104.3 339.7,100.5 315.8,100.5 315.8,104.3 316,104.3 316,104.1 
			316.2,104.1 316.2,100.9 339.3,100.9 339.3,103.9 316,103.9 316,104.1 316.2,104.1 		"/>
	</g>
	<g>
		<path class="st2" d="M339.5,100.5c-2.8-0.8-4.3-1.9-5.1-2.7c-0.4-0.4-0.6-0.8-0.8-1.1c-0.1-0.1-0.1-0.3-0.1-0.3c0,0,0-0.1,0-0.1
			l0,0l0,0h-0.1l0.1,0l0,0h-0.1l0.1,0l-0.2,0l0.2,0.1l0,0l-0.2,0l0.2,0.1l-0.2-0.1l0.1,0.1l0-0.1l-0.2-0.1l0.1,0.1l-0.1-0.1v0.2
			c0,0,0.1,0,0.1,0l-0.1-0.1v0.2v-0.2l-0.1,0.1c0,0,0.1,0,0.1,0v-0.2l-0.1,0.1l0.1-0.1l-0.2,0.1l0,0.1l0.1-0.1l-0.2,0.1l0.1-0.1
			l-0.1,0.1l0,0l0.1-0.1l-0.1,0.1l0.3-0.1l0,0l0,0c0,0-0.1,0-0.1,0c0,0-0.1,0-0.1,0c0,0,0,0.1-0.1,0.1c0,0,0,0,0,0.1
			c0,0,0,0.1,0,0.1c0.1,0.5,1,3.1,6.3,4.6L339.5,100.5L339.5,100.5z"/>
	</g>
	<g>
		<path class="st2" d="M316,100.8c2.8-0.8,4.4-1.9,5.3-2.8c0.4-0.5,0.7-0.9,0.8-1.2c0.1-0.2,0.1-0.3,0.1-0.4c0-0.1,0-0.1,0-0.1
			c0,0,0-0.1,0-0.1l0,0l0-0.1l0-0.1c0,0-0.1,0-0.1,0c-0.1,0-0.1,0-0.1,0.1l0,0.1l0,0l0.3,0.1l-0.2,0l0.1,0.1l0,0l-0.2,0l0.1,0.1
			l-0.2-0.1l0.1,0.1l0,0l-0.2-0.1l0.1,0.1l-0.1-0.1v0.2c0.1,0,0.1,0,0.1-0.1l-0.1-0.1v0.2v-0.2l-0.1,0.1c0,0,0.1,0,0.1,0v-0.2
			l-0.1,0.1l0.1-0.1l-0.2,0.1c0,0,0,0,0.1,0.1l0.1-0.1l-0.2,0.1l0.2-0.1l-0.2,0c0,0,0,0,0,0.1l0.2-0.1l-0.2,0l0,0c0,0,0,0.3-0.2,0.5
			c-0.4,0.9-1.8,2.6-5.8,3.8L316,100.8L316,100.8z"/>
	</g>
	<g>
		<path class="st3" d="M330.1,83.4c0,0-5.3,0-5.3,0c-1.5-0.1-1.6-2.3-0.2-2.5c-0.7-2.7,3.2-2.8,3.2-0.4c0.6-0.5,1.5-0.1,1.5,0.8
			C331.1,80.9,331.1,83.1,330.1,83.4z"/>
	</g>
	<g>
		<path class="st2" d="M330.1,83.4l0-0.2c0,0-2.4,0-3.9,0c-0.4,0-0.7,0-1,0c-0.1,0-0.2,0-0.3,0c0,0-0.1,0-0.1,0l0,0l0,0l0,0l0,0
			c0,0,0,0.1,0,0.1l0,0.1l0.1,0.1l0.1-0.1l0-0.2c-0.4,0-0.6-0.2-0.8-0.4c-0.2-0.2-0.3-0.5-0.3-0.8c0-0.2,0.1-0.5,0.2-0.7
			c0.1-0.2,0.3-0.3,0.6-0.4l0.2,0l0-0.2c-0.1-0.2-0.1-0.4-0.1-0.6c0-0.5,0.2-0.8,0.4-1c0.3-0.2,0.6-0.3,1-0.3c0.4,0,0.8,0.1,1,0.4
			c0.3,0.2,0.5,0.6,0.5,1.1l0,0l0,0.4l0.3-0.2c0.2-0.1,0.3-0.2,0.5-0.2c0.2,0,0.4,0.1,0.5,0.2c0.1,0.1,0.2,0.3,0.2,0.5l0,0.1l0,0.2
			l0.2,0c0.1,0,0.2,0,0.3,0c0.4,0,0.6,0.1,0.8,0.3c0.2,0.2,0.3,0.4,0.3,0.7c0,0.2-0.1,0.4-0.2,0.6c-0.1,0.2-0.2,0.3-0.4,0.3
			L330.1,83.4l0-0.2L330.1,83.4l0,0.2c0.3-0.1,0.5-0.3,0.6-0.5c0.1-0.2,0.2-0.5,0.2-0.8c0-0.3-0.1-0.7-0.3-0.9
			c-0.2-0.3-0.6-0.4-1.1-0.4c-0.1,0-0.2,0-0.3,0l0,0.2l0.2,0l0-0.1c0-0.3-0.1-0.6-0.3-0.8c-0.2-0.2-0.5-0.3-0.7-0.3
			c-0.2,0-0.5,0.1-0.7,0.3l0.1,0.1l0.2,0l0,0c0-0.6-0.2-1.1-0.6-1.4c-0.4-0.3-0.8-0.5-1.3-0.5c-0.4,0-0.9,0.1-1.2,0.4
			c-0.3,0.3-0.6,0.7-0.6,1.3c0,0.2,0,0.4,0.1,0.7l0.2,0l0-0.2c-0.4,0.1-0.7,0.3-0.9,0.5c-0.2,0.3-0.3,0.6-0.3,0.9
			c0,0.4,0.1,0.7,0.3,1c0.2,0.3,0.6,0.5,1,0.5l0.6,0l-0.5-0.3l-0.1,0.1l0.1-0.1l-0.1-0.1l-0.1,0.1l0.1-0.1l-0.2,0.1l0.2,0l0-0.1
			l-0.2,0.1l0.2,0h-0.2l0.1,0.1c0,0,0-0.1,0-0.1h-0.2l0.1,0.1l-0.1-0.1l0.1,0.2c0,0,0,0,0.1-0.1l-0.1-0.1l0.1,0.2l-0.1-0.1l0,0.2
			l0,0l-0.1-0.1l0,0.2l0-0.1l0,0.1l0,0l0-0.1l0,0.1c0,0,0.1,0,0.1,0c0.2,0,0.7,0,1.2,0c0.8,0,1.8,0,2.6,0c0.8,0,1.4,0,1.4,0l0,0l0,0
			L330.1,83.4z"/>
	</g>
	<g>
		<path class="st1" d="M107.7,109.8h-4.1c-1.6,0-3-1.3-3-3v-0.5c0-1.6,1.3-3,3-3h4.1c1.6,0,3,1.3,3,3v0.5
			C110.7,108.4,109.4,109.8,107.7,109.8z"/>
	</g>
	<g>
		<path class="st2" d="M107.7,109.8v-0.2h-4.1c-0.8,0-1.5-0.3-2-0.8c-0.5-0.5-0.8-1.2-0.8-2v-0.5c0-0.8,0.3-1.5,0.8-2
			c0.5-0.5,1.2-0.8,2-0.8h4.1c0.8,0,1.5,0.3,2,0.8c0.5,0.5,0.8,1.2,0.8,2v0.5c0,0.8-0.3,1.5-0.8,2c-0.5,0.5-1.2,0.8-2,0.8V109.8v0.2
			c1.7,0,3.2-1.4,3.2-3.2v-0.5c0-1.7-1.4-3.2-3.2-3.2h-4.1c-1.7,0-3.2,1.4-3.2,3.2v0.5c0,1.7,1.4,3.2,3.2,3.2h4.1V109.8z"/>
	</g>
	<g>
		<polyline class="st2" points="107,103.3 107,109.8 107.3,109.8 107.3,103.3 		"/>
	</g>
	<g>
		<polyline class="st2" points="110.7,106.2 107.1,106.2 107.1,106.5 110.7,106.5 		"/>
	</g>
	<g>
		<path class="st1" d="M106.8,106.9c0,2.3-4.3,1.7-6.6,1.7s-4.6-1.4-4.6-3.7c0-2.3,1.9-3.9,4.2-3.9S106.8,104.5,106.8,106.9z"/>
	</g>
	<g>
		<path class="st2" d="M106.8,106.9h-0.2c0,0.3-0.1,0.6-0.3,0.8c-0.2,0.3-0.7,0.5-1.2,0.6c-0.6,0.1-1.2,0.2-1.9,0.2
			c-1,0-2.1-0.1-3-0.1c-1.1,0-2.2-0.3-3.1-0.9c-0.8-0.6-1.3-1.5-1.3-2.6c0-1.1,0.5-2,1.2-2.7c0.7-0.6,1.7-1,2.9-1
			c0.5,0,1.3,0.2,2,0.6c1.1,0.5,2.3,1.4,3.3,2.4c0.5,0.5,0.8,1,1.1,1.4c0.3,0.5,0.4,0.9,0.4,1.3H106.8h0.2c0-0.6-0.3-1.3-0.8-2
			c-0.7-1-1.9-2-3-2.8c-1.2-0.8-2.4-1.3-3.3-1.3c-1.2,0-2.3,0.4-3.1,1.1c-0.8,0.7-1.3,1.7-1.3,2.9c0,1.2,0.6,2.2,1.5,2.9
			c0.9,0.7,2.1,1,3.3,1c0.8,0,1.9,0.1,3,0.1c0.9,0,1.9-0.1,2.6-0.3c0.4-0.1,0.7-0.3,0.9-0.6c0.2-0.3,0.3-0.6,0.3-1H106.8z"/>
	</g>
	<g>
		<path class="st2" d="M100.1,105.8c0.9,0.5,1.5,0.8,2.4,1.3c0.6,0.4,1.2,1,1.6,1.5l0.3-0.2c-0.5-0.5-1.1-1.1-1.7-1.5
			c-0.9-0.6-1.5-0.8-2.4-1.3L100.1,105.8L100.1,105.8z"/>
	</g>
	<g>
		<path class="st2" d="M101.5,104.7c1,0.3,1.9,0.9,2.5,1.4c0.7,0.5,1.5,1.3,2.1,2l0.3-0.2c-0.6-0.7-1.4-1.6-2.2-2.1
			c-0.7-0.4-1.6-1.1-2.6-1.4L101.5,104.7L101.5,104.7z"/>
	</g>
	<g>
		<path class="st2" d="M102.4,103.4c1.4,0.6,2.1,1.1,2.7,1.6c0.6,0.5,0.9,1,1.5,1.7l0.3-0.2c-0.6-0.7-1-1.3-1.6-1.8
			c-0.6-0.5-1.4-1-2.8-1.6L102.4,103.4L102.4,103.4z"/>
	</g>
	<g>
		<path class="st1" d="M344.1,107c0,2.3,4.3,1.7,6.6,1.7c2.3,0,4.6-1.4,4.6-3.7c0-2.3-1.9-3.9-4.2-3.9
			C348.8,101.1,344.1,104.7,344.1,107z"/>
	</g>
	<g>
		<path class="st2" d="M344.1,107H344c0,0.4,0.1,0.8,0.3,1c0.3,0.4,0.8,0.6,1.4,0.8c0.6,0.1,1.3,0.2,2,0.2c1.1,0,2.2-0.1,3-0.1
			c1.2,0,2.4-0.3,3.3-1c0.9-0.7,1.5-1.6,1.5-2.9c0-1.2-0.5-2.2-1.3-2.9c-0.8-0.7-1.9-1.1-3.1-1.1c-0.6,0-1.4,0.2-2.2,0.6
			c-1.2,0.6-2.4,1.5-3.4,2.5c-0.5,0.5-0.9,1-1.2,1.5c-0.3,0.5-0.5,1-0.5,1.5H344.1h0.2c0-0.5,0.3-1.2,0.7-1.8c0.7-1,1.8-2,2.9-2.7
			c1.1-0.7,2.3-1.2,3.1-1.2c1.1,0,2.1,0.4,2.9,1c0.7,0.6,1.2,1.6,1.2,2.7c0,1.1-0.5,2-1.3,2.6c-0.8,0.6-1.9,0.9-3.1,0.9
			c-0.9,0-2,0.1-3,0.1c-0.9,0-1.8-0.1-2.4-0.3c-0.3-0.1-0.6-0.3-0.7-0.5c-0.2-0.2-0.3-0.5-0.3-0.8H344.1z"/>
	</g>
	<g>
		<path class="st2" d="M350.7,105.7c-0.9,0.5-1.5,0.8-2.4,1.3c-0.6,0.4-1.2,1-1.7,1.5l0.3,0.2c0.5-0.5,1.1-1.1,1.6-1.5
			c0.9-0.6,1.5-0.8,2.4-1.3L350.7,105.7L350.7,105.7z"/>
	</g>
	<g>
		<path class="st2" d="M349.3,104.5c-1,0.4-1.9,1-2.6,1.4c-0.8,0.5-1.6,1.4-2.2,2.1l0.3,0.2c0.6-0.7,1.4-1.5,2.1-2
			c0.7-0.4,1.6-1,2.5-1.4L349.3,104.5L349.3,104.5z"/>
	</g>
	<g>
		<path class="st2" d="M348.4,103.2c-1.4,0.7-2.2,1.1-2.8,1.6c-0.6,0.5-1,1-1.6,1.8l0.3,0.2c0.6-0.8,1-1.3,1.5-1.7
			c0.6-0.5,1.3-0.9,2.7-1.6L348.4,103.2L348.4,103.2z"/>
	</g>
	<g>
		<rect x="201" y="100.9" class="st0" width="19" height="3.4"/>
	</g>
	<g>
		<polygon class="st2" points="220.1,104.2 220.1,104.1 201.2,104.1 201.2,101.1 219.9,101.1 219.9,104.2 220.1,104.2 220.1,104.1 
			220.1,104.2 220.3,104.2 220.3,100.7 200.9,100.7 200.9,104.4 220.3,104.4 220.3,104.2 		"/>
	</g>
	<g>
		<path class="st1" d="M201,104.2v-3.4c0,0-2,1.3-3.6,1.3l0,1C197.4,103.1,199.8,103.2,201,104.2z"/>
	</g>
	<g>
		<path class="st2" d="M201,104.2h0.2v-3.4l-0.3-0.1c0,0,0,0-0.1,0.1c-0.2,0.1-0.7,0.4-1.4,0.7c-0.6,0.3-1.4,0.5-2.1,0.5l-0.2,0.2
			l0,1l0.2,0.2c0,0,0,0,0.1,0c0.2,0,0.8,0.1,1.5,0.2c0.7,0.2,1.4,0.4,1.9,0.8l0.3-0.1H201l0.1-0.1c-0.6-0.5-1.6-0.8-2.4-1
			c-0.8-0.2-1.4-0.2-1.4-0.2l0,0.2l0.2,0l0-1l-0.2,0l0,0.2c0.9,0,1.8-0.4,2.5-0.7c0.7-0.3,1.2-0.6,1.2-0.6l-0.1-0.1h-0.2v3.4H201
			l0.1-0.1L201,104.2z"/>
	</g>
	<g>
		<path class="st2" d="M197,102.1c-0.1,0-0.2,0-0.3,0c-0.3,0-0.5,0.2-0.5,0.5c0,0.3,0.2,0.5,0.5,0.5c0.1,0,0.2,0,0.3,0
			c0.3,0,0.5-0.2,0.5-0.5C197.6,102.4,197.3,102.1,197,102.1z"/>
	</g>
	<g>
		<rect x="208" y="104.9" class="st1" width="19" height="3.4"/>
	</g>
	<g>
		<polygon class="st2" points="227.1,108.2 227.1,108 208.2,108 208.2,105 226.9,105 226.9,108.2 227.1,108.2 227.1,108 
			227.1,108.2 227.3,108.2 227.3,104.7 207.9,104.7 207.9,108.4 227.3,108.4 227.3,108.2 		"/>
	</g>
	<g>
		<path class="st1" d="M208,108.2v-3.4c0,0-2,1.3-3.6,1.3l0,1C204.4,107.1,206.8,107.2,208,108.2z"/>
	</g>
	<g>
		<path class="st2" d="M208,108.2h0.2v-3.4l-0.3-0.1c0,0,0,0-0.1,0.1c-0.2,0.1-0.7,0.4-1.4,0.7c-0.6,0.3-1.4,0.5-2.1,0.5l-0.2,0.2
			l0,1l0.2,0.2c0,0,0,0,0.1,0c0.2,0,0.8,0.1,1.5,0.2c0.7,0.2,1.4,0.4,1.9,0.8l0.3-0.1H208l0.1-0.1c-0.6-0.5-1.6-0.8-2.4-1
			c-0.8-0.2-1.4-0.2-1.4-0.2l0,0.2l0.2,0l0-1l-0.2,0l0,0.2c0.9,0,1.8-0.4,2.5-0.7c0.7-0.3,1.2-0.6,1.2-0.6l-0.1-0.1h-0.2v3.4H208
			l0.1-0.1L208,108.2z"/>
	</g>
	<g>
		<path class="st2" d="M204,106.1c-0.1,0-0.2,0-0.3,0c-0.3,0-0.5,0.2-0.5,0.5c0,0.3,0.2,0.5,0.5,0.5c0.1,0,0.2,0,0.3,0
			c0.3,0,0.5-0.2,0.5-0.5C204.6,106.3,204.3,106.1,204,106.1z"/>
	</g>
	<g>
		<rect x="201" y="108.7" class="st3" width="19" height="3.4"/>
	</g>
	<g>
		<polygon class="st2" points="220,112.1 220,111.9 201.1,111.9 201.1,108.9 219.8,108.9 219.8,112.1 220,112.1 220,111.9 
			220,112.1 220.2,112.1 220.2,108.6 200.8,108.6 200.8,112.3 220.2,112.3 220.2,112.1 		"/>
	</g>
	<g>
		<path class="st1" d="M201,112.1v-3.4c0,0-2,1.3-3.6,1.3l0,1C197.3,111,199.8,111.1,201,112.1z"/>
	</g>
	<g>
		<path class="st2" d="M201,112.1h0.2v-3.4l-0.3-0.1c0,0,0,0-0.1,0.1c-0.2,0.1-0.7,0.4-1.4,0.7c-0.6,0.3-1.4,0.5-2.1,0.5l-0.2,0.2
			l0,1l0.2,0.2c0,0,0,0,0.1,0c0.2,0,0.8,0.1,1.5,0.2c0.7,0.2,1.4,0.4,1.9,0.8l0.3-0.1H201l0.1-0.1c-0.6-0.5-1.6-0.8-2.4-1
			c-0.8-0.2-1.4-0.2-1.4-0.2l0,0.2l0.2,0l0-1l-0.2,0l0,0.2c0.9,0,1.8-0.4,2.5-0.7c0.7-0.3,1.2-0.6,1.2-0.6l-0.1-0.1h-0.2v3.4H201
			l0.1-0.1L201,112.1z"/>
	</g>
	<g>
		<path class="st2" d="M197,110c-0.1,0-0.2,0-0.3,0c-0.3,0-0.5,0.2-0.5,0.5c0,0.3,0.2,0.5,0.5,0.5c0.1,0,0.2,0,0.3,0
			c0.3,0,0.5-0.2,0.5-0.5C197.5,110.2,197.3,110,197,110z"/>
	</g>
	<g>
		<path class="st0" d="M172.7,110.1h-5.6c-1.3,0-2.3-1-2.3-2.3v-4.2c0-1.3,1-2.3,2.3-2.3h5.6c1.3,0,2.3,1,2.3,2.3v4.2
			C174.9,109,173.9,110.1,172.7,110.1z"/>
	</g>
	<g>
		<path class="st2" d="M172.7,110.1v-0.2h-5.6c-0.6,0-1.1-0.2-1.5-0.6c-0.4-0.4-0.6-0.9-0.6-1.5v-4.2c0-0.6,0.2-1.1,0.6-1.5
			c0.4-0.4,0.9-0.6,1.5-0.6h5.6c0.6,0,1.1,0.2,1.5,0.6c0.4,0.4,0.6,0.9,0.6,1.5v4.2c0,0.6-0.2,1.1-0.6,1.5c-0.4,0.4-0.9,0.6-1.5,0.6
			V110.1v0.2c1.4,0,2.5-1.1,2.5-2.5v-4.2c0-1.4-1.1-2.5-2.5-2.5h-5.6c-1.4,0-2.5,1.1-2.5,2.5v4.2c0,1.4,1.1,2.5,2.5,2.5h5.6V110.1z"
			/>
	</g>
	<g>
		<path class="st0" d="M172.7,109.5h-5.6c-1.3,0-2.3-1-2.3-2.3V103c0-1.3,1-2.3,2.3-2.3h5.6c1.3,0,2.3,1,2.3,2.3v4.2
			C174.9,108.5,173.9,109.5,172.7,109.5z"/>
	</g>
	<g>
		<path class="st2" d="M172.7,109.5v-0.2h-5.6c-0.6,0-1.1-0.2-1.5-0.6c-0.4-0.4-0.6-0.9-0.6-1.5V103c0-0.6,0.2-1.1,0.6-1.5
			c0.4-0.4,0.9-0.6,1.5-0.6h5.6c0.6,0,1.1,0.2,1.5,0.6c0.4,0.4,0.6,0.9,0.6,1.5v4.2c0,0.6-0.2,1.1-0.6,1.5c-0.4,0.4-0.9,0.6-1.5,0.6
			V109.5v0.2c1.4,0,2.5-1.1,2.5-2.5V103c0-1.4-1.1-2.5-2.5-2.5h-5.6c-1.4,0-2.5,1.1-2.5,2.5v4.2c0,1.4,1.1,2.5,2.5,2.5h5.6V109.5z"
			/>
	</g>
	<g>
		<path class="st0" d="M172.7,109h-5.6c-1.3,0-2.3-1-2.3-2.3v-4.2c0-1.3,1-2.3,2.3-2.3h5.6c1.3,0,2.3,1,2.3,2.3v4.2
			C174.9,108,173.9,109,172.7,109z"/>
	</g>
	<g>
		<path class="st2" d="M172.7,109v-0.2h-5.6c-0.6,0-1.1-0.2-1.5-0.6c-0.4-0.4-0.6-0.9-0.6-1.5v-4.2c0-0.6,0.2-1.1,0.6-1.5
			c0.4-0.4,0.9-0.6,1.5-0.6h5.6c0.6,0,1.1,0.2,1.5,0.6c0.4,0.4,0.6,0.9,0.6,1.5v4.2c0,0.6-0.2,1.1-0.6,1.5c-0.4,0.4-0.9,0.6-1.5,0.6
			V109v0.2c1.4,0,2.5-1.1,2.5-2.5v-4.2c0-1.4-1.1-2.5-2.5-2.5h-5.6c-1.4,0-2.5,1.1-2.5,2.5v4.2c0,1.4,1.1,2.5,2.5,2.5h5.6V109z"/>
	</g>
	<g>
		<path class="st0" d="M172.7,108.5h-5.6c-1.3,0-2.3-1-2.3-2.3v-4.2c0-1.3,1-2.3,2.3-2.3h5.6c1.3,0,2.3,1,2.3,2.3v4.2
			C174.9,107.4,173.9,108.5,172.7,108.5z"/>
	</g>
	<g>
		<path class="st2" d="M172.7,108.5v-0.2h-5.6c-0.6,0-1.1-0.2-1.5-0.6c-0.4-0.4-0.6-0.9-0.6-1.5v-4.2c0-0.6,0.2-1.1,0.6-1.5
			c0.4-0.4,0.9-0.6,1.5-0.6h5.6c0.6,0,1.1,0.2,1.5,0.6c0.4,0.4,0.6,0.9,0.6,1.5v4.2c0,0.6-0.2,1.1-0.6,1.5c-0.4,0.4-0.9,0.6-1.5,0.6
			V108.5v0.2c1.4,0,2.5-1.1,2.5-2.5v-4.2c0-1.4-1.1-2.5-2.5-2.5h-5.6c-1.4,0-2.5,1.1-2.5,2.5v4.2c0,1.4,1.1,2.5,2.5,2.5h5.6V108.5z"
			/>
	</g>
	<g>
		<path class="st3" d="M230.3,98.7h-5.6c-1.3,0-2.3-1-2.3-2.3v-4.2c0-1.3,1-2.3,2.3-2.3h5.6c1.3,0,2.3,1,2.3,2.3v4.2
			C232.6,97.6,231.6,98.7,230.3,98.7z"/>
	</g>
	<g>
		<path class="st2" d="M230.3,98.7v-0.2h-5.6c-0.6,0-1.1-0.2-1.5-0.6c-0.4-0.4-0.6-0.9-0.6-1.5v-4.2c0-0.6,0.2-1.1,0.6-1.5
			c0.4-0.4,0.9-0.6,1.5-0.6h5.6c0.6,0,1.1,0.2,1.5,0.6c0.4,0.4,0.6,0.9,0.6,1.5v4.2c0,0.6-0.2,1.1-0.6,1.5c-0.4,0.4-0.9,0.6-1.5,0.6
			V98.7v0.2c1.4,0,2.5-1.1,2.5-2.5v-4.2c0-1.4-1.1-2.5-2.5-2.5h-5.6c-1.4,0-2.5,1.1-2.5,2.5v4.2c0,1.4,1.1,2.5,2.5,2.5h5.6V98.7z"/>
	</g>
	<g>
		<path class="st3" d="M230.3,98.2h-5.6c-1.3,0-2.3-1-2.3-2.3v-4.2c0-1.3,1-2.3,2.3-2.3h5.6c1.3,0,2.3,1,2.3,2.3v4.2
			C232.6,97.1,231.6,98.2,230.3,98.2z"/>
	</g>
	<g>
		<path class="st2" d="M230.3,98.2V98h-5.6c-0.6,0-1.1-0.2-1.5-0.6c-0.4-0.4-0.6-0.9-0.6-1.5v-4.2c0-0.6,0.2-1.1,0.6-1.5
			c0.4-0.4,0.9-0.6,1.5-0.6h5.6c0.6,0,1.1,0.2,1.5,0.6c0.4,0.4,0.6,0.9,0.6,1.5v4.2c0,0.6-0.2,1.1-0.6,1.5c-0.4,0.4-0.9,0.6-1.5,0.6
			V98.2v0.2c1.4,0,2.5-1.1,2.5-2.5v-4.2c0-1.4-1.1-2.5-2.5-2.5h-5.6c-1.4,0-2.5,1.1-2.5,2.5v4.2c0,1.4,1.1,2.5,2.5,2.5h5.6V98.2z"/>
	</g>
	<g>
		<path class="st3" d="M230.3,97.6h-5.6c-1.3,0-2.3-1-2.3-2.3v-4.2c0-1.3,1-2.3,2.3-2.3h5.6c1.3,0,2.3,1,2.3,2.3v4.2
			C232.6,96.6,231.6,97.6,230.3,97.6z"/>
	</g>
	<g>
		<path class="st2" d="M230.3,97.6v-0.2h-5.6c-0.6,0-1.1-0.2-1.5-0.6c-0.4-0.4-0.6-0.9-0.6-1.5v-4.2c0-0.6,0.2-1.1,0.6-1.5
			c0.4-0.4,0.9-0.6,1.5-0.6h5.6c0.6,0,1.1,0.2,1.5,0.6c0.4,0.4,0.6,0.9,0.6,1.5v4.2c0,0.6-0.2,1.1-0.6,1.5c-0.4,0.4-0.9,0.6-1.5,0.6
			V97.6v0.2c1.4,0,2.5-1.1,2.5-2.5v-4.2c0-1.4-1.1-2.5-2.5-2.5h-5.6c-1.4,0-2.5,1.1-2.5,2.5v4.2c0,1.4,1.1,2.5,2.5,2.5h5.6V97.6z"/>
	</g>
	<g>
		<path class="st3" d="M230.3,97.1h-5.6c-1.3,0-2.3-1-2.3-2.3v-4.2c0-1.3,1-2.3,2.3-2.3h5.6c1.3,0,2.3,1,2.3,2.3v4.2
			C232.6,96.1,231.6,97.1,230.3,97.1z"/>
	</g>
	<g>
		<path class="st2" d="M230.3,97.1v-0.2h-5.6c-0.6,0-1.1-0.2-1.5-0.6c-0.4-0.4-0.6-0.9-0.6-1.5v-4.2c0-0.6,0.2-1.1,0.6-1.5
			c0.4-0.4,0.9-0.6,1.5-0.6h5.6c0.6,0,1.1,0.2,1.5,0.6c0.4,0.4,0.6,0.9,0.6,1.5v4.2c0,0.6-0.2,1.1-0.6,1.5c-0.4,0.4-0.9,0.6-1.5,0.6
			V97.1v0.2c1.4,0,2.5-1.1,2.5-2.5v-4.2c0-1.4-1.1-2.5-2.5-2.5h-5.6c-1.4,0-2.5,1.1-2.5,2.5v4.2c0,1.4,1.1,2.5,2.5,2.5h5.6V97.1z"/>
	</g>
	<g>
		<path class="st1" d="M189.1,119.2h-5.6c-1.3,0-2.3-1-2.3-2.3v-4.2c0-1.3,1-2.3,2.3-2.3h5.6c1.3,0,2.3,1,2.3,2.3v4.2
			C191.3,118.2,190.3,119.2,189.1,119.2z"/>
	</g>
	<g>
		<path class="st2" d="M189.1,119.2V119h-5.6c-0.6,0-1.1-0.2-1.5-0.6c-0.4-0.4-0.6-0.9-0.6-1.5v-4.2c0-0.6,0.2-1.1,0.6-1.5
			c0.4-0.4,0.9-0.6,1.5-0.6h5.6c0.6,0,1.1,0.2,1.5,0.6c0.4,0.4,0.6,0.9,0.6,1.5v4.2c0,0.6-0.2,1.1-0.6,1.5c-0.4,0.4-0.9,0.6-1.5,0.6
			V119.2v0.2c1.4,0,2.5-1.1,2.5-2.5v-4.2c0-1.4-1.1-2.5-2.5-2.5h-5.6c-1.4,0-2.5,1.1-2.5,2.5v4.2c0,1.4,1.1,2.5,2.5,2.5h5.6V119.2z"
			/>
	</g>
	<g>
		<path class="st1" d="M189.1,118.7h-5.6c-1.3,0-2.3-1-2.3-2.3v-4.2c0-1.3,1-2.3,2.3-2.3h5.6c1.3,0,2.3,1,2.3,2.3v4.2
			C191.3,117.7,190.3,118.7,189.1,118.7z"/>
	</g>
	<g>
		<path class="st2" d="M189.1,118.7v-0.2h-5.6c-0.6,0-1.1-0.2-1.5-0.6c-0.4-0.4-0.6-0.9-0.6-1.5v-4.2c0-0.6,0.2-1.1,0.6-1.5
			c0.4-0.4,0.9-0.6,1.5-0.6h5.6c0.6,0,1.1,0.2,1.5,0.6c0.4,0.4,0.6,0.9,0.6,1.5v4.2c0,0.6-0.2,1.1-0.6,1.5c-0.4,0.4-0.9,0.6-1.5,0.6
			V118.7v0.2c1.4,0,2.5-1.1,2.5-2.5v-4.2c0-1.4-1.1-2.5-2.5-2.5h-5.6c-1.4,0-2.5,1.1-2.5,2.5v4.2c0,1.4,1.1,2.5,2.5,2.5h5.6V118.7z"
			/>
	</g>
	<g>
		<path class="st1" d="M189.1,118.2h-5.6c-1.3,0-2.3-1-2.3-2.3v-4.2c0-1.3,1-2.3,2.3-2.3h5.6c1.3,0,2.3,1,2.3,2.3v4.2
			C191.3,117.1,190.3,118.2,189.1,118.2z"/>
	</g>
	<g>
		<path class="st2" d="M189.1,118.2V118h-5.6c-0.6,0-1.1-0.2-1.5-0.6c-0.4-0.4-0.6-0.9-0.6-1.5v-4.2c0-0.6,0.2-1.1,0.6-1.5
			c0.4-0.4,0.9-0.6,1.5-0.6h5.6c0.6,0,1.1,0.2,1.5,0.6c0.4,0.4,0.6,0.9,0.6,1.5v4.2c0,0.6-0.2,1.1-0.6,1.5c-0.4,0.4-0.9,0.6-1.5,0.6
			V118.2v0.2c1.4,0,2.5-1.1,2.5-2.5v-4.2c0-1.4-1.1-2.5-2.5-2.5h-5.6c-1.4,0-2.5,1.1-2.5,2.5v4.2c0,1.4,1.1,2.5,2.5,2.5h5.6V118.2z"
			/>
	</g>
	<g>
		<path class="st1" d="M189.1,117.6h-5.6c-1.3,0-2.3-1-2.3-2.3v-4.2c0-1.3,1-2.3,2.3-2.3h5.6c1.3,0,2.3,1,2.3,2.3v4.2
			C191.3,116.6,190.3,117.6,189.1,117.6z"/>
	</g>
	<g>
		<path class="st2" d="M189.1,117.6v-0.2h-5.6c-0.6,0-1.1-0.2-1.5-0.6c-0.4-0.4-0.6-0.9-0.6-1.5v-4.2c0-0.6,0.2-1.1,0.6-1.5
			c0.4-0.4,0.9-0.6,1.5-0.6h5.6c0.6,0,1.1,0.2,1.5,0.6c0.4,0.4,0.6,0.9,0.6,1.5v4.2c0,0.6-0.2,1.1-0.6,1.5c-0.4,0.4-0.9,0.6-1.5,0.6
			V117.6v0.2c1.4,0,2.5-1.1,2.5-2.5v-4.2c0-1.4-1.1-2.5-2.5-2.5h-5.6c-1.4,0-2.5,1.1-2.5,2.5v4.2c0,1.4,1.1,2.5,2.5,2.5h5.6V117.6z"
			/>
	</g>
	<g>
		<path class="st1" d="M265.7,97.7l0,12.3c0,1.3-1,2.3-2.3,2.3l-9.8,0c-1.3,0-2.3-1-2.3-2.3l0-12.3c0-1.3,1-2.3,2.3-2.3l9.8,0
			C264.7,95.4,265.7,96.5,265.7,97.7z"/>
	</g>
	<g>
		<path class="st2" d="M265.7,97.7l-0.2,0l0,12.3l0.1,0l-0.1,0v0h0.1l-0.1,0l0,0c0,0.6-0.2,1.1-0.6,1.5c-0.4,0.4-0.9,0.6-1.5,0.6
			l-9.8,0c-1.2,0-2.1-1-2.1-2.1l0-12.3l0,0l-0.1,0h0.1l0,0l-0.1,0h0.1c0-0.6,0.2-1.1,0.6-1.5c0.4-0.4,0.9-0.6,1.5-0.6l9.8,0
			c1.2,0,2.1,1,2.1,2.1L265.7,97.7l0.2,0c0-1.4-1.1-2.5-2.5-2.5l-9.8,0c-1.4,0-2.5,1.1-2.5,2.5l0,0l0.2,0l-0.2,0l0,12.3
			c0,1.4,1.1,2.5,2.5,2.5l9.8,0c1.4,0,2.5-1.1,2.5-2.5h-0.1l0.1,0v0h-0.1l0.1,0l0,0l0-12.3L265.7,97.7z"/>
	</g>
	<g>
		<path class="st1" d="M265.7,97l0,12.3c0,1.3-1,2.3-2.3,2.3l-9.8,0c-1.3,0-2.3-1-2.3-2.3l0-12.3c0-1.3,1-2.3,2.3-2.3l9.8,0
			C264.7,94.7,265.7,95.7,265.7,97z"/>
	</g>
	<g>
		<path class="st2" d="M265.7,97l-0.2,0l0,12.3l0.1,0l-0.1,0v0h0.1l-0.1,0l0,0c0,0.6-0.2,1.1-0.6,1.5c-0.4,0.4-0.9,0.6-1.5,0.6
			l-9.8,0c-1.2,0-2.1-1-2.1-2.1l0-12.3l0,0l-0.1,0h0.1l0,0l-0.1,0h0.1c0-0.6,0.2-1.1,0.6-1.5c0.4-0.4,0.9-0.6,1.5-0.6l9.8,0
			c1.2,0,2.1,1,2.1,2.1L265.7,97l0.2,0c0-1.4-1.1-2.5-2.5-2.5l-9.8,0c-1.4,0-2.5,1.1-2.5,2.5l0,0l0.2,0l-0.2,0l0,12.3
			c0,1.4,1.1,2.5,2.5,2.5l9.8,0c1.4,0,2.5-1.1,2.5-2.5h-0.1l0.1,0v0h-0.1l0.1,0l0,0l0-12.3L265.7,97z"/>
	</g>
	<g>
		<path class="st1" d="M265.7,96.2l0,12.3c0,1.3-1,2.3-2.3,2.3l-9.8,0c-1.3,0-2.3-1-2.3-2.3l0-12.3c0-1.3,1-2.3,2.3-2.3l9.8,0
			C264.7,93.9,265.7,94.9,265.7,96.2z"/>
	</g>
	<g>
		<path class="st2" d="M265.7,96.2l-0.2,0l0,12.3l0.1,0l-0.1,0v0h0.1l-0.1,0l0,0c0,0.6-0.2,1.1-0.6,1.5c-0.4,0.4-0.9,0.6-1.5,0.6
			l-9.8,0c-1.2,0-2.1-1-2.1-2.1l0-12.3l0,0l-0.1,0h0.1l0,0l-0.1,0h0.1c0-0.6,0.2-1.1,0.6-1.5c0.4-0.4,0.9-0.6,1.5-0.6l9.8,0
			c1.2,0,2.1,1,2.1,2.1L265.7,96.2l0.2,0c0-1.4-1.1-2.5-2.5-2.5l-9.8,0c-1.4,0-2.5,1.1-2.5,2.5l0,0l0.2,0l-0.2,0l0,12.3
			c0,1.4,1.1,2.5,2.5,2.5l9.8,0c1.4,0,2.5-1.1,2.5-2.5h-0.1l0.1,0v0h-0.1l0.1,0l0,0l0-12.3L265.7,96.2z"/>
	</g>
	<g>
		<path class="st3" d="M265.7,95.4l0,12.3c0,1.3-1,2.3-2.3,2.3l-9.8,0c-1.3,0-2.3-1-2.3-2.3l0-12.3c0-1.3,1-2.3,2.3-2.3l9.8,0
			C264.7,93.1,265.7,94.2,265.7,95.4z"/>
	</g>
	<g>
		<path class="st2" d="M265.7,95.4l-0.2,0l0,12.3l0.1,0l-0.1,0v0h0.1l-0.1,0l0,0c0,0.6-0.2,1.1-0.6,1.5c-0.4,0.4-0.9,0.6-1.5,0.6
			l-9.8,0c-1.2,0-2.1-1-2.1-2.1l0-12.3l0,0l-0.1,0l0.1,0l0,0l-0.1,0l0.1,0c0-0.6,0.2-1.1,0.6-1.5c0.4-0.4,0.9-0.6,1.5-0.6l9.8,0
			c1.2,0,2.1,1,2.1,2.1L265.7,95.4l0.2,0c0-1.4-1.1-2.5-2.5-2.5l-9.8,0c-1.4,0-2.5,1.1-2.5,2.5l0,0l0.2,0l-0.2,0l0,12.3
			c0,1.4,1.1,2.5,2.5,2.5l9.8,0c1.4,0,2.5-1.1,2.5-2.5h-0.1l0.1,0v0h-0.1l0.1,0l0,0l0-12.3L265.7,95.4z"/>
	</g>
	<g>
		<path class="st2" d="M264.5,99.3l0,7.4l0,0c0,0.6-0.2,1.1-0.6,1.5c-0.4,0.4-0.9,0.6-1.5,0.6l-1.7,0l0,0.4l1.7,0
			c1.4,0,2.5-1.1,2.5-2.5l0,0l0-7.4L264.5,99.3L264.5,99.3z"/>
	</g>
	<g>
		<polyline class="st2" points="252.4,104.2 250,104.2 250,104.6 252.4,104.6 		"/>
	</g>
	<g>
		<polyline class="st2" points="252.4,103.3 250,103.3 250,103.7 252.4,103.7 		"/>
	</g>
	<g>
		<polyline class="st2" points="252.4,102.4 250,102.4 250,102.8 252.4,102.8 		"/>
	</g>
	<g>
		<polyline class="st2" points="252.4,101.5 250,101.5 250,101.9 252.4,101.9 		"/>
	</g>
	<g>
		<polyline class="st2" points="252.4,100.6 250,100.6 250,101 252.4,101 		"/>
	</g>
	<g>
		<polyline class="st2" points="252.4,99.7 250,99.7 250,100.1 252.4,100.1 		"/>
	</g>
	<g>
		<polyline class="st2" points="252.4,98.8 250,98.8 250,99.2 252.4,99.2 		"/>
	</g>
	<g>
		<polyline class="st2" points="252.4,97.9 250,97.9 250,98.3 252.4,98.3 		"/>
	</g>
	<g>
		<polyline class="st2" points="252.4,97 250,97 250,97.4 252.4,97.4 		"/>
	</g>
	<g>
		<polyline class="st2" points="252.4,96.1 250,96.1 250,96.5 252.4,96.5 		"/>
	</g>
	<g>
		<polyline class="st2" points="252.4,95.2 250,95.2 250,95.6 252.4,95.6 		"/>
	</g>
	<g>
		<polyline class="st2" points="252.4,107.8 250,107.8 250,108.2 252.4,108.2 		"/>
	</g>
	<g>
		<polyline class="st2" points="252.4,106.9 250,106.9 250,107.3 252.4,107.3 		"/>
	</g>
	<g>
		<polyline class="st2" points="252.4,106 250,106 250,106.4 252.4,106.4 		"/>
	</g>
	<g>
		<polyline class="st2" points="252.4,105.1 250,105.1 250,105.5 252.4,105.5 		"/>
	</g>
	<g>
		<path class="st2" d="M253.8,98.6l0-2h0.4l0.9,1c0.2,0.2,0.4,0.4,0.5,0.7l0,0c0-0.3,0-0.5,0-0.8v-0.8h0.4l0,2h-0.4l-0.9-1
			c-0.2-0.2-0.4-0.5-0.5-0.7l0,0c0,0.3,0,0.5,0,0.8v0.9L253.8,98.6z"/>
		<path class="st2" d="M259.1,97.5c0,0.7-0.6,1.1-1.3,1.1c-0.8,0-1.3-0.4-1.3-1c0-0.6,0.6-1.1,1.3-1.1
			C258.6,96.5,259.1,96.9,259.1,97.5z M256.8,97.6c0,0.4,0.3,0.8,0.9,0.8c0.6,0,0.9-0.4,0.9-0.8c0-0.4-0.3-0.8-0.9-0.8
			C257.1,96.7,256.8,97.1,256.8,97.6z"/>
		<path class="st2" d="M260,96.8l-0.9,0v-0.2l2.1,0v0.2l-0.9,0l0,1.8l-0.4,0L260,96.8z"/>
		<path class="st2" d="M263.1,97.6l-1.1,0v0.7l1.3,0v0.2l-1.6,0l0-2l1.6,0v0.2l-1.2,0v0.6l1.1,0L263.1,97.6z"/>
	</g>
	<g>
		<path class="st1" d="M151,106.2h-2.8c-2,0-3.6,1.6-3.6,3.6v1.8c-0.4-0.5-0.9-0.8-1.6-0.8c-1.1,0-2,1-2,2.1v1.6
			c0,1.1,0.9,2.1,2,2.1c0.7,0,1.2-0.3,1.6-0.8v0.6c0,2.1,1.8,3.9,3.9,3.9h2.2c2.1,0,3.9-1.8,3.9-3.9v-6.5
			C154.5,107.9,152.9,106.2,151,106.2z M144,114.4c0,0.6-0.6,1.1-1.2,1c-0.5-0.1-0.8-0.5-0.8-1v-1.3c0-0.5,0.3-0.9,0.8-1
			c0.7-0.1,1.2,0.4,1.2,1V114.4z"/>
	</g>
	<g>
		<path class="st2" d="M151,106.2v-0.2h-2.8c-2.1,0-3.8,1.7-3.8,3.8v1.8h0.2l0.1-0.1c-0.4-0.5-1-0.9-1.7-0.9l0,0
			c-1.2,0-2.2,1.1-2.2,2.3v1.6c0,1.2,1,2.3,2.2,2.3l0,0c0.7,0,1.3-0.4,1.7-0.9l-0.1-0.1h-0.2v0.6c0,2.2,1.8,4.1,4.1,4.1h2.2
			c2.2,0,4.1-1.8,4.1-4.1v-6.5c0-2.1-1.7-3.8-3.8-3.8V106.2v0.2c0.9,0,1.8,0.4,2.4,1c0.6,0.6,1,1.5,1,2.4v6.5c0,1-0.4,2-1.1,2.6
			c-0.7,0.7-1.6,1.1-2.6,1.1h-2.2c-1,0-2-0.4-2.6-1.1c-0.7-0.7-1.1-1.6-1.1-2.6v-1.1l-0.3,0.4c-0.3,0.5-0.9,0.7-1.4,0.8l0,0
			c-0.5,0-1-0.2-1.3-0.6c-0.3-0.4-0.5-0.8-0.5-1.3v-1.6c0-0.5,0.2-1,0.5-1.3c0.3-0.4,0.8-0.6,1.3-0.6l0,0c0.6,0,1.1,0.3,1.4,0.8
			l0.3,0.4v-2.3c0-0.9,0.4-1.8,1-2.4c0.6-0.6,1.5-1,2.4-1h2.8V106.2z M144,114.4h-0.2c0,0.2-0.1,0.4-0.2,0.6
			c-0.2,0.2-0.4,0.2-0.6,0.2c-0.1,0-0.1,0-0.2,0c-0.4-0.1-0.7-0.5-0.7-0.9v-1.3c0-0.4,0.3-0.8,0.7-0.9c0.1,0,0.1,0,0.2,0
			c0.2,0,0.4,0.1,0.6,0.2c0.2,0.2,0.2,0.4,0.2,0.6v1.4H144h0.2v-1.4c0-0.7-0.5-1.2-1.2-1.2c-0.1,0-0.2,0-0.3,0
			c-0.6,0.1-0.9,0.6-0.9,1.2v1.3c0,0.6,0.4,1.1,0.9,1.2c0.1,0,0.2,0,0.3,0c0.7,0,1.2-0.5,1.2-1.2H144z"/>
	</g>
	<g>
		<path class="st1" d="M153.1,108.4c0,1.2-1.6,1.4-3.6,1.4s-3.7-0.1-3.6-1.4c0.1-1.2,1.6-1.4,3.6-1.4S153.1,107.3,153.1,108.4z"/>
	</g>
	<g>
		<path class="st2" d="M153.1,108.4H153c0,0.3-0.1,0.4-0.2,0.6c-0.2,0.2-0.6,0.4-1.2,0.5c-0.6,0.1-1.2,0.1-2,0.1
			c-0.9,0-1.8,0-2.5-0.2c-0.3-0.1-0.6-0.2-0.7-0.3c-0.2-0.1-0.2-0.3-0.2-0.5c0,0,0-0.1,0-0.1c0-0.3,0.1-0.4,0.3-0.6
			c0.2-0.2,0.6-0.4,1.2-0.5c0.5-0.1,1.2-0.1,1.9-0.1c1,0,1.9,0,2.5,0.2c0.3,0.1,0.5,0.2,0.7,0.4c0.1,0.2,0.2,0.3,0.2,0.6H153.1h0.2
			c0-0.3-0.1-0.6-0.3-0.8c-0.3-0.3-0.8-0.5-1.4-0.6c-0.6-0.1-1.3-0.1-2-0.1c-1,0-1.9,0.1-2.5,0.3c-0.3,0.1-0.6,0.3-0.8,0.5
			c-0.2,0.2-0.3,0.5-0.4,0.8c0,0,0,0.1,0,0.1c0,0.3,0.1,0.6,0.3,0.8c0.3,0.3,0.8,0.4,1.4,0.5c0.6,0.1,1.3,0.1,2,0.1
			c1,0,1.9,0,2.6-0.3c0.3-0.1,0.6-0.2,0.8-0.5c0.2-0.2,0.3-0.5,0.3-0.8H153.1z"/>
	</g>
	<g>
		<path class="st2" d="M153.7,111.8c0-0.5,0-1,0-1.5h-0.4c0,0.5,0,1,0,1.5H153.7L153.7,111.8z"/>
	</g>
	<g>
		<path class="st2" d="M151.3,119.3c0.5-0.1,1-0.4,1.3-0.7c0.5-0.5,0.8-1.1,0.9-1.8c0.1-0.7,0.2-1.6,0.2-2.6c0-0.4,0-0.9,0-1.3
			c0-0.2,0-0.3,0-0.5l-0.4,0c0,0.2,0,0.3,0,0.5c0,0.5,0,0.9,0,1.3c0,1.3,0,2.4-0.3,3.2c-0.1,0.4-0.3,0.7-0.6,1
			c-0.3,0.3-0.7,0.5-1.2,0.6L151.3,119.3L151.3,119.3z"/>
	</g>
	<g>
		<polyline class="st2" points="148.6,119.5 150.7,119.4 150.7,119.1 148.5,119.1 		"/>
	</g>
	<g>
		<path class="st2" d="M148.2,100.4c0.1,0.3,0.2,0.6,0.2,0.9c0,0.8-0.4,1.8-0.8,2.7c-0.4,1-0.9,1.9-0.9,2.8c0,0.6,0.2,1.1,0.8,1.5
			l0.2-0.3c-0.5-0.4-0.6-0.8-0.6-1.2c0-0.7,0.4-1.7,0.8-2.6c0.4-1,0.9-1.9,0.9-2.9c0-0.3-0.1-0.7-0.2-1L148.2,100.4L148.2,100.4z"/>
	</g>
	<g>
		<path class="st2" d="M150.4,100.4c0.1,0.3,0.2,0.6,0.2,0.9c0,0.8-0.4,1.8-0.8,2.7c-0.4,1-0.9,1.9-0.9,2.8c0,0.6,0.2,1.1,0.8,1.5
			l0.2-0.3c-0.5-0.4-0.6-0.8-0.6-1.2c0-0.7,0.4-1.7,0.8-2.6c0.4-1,0.9-1.9,0.9-2.9c0-0.3-0.1-0.7-0.2-1L150.4,100.4L150.4,100.4z"/>
	</g>
	<g>
		<path class="st2" d="M152.7,100.4c0.1,0.3,0.2,0.6,0.2,0.9c0,0.8-0.4,1.8-0.8,2.7c-0.4,1-0.9,1.9-0.9,2.8c0,0.6,0.2,1.1,0.8,1.5
			l0.2-0.3c-0.5-0.4-0.6-0.8-0.6-1.2c0-0.7,0.4-1.7,0.8-2.6c0.4-1,0.9-1.9,0.9-2.9c0-0.3-0.1-0.7-0.2-1L152.7,100.4L152.7,100.4z"/>
	</g>
	<g>
		<path class="st0" d="M200.7,71.5h-2.8c-2,0-3.6,1.6-3.6,3.6v1.8c-0.4-0.5-0.9-0.8-1.6-0.8c-1.1,0-2,1-2,2.1v1.6
			c0,1.1,0.9,2.1,2,2.1c0.7,0,1.2-0.3,1.6-0.8v0.6c0,2.1,1.8,3.9,3.9,3.9h2.2c2.1,0,3.9-1.8,3.9-3.9v-6.5
			C204.3,73.1,202.7,71.5,200.7,71.5z M193.7,79.7c0,0.6-0.6,1.1-1.2,1c-0.5-0.1-0.8-0.5-0.8-1v-1.3c0-0.5,0.3-0.9,0.8-1
			c0.7-0.1,1.2,0.4,1.2,1V79.7z"/>
	</g>
	<g>
		<path class="st2" d="M200.7,71.5v-0.2h-2.8c-2.1,0-3.8,1.7-3.8,3.8v1.8h0.2l0.1-0.1c-0.4-0.5-1-0.9-1.7-0.9l0,0
			c-1.2,0-2.2,1.1-2.2,2.3v1.6c0,1.2,1,2.3,2.2,2.3l0,0c0.7,0,1.3-0.4,1.7-0.9l-0.1-0.1h-0.2v0.6c0,2.2,1.8,4.1,4.1,4.1h2.2
			c2.2,0,4.1-1.8,4.1-4.1v-6.5c0-2.1-1.7-3.8-3.8-3.8V71.5v0.2c0.9,0,1.8,0.4,2.4,1c0.6,0.6,1,1.5,1,2.4v6.5c0,1-0.4,2-1.1,2.6
			c-0.7,0.7-1.6,1.1-2.6,1.1h-2.2c-1,0-2-0.4-2.6-1.1c-0.7-0.7-1.1-1.6-1.1-2.6v-1.1l-0.3,0.4c-0.3,0.5-0.9,0.7-1.4,0.8l0,0
			c-0.5,0-1-0.2-1.3-0.6c-0.3-0.4-0.5-0.8-0.5-1.3v-1.6c0-0.5,0.2-1,0.5-1.3c0.3-0.4,0.8-0.6,1.3-0.6l0,0c0.6,0,1.1,0.3,1.4,0.8
			l0.3,0.4v-2.3c0-0.9,0.4-1.8,1-2.4c0.6-0.6,1.5-1,2.4-1h2.8V71.5z M193.7,79.7h-0.2c0,0.2-0.1,0.4-0.2,0.6
			c-0.2,0.2-0.4,0.2-0.6,0.2c-0.1,0-0.1,0-0.2,0c-0.4-0.1-0.7-0.5-0.7-0.9v-1.3c0-0.4,0.3-0.8,0.7-0.9c0.1,0,0.1,0,0.2,0
			c0.2,0,0.4,0.1,0.6,0.2c0.2,0.2,0.2,0.4,0.2,0.6v1.4H193.7h0.2v-1.4c0-0.7-0.5-1.2-1.2-1.2c-0.1,0-0.2,0-0.3,0
			c-0.6,0.1-0.9,0.6-0.9,1.2v1.3c0,0.6,0.4,1.1,0.9,1.2c0.1,0,0.2,0,0.3,0c0.7,0,1.2-0.5,1.2-1.2H193.7z"/>
	</g>
	<g>
		<path class="st1" d="M202.9,73.7c0,1.2-1.6,1.4-3.6,1.4c-2,0-3.7-0.1-3.6-1.4c0.1-1.2,1.6-1.4,3.6-1.4
			C201.3,72.3,202.9,72.5,202.9,73.7z"/>
	</g>
	<g>
		<path class="st2" d="M202.9,73.7h-0.2c0,0.3-0.1,0.4-0.2,0.6c-0.2,0.2-0.6,0.4-1.2,0.5c-0.6,0.1-1.2,0.1-2,0.1
			c-0.9,0-1.8,0-2.5-0.2c-0.3-0.1-0.6-0.2-0.7-0.3c-0.2-0.1-0.2-0.3-0.2-0.5c0,0,0-0.1,0-0.1l0,0c0-0.3,0.1-0.4,0.3-0.6
			c0.2-0.2,0.6-0.4,1.2-0.5c0.5-0.1,1.2-0.1,1.9-0.1c1,0,1.9,0,2.5,0.2c0.3,0.1,0.5,0.2,0.7,0.4c0.1,0.2,0.2,0.3,0.2,0.6H202.9h0.2
			c0-0.3-0.1-0.6-0.3-0.8c-0.3-0.3-0.8-0.5-1.4-0.6c-0.6-0.1-1.3-0.1-2-0.1c-1,0-1.9,0.1-2.5,0.3c-0.3,0.1-0.6,0.3-0.8,0.5
			c-0.2,0.2-0.3,0.5-0.4,0.8l0,0c0,0,0,0.1,0,0.1c0,0.3,0.1,0.6,0.3,0.8c0.3,0.3,0.8,0.4,1.4,0.5c0.6,0.1,1.3,0.1,2,0.1
			c1,0,1.9,0,2.6-0.3c0.3-0.1,0.6-0.2,0.8-0.5c0.2-0.2,0.3-0.5,0.3-0.8H202.9z"/>
	</g>
	<g>
		<path class="st1" d="M266.9,117.2l-14.2,0c-0.4,0-0.6-0.3-0.6-0.6c0-0.4,0.3-0.6,0.6-0.6l14.2,0c0.4,0,0.6,0.3,0.6,0.6
			C267.5,116.9,267.3,117.2,266.9,117.2z"/>
	</g>
	<g>
		<path class="st2" d="M266.9,117.2l0-0.2l-14.2,0c-0.3,0-0.5-0.2-0.5-0.5c0-0.3,0.2-0.5,0.5-0.5l14.2,0c0.3,0,0.5,0.2,0.5,0.5
			c0,0.3-0.2,0.5-0.5,0.5V117.2v0.2c0.4,0,0.8-0.4,0.8-0.8c0-0.4-0.4-0.8-0.8-0.8l-14.2,0c-0.4,0-0.8,0.4-0.8,0.8
			c0,0.4,0.4,0.8,0.8,0.8l14.2,0V117.2z"/>
	</g>
	<g>
		<path class="st2" d="M197.8,65.5c0.1,0.3,0.2,0.6,0.2,0.9c0,0.8-0.4,1.8-0.8,2.7c-0.4,1-0.9,1.9-0.9,2.8c0,0.6,0.2,1.1,0.8,1.5
			l0.2-0.3c-0.5-0.4-0.6-0.8-0.6-1.2c0-0.7,0.4-1.7,0.8-2.6c0.4-1,0.9-1.9,0.9-2.9c0-0.3-0.1-0.7-0.2-1L197.8,65.5L197.8,65.5z"/>
	</g>
	<g>
		<path class="st2" d="M200.1,65.5c0.1,0.3,0.2,0.6,0.2,0.9c0,0.8-0.4,1.8-0.8,2.7c-0.4,1-0.9,1.9-0.9,2.8c0,0.6,0.2,1.1,0.8,1.5
			l0.2-0.3c-0.5-0.4-0.6-0.8-0.6-1.2c0-0.7,0.4-1.7,0.8-2.6c0.4-1,0.9-1.9,0.9-2.9c0-0.3-0.1-0.7-0.2-1L200.1,65.5L200.1,65.5z"/>
	</g>
	<g>
		<path class="st2" d="M202.3,65.5c0.1,0.3,0.2,0.6,0.2,0.9c0,0.8-0.4,1.8-0.8,2.7c-0.4,1-0.9,1.9-0.9,2.8c0,0.6,0.2,1.1,0.8,1.5
			l0.2-0.3c-0.5-0.4-0.6-0.8-0.6-1.2c0-0.7,0.4-1.7,0.8-2.6c0.4-1,0.9-1.9,0.9-2.9c0-0.3-0.1-0.7-0.2-1L202.3,65.5L202.3,65.5z"/>
	</g>
	<g>
		<path class="st1" d="M255.9,117.3l-5.8,0c-0.7,0-1.2-0.4-1.2-0.8v0c0-0.5,0.5-0.8,1.2-0.8l5.8,0c0.7,0,0.9,0.4,0.9,0.8
			C256.7,117,256.5,117.3,255.9,117.3z"/>
	</g>
	<g>
		<path class="st2" d="M255.9,117.3l0-0.2l-5.8,0c-0.3,0-0.6-0.1-0.7-0.2c-0.2-0.1-0.3-0.3-0.3-0.4v0c0-0.2,0.1-0.3,0.3-0.4
			c0.2-0.1,0.4-0.2,0.7-0.2h5.8c0.3,0,0.5,0.1,0.5,0.2c0.1,0.1,0.1,0.3,0.1,0.5c0,0.2,0,0.4-0.1,0.5c-0.1,0.1-0.3,0.2-0.5,0.2V117.3
			v0.2c0.4,0,0.6-0.1,0.8-0.3c0.2-0.2,0.2-0.4,0.2-0.7c0-0.3-0.1-0.5-0.2-0.7c-0.2-0.2-0.5-0.3-0.8-0.3H250c-0.4,0-0.7,0.1-0.9,0.3
			c-0.2,0.2-0.4,0.4-0.4,0.7v0c0,0.3,0.2,0.6,0.4,0.7c0.2,0.2,0.6,0.3,0.9,0.3h5.8V117.3z"/>
	</g>
	<g>
		<path class="st2" d="M203.3,77c0-0.5,0-1,0-1.5h-0.4c0,0.5,0,1,0,1.5H203.3L203.3,77z"/>
	</g>
	<g>
		<path class="st2" d="M200.9,84.5c0.5-0.1,1-0.4,1.3-0.7c0.5-0.5,0.8-1.1,0.9-1.8c0.1-0.7,0.2-1.6,0.2-2.6c0-0.4,0-0.9,0-1.3
			c0-0.2,0-0.3,0-0.5l-0.4,0c0,0.2,0,0.3,0,0.5c0,0.5,0,0.9,0,1.3c0,1.3,0,2.4-0.3,3.2c-0.1,0.4-0.3,0.7-0.6,1
			c-0.3,0.3-0.7,0.5-1.2,0.6L200.9,84.5L200.9,84.5z"/>
	</g>
	<g>
		<polyline class="st2" points="198.2,84.7 200.3,84.6 200.3,84.3 198.2,84.3 		"/>
	</g>
	<g>
		<path class="st2" d="M250.4,115.7l0.2-0.3h5.1c0.2,0,0.4-0.2,0.4-0.4c0-0.2-0.2-0.4-0.4-0.4l-5.4,0l-0.4,0.5
			c-0.1,0.2-0.1,0.4,0.1,0.5C250.1,115.9,250.3,115.9,250.4,115.7L250.4,115.7z"/>
	</g>
	<g>
		<polyline class="st2" points="217.7,103.5 219.6,103.5 219.6,103.2 217.7,103.2 		"/>
	</g>
	<g>
		<polyline class="st2" points="201.7,103.5 217.3,103.5 217.3,103.2 201.7,103.2 		"/>
	</g>
	<g>
		<polyline class="st2" points="224.7,107.6 226.6,107.6 226.6,107.2 224.7,107.2 		"/>
	</g>
	<g>
		<polyline class="st2" points="208.7,107.6 224.2,107.6 224.2,107.2 208.7,107.2 		"/>
	</g>
	<g>
		<polyline class="st2" points="217.6,111.5 219.4,111.5 219.4,111.1 217.6,111.1 		"/>
	</g>
	<g>
		<polyline class="st2" points="201.6,111.5 217.1,111.5 217.1,111.1 201.6,111.1 		"/>
	</g>
	<g>
		<polyline class="st2" points="257.2,116.8 266.7,116.8 266.7,116.5 257.2,116.5 		"/>
	</g>
	<g>
		<path class="st2" d="M249.3,116.7c0.2,0.2,0.4,0.3,0.7,0.3c0.2,0,0.5,0,0.7,0c0.3,0,1.5,0,2.6,0c1.4,0,2.8,0,2.8,0l0-0.4
			c0,0-0.4,0-0.9,0c-0.5,0-1.2,0-1.9,0c-1.1,0-2.3,0-2.6,0c-0.3,0-0.5,0-0.7,0c-0.2,0-0.3-0.1-0.5-0.2L249.3,116.7L249.3,116.7z"/>
	</g>
	<g>
		<path class="st0" d="M287,111.5c0,0,0-0.1,0-0.1v-9.4c0-1.9,1.8-3.5,3.9-3.5h7.1c2.2,0,3.9,1.6,3.9,3.5v9.4"/>
	</g>
	<g>
		<path class="st2" d="M287.1,111.4c0,0,0-0.1,0-0.1v-9.4c0-0.9,0.4-1.7,1.1-2.3c0.7-0.6,1.6-1,2.7-1h7.1c1,0,2,0.4,2.7,1
			c0.7,0.6,1.1,1.4,1.1,2.3v9.4h0.4l0-9.4c0-1-0.5-1.9-1.2-2.6c-0.7-0.7-1.8-1.1-2.9-1.1h-7.1c-1.1,0-2.2,0.4-2.9,1.1
			c-0.7,0.7-1.2,1.6-1.2,2.6v9.4c0,0.1,0,0.1,0,0.2L287.1,111.4L287.1,111.4z"/>
	</g>
	<g>
		<path class="st1" d="M287.9,111.5c0,0,0-0.1,0-0.1v-8.1c0-1.6,1.6-3,3.5-3h6.2c1.9,0,3.5,1.3,3.5,3v8.1"/>
	</g>
	<g>
		<path class="st2" d="M288,111.4L288,111.4l0-8.2c0-0.8,0.4-1.5,1-2c0.6-0.5,1.4-0.8,2.3-0.8h6.2c0.9,0,1.7,0.3,2.3,0.8
			c0.6,0.5,1,1.2,1,2v8.1h0.4l0-8.1c0-0.9-0.4-1.7-1.1-2.2c-0.7-0.6-1.6-0.9-2.6-0.9h-6.2c-1,0-1.9,0.4-2.6,0.9
			c-0.7,0.6-1.1,1.4-1.1,2.2v8.1c0,0,0,0.1,0,0.1L288,111.4L288,111.4z"/>
	</g>
	<g>
		<path class="st0" d="M287.9,115.4L287.9,115.4c-0.5,0-0.9-0.4-0.9-0.9v-6.2c0-0.5,0.4-0.9,0.9-0.9h0c0.5,0,0.9,0.4,0.9,0.9v6.2
			C288.8,115,288.4,115.4,287.9,115.4z"/>
	</g>
	<g>
		<path class="st2" d="M287.9,115.4v-0.2h0c-0.2,0-0.4-0.1-0.5-0.2c-0.1-0.1-0.2-0.3-0.2-0.5v-6.2c0-0.2,0.1-0.4,0.2-0.5
			c0.1-0.1,0.3-0.2,0.5-0.2l0,0c0.2,0,0.4,0.1,0.5,0.2c0.1,0.1,0.2,0.3,0.2,0.5v6.2c0,0.2-0.1,0.4-0.2,0.5c-0.1,0.1-0.3,0.2-0.5,0.2
			V115.4v0.2c0.6,0,1.1-0.5,1.1-1.1v-6.2c0-0.6-0.5-1.1-1.1-1.1h0c-0.6,0-1.1,0.5-1.1,1.1v6.2c0,0.6,0.5,1.1,1.1,1.1l0,0V115.4z"/>
	</g>
	<g>
		<path class="st1" d="M287,114.3h-0.4c-0.4,0-0.6-0.3-0.6-0.6v-4.4c0-0.4,0.3-0.6,0.6-0.6h0.4V114.3z"/>
	</g>
	<g>
		<path class="st2" d="M287,114.3v-0.2h-0.4c-0.3,0-0.5-0.2-0.5-0.5v-4.4c0-0.3,0.2-0.5,0.5-0.5h0.2v5.6H287v-0.2V114.3h0.2v-5.9
			h-0.6c-0.5,0-0.8,0.4-0.8,0.8v4.4c0,0.5,0.4,0.8,0.8,0.8h0.4h0.2v-0.2H287z"/>
	</g>
	<g>
		<path class="st1" d="M285.7,113.4h-0.4c-0.3,0-0.6-0.3-0.6-0.6v-2.7c0-0.3,0.3-0.6,0.6-0.6h0.4V113.4z"/>
	</g>
	<g>
		<path class="st2" d="M285.7,113.4v-0.2h-0.4c-0.2,0-0.4-0.2-0.4-0.4v-2.7c0-0.2,0.2-0.4,0.4-0.4h0.2v3.7H285.7v-0.2V113.4h0.2
			v-4.1h-0.6c-0.4,0-0.8,0.3-0.8,0.8v2.7c0,0.4,0.3,0.8,0.8,0.8h0.4h0.2v-0.2H285.7z"/>
	</g>
	<g>
		<path class="st0" d="M300.1,115.4L300.1,115.4c0.5,0,0.9-0.4,0.9-0.9v-6.2c0-0.5-0.4-0.9-0.9-0.9c-0.5,0-0.9,0.4-0.9,0.9v6.2
			C299.2,115,299.6,115.4,300.1,115.4z"/>
	</g>
	<g>
		<path class="st2" d="M300.1,115.4v0.2c0.6,0,1.1-0.5,1.1-1.1v-6.2c0-0.6-0.5-1.1-1.1-1.1c-0.6,0-1.1,0.5-1.1,1.1v6.2
			c0,0.6,0.5,1.1,1.1,1.1V115.4v-0.2c-0.2,0-0.4-0.1-0.5-0.2c-0.1-0.1-0.2-0.3-0.2-0.5v-6.2c0-0.2,0.1-0.4,0.2-0.5
			c0.1-0.1,0.3-0.2,0.5-0.2c0.2,0,0.4,0.1,0.5,0.2c0.1,0.1,0.2,0.3,0.2,0.5v6.2c0,0.2-0.1,0.4-0.2,0.5c-0.1,0.1-0.3,0.2-0.5,0.2
			V115.4z"/>
	</g>
	<g>
		<path class="st1" d="M301.1,114.3h0.4c0.4,0,0.6-0.3,0.6-0.6v-4.4c0-0.4-0.3-0.6-0.6-0.6h-0.4V114.3z"/>
	</g>
	<g>
		<path class="st2" d="M301.1,114.3v0.2h0.4c0.5,0,0.8-0.4,0.8-0.8v-4.4c0-0.5-0.4-0.8-0.8-0.8h-0.4h-0.2v6.1h0.2V114.3h0.2v-5.6
			h0.2c0.3,0,0.5,0.2,0.5,0.5v4.4c0,0.3-0.2,0.5-0.5,0.5h-0.4V114.3h0.2H301.1z"/>
	</g>
	<g>
		<path class="st1" d="M302.3,113.4h0.4c0.3,0,0.6-0.3,0.6-0.6v-2.7c0-0.3-0.3-0.6-0.6-0.6h-0.4V113.4z"/>
	</g>
	<g>
		<path class="st2" d="M302.3,113.4v0.2h0.4c0.4,0,0.8-0.3,0.8-0.8v-2.7c0-0.4-0.3-0.8-0.8-0.8h-0.4h-0.2v4.2h0.2V113.4h0.2v-3.7
			h0.2c0.2,0,0.4,0.2,0.4,0.4v2.7c0,0.2-0.2,0.4-0.4,0.4h-0.4V113.4h0.2H302.3z"/>
	</g>
	<g>
		<path class="st2" d="M348.9,77.6c0,0,0-1.6,0-3.2c0-1.6,0-3.2,0-3.3c0-0.4,0-0.7-0.1-0.9c-0.1-0.4-0.3-0.7-0.6-0.9
			c-0.3-0.2-0.8-0.2-1.4-0.2c-0.1,0-1.3,0-1.3,0l0,0.4c0,0,1.2,0,1.3,0c0.4,0,0.7,0,0.9,0.1c0.4,0.1,0.5,0.2,0.7,0.5
			c0.1,0.2,0.2,0.6,0.2,1.1c0,0.1,0,6.5,0,6.5H348.9L348.9,77.6z"/>
	</g>
	<g>
		<path class="st1" d="M183.6,97.5h-14.2c-0.8,0-1.4-0.6-1.4-1.4v-5c0-0.8,0.6-1.4,1.4-1.4h14.2c0.8,0,1.4,0.6,1.4,1.4v5
			C185,96.9,184.4,97.5,183.6,97.5z"/>
	</g>
	<g>
		<path class="st2" d="M183.6,97.5v-0.2h-14.2c-0.3,0-0.6-0.1-0.8-0.3c-0.2-0.2-0.3-0.5-0.3-0.8v-5c0-0.3,0.1-0.6,0.3-0.8
			c0.2-0.2,0.5-0.3,0.8-0.3h14.2c0.3,0,0.6,0.1,0.8,0.3c0.2,0.2,0.3,0.5,0.3,0.8v5c0,0.3-0.1,0.6-0.3,0.8c-0.2,0.2-0.5,0.3-0.8,0.3
			V97.5v0.2c0.8,0,1.5-0.7,1.5-1.5v-5c0-0.8-0.7-1.5-1.5-1.5h-14.2c-0.9,0-1.5,0.7-1.5,1.5v5c0,0.8,0.7,1.5,1.5,1.5h14.2V97.5z"/>
	</g>
	<g>
		<path class="st1" d="M183.6,96.8h-14.2c-0.8,0-1.4-0.6-1.4-1.4v-5c0-0.8,0.6-1.4,1.4-1.4h14.2c0.8,0,1.4,0.6,1.4,1.4v5
			C185,96.2,184.4,96.8,183.6,96.8z"/>
	</g>
	<g>
		<path class="st2" d="M183.6,96.8v-0.2h-14.2c-0.3,0-0.6-0.1-0.8-0.3c-0.2-0.2-0.3-0.5-0.3-0.8v-5c0-0.3,0.1-0.6,0.3-0.8
			c0.2-0.2,0.5-0.3,0.8-0.3h14.2c0.3,0,0.6,0.1,0.8,0.3c0.2,0.2,0.3,0.5,0.3,0.8v5c0,0.3-0.1,0.6-0.3,0.8c-0.2,0.2-0.5,0.3-0.8,0.3
			V96.8V97c0.8,0,1.5-0.7,1.5-1.5v-5c0-0.8-0.7-1.5-1.5-1.5h-14.2c-0.9,0-1.5,0.7-1.5,1.5v5c0,0.8,0.7,1.5,1.5,1.5h14.2V96.8z"/>
	</g>
	<g>
		<path class="st0" d="M183.3,96.2h-12.3c-0.4,0-0.8-0.4-0.8-0.8v-4.9c0-0.4,0.4-0.8,0.8-0.8h12.3c0.4,0,0.8,0.4,0.8,0.8v4.9
			C184.1,95.8,183.7,96.2,183.3,96.2z"/>
	</g>
	<g>
		<path class="st2" d="M183.3,96.2V96h-12.3c-0.2,0-0.3-0.1-0.4-0.2c-0.1-0.1-0.2-0.3-0.2-0.4v-4.9c0-0.2,0.1-0.3,0.2-0.4
			c0.1-0.1,0.3-0.2,0.4-0.2h12.3c0.2,0,0.3,0.1,0.4,0.2c0.1,0.1,0.2,0.3,0.2,0.4v4.9c0,0.2-0.1,0.3-0.2,0.4
			c-0.1,0.1-0.3,0.2-0.4,0.2V96.2v0.2c0.5,0,1-0.4,1-1v-4.9c0-0.5-0.4-1-1-1h-12.3c-0.5,0-1,0.4-1,1v4.9c0,0.5,0.4,1,1,1h12.3V96.2z
			"/>
	</g>
	<g>
		<path class="st1" d="M169.4,93.2h-0.5c-0.2,0-0.4-0.2-0.4-0.4c0-0.2,0.2-0.4,0.4-0.4h0.5c0.2,0,0.4,0.2,0.4,0.4
			C169.7,93.1,169.6,93.2,169.4,93.2z"/>
	</g>
	<g>
		<path class="st2" d="M169.4,93.2v-0.2h-0.5c-0.1,0-0.2-0.1-0.2-0.2c0-0.1,0.1-0.2,0.2-0.2h0.5c0.1,0,0.2,0.1,0.2,0.2
			c0,0.1-0.1,0.2-0.2,0.2V93.2v0.2c0.3,0,0.5-0.2,0.5-0.5c0-0.3-0.2-0.5-0.5-0.5h-0.5c-0.3,0-0.5,0.2-0.5,0.5c0,0.3,0.2,0.5,0.5,0.5
			h0.5V93.2z"/>
	</g>
	<g>
		<path class="st1" d="M315.5,116.8h14.2c0.8,0,1.4-0.6,1.4-1.4v-5c0-0.8-0.6-1.4-1.4-1.4h-14.2c-0.8,0-1.4,0.6-1.4,1.4v5
			C314.1,116.1,314.7,116.8,315.5,116.8z"/>
	</g>
	<g>
		<path class="st2" d="M315.5,116.8v0.2h14.2c0.8,0,1.5-0.7,1.5-1.5v-5c0-0.8-0.7-1.5-1.5-1.5h-14.2c-0.9,0-1.5,0.7-1.5,1.5v5
			c0,0.8,0.7,1.5,1.5,1.5V116.8v-0.2c-0.3,0-0.6-0.1-0.8-0.3c-0.2-0.2-0.3-0.5-0.3-0.8v-5c0-0.3,0.1-0.6,0.3-0.8
			c0.2-0.2,0.5-0.3,0.8-0.3h14.2c0.3,0,0.6,0.1,0.8,0.3c0.2,0.2,0.3,0.5,0.3,0.8v5c0,0.3-0.1,0.6-0.3,0.8c-0.2,0.2-0.5,0.3-0.8,0.3
			h-14.2V116.8z"/>
	</g>
	<g>
		<path class="st1" d="M315.5,116.1h14.2c0.8,0,1.4-0.6,1.4-1.4v-5c0-0.8-0.6-1.4-1.4-1.4h-14.2c-0.8,0-1.4,0.6-1.4,1.4v5
			C314.1,115.4,314.7,116.1,315.5,116.1z"/>
	</g>
	<g>
		<path class="st2" d="M315.5,116.1v0.2h14.2c0.8,0,1.5-0.7,1.5-1.5v-5c0-0.8-0.7-1.5-1.5-1.5h-14.2c-0.9,0-1.5,0.7-1.5,1.5v5
			c0,0.8,0.7,1.5,1.5,1.5V116.1v-0.2c-0.3,0-0.6-0.1-0.8-0.3c-0.2-0.2-0.3-0.5-0.3-0.8v-5c0-0.3,0.1-0.6,0.3-0.8
			c0.2-0.2,0.5-0.3,0.8-0.3h14.2c0.3,0,0.6,0.1,0.8,0.3c0.2,0.2,0.3,0.5,0.3,0.8v5c0,0.3-0.1,0.6-0.3,0.8c-0.2,0.2-0.5,0.3-0.8,0.3
			h-14.2V116.1z"/>
	</g>
	<g>
		<path class="st3" d="M315.9,115.4h12.3c0.4,0,0.8-0.4,0.8-0.8v-4.9c0-0.4-0.4-0.8-0.8-0.8h-12.3c-0.4,0-0.8,0.4-0.8,0.8v4.9
			C315,115.1,315.4,115.4,315.9,115.4z"/>
	</g>
	<g>
		<path class="st2" d="M315.9,115.4v0.2h12.3c0.5,0,1-0.4,1-1v-4.9c0-0.5-0.4-1-1-1h-12.3c-0.5,0-1,0.4-1,1v4.9c0,0.5,0.4,1,1,1
			V115.4v-0.2c-0.2,0-0.3-0.1-0.4-0.2c-0.1-0.1-0.2-0.3-0.2-0.4v-4.9c0-0.2,0.1-0.3,0.2-0.4c0.1-0.1,0.3-0.2,0.4-0.2h12.3
			c0.2,0,0.3,0.1,0.4,0.2c0.1,0.1,0.2,0.3,0.2,0.4v4.9c0,0.2-0.1,0.3-0.2,0.4c-0.1,0.1-0.3,0.2-0.4,0.2h-12.3V115.4z"/>
	</g>
	<g>
		<path class="st1" d="M329.7,112.5h0.5c0.2,0,0.4-0.2,0.4-0.4c0-0.2-0.2-0.4-0.4-0.4h-0.5c-0.2,0-0.4,0.2-0.4,0.4
			C329.4,112.3,329.5,112.5,329.7,112.5z"/>
	</g>
	<g>
		<path class="st2" d="M329.7,112.5v0.2h0.5c0.3,0,0.5-0.2,0.5-0.5c0-0.3-0.2-0.5-0.5-0.5h-0.5c-0.3,0-0.5,0.2-0.5,0.5
			c0,0.3,0.2,0.5,0.5,0.5V112.5v-0.2c-0.1,0-0.2-0.1-0.2-0.2c0-0.1,0.1-0.2,0.2-0.2h0.5c0.1,0,0.2,0.1,0.2,0.2
			c0,0.1-0.1,0.2-0.2,0.2h-0.5V112.5z"/>
	</g>
	<g>
		<path class="st1" d="M270.7,97h14.2c0.8,0,1.4-0.6,1.4-1.4v-5c0-0.8-0.6-1.4-1.4-1.4h-14.2c-0.8,0-1.4,0.6-1.4,1.4v5
			C269.4,96.3,270,97,270.7,97z"/>
	</g>
	<g>
		<path class="st2" d="M270.7,97v0.2h14.2c0.9,0,1.5-0.7,1.5-1.5v-5c0-0.8-0.7-1.5-1.5-1.5h-14.2c-0.9,0-1.5,0.7-1.5,1.5v5
			c0,0.8,0.7,1.5,1.5,1.5V97v-0.2c-0.3,0-0.6-0.1-0.8-0.3c-0.2-0.2-0.3-0.5-0.3-0.8v-5c0-0.3,0.1-0.6,0.3-0.8
			c0.2-0.2,0.5-0.3,0.8-0.3h14.2c0.3,0,0.6,0.1,0.8,0.3c0.2,0.2,0.3,0.5,0.3,0.8v5c0,0.3-0.1,0.6-0.3,0.8c-0.2,0.2-0.5,0.3-0.8,0.3
			h-14.2V97z"/>
	</g>
	<g>
		<path class="st1" d="M270.7,96.3h14.2c0.8,0,1.4-0.6,1.4-1.4v-5c0-0.8-0.6-1.4-1.4-1.4h-14.2c-0.8,0-1.4,0.6-1.4,1.4v5
			C269.4,95.6,270,96.3,270.7,96.3z"/>
	</g>
	<g>
		<path class="st2" d="M270.7,96.3v0.2h14.2c0.9,0,1.5-0.7,1.5-1.5v-5c0-0.8-0.7-1.5-1.5-1.5h-14.2c-0.9,0-1.5,0.7-1.5,1.5v5
			c0,0.8,0.7,1.5,1.5,1.5V96.3v-0.2c-0.3,0-0.6-0.1-0.8-0.3c-0.2-0.2-0.3-0.5-0.3-0.8v-5c0-0.3,0.1-0.6,0.3-0.8
			c0.2-0.2,0.5-0.3,0.8-0.3h14.2c0.3,0,0.6,0.1,0.8,0.3c0.2,0.2,0.3,0.5,0.3,0.8v5c0,0.3-0.1,0.6-0.3,0.8c-0.2,0.2-0.5,0.3-0.8,0.3
			h-14.2V96.3z"/>
	</g>
	<g>
		<path class="st1" d="M271.1,95.6h12.3c0.4,0,0.8-0.4,0.8-0.8v-4.9c0-0.4-0.4-0.8-0.8-0.8h-12.3c-0.4,0-0.8,0.4-0.8,0.8v4.9
			C270.3,95.3,270.7,95.6,271.1,95.6z"/>
	</g>
	<g>
		<path class="st2" d="M271.1,95.6v0.2h12.3c0.5,0,1-0.4,1-1v-4.9c0-0.5-0.4-1-1-1h-12.3c-0.5,0-1,0.4-1,1v4.9c0,0.5,0.4,1,1,1V95.6
			v-0.2c-0.2,0-0.3-0.1-0.4-0.2c-0.1-0.1-0.2-0.3-0.2-0.4v-4.9c0-0.2,0.1-0.3,0.2-0.4c0.1-0.1,0.3-0.2,0.4-0.2h12.3
			c0.2,0,0.3,0.1,0.4,0.2c0.1,0.1,0.2,0.3,0.2,0.4v4.9c0,0.2-0.1,0.3-0.2,0.4c-0.1,0.1-0.3,0.2-0.4,0.2h-12.3V95.6z"/>
	</g>
	<g>
		<path class="st1" d="M285,92.7h0.5c0.2,0,0.4-0.2,0.4-0.4v0c0-0.2-0.2-0.4-0.4-0.4H285c-0.2,0-0.4,0.2-0.4,0.4v0
			C284.6,92.5,284.8,92.7,285,92.7z"/>
	</g>
	<g>
		<path class="st2" d="M285,92.7v0.2h0.5c0.3,0,0.5-0.2,0.5-0.5l0,0c0-0.3-0.2-0.5-0.5-0.5H285c-0.3,0-0.5,0.2-0.5,0.5v0
			c0,0.3,0.2,0.5,0.5,0.5V92.7v-0.2c-0.1,0-0.2-0.1-0.2-0.2l0,0c0-0.1,0.1-0.2,0.2-0.2h0.5c0.1,0,0.2,0.1,0.2,0.2v0
			c0,0.1-0.1,0.2-0.2,0.2H285V92.7z"/>
	</g>
</g>
</svg>
