<svg>
<defs>
	<g id="quality">
		<g id="Shape_1">
			<path class="quality-shape" d="M75.1,16.3H65v-0.1c0-1.3-1.1-2.4-2.4-2.4h-6.3v-0.1c0-2-1.7-3.7-3.7-3.7h-5c-2,0-3.7,1.7-3.7,3.7v0.1h-6.3
				c-1.3,0-2.4,1.1-2.4,2.4v0.1H24.9c-3.4,0-6.2,2.8-6.2,6.2v61.4c0,3.4,2.8,6.2,6.2,6.2h50.1c3.4,0,6.2-2.8,6.2-6.2V22.4
				C81.2,19,78.5,16.3,75.1,16.3z M46.2,13.7c0-0.7,0.6-1.3,1.3-1.3h5c0.7,0,1.3,0.6,1.3,1.3v0.1L46.2,13.7L46.2,13.7z M37.4,16.2
				C37.4,16.1,37.4,16.1,37.4,16.2l25.1-0.1c0,0,0.1,0,0.1,0.1v1.2c0,0,0,0,0,0c0,0,0,0,0,0v2.5c0,2.1-1.7,3.8-3.8,3.8H41.2
				c-2.1,0-3.8-1.7-3.8-3.8V16.2z M36.2,23.6C36.2,23.6,36.2,23.6,36.2,23.6c1.2,1.5,3,2.5,5,2.5h17.5c2,0,3.8-1,5-2.5c0,0,0,0,0,0
				h10c0,0,0.1,0,0.1,0.1v58.9c0,0,0,0.1-0.1,0.1H26.2c0,0-0.1,0-0.1-0.1V23.7c0,0,0-0.1,0.1-0.1H36.2z M78.9,83.8
				c0,2.1-1.7,3.8-3.8,3.8H24.9c-2.1,0-3.8-1.7-3.8-3.8V22.4c0-2.1,1.7-3.8,3.8-3.8H35v1.3c0,0.5,0.1,0.9,0.1,1.3h-9
				c-1.3,0-2.4,1.1-2.4,2.4v58.9c0,1.3,1.1,2.4,2.4,2.4h47.6c1.3,0,2.4-1.1,2.4-2.4V23.7c0-1.3-1.1-2.4-2.4-2.4h-9
				c0.1-0.4,0.1-0.9,0.1-1.3v-1.3h10.1c2.1,0,3.8,1.7,3.8,3.8V83.8z M32.6,43.7h9.7c0.7,0,1.3-0.6,1.3-1.3v-9.7
				c0-0.7-0.6-1.3-1.3-1.3h-9.7c-0.7,0-1.3,0.6-1.3,1.3v9.7C31.3,43.1,31.9,43.7,32.6,43.7z M33.6,33.6h7.7v7.7h-7.7V33.6z
				 M32.6,76.2h9.7c0.7,0,1.3-0.6,1.3-1.3v-9.7c0-0.7-0.6-1.3-1.3-1.3h-9.7c-0.7,0-1.3,0.6-1.3,1.3v9.7
				C31.3,75.6,31.9,76.2,32.6,76.2z M33.6,66.2h7.7v7.7h-7.7V66.2z M33.7,59.9h7.5c1.3,0,2.4-1.1,2.4-2.4v-1.3c0-0.6-0.5-1.2-1.2-1.2
				c-0.6,0-1.2,0.5-1.2,1.2v1.3c0,0,0,0.1-0.1,0.1h-7.5c0,0-0.1,0-0.1-0.1V50c0,0,0-0.1,0.1-0.1h7.5c0,0,0.1,0,0.1,0.1v0.8l-2.6,2.6
				L37,51.7c-0.5-0.5-1.2-0.5-1.7,0c-0.5,0.5-0.5,1.2,0,1.7l2.5,2.5c0.2,0.2,0.5,0.3,0.8,0.3c0.3,0,0.6-0.1,0.8-0.3l3.8-3.8
				c0,0,0,0,0,0l2.5-2.5c0.5-0.5,0.5-1.2,0-1.7c-0.5-0.5-1.2-0.5-1.7,0l-0.8,0.8c-0.4-0.7-1.2-1.2-2.1-1.2h-7.5
				c-1.3,0-2.4,1.1-2.4,2.4v7.5C31.3,58.9,32.4,59.9,33.7,59.9z M47.5,34.9h3.8c0.6,0,1.2-0.5,1.2-1.2c0-0.6-0.5-1.2-1.2-1.2h-3.8
				c-0.6,0-1.2,0.5-1.2,1.2C46.3,34.4,46.8,34.9,47.5,34.9z M47.5,39.9h18.8c0.6,0,1.2-0.5,1.2-1.2c0-0.6-0.5-1.2-1.2-1.2H47.5
				c-0.6,0-1.2,0.5-1.2,1.2C46.3,39.4,46.8,39.9,47.5,39.9z M47.5,52.4H60c0.6,0,1.2-0.5,1.2-1.2c0-0.6-0.5-1.2-1.2-1.2H47.5
				c-0.6,0-1.2,0.5-1.2,1.2C46.3,51.9,46.8,52.4,47.5,52.4z M47.5,57.4h18.8c0.6,0,1.2-0.5,1.2-1.2c0-0.6-0.5-1.2-1.2-1.2H47.5
				c-0.6,0-1.2,0.5-1.2,1.2C46.3,56.9,46.8,57.4,47.5,57.4z M47.5,68.7h5c0.6,0,1.2-0.5,1.2-1.2c0-0.6-0.5-1.2-1.2-1.2h-5
				c-0.6,0-1.2,0.5-1.2,1.2C46.3,68.2,46.8,68.7,47.5,68.7z M47.5,73.7h18.8c0.6,0,1.2-0.5,1.2-1.2c0-0.6-0.5-1.2-1.2-1.2H47.5
				c-0.6,0-1.2,0.5-1.2,1.2C46.3,73.2,46.8,73.7,47.5,73.7z"/>
		</g>
	</g>
	<g id="development">
		<g id="Forma_1">
			<path class="development-shape" d="M38.5,45.6c-0.4-0.6-1.2-0.8-1.8-0.4L21.9,54c-0.4,0.2-0.6,0.6-0.6,1.1c0,0.4,0.2,0.9,0.6,1.1L36.7,65
				c0.2,0.1,0.4,0.2,0.7,0.2c0.4,0,0.9-0.2,1.1-0.6c0.4-0.6,0.2-1.4-0.4-1.8l-13-7.8l13-7.8C38.6,47,38.8,46.2,38.5,45.6z M61.5,64.6
				c0.2,0.4,0.7,0.6,1.1,0.6c0.2,0,0.4-0.1,0.7-0.2l14.9-8.8c0.4-0.2,0.6-0.6,0.6-1.1c0-0.4-0.2-0.9-0.6-1.1l-14.9-8.8
				c-0.6-0.4-1.4-0.2-1.8,0.4S61.4,47,62,47.3l13,7.8l-13,7.8C61.4,63.2,61.2,64,61.5,64.6z M54.9,45.5L43,63.2
				c-0.4,0.6-0.2,1.4,0.4,1.8c0.2,0.1,0.5,0.2,0.7,0.2c0.4,0,0.8-0.2,1.1-0.6L57,47c0.4-0.6,0.2-1.4-0.4-1.8
				C56.1,44.8,55.3,44.9,54.9,45.5z M88.7,67.4c0.7,0,1.3-0.6,1.3-1.3v-51c0-0.7-0.6-1.3-1.3-1.3H11.3c-0.7,0-1.3,0.6-1.3,1.3v69.7
				c0,0.7,0.6,1.3,1.3,1.3h77.4c0.7,0,1.3-0.6,1.3-1.3V71.2c0-0.7-0.6-1.3-1.3-1.3s-1.3,0.6-1.3,1.3v12.3H12.5v-57h74.9v39.5
				C87.4,66.9,88,67.4,88.7,67.4z M59.8,24.1H12.5v-7.7h47.2L59.8,24.1L59.8,24.1z M62.3,24.1v-7.7h25.1v7.7H62.3z M74.9,18.9
				c-0.7,0-1.4,0.6-1.4,1.4c0,0.7,0.6,1.4,1.4,1.4c0.7,0,1.4-0.6,1.4-1.4C76.3,19.5,75.7,18.9,74.9,18.9z M68,18.9
				c-0.7,0-1.4,0.6-1.4,1.4c0,0.7,0.6,1.4,1.4,1.4c0.7,0,1.4-0.6,1.4-1.4C69.3,19.5,68.7,18.9,68,18.9z M81.9,18.9
				c-0.7,0-1.4,0.6-1.4,1.4c0,0.7,0.6,1.4,1.4,1.4c0.7,0,1.4-0.6,1.4-1.4C83.3,19.5,82.7,18.9,81.9,18.9z"/>
		</g>
	</g>
	<g id="cd">
		<g id="Forma_1_2_">
			<path class="cd-shape" d="M88.8,78.2H72.6c1.1-1.4,1.6-3.2,1.2-5l-3.3-17.5c-0.4-2.2-2-4-4.1-4.7l-8.5-2.8c-0.1-0.1-0.3-0.1-0.4-0.1
				v-2.3c1.6-1.8,2.5-4.1,2.5-6.6v-2.8c1.5-0.5,2.5-1.9,2.5-3.5v-6.2c0-4.1-3.3-7.4-7.4-7.4H45c-1.7,0-3.1,1.1-3.5,2.6
				c-2.2,0.5-3.9,2.5-3.9,4.8v6.3c0,1.6,1,3,2.5,3.5V39c0,2.6,1,5,2.5,6.8v2.4c-0.1,0-0.3,0-0.4,0.1l-8.5,2.8
				c-2.1,0.7-3.7,2.5-4.1,4.7l-3.3,17.5c-0.3,1.8,0.1,3.6,1.2,5H11.2c-0.7,0-1.2,0.5-1.2,1.2s0.5,1.2,1.2,1.2h21.1h0.2H35H65h2.5h0.2
				h21.1c0.7,0,1.2-0.5,1.2-1.2C90,78.8,89.5,78.2,88.8,78.2z M40.1,31.9v1.9c-0.1-0.2-0.2-0.4-0.2-0.6v-6.3c0-1.4,1.2-2.6,2.6-2.6
				c0.7,0,1.2-0.5,1.2-1.2c0-0.7,0.6-1.3,1.3-1.3h10c2.8,0,5.1,2.3,5.1,5.1v6.3c0,0.2-0.1,0.4-0.2,0.6v-1.9c0-2-1.6-3.7-3.7-3.7H43.7
				C41.7,28.2,40.1,29.8,40.1,31.9z M42.4,39v-7.1c0-0.7,0.6-1.3,1.3-1.3h12.5c0.7,0,1.3,0.6,1.3,1.3v7.5c0,2.1-0.8,4-2.3,5.5
				c-1.5,1.4-3.5,2.2-5.5,2.1C45.7,46.8,42.4,43.3,42.4,39z M56.3,50.5C56.3,50.5,56.3,50.5,56.3,50.5c-0.2,2.9-3,5.2-6.3,5.2
				c-3.3,0-6-2.3-6.3-5.2c0,0,0,0,0.1,0c0.7,0,1.2-0.5,1.2-1.2v-1.6c1.4,0.9,3,1.4,4.8,1.5c0.1,0,0.2,0,0.3,0c1.8,0,3.6-0.5,5.1-1.4
				v1.5C55.1,50,55.6,50.5,56.3,50.5z M65.1,78.2C65.1,78.2,65.1,78.2,65.1,78.2L35,78.2c0,0-0.1,0-0.1-0.1V61.9c0,0,0-0.1,0.1-0.1
				H65c0,0,0.1,0,0.1,0.1V78.2z M70.7,76.8c-0.7,0.9-1.8,1.4-3,1.4h-0.2h-0.1c0,0,0-0.1,0-0.1V61.9c0-1.3-1.1-2.4-2.4-2.4H35
				c-1.3,0-2.4,1.1-2.4,2.4v16.3c0,0,0,0.1,0,0.1h-0.1h-0.2c-1.2,0-2.2-0.5-3-1.4c-0.7-0.9-1-2-0.8-3.2l3.3-17.5
				c0.3-1.4,1.2-2.5,2.5-2.9l7-2.3c0.5,4,4.2,7.1,8.6,7.1c4.4,0,8.1-3.1,8.6-7.1l7,2.3c1.3,0.4,2.3,1.6,2.5,2.9l3.3,17.5
				C71.7,74.8,71.4,76,70.7,76.8z M50,67c-2,0-3.7,1.6-3.7,3.7s1.6,3.7,3.7,3.7s3.7-1.6,3.7-3.7S52,67,50,67z M50,72
				c-0.7,0-1.3-0.6-1.3-1.3s0.6-1.3,1.3-1.3s1.3,0.6,1.3,1.3S50.7,72,50,72z"/>
		</g>
	</g>
	<g id="discovery">
		<g id="Forma_1_1_">
			<g>
				<path class="discovery-shape" d="M50,21.8c-13.9,0-25.2,11.3-25.2,25.2c0,10.5,6.5,19.9,16.3,23.6v13.5c0,0.8,0.7,1.5,1.5,1.5h1.5v3
					c0,0.8,0.7,1.5,1.5,1.5h8.9c0.8,0,1.5-0.7,1.5-1.5v-3h1.5c0.8,0,1.5-0.7,1.5-1.5V70.5c9.8-3.7,16.3-13,16.3-23.6
					C75.2,33,63.9,21.8,50,21.8z M55.9,82.5h-1.5c-0.8,0-1.5,0.7-1.5,1.5v3H47v-3c0-0.8-0.7-1.5-1.5-1.5H44v-7.4h11.8v7.4H55.9z
					 M56.9,68c-0.6,0.2-1,0.8-1,1.4v2.7H44.1v-2.7c0-0.6-0.4-1.2-1-1.4C34,65,27.8,56.5,27.8,46.9c0-12.3,10-22.2,22.2-22.2
					s22.2,10,22.2,22.2C72.2,56.6,66.1,65,56.9,68z M50,18.8c0.8,0,1.5-0.7,1.5-1.5v-5.9c0-0.8-0.7-1.5-1.5-1.5s-1.5,0.7-1.5,1.5v5.9
					C48.5,18.1,49.2,18.8,50,18.8z M85.5,45.5h-5.9c-0.8,0-1.5,0.7-1.5,1.5s0.7,1.5,1.5,1.5h5.9c0.8,0,1.5-0.7,1.5-1.5
					C87,46.1,86.3,45.5,85.5,45.5z M20.4,45.5h-5.9c-0.8,0-1.5,0.6-1.5,1.4s0.7,1.5,1.5,1.5h5.9c0.8,0,1.5-0.7,1.5-1.5
					S21.2,45.5,20.4,45.5z M74.1,20.7l-4.2,4.2c-0.6,0.6-0.6,1.5,0,2.1c0.3,0.3,0.7,0.4,1,0.4c0.4,0,0.8-0.1,1-0.4l4.2-4.2
					c0.6-0.6,0.6-1.5,0-2.1C75.6,20.2,74.6,20.2,74.1,20.7z M28,66.8L23.8,71c-0.6,0.6-0.6,1.5,0,2.1c0.3,0.3,0.7,0.4,1,0.4
					c0.4,0,0.8-0.1,1-0.4l4.2-4.2c0.6-0.6,0.6-1.5,0-2.1C29.5,66.3,28.6,66.3,28,66.8z M72,66.8c-0.6-0.6-1.5-0.6-2.1,0
					s-0.6,1.5,0,2.1l4.2,4.2c0.3,0.3,0.7,0.4,1,0.4c0.4,0,0.8-0.1,1-0.4c0.6-0.6,0.6-1.5,0-2.1L72,66.8z M28,27
					c0.3,0.3,0.7,0.4,1,0.4s0.8-0.1,1-0.4c0.6-0.6,0.6-1.5,0-2.1l-4.2-4.2c-0.6-0.6-1.5-0.6-2.1,0c-0.6,0.6-0.6,1.5,0,2.1L28,27z
					 M50,29.2c-9.8,0-17.8,8-17.8,17.8c0,0.8,0.7,1.5,1.5,1.5s1.5-0.7,1.5-1.5c0-8.2,6.6-14.8,14.8-14.8c0.8,0,1.5-0.7,1.5-1.5
					C51.5,29.8,50.8,29.2,50,29.2z"/>
			</g>
		</g>
	</g>
</defs>
</svg>
