<svg id="farther" xmlns="http://www.w3.org/2000/svg" viewBox="0 0 1223 1228.73"><defs><style>.cls-1{fill:#f2f2f2;}.cls-2{fill:#ccc;}</style></defs><title>polygonal connected lines</title><path class="cls-1" d="M1237.67,561a5.67,5.67,0,0,0-5.42,4L1062.6,529.3l-12.06-27a5.75,5.75,0,1,0-8.51-5.61l-144.05-2-185.26-39,434.66-117a6.5,6.5,0,1,0,0-4.28l-413.73-108,5.62-16.08A5.63,5.63,0,1,0,735.4,207l-26,13.12L593.49,189.83l33.1-27.25L1014,210.33c0,0.06,0,.11,0,0.17a5.5,5.5,0,0,0,11,0l0.25-.44-0.28-.16a5.49,5.49,0,0,0-7.77-4.4l-257.76-146a6,6,0,1,0-10.38.9L626.28,161.53,348,127.23c0-.08,0-0.16,0-0.23a6,6,0,1,0-.13,1.23l277.34,34.18L592.3,189.52l-38.35-10A4,4,0,0,0,554,179a4,4,0,0,0-8,0,4,4,0,0,0,.21,1.23L350.44,272.42a5.06,5.06,0,0,0-9.35,1.69L185,261.36a4.49,4.49,0,0,0-9,.14l-0.43-.26L96.18,392.77a7,7,0,1,0,3.1,9.32l168.81,68.49-93.32,107a7.16,7.16,0,1,0,.76.65L269.07,471l79.31,32.18a7.47,7.47,0,0,0,3.28,8.78L261.1,689.66l-168.65.58a3.25,3.25,0,1,0,0,1l148.64,37.67-30.28,59.43A5,5,0,1,0,209,798l-0.48.14L305,1139.06a5,5,0,0,0,2.51,8.88l0.05,0.19L308,1148a5,5,0,0,0,0-10,5,5,0,0,0-2.16.51L209.5,797.95a5,5,0,0,0,2.43-.92l92.61,103.7a5.72,5.72,0,1,0,.75-0.67L212.68,796.37a5,5,0,0,0-1-7.56l30.38-59.63,248.25,62.92,9.49,216L409,1014a9,9,0,1,0,.07,1.08s0-.06,0-0.09l90.77-5.93,2.24,51.06a7.5,7.5,0,1,0,8.32,7.51l129.06-7.54,19.46,177a5,5,0,1,0,1-.11h0L640.5,1060,812.64,1050a11.25,11.25,0,1,0,21.69-5.16l151.42-65.68a5.5,5.5,0,1,0,4.82-8.13l0.5,0-26.36-282.7L1034,688a6.5,6.5,0,1,0,0-1.38l-69.9-4.24-0.65-7,47.68-92.14a5.7,5.7,0,1,0-.89-0.46l-47,90.76-1.55-16.65a8.5,8.5,0,1,0-9.17-5.24L896,678.26,596.54,660.1,593,627.55,988.42,514.7l73.47,15.47,111.33,249.47a4.46,4.46,0,0,0-.52,7.37L955.05,1133.9a7.61,7.61,0,1,0,.84.54l217.66-346.89a4.49,4.49,0,1,0,3.66-8.2l59.38-207.11A5.67,5.67,0,1,0,1237.67,561ZM749.7,61.18a6,6,0,0,0,9.25-.8L1016.21,206.1a5.49,5.49,0,0,0-2.09,3.24L627.65,161.7ZM1042,497.67a5.75,5.75,0,0,0,.09.67l-53.72,15.33-85.32-18Zm-149.25-3.11L647,491.09a6.5,6.5,0,0,0-3.87-5.54l4.31-12.35,63.17-17ZM577.5,485a6.5,6.5,0,0,0,0,13h0.21l14.16,128.83-90.48,25.82a6.35,6.35,0,1,0,.38,2.72L595.63,661l3,27.46-111.86.38-12-273.34a9.75,9.75,0,0,0,8.49-7.21l173,36.43-9.64,27.6-63,17A6.5,6.5,0,0,0,577.5,485ZM956.22,687.29l-77.7.27,17.62-8.28,62.27,3.78Zm3.28-4.17,3.74,0.23,0.37,3.92-6.26,0Zm-3.8,5.17L857.3,878.46a6,6,0,0,0-8,3.59L614.39,822.5l-1.14-10.36L876.38,688.56ZM515.61,864a6.48,6.48,0,0,0,6-8.79l76.32-35.85,15.58,3.95,19.35,176.07L507,1007.58Zm83.71-45.31,13-6.09,1.06,9.65Zm13.81-7.59L599.77,689.5,874,688.57Zm-1,.45-14.38,6.76-106.5-27-4.46-101.42,111.93-.38ZM657.28,445l51.15,10.77-60.61,16.31Zm489.83-109.63a6.25,6.25,0,0,0,0,2.35L710.56,455.18,657.61,444,733.3,227.35ZM735.85,207.84A5.64,5.64,0,0,0,738.3,210l-5.64,16.16-21.83-5.7ZM708,220.76L315.78,418.53,592.54,190.62ZM99.66,401.16A7,7,0,0,0,97,393.29l79-131a4.49,4.49,0,0,0,8.83,0L341,275.11a5.08,5.08,0,1,0,9.85-1.78l195.77-92.19a4,4,0,0,0,7.08-.65l37.63,9.82L314,418.74a3,3,0,0,0-4.27,4.15l-40.91,46.89ZM352.55,512.39a7.5,7.5,0,1,0-3.79-10.17l-79-32.05,40.68-46.62a3,3,0,0,0,4.42-3.43l394.63-199,22.85,6-75.7,216.72L483.47,407.36a9.74,9.74,0,1,0-9.69,8.23l12,273.3-223.57.76ZM96.41,691.23l164.18-.56-19,37.35Zm146.14,37,19.16-37.6,224.13-.77L490.28,791Zm248.79,64.09,105,26.62-75.22,35.33a6.5,6.5,0,1,0-6.54,9.64L506,1007.65l-5.2.34ZM506,1008.66L503,1057.92,500.87,1009Zm4.41,58a7.49,7.49,0,0,0-6.49-6.5l3.08-51.54,126-8.23,6.46,58.73Zm323.56-22.74a11.24,11.24,0,0,0-21.35,4.93c0,0.05,0,.1,0,0.16L640.39,1059l-6.46-58.74,351.21-22.94a5.46,5.46,0,0,0,.2.86ZM990.07,971a5.49,5.49,0,0,0-5,5.33L633.82,999.3,614.51,823.56,849.09,883a6,6,0,1,0,9.1-4.09l98.64-190.64,6.87,0Zm34.31-284-59.76.2-0.36-3.85Zm-61.23-4.72-3.14-.19,2.65-5.12ZM953,652.56A8.5,8.5,0,0,0,960.5,657h0.29l1.7,18.2-3.57,6.9L898,678.39Zm-59,26.59-17.91,8.41-276.5.95-3-27.4ZM595.52,660l-93.6-5.68,0.07,0.52v0a6.45,6.45,0,0,0-.23-1.26L592,627.83Zm-2.68-33.5L578.7,497.88a6.48,6.48,0,0,0,5.18-7.58l62.37-16.78-4.09,11.71a6.5,6.5,0,1,0,4.81,6.87l250.89,3.54,88.46,18.62ZM990.48,514.11l51.9-14.81a5.73,5.73,0,0,0,7.24,3.38L1061.39,529Zm185.77,265a4,4,0,0,0-2.11.16l-111-248.81L1232,566a5.62,5.62,0,0,0,3.59,6Z" transform="translate(-21 -23)"/><path class="cls-1" d="M99.41,910.37a7.81,7.81,0,1,0,1,0L89.75,694l-0.5,0-0.5,0Z" transform="translate(-21 -23)"/><path class="cls-2" d="M1221.92,700.09a20.3,20.3,0,0,0-3.48.32l-96.89-429a10.45,10.45,0,1,0-12.93-13.92L756.29,150a5.64,5.64,0,0,0-5.62-6.34,5.64,5.64,0,0,0-3.26,1L666.66,64.82a20.4,20.4,0,1,0-35.59-13.61c0,0.07,0,.14,0,0.22l-116.52,7a11.55,11.55,0,1,0,.12,2l116.51-7a20.38,20.38,0,0,0,34.05,12.82L746,146.12a5.67,5.67,0,0,0,7.37,8.19L837.8,259.87,698.55,290a15,15,0,1,0,.41,2l140.24-30.33,38.62,48.29-56.48,130a9.07,9.07,0,0,0-10.74,4.51L490.73,321.61a18,18,0,1,0-29.31,7.72L395.81,409l-66-31.08a6,6,0,1,0-.85,1.81l65.58,30.87L284.31,544.49,79.6,451.41a9,9,0,0,0-1.37-8.26L366,173.06a8.42,8.42,0,1,0-1.36-1.46L76.86,441.69a9.07,9.07,0,1,0-7.94,15.73L39,710.76a7.46,7.46,0,1,0,2,.24L70.91,457.66H71a9,9,0,0,0,2.9-.48l95.63,205.17A9.32,9.32,0,0,0,171,679.06L115.57,893.89a16.74,16.74,0,1,0,6.83,29.8l85.52,100.78a10.33,10.33,0,0,0,13.83,15.28l84.47,87.61a12.74,12.74,0,1,0,22.23,9.52L459,1137.68l17.69,79.79a7.65,7.65,0,1,0,2.62-.47c-0.23,0-.45,0-0.67,0l-17.59-79.34,321.1,1.94L794,1217.3a7,7,0,1,0,2-.3H796l-11.75-77.36,136.42,0.82a16.5,16.5,0,1,0,5.13-12.87l-153.8-144L970.67,851.84a17.93,17.93,0,0,0,24.93,3.82L1029.08,897,857.64,998.81a5.46,5.46,0,1,0,1,1.72l171.69-102,82,101.18a9.21,9.21,0,1,0,11-1.58l83.4-200a6.67,6.67,0,1,0-4.56-4L1030.82,895.95,997.15,854.4a18,18,0,1,0-30.07-13.48L740.42,851.48l-2.59-17,48.1-102,415.81-10.64A20.24,20.24,0,1,0,1221.92,700.09Zm-18.74,95.8a6.69,6.69,0,0,0,1.7,1.47l-83.4,200a9.15,9.15,0,0,0-7.58,1.09l-81.8-101ZM841.38,261.14L902.1,248a5,5,0,0,0,1.71,2.08l-25.08,57.74ZM463,330.6a18,18,0,0,0,27-7.12L809.89,446.29a9.06,9.06,0,0,0-.3,2.3c0,0.14,0,.28,0,0.43L608.69,481a6.67,6.67,0,1,0,.31,2s0,0,0,0l200.92-32a9.07,9.07,0,1,0,13.25-10.27l56.06-129.05L994.6,455.91,890.1,576.8,699.49,582l-4.26-28a4,4,0,1,0-4.63-6.22L397.68,409.91Zm619.43,240.91-189.58,5.21L995.87,457.5l88.24,110.32A6.63,6.63,0,0,0,1082.39,571.51ZM818.46,646.33a14.87,14.87,0,0,0-7.24,27.87l-26.57,56.32-62.36,1.6L699.8,584l188.53-5.18L827.4,649.34A14.79,14.79,0,0,0,818.46,646.33ZM690.95,553.25a4,4,0,0,0,2.31,1l4.22,27.8-54.1,1.49ZM396.37,411.5L689.74,549.59a4,4,0,0,0-.07.74,4,4,0,0,0,.21,1.23L639.5,583.69l-245.93,6.76a8,8,0,0,0-14.7-3L286.2,545.34Zm-10.7,188.16a8,8,0,0,0,8-7.22l242.59-6.67L363.68,759.56l23-159.75Zm-310-143.33a9.1,9.1,0,0,0,3.08-3.11L283,546.09,183.17,667.36a9.3,9.3,0,0,0-11.85-5.85ZM173,679.56a9.35,9.35,0,0,0,1.35.11l0.77,0.64,0.62-.75a9.33,9.33,0,0,0,7.94-9.22c0-.14,0-0.27,0-0.41l101.23-123L378,589.29a8,8,0,0,0,6.64,10.31L361.45,761,129,909.17a16.74,16.74,0,0,0-11.54-14.78ZM129.1,910.32h0l0.54,0.84L361.08,763.59,357.7,787a5,5,0,1,0,5.21,5.81l184.78-6.17-0.07-2-184.78,6.17a5,5,0,0,0-3.17-3.53l3.62-25.14,276.8-176.5,57.68-1.59,22.5,148.08-41.35,1.06a16.51,16.51,0,1,0,0,2l41.61-1.06,15.19,100-8.46,17.93L636,856.34l-68-63.7a11.4,11.4,0,1,0-1.37,1.46l66.63,62.37L420,866.4a19.74,19.74,0,1,0-35.08,14.21l-162.54,143.5a10.3,10.3,0,0,0-12.93-.94L123.93,922.41A16.68,16.68,0,0,0,129.1,910.32Zm630.28,79.24L632.51,1073.7a16.85,16.85,0,0,0-5.34-4.64l71.41-151.37,58.15,54.43Zm-0.29-15.23,9.65,9-7.52,5Zm-59.61-58.54L728.61,854l10.11-.47,17.53,115.37Zm-1.53-1.44L638,858.25l88.34-4.12ZM328.45,1134.89a12.74,12.74,0,0,0-20.8-8.92l-84.46-87.6a10.29,10.29,0,0,0,.51-12.76l162.53-143.5a19.49,19.49,0,0,0,17.4,5.65l55,247.91Zm132.18,0.8L405.58,887.34a19.73,19.73,0,0,0,14.5-18.94l215.13-10L697,916.25l-71.68,152a16.83,16.83,0,1,0,8.26,7.15l126.09-83.62,22.16,145.89ZM924.37,1129a16.42,16.42,0,0,0-3.74,9.42l-136.74-.83L761.55,990.52l8.69-5.76Zm42.8-286.13a17.86,17.86,0,0,0,2.39,7.26L770.45,982.22,758.6,971.13,740.73,853.46Zm-228.75,8.65-8.85.41,6.74-14.28Zm-1.12-20.66-14.7-96.8,61.1-1.56ZM813,675.05a14.87,14.87,0,0,0,15.89-24.41L891,578.78l191.41-5.26a6.67,6.67,0,1,0,3.22-6.95L997.2,456l32.59-37.71a14,14,0,1,0-1.52-1.3l-32.34,37.42L880.13,309.59l25.5-58.7a5,5,0,1,0-4-4.89s0,0,0,.06L840,259.4,754.93,153.06a5.67,5.67,0,0,0,.78-1.14L1108,259.37a10.4,10.4,0,0,0,11.56,12.44l96.89,429a20.23,20.23,0,0,0-14.8,19l-414.8,10.61Z" transform="translate(-21 -23)"/><path d="M1232.46,609l-10.65-122.32a9.5,9.5,0,1,0-5.75-.36L1179.41,656l-0.41,0a9,9,0,0,0-7.62,13.77l-21.29,18.94L1133.8,620.3a6,6,0,0,0,1.94-9l30.58-200.42c0.55,0,1.11.08,1.67,0.08a21,21,0,1,0-11.68-38.45L1045.64,263.5l43-34.31-0.94-1.17,0.84-1.25L850.08,66.8a15.61,15.61,0,1,0-27.94-1l-173.3,99.56L629,126.54a15.66,15.66,0,1,0-23.84-11L463.7,149l99.9-94.77A9,9,0,0,0,577.95,48l110.43-6.67a15,15,0,0,0,29.55-1.78h0.17L718,38a15,15,0,0,0-30,0c0,0.1,0,.2,0,0.31L577.76,45A9,9,0,1,0,561.53,52L457.89,150.33,388.23,166.8a12,12,0,0,0-7.74-7.28l81-89.8a12.52,12.52,0,1,0-4.66-6.26L299.74,137.83a16,16,0,1,0-25.47,19L197.8,242.28a12.48,12.48,0,1,0-12.48,21.51L128.47,434.54l-81.9,90.82A15,15,0,1,0,36,551h0.12L47.43,653.35a19,19,0,1,0,11,1.15l47.71-143.32,45.2-19.07L127.09,645.67l-62.2,142a15.08,15.08,0,1,0,8.31,6.68l34.41-25.21L93.9,856a9,9,0,1,0,7.84,13.57l64.13,24.62-22.71,85.18a13.9,13.9,0,1,0,11.66,13.71c0-.29,0-0.57,0-0.85l176-34.7L391,980.65l-58,117.7a19,19,0,1,0,9.74,26.59l28.92,12.61L349.08,1168a9,9,0,0,0-9.77,1l-112-98a14,14,0,1,0-2,2.25l112,98a9,9,0,1,0,14.15-1.52l23-31,63.1,27.52L431,1201.24c-0.35,0-.7-0.05-1.06-0.05a13.91,13.91,0,1,0,13.89,14.3l87-8.52,82.31,35.9a7.36,7.36,0,1,0,14.57,1.63l242.86-46.17a10,10,0,1,0,10-13.29l-1.11-12.21,23.87-2.34A17,17,0,1,0,903,1167c0,0.17,0,.34,0,0.5l-23.8,2.33L857.54,931l18.12-3.71A13.9,13.9,0,1,0,900.23,915l52-46.25L945,1105.05a15,15,0,1,0,12.81,5.66l183-177-86,144a10,10,0,1,0,2.58,1.54L1149,925.75l35.31-34.15a15.13,15.13,0,1,0,7.73-26.45l-2-8.21,20.52-34.37a15,15,0,1,0-2.57-1.54l-18.94,31.72-33.19-139.43,20.35-39.74a9,9,0,0,0,6-16.94l36.53-169.12,10.6,121.74A12,12,0,1,0,1232.46,609ZM207,483a16,16,0,1,0-15.26-11.19l-36.61,15.44L170,393l50.53-56L339.2,655l-99,21.87a17,17,0,1,0-30.74,13.91l-97.76,71.63L130,646.53l72-164.34A16,16,0,0,0,207,483ZM190.65,265a12.48,12.48,0,0,0,2.92-.36l25.78,69.11-48.49,53.78L190.2,265ZM374,735a9,9,0,0,0-1.7.16l-29.08-78L403,644l-27.81,91.08A9,9,0,0,0,374,735Zm-4.5,1.22a9,9,0,0,0-3.12,3L240.23,687.08a16.53,16.53,0,0,0,.62-7.27l99.42-22ZM224,699a17,17,0,0,0,15.07-9.15L365.23,742a8.91,8.91,0,0,0,1.62,7.45l-150.39,161-47-18.05,51.63-193.64A17,17,0,0,0,224,699Zm145,52.51A9,9,0,1,0,378,736l28.31-92.7,84.48-18.66,26.69,99.2L411.73,938.54l-80.65,15.89-111.6-42.85ZM409,321a27.87,27.87,0,0,0-3-12.63l46.28-26.59,96.34,138.43-82.82,52.54a14.93,14.93,0,0,0-16.58-4.95l-55.3-122A28,28,0,0,0,409,321Zm61.36-49.61L703,311.45c0,0.18,0,.36,0,0.55a18.9,18.9,0,0,0,2.21,8.88L551.15,418.6,454.88,280.28Zm-17.2,6.42-7.42-10.66,20,3.44Zm371.52,39.62-0.47,11.85-83.47-14.37c0-.23.08-0.45,0.1-0.68ZM837.23,75a15.53,15.53,0,0,0,9.12-3.59L984.72,207.7a21,21,0,0,0-7.13,37.22l-28.13,44.72L903.57,268.5a15,15,0,1,0-1,2.84l45.27,20.85L931.3,318.5l-103.49-4ZM568.91,895.18a13.94,13.94,0,0,0-2.14.18L520.69,724.11,579.34,605l43.16-9.53-26.79,77.58a28,28,0,1,0,17.66,15.06l88.72-47.42L829.32,823.54a31.51,31.51,0,0,0-11.88,30.2l-235.34,51A13.91,13.91,0,0,0,568.91,895.18ZM469,482a14.91,14.91,0,0,0-1.6-6.72l82.93-52.61L618,519.85l-40.67,82.57L493,621,459.32,496A15,15,0,0,0,469,482Zm352.12,2.46,6-151.64L913,347.61,825.81,486.18A18.86,18.86,0,0,0,821.12,484.46Zm-3-.4c-0.38,0-.75-0.06-1.13-0.06a19,19,0,0,0-.36,38L816,539.05A12,12,0,0,0,805,551c0,0.37,0,.74.06,1.1L665.51,582.93l-23.72-34.09,75.45-218.47a18.91,18.91,0,0,0,22.84-12.54l84,14.47Zm-219.59,190,27.39-79.32,38.26-8.45,36.16,52L612,685.5A28.1,28.1,0,0,0,598.55,674.06Zm28.54-82.64,13.49-39.07,21.77,31.28Zm11.37-42.11-14.81,42.87L581,601.59l38.88-78.93Zm-17-29.72,91.34-185.44-73.1,211.65Zm90.86-191.27L619.47,516.77l-66.61-95.71,154-97.66A19.06,19.06,0,0,0,712.29,328.31ZM575.59,605.87L519.51,719.72l-25.77-95.77Zm256.19,216-127-182.53,113.67-60.75,25.32,238.82A31.34,31.34,0,0,0,831.78,821.83ZM703,636.82l-35.65-51.23L805.71,555a12,12,0,0,0,11.05,8l1.31,12.34Zm116.72-74.15a12,12,0,0,0-.78-23.5l0.68-17.38a19,19,0,0,0,8.69-34l87.84-139.63,48.07,8.28L943.66,508.2,820.93,573.8Zm141.33-240a9.5,9.5,0,0,0,6.68,8l-3.1,22.87-46.74-8,15-23.85Zm10.64,8.27a9.42,9.42,0,0,0,2-.47l14.83,27.13-17.53-3ZM968,354l-0.39-.07,0.51-3.75Zm-0.79,2.91,0.7,0.12L963.6,497.55l-16.67,8.91Zm3.69,0.63,19.46,3.35,51.76,94.65-75.46,40.33Zm23.23,4,153,26.34c-0.07.68-.1,1.38-0.1,2.08a20.9,20.9,0,0,0,1.83,8.55l-104.07,55.62ZM1147.63,385L992.29,358.22l-16-29.22a9.47,9.47,0,0,0,2.45-12.18l8.26-6.59,160.78,74C1147.74,384.51,1147.69,384.74,1147.63,385ZM976.89,314.48a9.49,9.49,0,0,0-15.71,5.16l-26.43-1,15.84-25.17L984,308.83ZM952.2,290.9l27.91-44.37A21,21,0,0,0,1010.38,233l30.74,30.29L986.6,306.74Zm-22.75,30.53-14.74,23.43L827.2,329.79l0.48-12.25Zm-226.11-13L474.44,269,647.6,169.56l64.46,126.27A19,19,0,0,0,703.34,308.46ZM454,497a15,15,0,0,0,2.42-.21L490,621.69,407.34,640l43.74-143.25A15.06,15.06,0,0,0,454,497Zm64.68,231.19,45.19,167.95a13.9,13.9,0,0,0-8.87,13c0,0.41,0,.8.06,1.2L415.44,937.81Zm36.95,185A13.91,13.91,0,0,0,568.91,923c0.21,0,.41,0,0.61,0L579,985l-94.73,19.38a16,16,0,0,0-29.63-2.44L395.14,979l18.63-37.83ZM469,1025a16,16,0,0,0,15.9-17.72l94.59-19.35,31.94,208.13-80.11,7.84L441,1164.51l26.5-139.59C468,1025,468.49,1025,469,1025Zm113.43-37.68,56.75-11.61,214,196.67-238.76,23.38Zm-0.46-3-9.49-61.84a13.85,13.85,0,0,0,5.58-3l58.39,53.67Zm-1.88-67a13.83,13.83,0,0,0,2.72-8.24,14.05,14.05,0,0,0-.08-1.46l235.33-51a31.56,31.56,0,0,0,30.48,23.41c0.45,0,.9,0,1.35,0l4.41,48.58L640.08,972.47ZM848.55,817c-0.61,0-1.22,0-1.83.06L821.27,577l121.9-65.15L904,800.76l-32.11,26.55A31.46,31.46,0,0,0,848.55,817Zm97.89-306.87L963.49,501,955.6,758.08,907.4,797.94Zm20.11-10.75,77-41.16,83.35,152.41a6,6,0,0,0-1.33,6.91l-166.89,138Zm160.94,120.48a6,6,0,0,0,3.4,1.14l16.66,70L955.42,861.91l3.14-102.38Zm5.53-10.5a5.87,5.87,0,0,0-3.48-.16L1046.2,456.8l104.05-55.61a21,21,0,0,0,13.11,9.28Zm20.94-234.93a21,21,0,0,0-5.12,7L989.65,308.15l53.62-42.76Zm-143-145.12c0-.43.07-0.87,0.07-1.31a21,21,0,0,0-21-21c-0.55,0-1.09,0-1.62.08L848.78,69.55l236.4,158.58-41.7,33.25ZM823.63,68.43a15.58,15.58,0,0,0,10.6,6.41L824.8,314.43,741,311.22a19,19,0,0,0-26.24-16.77L650.2,168.07Zm-217.78,50a15.56,15.56,0,0,0,20.48,9.48l19.9,39L469.81,268.25l-26.47-4.56-40-57.47,56-53.15ZM362.47,245l38.66-36.68,38,54.67L364,250v0A9,9,0,0,0,362.47,245Zm91.09-90.54-52,49.29L385,179.9a12,12,0,0,0,4-8.9,12.12,12.12,0,0,0-.07-1.28ZM377,183a11.94,11.94,0,0,0,5.57-1.37l16.83,24.19-39,37a9,9,0,0,0-11.31,14L285.36,360.65a9,9,0,1,0,2.55,1.57l63.73-103.88A9,9,0,0,0,363.48,253l78.11,13.45,9,12.88-46.06,26.46a28,28,0,1,0-13.31,41.31l55.3,122a15,15,0,0,0,1.73,26.8L404,640.71l-61.81,13.65L222.8,334.4,365.94,175.66A12,12,0,0,0,377,183ZM458.1,66.17a12.51,12.51,0,0,0,1.15,1.54L376.92,159A12,12,0,0,0,365,171c0,0.39,0,.78.06,1.16L221.62,331.24,196.39,263.6A12.46,12.46,0,0,0,200,244.28l76.47-85.42A16,16,0,0,0,301,140.54Zm-271.76,204-19.16,121.4L133.48,429ZM48.5,527.71l77.61-86.07-22.4,67.3L50.3,531.47A14.93,14.93,0,0,0,48.5,527.71Zm7.05,125.86A19,19,0,0,0,51,653c-0.2,0-.39,0-0.59,0L39.1,550.67A15,15,0,0,0,51,536a15.18,15.18,0,0,0-.08-1.54l51.52-21.73Zm51.83-146.18,23.74-71.31,35.21-39-14.45,91.59Zm47.2-16.65,38.33-16.17a16.07,16.07,0,0,0,6.33,6.41l-67.4,153.85ZM71.43,791.93a15.07,15.07,0,0,0-3.79-3.05l57.61-131.52-17,107.57Zm31.4,74.85a9,9,0,0,0-6-10.31L111,766.62l100.2-73.42a17,17,0,0,0,7,4.75L166.64,891.29Zm65.86,28.5,45.57,17.5-64.8,69.35a13.87,13.87,0,0,0-3.41-2Zm-14.41,94a13.87,13.87,0,0,0-2.66-5.06l65.66-70.28,108.28,41.58Zm182.07-32.83,73.72-14.53-17.74,36Zm7.6,165.74a18.91,18.91,0,0,0-8.24-22.5l58.1-118,59.8,23a15.88,15.88,0,0,0,4.71,16.19l-84.8,114.2Zm32.39,14.12,84.38-113.64a15.89,15.89,0,0,0,3.84,1.69l-26.38,138.92Zm67.23,76.18a13.92,13.92,0,0,0-9.64-10.71l6.5-34.24,84.77,37Zm93.41-6.13,74.92-7.34,5.9,38.45a7.37,7.37,0,0,0-3.43,2.64Zm90.19,35.18a7.36,7.36,0,0,0-6.41-4.52l-5.88-38.29,241.26-23.62,15.56,14.3A10,10,0,0,0,870,1195c0,0.13,0,.25,0,0.37Zm250.45-56.24a10,10,0,0,0-3.87,1.91l-13.59-12.49,16.36-1.6Zm-1.38-15.17L857.18,1172,642.81,975l211.78-43.33ZM857.27,928l-4.38-48.25a31.54,31.54,0,0,0,20.9-50.16l29.6-24.48L889.28,909.2l-0.37,0A13.91,13.91,0,0,0,875,923.09c0,0.44,0,.87.07,1.3Zm41-15.24a13.85,13.85,0,0,0-6-3.19L906.8,802.32l48.68-40.25-3.15,102.58Zm250.1-218.5,4.44,18.64L951.46,1106a14.89,14.89,0,0,0-3.51-.9L955.29,866Zm40.83,171.55a15.06,15.06,0,0,0-6.9,23.6l-27.33,26.43,33-55.25Zm-2.24-9.4-40.26,67.43-191,184.68a15,15,0,0,0-1.55-1.14l199.7-390Zm-32.05-147.62-4-16.8,22.5-20,0.25,0.19Z" transform="translate(-21 -23)"/></svg>