<?xml version="1.0" encoding="utf-8"?>
<!-- Generator: Adobe Illustrator 19.2.1, SVG Export Plug-In . SVG Version: 6.00 Build 0)  -->
<svg version="1.1" id="Layer_1" xmlns="http://www.w3.org/2000/svg" xmlns:xlink="http://www.w3.org/1999/xlink" x="0px" y="0px"
	 viewBox="0 0 200 100" style="enable-background:new 0 0 200 100;" xml:space="preserve">
<g>
	<path id="path3009" d="M72.3,34.6v31.4h11.2V54.9h4.7c4.8,0,13-1.8,13-10.6c0-4.4-3.5-9.7-10.8-9.7L72.3,34.6z M83.3,40.5h3.8
		c2.3,0,3.7,2.2,3.7,4.2c0,2.3-1.7,4.1-3.6,4.1h-3.9V40.5z"/>
	<path id="path3782" d="M102.8,66.1V34.6h25v6.7h-13.8v5.5h12.6v6.7h-12.6v5.9h13.9v6.6H102.8z"/>
	<path id="path3784" d="M132.6,66.1V34.6h9.4l13.3,15.8l0.1-15.8h9.5v31.5h-8.7l-13.1-16v16H132.6z"/>
	<path id="path3786" d="M47,33.9c-7.1,1.7-11.9,7.4-12,15.6c-0.2,10,6.3,16.5,17.1,16.6c9.8,0.1,17.1-5.3,17.1-16.6
		c0-9.2-5.7-14-12.2-15.5C57,34,47,33.9,47,33.9L47,33.9z M52,42.8c2.9,0,6.2,1.9,6.2,6.8c0,4.8-2.5,7.1-6.1,7c-4,0-6-2.8-6-7
		C46.2,45.5,48.6,42.8,52,42.8z"/>
</g>
</svg>
