<?xml version="1.0" encoding="utf-8"?>
<!-- Generator: Adobe Illustrator 19.2.1, SVG Export Plug-In . SVG Version: 6.00 Build 0)  -->
<svg version="1.1" id="Layer_1" xmlns="http://www.w3.org/2000/svg" xmlns:xlink="http://www.w3.org/1999/xlink" x="0px" y="0px"
	 viewBox="0 0 100 100" style="enable-background:new 0 0 100 100;" xml:space="preserve">
<style type="text/css">
	.st0{fill-rule:evenodd;clip-rule:evenodd;fill:#010101;}
</style>
<g id="Shape_1">
	<path class="st0" d="M75.1,16.3H65v-0.1c0-1.3-1.1-2.4-2.4-2.4h-6.3v-0.1c0-2-1.7-3.7-3.7-3.7h-5c-2,0-3.7,1.7-3.7,3.7v0.1h-6.3
		c-1.3,0-2.4,1.1-2.4,2.4v0.1H24.9c-3.4,0-6.2,2.8-6.2,6.2v61.4c0,3.4,2.8,6.2,6.2,6.2h50.1c3.4,0,6.2-2.8,6.2-6.2V22.4
		C81.2,19,78.5,16.3,75.1,16.3z M46.2,13.7c0-0.7,0.6-1.3,1.3-1.3h5c0.7,0,1.3,0.6,1.3,1.3v0.1L46.2,13.7L46.2,13.7z M37.4,16.2
		C37.4,16.1,37.4,16.1,37.4,16.2l25.1-0.1c0,0,0.1,0,0.1,0.1v1.2c0,0,0,0,0,0c0,0,0,0,0,0v2.5c0,2.1-1.7,3.8-3.8,3.8H41.2
		c-2.1,0-3.8-1.7-3.8-3.8V16.2z M36.2,23.6C36.2,23.6,36.2,23.6,36.2,23.6c1.2,1.5,3,2.5,5,2.5h17.5c2,0,3.8-1,5-2.5c0,0,0,0,0,0h10
		c0,0,0.1,0,0.1,0.1v58.9c0,0,0,0.1-0.1,0.1H26.2c0,0-0.1,0-0.1-0.1V23.7c0,0,0-0.1,0.1-0.1H36.2z M78.9,83.8c0,2.1-1.7,3.8-3.8,3.8
		H24.9c-2.1,0-3.8-1.7-3.8-3.8V22.4c0-2.1,1.7-3.8,3.8-3.8H35v1.3c0,0.5,0.1,0.9,0.1,1.3h-9c-1.3,0-2.4,1.1-2.4,2.4v58.9
		c0,1.3,1.1,2.4,2.4,2.4h47.6c1.3,0,2.4-1.1,2.4-2.4V23.7c0-1.3-1.1-2.4-2.4-2.4h-9c0.1-0.4,0.1-0.9,0.1-1.3v-1.3h10.1
		c2.1,0,3.8,1.7,3.8,3.8V83.8z M32.6,43.7h9.7c0.7,0,1.3-0.6,1.3-1.3v-9.7c0-0.7-0.6-1.3-1.3-1.3h-9.7c-0.7,0-1.3,0.6-1.3,1.3v9.7
		C31.3,43.1,31.9,43.7,32.6,43.7z M33.6,33.6h7.7v7.7h-7.7V33.6z M32.6,76.2h9.7c0.7,0,1.3-0.6,1.3-1.3v-9.7c0-0.7-0.6-1.3-1.3-1.3
		h-9.7c-0.7,0-1.3,0.6-1.3,1.3v9.7C31.3,75.6,31.9,76.2,32.6,76.2z M33.6,66.2h7.7v7.7h-7.7V66.2z M33.7,59.9h7.5
		c1.3,0,2.4-1.1,2.4-2.4v-1.3c0-0.6-0.5-1.2-1.2-1.2c-0.6,0-1.2,0.5-1.2,1.2v1.3c0,0,0,0.1-0.1,0.1h-7.5c0,0-0.1,0-0.1-0.1V50
		c0,0,0-0.1,0.1-0.1h7.5c0,0,0.1,0,0.1,0.1v0.8l-2.6,2.6L37,51.7c-0.5-0.5-1.2-0.5-1.7,0c-0.5,0.5-0.5,1.2,0,1.7l2.5,2.5
		c0.2,0.2,0.5,0.3,0.8,0.3c0.3,0,0.6-0.1,0.8-0.3l3.8-3.8c0,0,0,0,0,0l2.5-2.5c0.5-0.5,0.5-1.2,0-1.7c-0.5-0.5-1.2-0.5-1.7,0
		l-0.8,0.8c-0.4-0.7-1.2-1.2-2.1-1.2h-7.5c-1.3,0-2.4,1.1-2.4,2.4v7.5C31.3,58.9,32.4,59.9,33.7,59.9z M47.5,34.9h3.8
		c0.6,0,1.2-0.5,1.2-1.2c0-0.6-0.5-1.2-1.2-1.2h-3.8c-0.6,0-1.2,0.5-1.2,1.2C46.3,34.4,46.8,34.9,47.5,34.9z M47.5,39.9h18.8
		c0.6,0,1.2-0.5,1.2-1.2c0-0.6-0.5-1.2-1.2-1.2H47.5c-0.6,0-1.2,0.5-1.2,1.2C46.3,39.4,46.8,39.9,47.5,39.9z M47.5,52.4H60
		c0.6,0,1.2-0.5,1.2-1.2c0-0.6-0.5-1.2-1.2-1.2H47.5c-0.6,0-1.2,0.5-1.2,1.2C46.3,51.9,46.8,52.4,47.5,52.4z M47.5,57.4h18.8
		c0.6,0,1.2-0.5,1.2-1.2c0-0.6-0.5-1.2-1.2-1.2H47.5c-0.6,0-1.2,0.5-1.2,1.2C46.3,56.9,46.8,57.4,47.5,57.4z M47.5,68.7h5
		c0.6,0,1.2-0.5,1.2-1.2c0-0.6-0.5-1.2-1.2-1.2h-5c-0.6,0-1.2,0.5-1.2,1.2C46.3,68.2,46.8,68.7,47.5,68.7z M47.5,73.7h18.8
		c0.6,0,1.2-0.5,1.2-1.2c0-0.6-0.5-1.2-1.2-1.2H47.5c-0.6,0-1.2,0.5-1.2,1.2C46.3,73.2,46.8,73.7,47.5,73.7z"/>
</g>
</svg>
