<?xml version="1.0" encoding="utf-8"?>
<!-- Generator: Adobe Illustrator 19.2.1, SVG Export Plug-In . SVG Version: 6.00 Build 0)  -->
<svg version="1.1" id="Layer_1" xmlns="http://www.w3.org/2000/svg" xmlns:xlink="http://www.w3.org/1999/xlink" x="0px" y="0px"
	 viewBox="0 0 450 125.5" style="enable-background:new 0 0 450 125.5;" xml:space="preserve">
<style type="text/css">
	.st0{fill:#FBB03B;}
	.st1{fill:#FFFFFF;}
	.st2{fill:#888888;}
	.st3{fill:#94C7EB;}
</style>
<g>
	<g>
		<path class="st0" d="M191.7,70c2.4-2.2,3.8-2.9,5.8-8c3.6-9.3-2.9-15.7,0.7-25.3c0.4-1.1,5.2-11.7,12.3-13.2
			c3.1-0.6,5.2,0,6.8,1.7c1.2-1.3,3.6-2.4,7.2-1.7c7.5,1.5,11.6,11.2,12.1,13.3c3.1,12.1-1.4,14.4-0.9,23.4
			c0.4,7.2,7.5,10.1,8.2,10.1c-5.7,2.2-15.7,8.2-28.5,7.7C202.8,77.6,197.3,72.6,191.7,70z"/>
	</g>
	<g>
		<path class="st1" d="M209.9,60.1c0,0,1.3,10.2-3.3,12.4c-4.6,2.2-15.9,0.8-16.1,23.8c-0.1,11.5-0.1,22.1-0.1,22.1h54
			c0,0,0.3-11.9,0.2-19.4c-0.9-17.3-0.9-21.5-15-25.9c-4.8-1.5-6.2-2.6-6.4-12.7L209.9,60.1z"/>
	</g>
	<g>
		<path class="st2" d="M209.9,60.1l-0.3,0c0,0,0,0.1,0,0.2c0,0.5,0.1,1.6,0.1,2.9c0,1.6-0.1,3.5-0.6,5.2c-0.2,0.8-0.6,1.6-1,2.3
			c-0.4,0.6-1,1.2-1.7,1.5c-1.1,0.5-2.7,0.9-4.4,1.4c-2.6,0.8-5.5,2.1-7.9,5.4c-2.3,3.3-4,8.6-4.1,17.2c-0.1,11.5-0.1,22.1-0.1,22.1
			v0.3h54.6l0-0.3c0,0,0.2-8.6,0.2-15.8c0-1.3,0-2.6,0-3.7l0,0l0,0c-0.5-8.7-0.7-14.1-2.6-17.9c-1-1.9-2.4-3.5-4.4-4.8
			c-2-1.3-4.7-2.4-8.2-3.5c-1.2-0.4-2.2-0.7-2.9-1.2c-1.1-0.7-1.9-1.6-2.4-3.2c-0.5-1.7-0.8-4.2-0.9-8l0-0.3l-14-0.3l0,0.4
			L209.9,60.1l0,0.3l13.3,0.3l0-0.3l-0.3,0c0.1,5.1,0.5,7.9,1.5,9.7c0.5,0.9,1.2,1.5,2,2c0.8,0.5,1.9,0.8,3.1,1.2
			c3.5,1.1,6.1,2.2,8.1,3.4c2.9,1.9,4.4,4.1,5.3,7.6c0.9,3.5,1.1,8.1,1.4,14.6l0.3,0l-0.3,0c0,1.1,0,2.4,0,3.7
			c0,3.6-0.1,7.5-0.1,10.6c0,1.5-0.1,2.8-0.1,3.7c0,0.9,0,1.4,0,1.4l0.3,0v-0.3h-54v0.3h0.3c0,0,0-0.7,0-1.8c0-3.5,0-11.6,0.1-20.3
			c0.1-5.7,0.8-9.9,2-13c1.7-4.6,4.3-6.8,6.9-8.1c2.6-1.3,5.2-1.6,7.1-2.4c0.8-0.4,1.4-1,1.9-1.7c1.5-2.2,1.7-5.4,1.7-7.8
			c0-1.8-0.2-3.2-0.2-3.2L209.9,60.1l0,0.3L209.9,60.1z"/>
	</g>
	<g>
		<path class="st3" d="M204.6,73.2c-4.6,2.2-13.7,2.7-14,10.3c-0.4,11.5-0.3,35-0.3,35h54c0,0,0.5-27,0.4-34.5
			c0.2-4.8-6-8.1-15.2-10.9C225.2,78.5,214.4,90.4,204.6,73.2z"/>
	</g>
	<g>
		<path class="st2" d="M204.6,73.2l-0.1-0.3c-2.2,1.1-5.7,1.8-8.6,3.1c-1.5,0.7-2.8,1.5-3.8,2.7c-1,1.2-1.7,2.7-1.7,4.7
			c-0.2,6.4-0.3,16.3-0.3,24c0,6.2,0,11,0,11l0,0.3h54.6l0-0.3c0,0,0.4-21.8,0.4-31.7c0-1.1,0-2.1,0-2.8l-0.3,0l0.3,0
			c0-0.1,0-0.2,0-0.2c0-1.2-0.4-2.4-1.2-3.4c-1.1-1.6-3-2.9-5.4-4.1c-2.4-1.2-5.4-2.3-8.8-3.4l-0.2-0.1l-0.1,0.2
			c-1.4,1.7-3.3,3.9-5.6,5.7c-2.3,1.8-5,3.2-7.8,3.2c-1.8,0-3.6-0.5-5.5-1.9c-1.9-1.4-3.8-3.6-5.7-6.9l-0.1-0.3l-0.3,0.1L204.6,73.2
			l-0.3,0.2c1.9,3.4,3.9,5.6,5.8,7.1c2,1.4,3.9,2,5.8,2c3,0,5.8-1.5,8.2-3.4c2.4-1.9,4.3-4.2,5.7-5.8l-0.2-0.2l-0.1,0.3
			c4.5,1.4,8.3,2.9,10.9,4.6c1.3,0.9,2.3,1.8,3,2.7c0.7,1,1,2,1,3.1c0,0.1,0,0.1,0,0.2l0,0l0,0c0,0.8,0,1.7,0,2.8
			c0,4.9-0.1,12.8-0.2,19.5c-0.1,3.3-0.1,6.4-0.1,8.6c0,2.2-0.1,3.6-0.1,3.6l0.3,0v-0.3h-54v0.3l0.3,0c0,0,0-1.2,0-3.1s0-4.7,0-7.8
			c0-7.7,0.1-17.6,0.3-24c0.1-1.8,0.7-3.2,1.6-4.3c1.4-1.6,3.5-2.7,5.8-3.4c2.3-0.8,4.6-1.4,6.4-2.2L204.6,73.2l-0.3,0.2L204.6,73.2
			z"/>
	</g>
	<g>
		<ellipse class="st1" cx="216.4" cy="51.1" rx="11.5" ry="14.4"/>
	</g>
	<g>
		<path class="st2" d="M227.9,51.1h-0.3c0,3.9-1.3,7.4-3.3,10c-2,2.5-4.8,4.1-7.9,4.1c-3.1,0-5.9-1.5-7.9-4.1c-2-2.5-3.3-6.1-3.3-10
			c0-3.9,1.3-7.4,3.3-10c2-2.5,4.8-4.1,7.9-4.1c3.1,0,5.9,1.5,7.9,4.1c2,2.5,3.3,6.1,3.3,10H227.9h0.3c0-4-1.3-7.7-3.4-10.4
			c-2.1-2.7-5.1-4.3-8.4-4.3c-3.3,0-6.3,1.7-8.4,4.3c-2.1,2.7-3.4,6.3-3.4,10.4c0,4,1.3,7.7,3.4,10.4c2.1,2.7,5.1,4.3,8.4,4.3
			c3.3,0,6.3-1.7,8.4-4.3c2.1-2.7,3.4-6.3,3.4-10.4H227.9z"/>
	</g>
	<g>
		<path class="st2" d="M221.3,28.1c1.2-0.8,2.3-1.1,3.2-1.1c0.9,0,1.6,0.3,2.3,0.7c2.1,1.3,3.5,4.1,4.3,5.6
			c1.6,3.1,2.6,7.2,2.6,10.9c0,2-0.3,3.8-0.9,5.3c-0.6,1.4-1.2,3.8-1.2,6.8c0,1.8,0.2,3.8,0.8,5.8l0.6-0.2c-0.6-2-0.8-3.9-0.8-5.7
			c0-2.8,0.6-5.2,1.1-6.5c0.6-1.6,0.9-3.5,0.9-5.5c0-3.7-1-7.9-2.6-11.1c-0.5-1-1.3-2.6-2.5-4c-0.6-0.7-1.3-1.4-2-1.8
			c-0.8-0.5-1.7-0.8-2.6-0.8c-1.1,0-2.3,0.4-3.5,1.2L221.3,28.1L221.3,28.1z"/>
	</g>
	<g>
		<path class="st0" d="M216.8,32.6c0.8,7.3-10.4,13.6-15.6,12.5"/>
	</g>
	<g>
		<path class="st2" d="M216.5,32.7c0,0.2,0,0.5,0,0.7c0,1.5-0.5,3-1.4,4.4c-1.3,2.1-3.5,3.9-5.8,5.2c-2.3,1.3-4.8,2-6.7,2
			c-0.5,0-0.9,0-1.3-0.1l-0.1,0.6c0.4,0.1,0.9,0.1,1.4,0.1c2.8,0,6.4-1.4,9.4-3.6c1.5-1.1,2.8-2.4,3.7-3.9c0.9-1.5,1.5-3.1,1.5-4.7
			c0-0.2,0-0.5,0-0.7L216.5,32.7L216.5,32.7z"/>
	</g>
	<g>
		<path class="st0" d="M215.9,31.6c-0.5,7.7,4.6,14.4,14.1,13.9"/>
	</g>
	<g>
		<path class="st2" d="M215.6,31.5c0,0.4,0,0.7,0,1.1c0,3.6,1.2,6.9,3.5,9.3c2.3,2.4,5.7,3.9,10.1,3.9c0.3,0,0.6,0,0.9,0l0-0.6
			c-0.3,0-0.6,0-0.8,0c-4.2,0-7.4-1.4-9.6-3.7c-2.2-2.3-3.4-5.4-3.4-8.8c0-0.3,0-0.7,0-1.1L215.6,31.5L215.6,31.5z"/>
	</g>
	<g>
		<polyline class="st1" points="248.6,123.4 248.6,116.9 325.8,116.9 325.8,123.4 		"/>
	</g>
	<g>
		<polygon class="st2" points="248.9,123.4 248.9,117.3 325.5,117.3 325.5,123.4 326.1,123.4 326.1,116.6 248.3,116.6 248.3,123.4 
			248.9,123.4 		"/>
	</g>
	<g>
		<polyline class="st1" points="4.7,123.7 4.7,119.7 69.1,119.7 69.1,123.7 		"/>
	</g>
	<g>
		<polygon class="st2" points="5,123.7 5,120 68.8,120 68.8,123.7 69.4,123.7 69.4,119.3 4.4,119.3 4.4,123.7 5,123.7 		"/>
	</g>
	<g>
		<path class="st2" d="M203.1,79.2c0.6,2.2,2.6,4.6,5.1,6.4c2.6,1.8,5.8,3.1,9.2,3.2c0.1,0,0.2,0,0.2,0c3.9,0,7.1-2.1,9.4-4.5
			c1.2-1.2,2.1-2.4,2.8-3.4c0.7-1,1.1-1.9,1.3-2.4l-0.6-0.2c-0.2,0.4-0.6,1.3-1.3,2.3c-1,1.5-2.6,3.4-4.6,5c-2,1.5-4.4,2.7-7.1,2.7
			c-0.1,0-0.1,0-0.2,0c-3.2-0.1-6.3-1.3-8.8-3.1c-2.5-1.8-4.3-4-4.9-6.1L203.1,79.2L203.1,79.2z"/>
	</g>
	<g>
		<path class="st1" d="M182.9,125.5V98.6c0-2.5,2-4.5,4.5-4.5h60.3c2.5,0,4.5,2,4.5,4.5v26.9"/>
	</g>
	<g>
		<path class="st2" d="M183.2,125.5V98.6c0-1.2,0.5-2.2,1.2-3c0.8-0.8,1.8-1.2,3-1.2h60.3c1.2,0,2.2,0.5,3,1.2
			c0.8,0.8,1.2,1.8,1.2,3v26.9h0.6V98.6c0-2.7-2.2-4.8-4.8-4.8h-60.3c-2.7,0-4.8,2.2-4.8,4.8v26.9H183.2L183.2,125.5z"/>
	</g>
	<g>
		<path class="st2" d="M187.4,104.3c0,0,0-3.6,0-3.6c0-0.6,0-1,0.1-1.4c0.1-0.5,0.3-0.8,0.7-1c0.4-0.2,1-0.3,2-0.3
			c0.2,0,33.1,0,33.1,0l0-0.6c0,0-8.2,0-16.5,0c-8.2,0-16.5,0-16.6,0c-0.7,0-1.2,0-1.6,0.2c-0.7,0.2-1.2,0.5-1.5,1.1
			c-0.3,0.5-0.4,1.2-0.4,2.1c0,0.1,0,3.6,0,3.6H187.4L187.4,104.3z"/>
	</g>
	<g>
		<path class="st2" d="M248.9,111.3c0,0,0-10.5,0-10.6c0-0.6,0-1.1-0.1-1.5c-0.2-0.6-0.5-1.2-1.1-1.4c-0.6-0.3-1.3-0.4-2.3-0.4
			c-0.2,0-2.1,0-2.1,0l0,0.6c0,0,1.9,0,2.1,0c0.6,0,1.1,0,1.5,0.1c0.6,0.1,0.9,0.4,1.1,0.7c0.2,0.4,0.3,1,0.3,1.8
			c0,0.1,0,10.6,0,10.6H248.9L248.9,111.3z"/>
	</g>
	<g>
		<path class="st2" d="M187.4,109.5c0-1,0-2,0-3h-0.6c0,1,0,2,0,3H187.4L187.4,109.5z"/>
	</g>
	<g>
		<path class="st0" d="M219.3,111.1c-0.2-0.1-0.4-0.1-0.5-0.3c-0.8-0.6-1.4-1.3-1.3-1c0,0.1-0.1,1.1-1,1.5c-1.3,0.6-2.3,1.6-2.6,3
			c-0.4,2.2,1.1,4.3,3.4,4.6c2.3,0.4,4.5-1.1,5-3.3C222.7,113.6,221.4,111.6,219.3,111.1z"/>
	</g>
	<g>
		<path class="st2" d="M219.3,111.1l0.1-0.3c-0.2,0-0.3-0.1-0.4-0.2c-0.3-0.2-0.6-0.5-0.9-0.7c-0.1-0.1-0.2-0.2-0.3-0.3l-0.1-0.1
			l-0.1,0l-0.1,0c0,0-0.1,0-0.1,0c-0.1,0-0.2,0-0.2,0.1c-0.1,0.1-0.1,0.2-0.1,0.2c0,0.1,0,0.1,0,0.2l0,0.1l0.2-0.1l-0.3,0
			c0,0,0,0,0,0.1l0.2-0.1l-0.3,0l0.1,0l-0.1,0l0,0l0.1,0l-0.1,0c0,0,0,0.1,0,0.2c0,0.1-0.1,0.3-0.2,0.5c-0.1,0.2-0.3,0.3-0.5,0.4
			c-1.4,0.6-2.5,1.7-2.8,3.2c-0.1,0.3-0.1,0.5-0.1,0.8c0,2.1,1.6,3.9,3.7,4.2c0.3,0,0.5,0.1,0.8,0.1c2.2,0,4.1-1.5,4.5-3.6
			c0.1-0.3,0.1-0.5,0.1-0.8c0-1.9-1.3-3.6-3.3-4.1L219.3,111.1l-0.1,0.3c1.7,0.5,2.8,1.9,2.8,3.5c0,0.2,0,0.5-0.1,0.7
			c-0.4,1.8-2,3.1-3.9,3.1c-0.2,0-0.5,0-0.7-0.1c-1.9-0.3-3.2-1.9-3.2-3.6c0-0.2,0-0.5,0.1-0.7c0.3-1.3,1.2-2.3,2.4-2.8
			c0.5-0.2,0.8-0.6,0.9-0.9c0.1-0.2,0.1-0.3,0.2-0.5c0-0.1,0.1-0.2,0.1-0.3l0-0.1c0,0,0-0.1,0-0.1l0,0l-0.1,0.1l0.2-0.1l0,0
			l-0.1,0.1l0.2-0.1l-0.3,0.1h0.3c0-0.1,0-0.1,0-0.1l-0.3,0.1h0.3h-0.3l0.2,0.2c0.1-0.1,0.1-0.2,0.1-0.2h-0.3l0.2,0.2l-0.2-0.2v0.3
			c0,0,0.2,0,0.2-0.1l-0.2-0.2v0.3v-0.3l-0.1,0.3c0,0,0,0,0.1,0v-0.3l-0.1,0.3l0.1-0.2l-0.1,0.2l0,0l0.1-0.2l-0.1,0.2
			c0,0,0.1,0.1,0.1,0.1c0.2,0.2,0.7,0.6,1.1,0.9c0.2,0.1,0.4,0.3,0.7,0.3L219.3,111.1z"/>
	</g>
	<g>
		<path class="st1" d="M219.7,115.5c0.5,0.1,0.8-0.4,1.6-0.7c0.9-0.1,0.8,2.1,0,2.1c-0.5,0-0.7-1.1-1.4-1c-0.5,0-1.3,1.6-2.9,1.3
			c-1.5-0.3-0.9-2.3,0.5-2.4C218.4,114.8,219.3,115.5,219.7,115.5z"/>
	</g>
	<g>
		<path class="st2" d="M219.7,115.5l0,0.3l0.1,0c0.2,0,0.3,0,0.5-0.1c0.4-0.2,0.7-0.5,1.1-0.6l-0.1-0.3l0,0.3l0,0l0.1,0
			c0,0,0.1,0.1,0.1,0.2c0,0.1,0.1,0.3,0.1,0.4c0,0.2-0.1,0.5-0.1,0.7c0,0.1-0.1,0.1-0.1,0.2l-0.1,0.1l0,0c0,0,0,0-0.1-0.1
			c-0.1-0.1-0.2-0.3-0.4-0.5c-0.1-0.1-0.2-0.2-0.3-0.3c-0.1-0.1-0.3-0.1-0.5-0.1l-0.1,0l0,0.3l0-0.3l0,0c-0.1,0-0.2,0-0.3,0.1
			c-0.2,0.1-0.3,0.2-0.4,0.3c-0.2,0.2-0.5,0.4-0.8,0.6c-0.3,0.2-0.6,0.3-1,0.3c-0.1,0-0.2,0-0.3,0c-0.3-0.1-0.4-0.2-0.5-0.3
			c-0.1-0.1-0.1-0.2-0.1-0.4c0-0.2,0.1-0.5,0.3-0.7c0.2-0.2,0.5-0.4,0.8-0.4l0-0.3l0,0.3l0.1,0c0.4,0,0.8,0.1,1.2,0.3
			c0.2,0.1,0.3,0.2,0.5,0.2c0.2,0.1,0.3,0.1,0.5,0.1L219.7,115.5l0,0.3L219.7,115.5l0-0.3l-0.1,0c-0.2-0.1-0.4-0.2-0.8-0.4
			c-0.4-0.2-0.8-0.3-1.3-0.3l-0.1,0l0,0l0,0c-0.5,0-0.9,0.3-1.2,0.6c-0.3,0.3-0.5,0.7-0.5,1.1c0,0.3,0.1,0.6,0.3,0.8
			c0.2,0.2,0.5,0.4,0.9,0.5c0.2,0,0.3,0,0.5,0c0.8,0,1.4-0.4,1.8-0.7c0.2-0.2,0.4-0.3,0.5-0.5c0.1-0.1,0.1-0.1,0.2-0.1l0,0l0,0
			l0-0.1v0.1l0,0l0-0.1v0.1v-0.1l0,0.1l0,0v-0.1l0,0.1l0,0l0,0l0,0c0.1,0,0.1,0,0.2,0.1c0.1,0.1,0.2,0.3,0.4,0.5
			c0.1,0.1,0.2,0.2,0.3,0.3c0.1,0.1,0.3,0.2,0.4,0.2l0.1,0c0.2,0,0.3-0.1,0.5-0.2c0.2-0.2,0.3-0.4,0.4-0.6c0.1-0.2,0.1-0.5,0.1-0.7
			c0-0.3,0-0.6-0.2-0.8c-0.1-0.1-0.2-0.2-0.3-0.3c-0.1-0.1-0.3-0.1-0.4-0.1l-0.1,0l0,0l0,0c-0.4,0.1-0.7,0.3-0.9,0.5
			c-0.1,0.1-0.2,0.1-0.3,0.2c-0.1,0-0.1,0-0.2,0l0,0l0,0l0,0L219.7,115.5z"/>
	</g>
	<g>
		<path class="st3" d="M278.8,68.9c-3.7-7-2.6-12.7,0.2-20.2c0.3-0.8,1.7-4.8,5.8-7.7c2-1.4,4.2-1.7,5.4-0.4c0.9-1,3.9-3.3,10.1-2.1
			c5.9,1.2,9.1,8.8,9.5,10.4c2.4,9.5,2.5,11.1,0.3,17.9c-1.9,5.8-6.5,7.2-16.5,6.8C283.4,73.3,280.7,72.6,278.8,68.9z"/>
	</g>
	<g>
		<path class="st1" d="M288.7,67.1c0,0,1,7.9-2.6,9.7s-12.4,0.6-12.6,18.5c-0.1,9-0.1,17.3-0.1,17.3h42.2c0,0,0.3-9.3,0.2-15.2
			c-0.7-13.5-0.7-16.8-11.7-20.2c-3.8-1.2-4.8-2-5-9.9L288.7,67.1z"/>
	</g>
	<g>
		<path class="st2" d="M288.7,67.1l-0.3,0c0,0,0,0.1,0,0.2c0,0.4,0.1,1.2,0.1,2.3c0,1.2-0.1,2.7-0.5,4c-0.2,0.7-0.4,1.3-0.8,1.7
			c-0.3,0.5-0.8,0.9-1.3,1.1c-0.8,0.4-2.1,0.7-3.4,1.1c-2,0.6-4.4,1.7-6.2,4.3c-1.8,2.6-3.1,6.7-3.2,13.5c-0.1,9-0.1,17.3-0.1,17.3
			v0.3h42.8l0-0.3c0,0,0.2-6.7,0.2-12.3c0-1,0-2,0-2.9l0,0l0,0c-0.4-6.8-0.5-11-2-14c-0.8-1.5-1.9-2.7-3.4-3.7
			c-1.6-1-3.7-1.9-6.4-2.7c-0.9-0.3-1.7-0.6-2.3-0.9c-0.9-0.5-1.4-1.2-1.8-2.5c-0.4-1.3-0.6-3.3-0.7-6.2l0-0.3l-11-0.2l0,0.4
			L288.7,67.1l0,0.3l10.4,0.2l0-0.3l-0.3,0c0.1,4,0.4,6.2,1.2,7.6c0.4,0.7,0.9,1.2,1.6,1.6c0.7,0.4,1.5,0.7,2.4,1
			c2.7,0.8,4.8,1.7,6.3,2.7c2.3,1.5,3.4,3.2,4.1,5.9c0.7,2.7,0.8,6.3,1.1,11.4l0.3,0l-0.3,0c0,0.9,0,1.9,0,2.9c0,2.8,0,5.9-0.1,8.2
			c0,1.2,0,2.2-0.1,2.9c0,0.7,0,1.1,0,1.1l0.3,0v-0.3h-42.2v0.3h0.3c0,0,0-0.5,0-1.4c0-2.7,0-9.1,0.1-15.8c0-4.5,0.6-7.7,1.5-10.1
			c1.3-3.6,3.3-5.3,5.4-6.2c2-1,4.1-1.2,5.5-1.9c0.6-0.3,1.1-0.8,1.5-1.3c1.1-1.7,1.4-4.2,1.4-6.1c0-1.4-0.1-2.5-0.1-2.5L288.7,67.1
			l0,0.3L288.7,67.1z"/>
	</g>
	<g>
		<path class="st0" d="M284.6,77.3c-3.6,1.7-10.7,2.1-10.9,8c-0.3,9-0.2,27.3-0.2,27.3h42.2c0,0,0.4-21,0.3-26.9
			c0.2-3.7-4.7-6.3-11.9-8.5C300.6,81.4,292.2,90.8,284.6,77.3z"/>
	</g>
	<g>
		<path class="st2" d="M284.6,77.3l-0.1-0.3c-1.7,0.8-4.4,1.4-6.7,2.4c-1.1,0.5-2.2,1.2-3,2.2c-0.8,0.9-1.3,2.2-1.4,3.7
			c-0.2,5-0.2,12.7-0.2,18.7c0,4.9,0,8.6,0,8.6l0,0.3h42.8l0-0.3c0,0,0.3-17,0.3-24.7c0-0.9,0-1.6,0-2.2l-0.3,0l0.3,0
			c0-0.1,0-0.1,0-0.2c0-1-0.3-1.9-0.9-2.7c-0.9-1.2-2.4-2.3-4.3-3.3c-1.9-1-4.3-1.8-6.9-2.6l-0.2-0.1l-0.1,0.2
			c-1.1,1.3-2.6,3.1-4.4,4.5c-1.8,1.4-3.9,2.5-6,2.5c-1.4,0-2.8-0.4-4.2-1.5c-1.4-1.1-2.9-2.8-4.4-5.4l-0.1-0.3l-0.3,0.1L284.6,77.3
			l-0.3,0.2c1.5,2.6,3,4.4,4.6,5.5c1.5,1.1,3.1,1.6,4.6,1.6c2.4,0,4.6-1.2,6.4-2.6c1.9-1.5,3.4-3.3,4.5-4.6l-0.2-0.2l-0.1,0.3
			c3.5,1.1,6.5,2.2,8.5,3.6c1,0.7,1.8,1.4,2.3,2.1c0.5,0.7,0.8,1.5,0.8,2.3l0,0.2l0,0l0,0c0,0.6,0,1.3,0,2.2c0,3.8-0.1,10-0.2,15.2
			c0,2.6-0.1,5-0.1,6.7c0,1.7-0.1,2.8-0.1,2.8l0.3,0v-0.3h-42.2v0.3l0.3,0c0,0,0-0.9,0-2.5c0-1.5,0-3.7,0-6.1c0-6,0-13.8,0.2-18.7
			c0.1-1.4,0.5-2.5,1.2-3.3c1.1-1.3,2.7-2.1,4.5-2.7c1.8-0.6,3.6-1.1,5-1.7L284.6,77.3l-0.3,0.2L284.6,77.3z"/>
	</g>
	<g>
		<path class="st1" d="M302.7,60.7c-1.2,6.1-4,11.2-9,11.2s-8.3-5.1-9-11.2c-0.7-5.8,1.3-8.1,4.2-8.9c1.3-0.4,3.2-3,4.7-3
			c1.7,0,3.2,2.7,4.7,3.2C301.6,52.9,303.8,55.3,302.7,60.7z"/>
	</g>
	<g>
		<path class="st2" d="M302.7,60.7l-0.3-0.1c-0.6,3-1.6,5.8-3,7.8c-1.4,2-3.3,3.2-5.6,3.2c-2.4,0-4.4-1.2-5.9-3.2
			c-1.5-2-2.5-4.7-2.8-7.8c-0.1-0.8-0.1-1.4-0.1-2.1c0-2.1,0.4-3.5,1.2-4.6c0.7-1,1.7-1.6,3-2c0.4-0.1,0.8-0.4,1.2-0.7
			c0.6-0.5,1.2-1.1,1.8-1.5c0.6-0.5,1.2-0.8,1.6-0.8c0.3,0,0.7,0.1,1.1,0.4c0.6,0.4,1.1,0.9,1.7,1.5c0.6,0.5,1.2,1.1,1.9,1.3
			c1.2,0.4,2.3,1,3.1,2c0.8,0.9,1.3,2.2,1.3,4c0,0.7-0.1,1.6-0.3,2.5L302.7,60.7l0.3,0.1c0.2-1,0.3-1.8,0.3-2.6
			c0-1.9-0.5-3.3-1.4-4.4c-0.9-1.1-2.1-1.7-3.4-2.2c-0.3-0.1-0.7-0.3-1.1-0.7c-0.6-0.5-1.1-1.1-1.7-1.6c-0.6-0.5-1.3-0.9-2-0.9
			c-0.5,0-0.9,0.2-1.4,0.5c-0.7,0.4-1.3,1-1.9,1.5c-0.6,0.5-1.2,0.9-1.6,1.1c-1.3,0.4-2.5,1.1-3.3,2.2c-0.8,1.1-1.3,2.7-1.3,4.9
			c0,0.7,0,1.4,0.1,2.1c0.4,3.1,1.4,6,3,8.1c1.6,2.1,3.8,3.4,6.4,3.4c2.6,0,4.7-1.4,6.2-3.5c1.5-2.1,2.5-4.9,3.2-8L302.7,60.7z"/>
	</g>
	<g>
		<path class="st1" d="M87.8,69.3c0,0,0.6,4.6-1.5,5.6c-2.1,1-7.2,0.3-7.3,10.8C79,91,79,95.8,79,95.8h24.5c0,0,0.2-5.4,0.1-8.8
			c-0.4-7.9-0.4-9.8-6.8-11.8c-2.2-0.7-2.8-1.2-2.9-5.8L87.8,69.3z"/>
	</g>
	<g>
		<path class="st2" d="M87.8,69.3l-0.3,0c0,0,0,0,0,0.1c0,0.2,0.1,0.7,0.1,1.3c0,0.7-0.1,1.6-0.3,2.3c-0.1,0.4-0.3,0.7-0.4,1
			c-0.2,0.3-0.4,0.5-0.7,0.6c-0.5,0.2-1.2,0.4-2,0.6c-1.2,0.4-2.6,1-3.7,2.5c-1.1,1.5-1.8,4-1.9,7.9c-0.1,5.2-0.1,10.1-0.1,10.1v0.3
			h25.2l0-0.3c0,0,0.1-3.9,0.1-7.2c0-0.6,0-1.2,0-1.7l0,0l0,0c-0.2-3.9-0.3-6.4-1.2-8.2c-0.4-0.9-1.1-1.6-2.1-2.2
			c-0.9-0.6-2.2-1.1-3.8-1.6c-0.5-0.2-1-0.3-1.3-0.5c-0.5-0.3-0.8-0.6-1-1.4c-0.2-0.7-0.3-1.9-0.4-3.6l0-0.3L87.5,69l0,0.4
			L87.8,69.3l0,0.3l6,0.1l0-0.3l-0.3,0c0.1,2.3,0.2,3.6,0.7,4.5c0.2,0.4,0.6,0.8,1,1c0.4,0.2,0.9,0.4,1.4,0.6c1.6,0.5,2.8,1,3.6,1.5
			c1.3,0.8,1.9,1.8,2.3,3.4c0.4,1.5,0.5,3.6,0.6,6.6l0.3,0l-0.3,0c0,0.5,0,1.1,0,1.7c0,1.6,0,3.4-0.1,4.8c0,1.4-0.1,2.3-0.1,2.3
			l0.3,0v-0.3H79v0.3h0.3c0,0,0-1.2,0-3.1c0-1.9,0-4.4,0.1-7c0-2.6,0.4-4.5,0.9-5.8c0.8-2.1,1.9-3,3.1-3.6c1.2-0.6,2.3-0.7,3.2-1.1
			c0.4-0.2,0.7-0.5,0.9-0.8c0.7-1,0.8-2.5,0.8-3.6c0-0.8-0.1-1.5-0.1-1.5L87.8,69.3l0,0.3L87.8,69.3z"/>
	</g>
	<g>
		<path class="st0" d="M86.3,75c-2.1,1-7.2,0.3-7.3,10.8C79,91,79,95.8,79,95.8h24.5c0,0,0.2-5.4,0.1-8.8c-0.4-7.9-0.4-9.8-6.8-11.8
			C94.3,79.4,88.4,81.1,86.3,75z"/>
	</g>
	<g>
		<path class="st2" d="M86.3,75l-0.1-0.3c-0.5,0.2-1.2,0.4-2,0.6c-1.2,0.4-2.6,1-3.7,2.5c-1.1,1.5-1.8,4-1.9,7.9
			c-0.1,5.2-0.1,10.1-0.1,10.1v0.3h25.2l0-0.3c0,0,0.1-3.9,0.1-7.2c0-0.6,0-1.2,0-1.7l0,0l0,0c-0.2-3.9-0.3-6.4-1.2-8.2
			c-0.4-0.9-1.1-1.6-2.1-2.2c-0.9-0.6-2.2-1.1-3.8-1.6l-0.2-0.1l-0.1,0.2c-1.3,2.2-3.5,3.6-5.5,3.6c-0.9,0-1.7-0.3-2.5-0.9
			c-0.7-0.6-1.4-1.5-1.8-2.9l-0.1-0.3l-0.3,0.2L86.3,75L86,75.1c0.5,1.5,1.2,2.5,2.1,3.2c0.9,0.7,1.9,1,2.9,1c2.3,0,4.7-1.6,6.1-3.9
			l-0.3-0.2l-0.1,0.3c1.6,0.5,2.8,1,3.6,1.5c1.3,0.8,1.9,1.8,2.3,3.4c0.4,1.5,0.5,3.6,0.6,6.6l0.3,0l-0.3,0c0,0.5,0,1.1,0,1.7
			c0,1.6,0,3.4-0.1,4.8c0,1.4-0.1,2.3-0.1,2.3l0.3,0v-0.3H79v0.3h0.3c0,0,0-1.2,0-3.1c0-1.9,0-4.4,0.1-7c0-2.6,0.4-4.5,0.9-5.8
			c0.8-2.1,1.9-3,3.1-3.6c1.2-0.6,2.3-0.7,3.2-1.1L86.3,75L86,75.1L86.3,75z"/>
	</g>
	<g>
		<path class="st0" d="M97.9,62c-1,3.9-3.3,7.2-7.3,7.2c-4,0-6.7-3.3-7.3-7.2c-0.5-3.8,1.8-8.6,7.6-8.5C95.5,53.6,98.8,58.5,97.9,62
			z"/>
	</g>
	<g>
		<path class="st2" d="M97.9,62l-0.3-0.1c-0.5,1.9-1.3,3.7-2.4,4.9c-1.2,1.3-2.6,2-4.6,2c-1.9,0-3.5-0.8-4.7-2c-1.2-1.3-2-3-2.3-4.9
			c0-0.3-0.1-0.7-0.1-1c0-1.7,0.6-3.5,1.8-4.8c1.2-1.4,2.9-2.3,5.4-2.3l0.2,0l0,0c1.9,0,3.7,1,4.9,2.3c1.2,1.4,2,3.1,2,4.7
			c0,0.4,0,0.8-0.1,1.1L97.9,62l0.3,0.1c0.1-0.4,0.2-0.8,0.2-1.3c0-1.8-0.8-3.6-2.1-5.1c-1.3-1.5-3.2-2.5-5.4-2.5l0,0l-0.2,0
			c-2.6,0-4.6,1-5.9,2.5c-1.3,1.5-1.9,3.4-1.9,5.3c0,0.4,0,0.7,0.1,1.1c0.3,2,1.1,3.9,2.4,5.3c1.3,1.4,3.1,2.2,5.2,2.2
			c2.1,0,3.8-0.9,5-2.2c1.2-1.4,2.1-3.2,2.6-5.2L97.9,62z"/>
	</g>
	<g>
		<path class="st1" d="M96,65.6c-0.7,3.5-2.3,6.5-5.2,6.5c-2.9,0-4.8-2.9-5.2-6.5c-0.4-3.4,0.8-4.7,2.5-5.2c0.8-0.2,1.9-1.7,2.8-1.7
			c1,0,1.8,1.6,2.8,1.8C95.3,61.1,96.7,62.5,96,65.6z"/>
	</g>
	<g>
		<path class="st2" d="M96,65.6l-0.3-0.1c-0.4,1.7-0.9,3.3-1.8,4.5c-0.8,1.1-1.8,1.8-3.2,1.8c-1.3,0-2.4-0.7-3.3-1.8
			c-0.9-1.1-1.4-2.7-1.6-4.4c0-0.4-0.1-0.8-0.1-1.2c0-1.2,0.3-2,0.7-2.6c0.4-0.6,1-0.9,1.6-1.1c0.3-0.1,0.5-0.2,0.7-0.4
			c0.4-0.3,0.7-0.6,1.1-0.9c0.3-0.3,0.7-0.4,0.9-0.4c0.2,0,0.3,0.1,0.5,0.2c0.3,0.2,0.6,0.5,1,0.9c0.3,0.3,0.7,0.6,1.1,0.8
			c0.7,0.2,1.3,0.6,1.7,1.1c0.4,0.5,0.7,1.2,0.7,2.2c0,0.4,0,0.9-0.2,1.4L96,65.6l0.3,0.1c0.1-0.6,0.2-1.1,0.2-1.5
			c0-1.1-0.3-2-0.8-2.6c-0.5-0.6-1.3-1-2-1.3c-0.2-0.1-0.4-0.2-0.6-0.4c-0.3-0.3-0.7-0.6-1-0.9c-0.4-0.3-0.8-0.6-1.3-0.6
			c-0.3,0-0.6,0.1-0.9,0.3c-0.4,0.2-0.8,0.6-1.1,0.9c-0.3,0.3-0.7,0.5-0.9,0.6c-0.8,0.2-1.5,0.6-2,1.3c-0.5,0.7-0.8,1.7-0.8,2.9
			c0,0.4,0,0.8,0.1,1.3c0.2,1.8,0.8,3.5,1.7,4.8c0.9,1.2,2.2,2,3.8,2c1.6,0,2.8-0.8,3.7-2.1c0.9-1.2,1.5-2.9,1.9-4.7l0,0L96,65.6z"
			/>
	</g>
	<g>
		<path class="st2" d="M295.1,40.3c0.7-0.2,1.4-0.3,2-0.3c1.3,0,2.5,0.4,3.5,1.1c1.6,1,2.8,2.6,3.8,4.2c1,1.5,1.6,2.9,1.9,3.6
			c1.2,2.3,2.5,6.2,2.5,10.4c0,2.7-0.5,5.5-2,8.2l0.6,0.3c1.5-2.8,2.1-5.7,2.1-8.5c0-4.3-1.4-8.3-2.6-10.7c-0.2-0.4-0.6-1.2-1.1-2.2
			c-0.8-1.4-1.8-3.2-3.3-4.6c-1.4-1.4-3.3-2.5-5.5-2.5c-0.7,0-1.5,0.1-2.2,0.4L295.1,40.3L295.1,40.3z"/>
	</g>
	<g>
		<path class="st3" d="M290.1,48.8c-0.1,6-4.2,7.5-8.3,6.6"/>
	</g>
	<g>
		<path class="st2" d="M289.8,48.8c0,2.4-0.7,4-1.8,5.1c-1,1-2.5,1.5-4.1,1.5c-0.7,0-1.4-0.1-2.1-0.2l-0.1,0.6
			c0.7,0.2,1.5,0.2,2.2,0.2c1.7,0,3.3-0.5,4.5-1.7c1.2-1.2,1.9-3,2-5.5L289.8,48.8L289.8,48.8z"/>
	</g>
	<g>
		<path class="st3" d="M289.7,44.8c-0.7,8.2,5.5,12.2,13.6,9"/>
	</g>
	<g>
		<path class="st2" d="M289.4,44.7c0,0.4-0.1,0.9-0.1,1.3c0,2.8,0.9,5.1,2.4,6.7c1.5,1.6,3.7,2.5,6.2,2.5c1.7,0,3.5-0.4,5.4-1.1
			l-0.2-0.6c-1.9,0.7-3.6,1.1-5.2,1.1c-2.4,0-4.4-0.8-5.8-2.3c-1.4-1.5-2.2-3.6-2.2-6.3c0-0.4,0-0.8,0.1-1.2L289.4,44.7L289.4,44.7z
			"/>
	</g>
	<g>
		<path class="st0" d="M89.7,58.5c-0.3,3.4-2.7,4.1-5,3.4"/>
	</g>
	<g>
		<path class="st2" d="M89.4,58.4c-0.1,1.3-0.5,2.1-1.1,2.6c-0.5,0.5-1.3,0.7-2.1,0.7c-0.5,0-1-0.1-1.5-0.2l-0.2,0.6
			c0.5,0.2,1.1,0.3,1.6,0.3c0.9,0,1.8-0.3,2.5-0.9c0.7-0.6,1.1-1.6,1.3-3L89.4,58.4L89.4,58.4z"/>
	</g>
	<g>
		<path class="st0" d="M88.2,54.1c-0.2,5.1,4,9.2,8.7,7.7"/>
	</g>
	<g>
		<path class="st2" d="M87.9,54.1c0,0.1,0,0.3,0,0.4c0,2.2,0.8,4.1,2.1,5.6c1.3,1.4,3.1,2.4,5,2.4c0.7,0,1.3-0.1,2-0.3l-0.2-0.6
			c-0.6,0.2-1.2,0.3-1.8,0.3c-1.8,0-3.4-0.8-4.6-2.1c-1.2-1.3-1.9-3.2-1.9-5.2c0-0.1,0-0.3,0-0.4L87.9,54.1L87.9,54.1z"/>
	</g>
	<g>
		<path class="st2" d="M283.3,82c0.5,1.8,2,3.6,4,5c2,1.4,4.6,2.5,7.2,2.5c0.1,0,0.1,0,0.2,0c3.1,0,5.6-1.7,7.4-3.5
			c0.9-0.9,1.6-1.9,2.2-2.7c0.5-0.8,0.9-1.5,1.1-1.9l-0.6-0.2c-0.1,0.3-0.5,1-1,1.8c-0.8,1.2-2,2.7-3.5,3.9
			c-1.5,1.2-3.4,2.1-5.5,2.1c-0.1,0-0.1,0-0.2,0c-2.5-0.1-4.9-1-6.9-2.4c-1.9-1.4-3.3-3.1-3.8-4.7L283.3,82L283.3,82z"/>
	</g>
	<g>
		<path class="st1" d="M267.8,116.6V96.9c0-1.8,1.6-3.3,3.5-3.3h47.1c1.9,0,3.5,1.5,3.5,3.3v19.8"/>
	</g>
	<g>
		<path class="st2" d="M268.2,116.6V96.9c0-0.8,0.4-1.6,0.9-2.1c0.6-0.5,1.4-0.9,2.3-0.9h47.1c0.9,0,1.7,0.3,2.3,0.9
			c0.6,0.6,0.9,1.3,0.9,2.1v19.8h0.6l0-19.8c0-1-0.4-1.9-1.1-2.6c-0.7-0.7-1.7-1.1-2.7-1.1h-47.1c-1.1,0-2,0.4-2.7,1.1
			c-0.7,0.7-1.1,1.6-1.1,2.6v19.8H268.2L268.2,116.6z"/>
	</g>
	<g>
		<path class="st2" d="M271.2,101.6c0,0,0-2.8,0-2.8c0-0.4,0-0.8,0.1-1.1c0.1-0.4,0.2-0.6,0.5-0.7c0.3-0.2,0.8-0.2,1.5-0.2
			c0.2,0,25.8,0,25.8,0l0-0.6c0,0-6.4,0-12.8,0c-6.4,0-12.9,0-13,0c-0.5,0-0.9,0-1.3,0.1c-0.5,0.1-1,0.4-1.2,0.9
			c-0.2,0.4-0.3,1-0.3,1.7c0,0.1,0,2.8,0,2.8H271.2L271.2,101.6z"/>
	</g>
	<g>
		<path class="st2" d="M319.2,107c0,0,0-2.1,0-4.1s0-4.1,0-4.2c0-0.5,0-0.9-0.1-1.2c-0.1-0.5-0.4-0.9-0.9-1.2
			c-0.5-0.2-1-0.3-1.8-0.3c-0.2,0-1.6,0-1.6,0l0,0.6c0,0,1.5,0,1.6,0c0.5,0,0.9,0,1.2,0.1c0.4,0.1,0.6,0.3,0.8,0.5
			c0.1,0.3,0.2,0.7,0.2,1.4c0,0.1,0,8.3,0,8.3H319.2L319.2,107z"/>
	</g>
	<g>
		<path class="st2" d="M271.2,105.6c0-0.8,0-1.6,0-2.4h-0.6c0,0.8,0,1.6,0,2.4H271.2L271.2,105.6z"/>
	</g>
	<g>
		<path class="st2" d="M271.2,105.6c0-0.8,0-1.6,0-2.4h-0.6c0,0.8,0,1.6,0,2.4H271.2L271.2,105.6z"/>
	</g>
	<g>
		<path class="st2" d="M338.5,65.9c-0.4,2-0.7,3.8-1.2,5.2c-0.5,1.4-1.2,2.5-2.5,3.3c-1.6,1-2.3,1.4-2.9,1.8
			c-0.6,0.4-0.9,0.8-1.5,1.6c-0.2,0.3-0.3,0.6-0.4,1.1c-0.3,1.4-0.4,3.8-0.4,6.6c0,6.4,0.5,14.6,0.5,14.6l0,0.1l0,0.1
			c0,0.1,0.4,0.8,2.3,2c1.8,1.2,5.2,2.8,11.1,4.8l0.2-0.6c-5.9-1.9-9.2-3.5-11-4.7c-0.9-0.6-1.4-1-1.7-1.3c-0.1-0.1-0.2-0.3-0.3-0.3
			l0-0.1l0,0l-0.1,0.1l0.1-0.1l0,0l-0.1,0.1l0.1-0.1l-0.3,0.1l0.3,0c0,0,0-0.5-0.1-1.4c-0.1-2.6-0.4-8.4-0.4-13.2
			c0-1.8,0-3.5,0.2-4.8c0.1-0.7,0.1-1.2,0.2-1.6c0.1-0.4,0.2-0.7,0.3-0.8c0.7-0.8,0.9-1.1,1.4-1.5c0.5-0.4,1.2-0.8,2.8-1.8
			c1.4-0.9,2.2-2.1,2.8-3.6c0.5-1.5,0.8-3.2,1.2-5.2L338.5,65.9L338.5,65.9z"/>
	</g>
	<g>
		<path class="st2" d="M350.9,58.1c0,0.3,0,0.6,0,0.9c0,2.5-0.7,5.9-1.7,8.1c-0.3,0.7-0.7,1.1-1.2,1.3c-0.5,0.3-1,0.4-1.6,0.4
			c-0.7,0-1.5-0.2-2.1-0.4l-0.2,0.6c0.7,0.3,1.5,0.5,2.4,0.5c0.6,0,1.3-0.1,1.9-0.4c0.6-0.3,1.1-0.9,1.5-1.6
			c1.1-2.2,1.8-5.7,1.8-8.3c0-0.3,0-0.7,0-1L350.9,58.1L350.9,58.1z"/>
	</g>
	<g>
		<path class="st2" d="M346,69c0,0.2,0,0.4,0,0.6c0,1.7,0.3,2.9,1.2,4.3l0.5-0.3c-0.8-1.3-1.1-2.4-1.1-4c0-0.2,0-0.4,0-0.6L346,69
			L346,69z"/>
	</g>
	<g>
		<path class="st2" d="M337.1,72.8c1.4,2.1,3.8,3.7,6.5,3.7c1.6,0,3.4-0.6,5-1.9l-0.4-0.5c-1.5,1.2-3.1,1.8-4.6,1.8
			c-2.4,0-4.6-1.4-6-3.4L337.1,72.8L337.1,72.8z"/>
	</g>
	<g>
		<path class="st2" d="M336.6,86.2c0,0,0,1.1,0.1,2.9c0,1.8,0.1,4.1,0.1,6.6c0,0.4,0.2,0.7,0.4,1c0.4,0.6,1.1,1.3,2,2
			c1.3,1.1,2.9,2.3,4.4,3.3c1.5,1,2.7,1.9,3.3,2.4l0.4-0.5c-0.5-0.4-1.3-1-2.3-1.7c-1.5-1.1-3.4-2.4-5-3.6c-0.8-0.6-1.4-1.2-1.9-1.7
			c-0.2-0.3-0.4-0.5-0.5-0.7c-0.1-0.2-0.2-0.4-0.2-0.5c0-5-0.2-9.5-0.2-9.6L336.6,86.2L336.6,86.2z"/>
	</g>
	<g>
		<path class="st2" d="M337.4,62c-0.7,0.4-1,1.1-1,1.8c0,0.6,0.2,1.2,0.6,1.6c0.4,0.4,0.9,0.7,1.6,0.7c0.1,0,0.3,0,0.4,0l-0.1-0.6
			c-0.1,0-0.2,0-0.3,0c-0.5,0-0.9-0.2-1.1-0.5c-0.3-0.3-0.4-0.8-0.4-1.2c0-0.5,0.2-0.9,0.7-1.2L337.4,62L337.4,62z"/>
	</g>
	<g>
		<path class="st1" d="M382.2,97.6h-33c-2.3,0-4.2-1.9-4.2-4.2V76.2c0-2.3,1.9-4.2,4.2-4.2h33c2.3,0,4.2,1.9,4.2,4.2v17.2
			C386.4,95.7,384.5,97.6,382.2,97.6z"/>
	</g>
	<g>
		<path class="st2" d="M382.2,97.6v-0.3h-33c-1.1,0-2-0.4-2.8-1.1c-0.7-0.7-1.1-1.7-1.1-2.8V76.2c0-1.1,0.4-2,1.1-2.8
			c0.7-0.7,1.7-1.1,2.8-1.1h33c1.1,0,2,0.4,2.8,1.1c0.7,0.7,1.1,1.7,1.1,2.8v17.2c0,1.1-0.4,2-1.1,2.8c-0.7,0.7-1.7,1.1-2.8,1.1
			V97.6v0.3c2.5,0,4.5-2,4.5-4.5V76.2c0-2.5-2-4.5-4.5-4.5h-33c-2.5,0-4.5,2-4.5,4.5v17.2c0,2.5,2,4.5,4.5,4.5h33V97.6z"/>
	</g>
	<g>
		<path class="st2" d="M382.9,80.9c0,0,0-3.2,0-3.2c0-0.5,0-1-0.1-1.4c-0.1-0.6-0.5-1-1-1.3c-0.5-0.3-1.2-0.3-2-0.3
			c-0.1,0-6,0-11.9,0c-2.9,0-5.9,0-8.1,0c-2.2,0-3.7,0-3.7,0l0,0.6c0,0,23.4,0,23.6,0c0.6,0,1,0,1.3,0.1c0.5,0.1,0.7,0.3,0.9,0.6
			c0.2,0.3,0.3,0.9,0.3,1.6c0,0.1,0,3.2,0,3.2H382.9L382.9,80.9z"/>
	</g>
	<g>
		<path class="st2" d="M382.9,85.4c0-0.9,0-1.8,0-2.7h-0.6c0,0.9,0,1.8,0,2.7H382.9L382.9,85.4z"/>
	</g>
	<g>
		<path class="st2" d="M364.1,82.5h0.7v2.7c0,0.4-0.1,0.7-0.4,0.9c-0.2,0.2-0.5,0.3-0.9,0.3c-0.4,0-0.7-0.1-0.9-0.3
			c-0.2-0.2-0.3-0.5-0.3-0.9h0.7c0,0.2,0.1,0.4,0.2,0.5c0.1,0.1,0.3,0.2,0.4,0.2c0.2,0,0.3-0.1,0.4-0.2c0.1-0.1,0.2-0.3,0.2-0.5
			V82.5z"/>
		<path class="st2" d="M367.6,85.4c0-0.2-0.1-0.3-0.2-0.4c-0.1-0.1-0.3-0.2-0.7-0.3c-0.3-0.1-0.6-0.2-0.8-0.3
			c-0.4-0.2-0.5-0.5-0.5-0.9c0-0.3,0.1-0.6,0.4-0.8c0.3-0.2,0.6-0.3,1-0.3c0.3,0,0.5,0,0.7,0.2c0.2,0.1,0.4,0.2,0.5,0.4
			c0.1,0.2,0.2,0.4,0.2,0.6h-0.7c0-0.2-0.1-0.4-0.2-0.5c-0.1-0.1-0.3-0.2-0.6-0.2c-0.2,0-0.4,0-0.5,0.1c-0.1,0.1-0.2,0.2-0.2,0.4
			c0,0.1,0.1,0.3,0.2,0.4c0.1,0.1,0.4,0.2,0.7,0.3c0.3,0.1,0.6,0.2,0.7,0.3c0.2,0.1,0.3,0.2,0.4,0.4c0.1,0.1,0.1,0.3,0.1,0.5
			c0,0.3-0.1,0.6-0.4,0.8c-0.3,0.2-0.6,0.3-1,0.3c-0.3,0-0.5-0.1-0.8-0.2c-0.2-0.1-0.4-0.2-0.6-0.4c-0.1-0.2-0.2-0.4-0.2-0.6h0.7
			c0,0.2,0.1,0.4,0.2,0.5c0.1,0.1,0.4,0.2,0.6,0.2c0.2,0,0.4,0,0.5-0.1C367.5,85.7,367.6,85.6,367.6,85.4z"/>
	</g>
	<g>
		<path class="st0" d="M341.8,51.8c-0.8-0.4-1.5-1-2.5-1.2c-1.4-0.3-3.1-0.1-4.6,1.3c-4.2,3.9,0.3,7-3.6,8.5c0.9,1,4,1,4,1
			c2.2,2.7,4.6-0.4,5-1.2c0.6-1.1,1.5-5.8,3.8-3.6c4,3.9,10.7,1.8,10-3.5c-2.3,0.5-2.6-1.9-4.9-3.5c-5.9-3.9-9.5,0-9.6,0.8
			L341.8,51.8z"/>
	</g>
	<g>
		<path class="st2" d="M341.8,51.8l0.1-0.3c-0.7-0.4-1.5-1-2.6-1.3c-0.4-0.1-0.8-0.1-1.2-0.1c-1.2,0-2.5,0.4-3.7,1.5
			c-0.9,0.8-1.4,1.6-1.7,2.3c-0.3,0.7-0.4,1.5-0.4,2.1c0,0.7,0.1,1.4,0.1,1.9c0,0.5-0.1,0.8-0.3,1.2c-0.2,0.3-0.6,0.6-1.3,0.9
			l-0.4,0.2l0.3,0.3c0.3,0.3,0.7,0.5,1.1,0.7c1.3,0.4,3.1,0.4,3.1,0.4v-0.3l-0.2,0.2c0.7,0.8,1.4,1.2,2.2,1.2c0.9,0,1.6-0.5,2.2-1
			c0.6-0.5,1-1.1,1.2-1.4c0.2-0.3,0.3-0.6,0.4-1.1c0.2-0.7,0.5-1.4,0.9-2c0.2-0.3,0.4-0.5,0.5-0.7c0.2-0.2,0.4-0.2,0.5-0.2
			c0.2,0,0.5,0.1,0.9,0.5c1.5,1.4,3.3,2.1,5,2.1c1.5,0,2.8-0.5,3.9-1.4c1-0.9,1.7-2.2,1.7-3.8c0-0.2,0-0.5,0-0.8l0-0.3l-0.3,0.1
			c-0.2,0-0.4,0.1-0.5,0.1c-0.4,0-0.7-0.1-1-0.3c-0.4-0.3-0.8-0.8-1.3-1.4c-0.5-0.6-1.1-1.2-1.9-1.8c-1.9-1.3-3.7-1.8-5.1-1.8
			c-1.5,0-2.7,0.5-3.6,1.1c-0.4,0.3-0.8,0.6-1,0.9c-0.1,0.1-0.2,0.3-0.3,0.4c-0.1,0.1-0.1,0.2-0.1,0.4l0,0.2l2.7,1.5L341.8,51.8
			l0.1-0.3L341.8,51.8l0.1-0.3l-2.5-1.3l-0.1,0.3l0.3,0.1c0,0,0-0.1,0.1-0.2c0.2-0.3,0.7-0.9,1.4-1.3c0.7-0.4,1.7-0.8,2.9-0.8
			c1.3,0,2.9,0.4,4.8,1.7c1,0.7,1.6,1.5,2.2,2.2c0.3,0.4,0.6,0.7,1,0.9c0.4,0.2,0.8,0.4,1.3,0.4c0.2,0,0.4,0,0.7-0.1l-0.1-0.3
			l-0.3,0c0,0.2,0,0.5,0,0.7c0,1.4-0.6,2.5-1.5,3.3c-0.9,0.8-2.1,1.2-3.4,1.2c-1.6,0-3.2-0.6-4.6-1.9c-0.5-0.5-0.9-0.7-1.4-0.7
			c-0.5,0-0.9,0.3-1.2,0.6c-0.5,0.5-0.8,1.3-1.1,2c-0.1,0.4-0.3,0.7-0.4,1c-0.1,0.3-0.2,0.5-0.3,0.7c-0.1,0.2-0.5,0.8-1,1.2
			c-0.5,0.5-1.2,0.8-1.8,0.8c-0.5,0-1.1-0.2-1.7-1l-0.1-0.1h-0.1c0,0,0,0-0.1,0c-0.3,0-1,0-1.8-0.2c-0.4-0.1-0.8-0.2-1.1-0.3
			c-0.3-0.1-0.6-0.3-0.7-0.4l-0.2,0.2l0.1,0.3c0.8-0.3,1.3-0.7,1.6-1.2c0.3-0.5,0.4-1,0.4-1.5c0-0.6-0.1-1.3-0.1-1.9
			c0-0.6,0.1-1.2,0.3-1.9c0.3-0.7,0.7-1.4,1.5-2.1c1.1-1,2.2-1.3,3.3-1.3c0.4,0,0.7,0,1,0.1c0.9,0.2,1.6,0.8,2.5,1.2l0.3-0.6
			L341.8,51.8z"/>
	</g>
	<g>
		<polyline class="st2" points="321.8,109.4 401.2,109.4 401.2,108.7 321.8,108.7 		"/>
	</g>
	<g>
		<rect x="344" y="104.4" class="st0" width="52.6" height="4.3"/>
	</g>
	<g>
		<rect x="383.6" y="119.5" class="st3" width="61.4" height="3.8"/>
	</g>
	<g>
		<rect x="355.8" y="101.4" class="st1" width="19.7" height="2.9"/>
	</g>
	<g>
		<polygon class="st2" points="375.6,104.3 375.6,104 356.1,104 356.1,101.8 375.2,101.8 375.2,104.3 375.6,104.3 375.6,104 
			375.6,104.3 375.9,104.3 375.9,101.1 355.5,101.1 355.5,104.6 375.9,104.6 375.9,104.3 		"/>
	</g>
	<g>
		<path class="st2" d="M355.9,101.7c2.4-0.7,3.8-1.6,4.5-2.4c0.4-0.4,0.6-0.8,0.7-1.1c0.1-0.1,0.1-0.3,0.1-0.4l0-0.1l0-0.1l0-0.1
			l0-0.1l-0.1-0.1c0,0-0.1-0.1-0.2-0.1c-0.1,0-0.2,0.1-0.2,0.1l-0.1,0.1l0,0l0.6,0.2l-0.3-0.1l0.3,0.1l0-0.1l-0.3-0.1l0.3,0.1
			l-0.3-0.2l0.2,0.2l0.1-0.1l-0.3-0.2l0.2,0.2l-0.2-0.2V98c0.1,0,0.2-0.1,0.2-0.1l-0.2-0.2V98v-0.3l-0.2,0.2c0,0,0.1,0.1,0.2,0.1
			v-0.3l-0.2,0.2l0.2-0.2l-0.3,0.1c0,0,0,0.1,0.1,0.1l0.2-0.2l-0.3,0.1l0.3-0.1l-0.3,0c0,0,0,0,0,0.1l0.3-0.1l-0.3,0h0.2l-0.2,0l0,0
			h0.2l-0.2,0c0,0,0,0.2-0.1,0.4c-0.3,0.7-1.4,2.1-4.8,3.1L355.9,101.7L355.9,101.7z"/>
	</g>
	<g>
		<path class="st2" d="M375.7,101.1c-2.3-0.7-3.6-1.5-4.2-2.2c-0.3-0.4-0.5-0.7-0.6-0.9c-0.1-0.1-0.1-0.2-0.1-0.3l0-0.1l0,0l-0.2,0
			h0.2l0,0l-0.2,0h0.2h-0.3l0.3,0.1l0-0.1h-0.3l0.3,0.1l-0.3-0.1l0.3,0.1l0-0.1l-0.3-0.1l0.3,0.1l-0.3-0.1l0.2,0.2l0.1-0.1l-0.3-0.1
			l0.2,0.2l-0.2-0.2V98c0.1,0,0.2,0,0.2-0.1l-0.2-0.2V98v-0.3l-0.2,0.2c0,0,0.1,0.1,0.2,0.1v-0.3l-0.2,0.2l0.2-0.2l-0.3,0.1l0.1,0.1
			l0.2-0.2l-0.3,0.1l0.3-0.1l-0.3,0.1l0,0l0.3-0.1l-0.3,0.1l0.6-0.2l0-0.1l-0.1-0.1c0,0-0.1-0.1-0.2-0.1c-0.1,0-0.2,0-0.2,0.1
			c-0.1,0.1-0.1,0.1-0.1,0.1c0,0.1,0,0.1,0,0.1l0,0.1c0.1,0.5,0.9,2.7,5.4,4L375.7,101.1L375.7,101.1z"/>
	</g>
	<g>
		<path class="st2" d="M164.5,60.6c0.2,1.8,0.3,3.8,0.9,5.8c0.6,2,1.8,3.8,4.2,5.2c1.6,0.9,2.1,1.2,2.3,1.4c0.1,0.1,0.2,0.2,0.3,0.4
			c0.1,0.2,0.3,0.5,0.6,0.9c0.1,0.1,0.2,0.4,0.3,0.8c0.3,1.3,0.4,3.7,0.4,6.4c0,3.2-0.1,6.8-0.3,9.6c-0.1,1.4-0.1,2.6-0.2,3.5
			s-0.1,1.4-0.1,1.4l0.3,0l-0.3-0.1l0.1,0.1l-0.1-0.1l0,0l0.1,0.1l-0.1-0.1c0,0-1.5,2.7-12.9,6.3l0.2,0.6c5.9-1.9,9.2-3.5,11-4.7
			c1.8-1.2,2.2-1.9,2.2-2l0-0.1l0-0.1c0,0,0.5-8.1,0.5-14.4c0-1.8,0-3.5-0.2-4.8c-0.1-0.7-0.1-1.2-0.2-1.7c-0.1-0.5-0.2-0.8-0.4-1.1
			c-0.3-0.4-0.5-0.6-0.6-0.8c-0.1-0.1-0.2-0.3-0.3-0.4c-0.2-0.2-0.4-0.4-0.8-0.6c-0.4-0.2-0.9-0.6-1.8-1c-2.3-1.3-3.3-2.9-3.9-4.8
			c-0.6-1.9-0.6-3.9-0.8-5.7L164.5,60.6L164.5,60.6z"/>
	</g>
	<g>
		<path class="st2" d="M152.7,53.8c0,0.3,0,0.7,0,1c0,1.4,0.1,3.1,0.3,4.6c0.2,1.6,0.6,3.1,1.2,4.2c0.3,0.6,0.8,1,1.4,1.2
			c0.6,0.2,1.2,0.3,1.8,0.3c0.6,0,1.1-0.1,1.6-0.2l-0.2-0.6c-0.4,0.1-0.9,0.2-1.4,0.2c-0.5,0-1.1-0.1-1.6-0.3
			c-0.5-0.2-0.9-0.5-1.1-0.9c-0.5-1-0.9-2.5-1.1-4c-0.2-1.5-0.3-3.2-0.3-4.5c0-0.4,0-0.7,0-1L152.7,53.8L152.7,53.8z"/>
	</g>
	<g>
		<path class="st2" d="M157.1,65c-0.2,0.9-0.3,1.7-0.4,2.5c-0.2,0.8-0.4,1.5-0.8,2.2l0.5,0.3c0.5-0.8,0.7-1.6,0.9-2.4
			c0.2-0.8,0.2-1.6,0.4-2.5L157.1,65L157.1,65z"/>
	</g>
	<g>
		<path class="st2" d="M166.4,68.4c-1.3,2-3.8,3.6-6.4,3.6c-1.4,0-2.9-0.5-4.3-1.6l-0.4,0.5c1.5,1.2,3.2,1.8,4.7,1.8
			c2.8,0,5.4-1.7,6.9-3.9L166.4,68.4L166.4,68.4z"/>
	</g>
	<g>
		<path class="st2" d="M166.6,82.3c0,0-0.1,4.5-0.1,9.4c0,0.1-0.1,0.4-0.3,0.7c-0.4,0.5-1,1.2-1.9,1.9c-1.3,1.1-2.9,2.2-4.3,3.2
			c-1.4,1-2.7,1.9-3.3,2.4l0.4,0.5c0.4-0.4,1.3-0.9,2.3-1.7c1.5-1.1,3.4-2.4,4.9-3.6c0.8-0.6,1.4-1.2,1.9-1.8
			c0.2-0.3,0.4-0.5,0.6-0.8c0.1-0.3,0.2-0.5,0.2-0.8c0-2.4,0-4.8,0.1-6.5c0-1.7,0.1-2.9,0.1-2.9L166.6,82.3L166.6,82.3z"/>
	</g>
	<g>
		<path class="st2" d="M165.9,57.4c0.5,0.3,0.7,0.7,0.7,1.2c0,0.4-0.2,0.8-0.4,1.2c-0.3,0.3-0.7,0.5-1.1,0.5c-0.1,0-0.2,0-0.3,0
			l-0.1,0.6c0.1,0,0.3,0,0.4,0c0.7,0,1.2-0.3,1.6-0.7c0.4-0.4,0.6-1,0.6-1.6c0-0.7-0.3-1.4-1-1.8L165.9,57.4L165.9,57.4z"/>
	</g>
	<g>
		<path class="st1" d="M122.1,93.6h32.5c2.3,0,4.2-1.9,4.2-4.2V72.5c0-2.3-1.9-4.2-4.2-4.2h-32.5c-2.3,0-4.2,1.9-4.2,4.2v16.9
			C117.9,91.7,119.8,93.6,122.1,93.6z"/>
	</g>
	<g>
		<path class="st2" d="M122.1,93.6v0.3h32.5c2.5,0,4.5-2,4.5-4.5V72.5c0-2.5-2-4.5-4.5-4.5h-32.5c-2.5,0-4.5,2-4.5,4.5v16.9
			c0,2.5,2,4.5,4.5,4.5V93.6v-0.3c-1.1,0-2-0.4-2.8-1.1c-0.7-0.7-1.1-1.7-1.1-2.8V72.5c0-1.1,0.4-2,1.1-2.8c0.7-0.7,1.7-1.1,2.8-1.1
			h32.5c1.1,0,2,0.4,2.8,1.1c0.7,0.7,1.1,1.7,1.1,2.8v16.9c0,1.1-0.4,2-1.1,2.8c-0.7,0.7-1.7,1.1-2.8,1.1h-32.5V93.6z"/>
	</g>
	<g>
		<path class="st2" d="M122,77.1c0,0,0-3.1,0-3.2c0-0.5,0-0.9,0.1-1.2c0.1-0.5,0.3-0.7,0.6-0.9c0.3-0.2,0.9-0.3,1.7-0.3
			c0.2,0,23.3,0,23.3,0l0-0.6c0,0-5.8,0-11.6,0c-5.8,0-11.6,0-11.7,0c-0.6,0-1.1,0-1.5,0.1c-0.6,0.1-1.1,0.5-1.3,0.9
			c-0.3,0.5-0.3,1.1-0.3,1.9c0,0.1,0,3.2,0,3.2H122L122,77.1z"/>
	</g>
	<g>
		<path class="st2" d="M122,81.6c0-0.9,0-1.8,0-2.7h-0.6c0,0.9,0,1.8,0,2.7H122L122,81.6z"/>
	</g>
	<g>
		<path class="st3" d="M151.2,43.2c-3.3,4.5-0.2,8.9,1.8,10.9c10.5-7.2,8.2,5.1,13.4,3.1c4.9-11-2.8-14-8.5-11.8
			C150.4,48.2,151.2,43.2,151.2,43.2z"/>
	</g>
	<g>
		<path class="st2" d="M151.2,43.2l-0.3-0.2c-1.1,1.5-1.5,3-1.5,4.3c0,3,2,5.5,3.3,7l0.2,0.2l0.2-0.2c2.4-1.7,4.1-2.2,5.3-2.2
			c0.9,0,1.6,0.3,2.1,0.8c0.8,0.7,1.4,1.9,2.1,2.9c0.3,0.5,0.7,1,1.1,1.3c0.4,0.4,1,0.6,1.6,0.6c0.4,0,0.8-0.1,1.2-0.2l0.1,0
			l0.1-0.1c1.1-2.5,1.6-4.6,1.6-6.3c0-2.3-0.8-3.9-2.1-5c-1.3-1.1-3-1.6-4.7-1.6c-1.2,0-2.4,0.2-3.6,0.7c-1.7,0.6-2.9,0.9-3.8,0.9
			c-1.2,0-1.8-0.4-2.1-0.9c-0.3-0.5-0.4-1-0.4-1.4c0-0.1,0-0.2,0-0.3l0-0.1l0,0l0.2-1.3l-0.8,1.1L151.2,43.2l-0.3-0.1
			c0,0,0,0.2,0,0.5c0,0.4,0.1,1.2,0.5,1.8c0.5,0.6,1.3,1.1,2.7,1.1c1,0,2.3-0.3,4-0.9c1.1-0.4,2.2-0.6,3.4-0.6
			c1.6,0,3.2,0.5,4.3,1.4c1.1,1,1.9,2.4,1.9,4.5c0,1.6-0.4,3.6-1.5,6.1l0.3,0.1l-0.1-0.3c-0.4,0.1-0.7,0.2-1,0.2
			c-0.6,0-1.1-0.3-1.5-0.8c-0.7-0.7-1.2-1.9-2-2.9c-0.4-0.5-0.8-1-1.4-1.3c-0.6-0.3-1.2-0.6-2-0.6c-1.4,0-3.2,0.7-5.6,2.4l0.2,0.3
			l0.2-0.2c-1.3-1.3-3.1-3.8-3.1-6.5c0-1.3,0.4-2.6,1.4-4L151.2,43.2l-0.3-0.1L151.2,43.2z"/>
	</g>
	<g>
		<path class="st2" d="M166.4,52.6c0.1-0.4,0.1-0.7,0.1-1.1c0-1-0.3-1.8-0.7-2.4c-0.6-1-1.6-1.5-2.5-1.9c-0.9-0.3-1.8-0.5-2.3-0.5
			c-1.2,0-2.4,0.4-3.5,0.7c-1.1,0.4-2.1,0.7-3,0.7c-0.5,0-0.9-0.1-1.2-0.3c-0.4-0.2-0.7-0.6-1-1.3l-0.6,0.3c0.3,0.7,0.7,1.2,1.2,1.5
			c0.5,0.3,1,0.4,1.6,0.4c1,0,2.1-0.4,3.2-0.7c1.1-0.4,2.2-0.7,3.3-0.7c0.6,0,1.9,0.2,2.9,0.8c0.5,0.3,1,0.7,1.4,1.3
			c0.3,0.5,0.6,1.2,0.6,2.1c0,0.3,0,0.6-0.1,1L166.4,52.6L166.4,52.6z"/>
	</g>
	<g>
		<path class="st2" d="M33.8,69.3c0,0.3,0,0.6,0,1c0,1.3-0.1,3-0.3,4.5c-0.2,1.5-0.6,3-1.2,3.9c-0.3,0.4-0.7,0.7-1.2,0.9
			c-0.5,0.2-1.1,0.3-1.7,0.3c-0.6,0-1.1-0.1-1.5-0.2l-0.2,0.6c0.5,0.1,1.1,0.2,1.7,0.2c0.6,0,1.3-0.1,1.9-0.3
			c0.6-0.2,1.2-0.6,1.5-1.2c0.6-1.1,1-2.6,1.3-4.2c0.2-1.6,0.3-3.2,0.3-4.6c0-0.4,0-0.7,0-1L33.8,69.3L33.8,69.3z"/>
	</g>
	<g>
		<path class="st2" d="M29.1,80.3c0,0.2-0.1,0.4-0.1,0.6c0,0.6,0.2,1,0.5,1.4c0.5,0.5,1.2,0.8,2,1c0.8,0.2,1.8,0.2,2.8,0.2
			c1.1,0,2.3-0.1,3.4-0.1c0.9,0,1.8,0,2.4,0.2c0.3,0.1,0.6,0.2,0.8,0.3c0.2,0.1,0.3,0.2,0.4,0.4l0.6-0.3c-0.2-0.3-0.4-0.5-0.7-0.6
			c-0.8-0.4-2.1-0.5-3.5-0.5c-1.1,0-2.2,0.1-3.4,0.1c-1.3,0-2.6-0.1-3.4-0.4c-0.4-0.1-0.8-0.3-1-0.6c-0.2-0.2-0.3-0.5-0.3-1
			c0-0.2,0-0.3,0.1-0.5L29.1,80.3L29.1,80.3z"/>
	</g>
	<g>
		<path class="st2" d="M19.2,84c0.7,0.9,1.8,1.9,3,2.6c1.3,0.7,2.7,1.2,4.2,1.2c1.2,0,2.3-0.3,3.4-1c1-0.7,1.9-1.9,2.5-3.6l-0.6-0.2
			c-0.6,1.6-1.4,2.6-2.3,3.3c-0.9,0.7-1.9,0.9-3,0.9c-1.3,0-2.7-0.4-3.9-1.1c-1.2-0.6-2.2-1.5-2.8-2.4L19.2,84L19.2,84z"/>
	</g>
	<g>
		<path class="st2" d="M18.9,97.4c0,0,0,1.1,0.1,2.8c0,1.7,0.1,4,0.1,6.5c0,0.4,0.2,0.7,0.4,1c0.5,0.6,1.2,1.3,2.1,2
			c1.4,1.1,3.1,2.2,4.7,3.2c1.5,1,2.9,1.8,3.5,2.3l0.4-0.5c-0.5-0.4-1.4-1-2.5-1.7c-1.6-1-3.7-2.3-5.3-3.5c-0.8-0.6-1.5-1.2-2-1.7
			c-0.2-0.3-0.4-0.5-0.6-0.7c-0.1-0.2-0.2-0.4-0.2-0.4c0-4.8-0.2-9.3-0.2-9.3L18.9,97.4L18.9,97.4z"/>
	</g>
	<g>
		<rect x="107.9" y="100.3" class="st0" width="52" height="4.3"/>
	</g>
	<g>
		<rect x="128.6" y="97.4" class="st1" width="19.5" height="2.8"/>
	</g>
	<g>
		<polygon class="st2" points="128.6,100.2 128.6,100.6 148.5,100.6 148.5,97.1 128.3,97.1 128.3,100.6 128.6,100.6 128.6,100.2 
			129,100.2 129,97.7 147.9,97.7 147.9,99.9 128.6,99.9 128.6,100.2 129,100.2 		"/>
	</g>
	<g>
		<path class="st2" d="M148.2,97.1c-2.3-0.7-3.5-1.5-4.2-2.2c-0.3-0.3-0.5-0.7-0.6-0.9c-0.1-0.1-0.1-0.2-0.1-0.3l0-0.1l0,0l-0.2,0
			h0.2l0,0l-0.2,0h0.2H143l0.3,0.1l0-0.1H143l0.3,0.1l-0.3-0.1l0.3,0.1l0-0.1l-0.3-0.1l0.3,0.1l-0.3-0.1l0.2,0.2l0.1-0.1l-0.3-0.1
			l0.2,0.2l-0.2-0.2V94c0.1,0,0.2,0,0.2-0.1l-0.2-0.2V94v-0.3l-0.2,0.2c0,0,0.1,0.1,0.2,0.1v-0.3l-0.2,0.2l0.2-0.2l-0.3,0.1l0.1,0.1
			l0.2-0.2l-0.3,0.1l0.3-0.1l-0.3,0.1l0,0l0.3-0.1l-0.3,0.1l0.6-0.2l0-0.1l-0.1-0.1c0,0-0.1-0.1-0.2-0.1c-0.1,0-0.2,0-0.2,0.1
			c-0.1,0.1-0.1,0.1-0.1,0.1c0,0.1,0,0.1,0,0.1l0,0.1c0.1,0.5,0.9,2.7,5.3,3.9L148.2,97.1L148.2,97.1z"/>
	</g>
	<g>
		<path class="st2" d="M128.7,97.7c2.4-0.7,3.7-1.6,4.5-2.4c0.4-0.4,0.6-0.8,0.7-1c0.1-0.1,0.1-0.3,0.1-0.4l0-0.1l0-0.1l0-0.1l0-0.1
			l-0.1-0.1c0,0-0.1-0.1-0.2-0.1c-0.1,0-0.2,0.1-0.2,0.1l-0.1,0.1l0,0l0.6,0.2l-0.3-0.1l0.3,0.2l0-0.1l-0.3-0.1l0.3,0.2l-0.3-0.2
			l0.2,0.2l0.1-0.1l-0.3-0.2l0.2,0.2l-0.2-0.2V94c0.1,0,0.2-0.1,0.2-0.1l-0.2-0.2V94v-0.3l-0.2,0.2c0,0,0.1,0.1,0.2,0.1v-0.3
			l-0.2,0.2l0.2-0.2l-0.3,0.1c0,0,0,0.1,0.1,0.1l0.2-0.2l-0.3,0.1l0.3-0.1l-0.3,0c0,0,0,0,0,0.1l0.3-0.1l-0.3,0h0.2l-0.2,0l0,0h0.2
			l-0.2,0c0,0,0,0.2-0.1,0.4c-0.3,0.7-1.4,2.1-4.7,3L128.7,97.7L128.7,97.7z"/>
	</g>
	<g>
		<path class="st1" d="M78,99.6h25.7c1.6,0,2.9-1.3,2.9-2.9V83c0-1.6-1.3-2.9-2.9-2.9H78c-1.6,0-2.9,1.3-2.9,2.9v13.7
			C75.1,98.3,76.4,99.6,78,99.6z"/>
	</g>
	<g>
		<path class="st2" d="M78,99.6v0.3h25.7c1.8,0,3.2-1.4,3.2-3.2V83c0-1.8-1.4-3.2-3.2-3.2H78c-1.8,0-3.2,1.4-3.2,3.2v13.7
			c0,1.8,1.4,3.2,3.2,3.2V99.6v-0.3c-0.7,0-1.3-0.3-1.8-0.8c-0.5-0.5-0.8-1.1-0.8-1.8V83c0-0.7,0.3-1.3,0.8-1.8
			c0.5-0.5,1.1-0.8,1.8-0.8h25.7c0.7,0,1.3,0.3,1.8,0.8c0.5,0.5,0.8,1.1,0.8,1.8v13.7c0,0.7-0.3,1.3-0.8,1.8
			c-0.5,0.5-1.1,0.8-1.8,0.8H78V99.6z"/>
	</g>
	<g>
		<path class="st2" d="M78.3,86.9v-2.5c0-0.4,0-0.7,0.1-0.9c0.1-0.3,0.2-0.5,0.4-0.6c0.2-0.1,0.7-0.2,1.3-0.2c0.1,0,17.9,0,17.9,0
			l0-0.6c0,0-4.5,0-8.9,0c-4.5,0-9,0-9,0c-0.4,0-0.8,0-1.1,0.1c-0.5,0.1-0.9,0.4-1.1,0.8c-0.2,0.4-0.3,0.9-0.3,1.5v2.5H78.3
			L78.3,86.9z"/>
	</g>
	<g>
		<path class="st2" d="M78.3,90.4c0-0.7,0-1.4,0-2.1h-0.6c0,0.7,0,1.4,0,2.1H78.3L78.3,90.4z"/>
	</g>
	<g>
		<rect x="83.3" y="102.5" class="st1" width="15" height="2.2"/>
	</g>
	<g>
		<polygon class="st2" points="83.3,104.7 83.3,105 98.6,105 98.6,102.2 83,102.2 83,105 83.3,105 83.3,104.7 83.6,104.7 
			83.6,102.9 98,102.9 98,104.4 83.3,104.4 83.3,104.7 83.6,104.7 		"/>
	</g>
	<g>
		<path class="st2" d="M98.4,102.2c-1.8-0.5-2.7-1.2-3.2-1.7c-0.2-0.3-0.4-0.5-0.5-0.7c0-0.1-0.1-0.1-0.1-0.2l0,0l0,0l-0.2,0h0.2
			l0,0l-0.2,0h0.2l-0.3,0l0.3,0.1l0-0.1h-0.3l0.3,0.1l-0.3-0.1l0.3,0.1l0-0.1l-0.3-0.1l0.3,0.1l-0.3-0.1l0.2,0.2l0.1-0.1l-0.3-0.1
			l0.2,0.2l-0.2-0.2v0.3c0.1,0,0.2,0,0.2-0.1l-0.2-0.2v0.3v-0.3l-0.2,0.2c0,0,0.1,0.1,0.2,0.1v-0.3l-0.2,0.2l0.2-0.2l-0.3,0.1
			l0.1,0.1l0.2-0.2l-0.3,0.1l0.3-0.1l-0.3,0.1l0,0l0.3-0.1l-0.3,0.1l0.6-0.2l0-0.1l-0.1-0.1c0,0-0.1-0.1-0.2-0.1
			c-0.1,0-0.2,0-0.2,0.1c-0.1,0.1-0.1,0.1-0.1,0.1c0,0.1,0,0.1,0,0.1l0,0.1c0.1,0.4,0.7,2.1,4.2,3.1L98.4,102.2L98.4,102.2z"/>
	</g>
	<g>
		<path class="st2" d="M83.4,102.8c1.8-0.5,2.9-1.2,3.5-1.9c0.3-0.3,0.5-0.6,0.6-0.8c0.1-0.1,0.1-0.2,0.1-0.3l0-0.1l0-0.1l0-0.1
			l0-0.1l-0.1-0.1c0,0-0.1-0.1-0.2-0.1c-0.1,0-0.2,0.1-0.2,0.1l-0.1,0.1l0,0l0.6,0.2l-0.3-0.1l0.3,0.2l0-0.1l-0.3-0.1l0.3,0.2
			l-0.3-0.2l0.2,0.2l0.1-0.1l-0.3-0.2l0.2,0.2l-0.2-0.2v0.3c0.1,0,0.2-0.1,0.2-0.1l-0.2-0.2v0.3v-0.3L87,99.9c0,0,0.1,0.1,0.2,0.1
			v-0.3L87,99.9l0.2-0.2l-0.3,0.1c0,0,0,0.1,0.1,0.1l0.2-0.2l-0.3,0.1l0.3-0.1l-0.3,0c0,0,0,0,0,0.1l0.3-0.1l-0.3,0h0.2l-0.2,0l0,0
			h0.2l-0.2,0l0,0c-0.1,0.2-0.5,1.7-3.7,2.6L83.4,102.8L83.4,102.8z"/>
	</g>
	<g>
		<polyline class="st2" points="349.4,114.7 381.9,114.7 381.9,114.1 349.4,114.1 		"/>
	</g>
	<g>
		<polyline class="st2" points="118.8,113.5 182.9,113.5 182.9,112.8 118.8,112.8 		"/>
	</g>
	<g>
		<polyline class="st2" points="118.8,110.9 153.8,110.9 153.8,110.3 118.8,110.3 		"/>
	</g>
	<g>
		<circle class="st0" cx="294.8" cy="108.6" r="2.4"/>
	</g>
	<g>
		<path class="st2" d="M295,105.7v-1.1c0-0.2-0.1-0.3-0.3-0.3c-0.2,0-0.3,0.1-0.3,0.3v1.1c0,0.2,0.1,0.3,0.3,0.3
			C294.9,106,295,105.8,295,105.7"/>
	</g>
	<g>
		<path class="st2" d="M295,112.6v-1.1c0-0.2-0.1-0.3-0.3-0.3c-0.2,0-0.3,0.1-0.3,0.3v1.1c0,0.2,0.1,0.3,0.3,0.3
			C294.9,112.9,295,112.8,295,112.6"/>
	</g>
	<g>
		<path class="st2" d="M298.9,108.1h-1.1c-0.2,0-0.3,0.1-0.3,0.3c0,0.2,0.1,0.3,0.3,0.3h1.1c0.2,0,0.3-0.1,0.3-0.3
			C299.2,108.3,299.1,108.1,298.9,108.1"/>
	</g>
	<g>
		<path class="st2" d="M291.8,108.2h-1.1c-0.2,0-0.3,0.1-0.3,0.3c0,0.2,0.1,0.3,0.3,0.3h1.1c0.2,0,0.3-0.1,0.3-0.3
			C292.1,108.3,292,108.2,291.8,108.2"/>
	</g>
	<g>
		<path class="st2" d="M292.9,106.3l-0.8-0.8c-0.1-0.1-0.3-0.1-0.4,0c-0.1,0.1-0.1,0.3,0,0.4l0.8,0.8c0.1,0.1,0.3,0.1,0.4,0
			C293,106.7,293,106.5,292.9,106.3"/>
	</g>
	<g>
		<path class="st2" d="M297.8,111.3l-0.8-0.8c-0.1-0.1-0.3-0.1-0.4,0c-0.1,0.1-0.1,0.3,0,0.4l0.8,0.8c0.1,0.1,0.3,0.1,0.4,0
			C297.9,111.6,297.9,111.4,297.8,111.3"/>
	</g>
	<g>
		<path class="st2" d="M297.4,105.4l-0.8,0.8c-0.1,0.1-0.1,0.3,0,0.4c0.1,0.1,0.3,0.1,0.4,0l0.8-0.8c0.1-0.1,0.1-0.3,0-0.4
			C297.7,105.2,297.5,105.2,297.4,105.4"/>
	</g>
	<g>
		<path class="st2" d="M292.4,110.4l-0.8,0.8c-0.1,0.1-0.1,0.3,0,0.4c0.1,0.1,0.3,0.1,0.4,0l0.8-0.8c0.1-0.1,0.1-0.3,0-0.4
			C292.7,110.3,292.5,110.3,292.4,110.4"/>
	</g>
	<g>
		<path class="st3" d="M140.3,83h-4.4c-1.3-0.1-1.4-1.9-0.2-2.1c-0.6-2.2,2.7-2.4,2.6-0.4c0.5-0.4,1.3-0.1,1.2,0.6
			C141.2,80.9,141.2,82.8,140.3,83z"/>
	</g>
	<g>
		<path class="st2" d="M140.3,83v-0.3h-4.4V83l0-0.3c-0.3,0-0.4-0.1-0.5-0.2c-0.1-0.1-0.2-0.3-0.2-0.5c0-0.2,0.1-0.3,0.1-0.5
			c0.1-0.1,0.2-0.2,0.4-0.3l0.3-0.1l-0.1-0.3c0-0.2-0.1-0.3-0.1-0.4c0-0.3,0.1-0.5,0.3-0.7c0.2-0.2,0.4-0.2,0.7-0.2
			c0.3,0,0.6,0.1,0.7,0.3c0.2,0.2,0.3,0.4,0.3,0.8l0,0l0,0.7l0.5-0.4c0.1-0.1,0.2-0.1,0.3-0.1c0.1,0,0.2,0,0.3,0.1
			c0.1,0.1,0.1,0.2,0.1,0.3l0,0l0,0.4l0.4-0.1c0.1,0,0.1,0,0.2,0c0.3,0,0.4,0.1,0.6,0.2c0.1,0.1,0.2,0.3,0.2,0.5
			c0,0.1,0,0.3-0.1,0.4c-0.1,0.1-0.1,0.2-0.3,0.2L140.3,83v-0.3V83l0.1,0.3c0.3-0.1,0.5-0.3,0.6-0.5c0.1-0.2,0.2-0.5,0.2-0.7
			c0-0.3-0.1-0.6-0.3-0.9c-0.2-0.3-0.6-0.4-1-0.4c-0.1,0-0.2,0-0.3,0l0,0.3l0.3,0l0-0.1c0-0.3-0.1-0.6-0.3-0.8
			c-0.2-0.2-0.5-0.3-0.7-0.3c-0.2,0-0.5,0.1-0.7,0.2l0.2,0.3l0.3,0l0,0c0-0.5-0.2-1-0.5-1.3c-0.3-0.3-0.7-0.4-1.2-0.4
			c-0.4,0-0.8,0.1-1.1,0.4c-0.3,0.3-0.5,0.7-0.5,1.2c0,0.2,0,0.4,0.1,0.6l0.3-0.1l-0.1-0.3c-0.3,0.1-0.6,0.3-0.8,0.5
			c-0.2,0.2-0.3,0.5-0.3,0.8c0,0.3,0.1,0.7,0.3,0.9c0.2,0.3,0.6,0.4,1,0.5l0,0h4.5l0,0L140.3,83z"/>
	</g>
	<g>
		<polygon class="st2" points="60.6,116.6 60.6,116.9 119.1,116.9 119.1,104.5 60.3,104.5 60.3,116.9 60.6,116.9 60.6,116.6 
			61,116.6 61,105.2 118.5,105.2 118.5,116.3 60.6,116.3 60.6,116.6 61,116.6 		"/>
	</g>
	<g>
		<rect x="61" y="105.2" class="st3" width="57.5" height="4"/>
	</g>
	<g>
		<path class="st2" d="M279.3,58.5c-0.1,1-0.2,1.9-0.2,2.8c0,3.2,0.7,6.1,2.6,8.6l0.2,0.3l0.5-0.4l-0.2-0.3
			c-1.8-2.4-2.4-5.1-2.4-8.2c0-0.9,0.1-1.8,0.2-2.8l0-0.3l-0.6-0.1L279.3,58.5L279.3,58.5z"/>
	</g>
	<g>
		<polygon class="st2" points="69.3,123.9 69.3,116.9 73.9,116.9 73.9,123.9 74.5,123.9 74.5,116.3 68.7,116.3 68.7,123.9 
			69.3,123.9 		"/>
	</g>
	<g>
		<polygon class="st2" points="106,123.9 106,116.9 110.6,116.9 110.6,123.9 111.2,123.9 111.2,116.3 105.3,116.3 105.3,123.9 
			106,123.9 		"/>
	</g>
	<g>
		<polyline class="st2" points="118.5,116.5 118.5,123.7 119.1,123.7 119.1,116.5 		"/>
	</g>
	<g>
		<path class="st0" d="M91.3,88.6c-0.1,0-0.2-0.1-0.3-0.1c-0.4-0.3-0.7-0.6-0.6-0.5c0,0-0.1,0.5-0.5,0.7c-0.6,0.3-1.1,0.8-1.3,1.5
			c-0.2,1.1,0.5,2.1,1.7,2.3c1.1,0.2,2.2-0.5,2.4-1.6C93,89.9,92.3,88.9,91.3,88.6z"/>
	</g>
	<g>
		<path class="st2" d="M91.3,88.6l0.1-0.3c-0.1,0-0.1,0-0.2-0.1c-0.1-0.1-0.3-0.2-0.4-0.3c-0.1-0.1-0.1-0.1-0.1-0.1l-0.1,0l0,0l0,0
			c0,0-0.1,0-0.1,0c-0.1,0-0.2,0-0.2,0.1c-0.1,0.1-0.1,0.2-0.1,0.2c0,0.1,0,0.1,0,0.1l0,0l0,0l0.3-0.2l-0.3,0c0,0,0,0,0,0.1l0.3-0.2
			l-0.3,0l0.2,0l-0.2,0l0,0l0.2,0l-0.2,0h0.1l-0.1,0l0,0h0.1l-0.1,0c0,0,0,0.1-0.1,0.2c-0.1,0.1-0.1,0.2-0.2,0.2
			c-0.7,0.3-1.3,0.9-1.4,1.7c0,0.1,0,0.3,0,0.4c0,1.1,0.8,2,2,2.2h0c0.1,0,0.3,0,0.4,0c1.1,0,2.1-0.8,2.4-1.9c0-0.1,0-0.3,0-0.4
			c0-1-0.7-1.9-1.7-2.2L91.3,88.6l-0.1,0.3c0.8,0.2,1.3,0.8,1.3,1.6c0,0.1,0,0.2,0,0.3c-0.2,0.8-0.9,1.4-1.8,1.4c-0.1,0-0.2,0-0.3,0
			h0C89.5,92,89,91.3,89,90.5c0-0.1,0-0.2,0-0.3c0.1-0.6,0.5-1,1.1-1.2c0.3-0.1,0.4-0.3,0.5-0.5c0-0.1,0.1-0.2,0.1-0.3
			c0-0.1,0-0.1,0-0.2l0-0.1c0,0,0-0.1,0-0.1l0,0l-0.2,0.1l0.2-0.1l0,0l-0.2,0.1l0.2-0.1L90.4,88h0.3c0-0.1,0-0.1,0-0.1L90.4,88h0.3
			h-0.3l0.2,0.2c0.1-0.1,0.1-0.2,0.1-0.2h-0.3l0.2,0.2L90.4,88v0.3c0.1,0,0.2,0,0.2-0.1L90.4,88v0.3V88l-0.1,0.3c0,0,0,0,0.1,0V88
			l-0.1,0.3l0.1-0.2l-0.1,0.2l0,0l0.1-0.2l-0.1,0.2l0.1-0.1l-0.1,0.1l0,0l0.1-0.1l-0.1,0.1c0,0,0.1,0.1,0.2,0.2
			c0.1,0.1,0.3,0.2,0.4,0.3c0.1,0.1,0.2,0.1,0.4,0.2L91.3,88.6z"/>
	</g>
	<g>
		<path class="st1" d="M91.5,90.8c0.3,0,0.4-0.2,0.8-0.3c0.5-0.1,0.4,1,0,1c-0.3,0-0.3-0.5-0.7-0.5c-0.2,0-0.6,0.8-1.4,0.6
			c-0.8-0.2-0.4-1.1,0.2-1.2C90.9,90.4,91.3,90.8,91.5,90.8z"/>
	</g>
	<g>
		<path class="st2" d="M91.5,90.8l0,0.3l0.1,0c0.1,0,0.2,0,0.3-0.1c0.2-0.1,0.3-0.2,0.5-0.3l-0.1-0.3l0,0.3l0,0v0l0,0l0,0v0v-0.1
			l-0.1,0.1l0.1,0v-0.1l-0.1,0.1l0,0l0,0l0,0l0,0l0,0c0,0,0,0.1,0,0.2c0,0.1,0,0.2-0.1,0.2l0,0l0,0l0-0.1l0,0l0,0l0-0.1l0,0l0,0
			l0,0.1v-0.1l0,0l0,0.1v-0.1v0.1l0.1-0.1l-0.1,0v0.1l0.1-0.1l0,0.1l0-0.1l0,0l0,0.1l0-0.1l0,0c0,0-0.1-0.1-0.2-0.3
			c0-0.1-0.1-0.1-0.2-0.2c-0.1-0.1-0.2-0.1-0.3-0.1l-0.1,0l0,0.3l0-0.3l0,0c-0.1,0-0.2,0-0.2,0.1c-0.1,0.1-0.2,0.1-0.2,0.2
			c-0.1,0.1-0.2,0.2-0.3,0.3c-0.1,0.1-0.2,0.1-0.4,0.1l-0.1,0l0,0c-0.1,0-0.1-0.1-0.2-0.1l0-0.1c0-0.1,0-0.2,0.1-0.2
			c0.1-0.1,0.2-0.1,0.3-0.1l0-0.3l0,0.3l0,0c0.2,0,0.3,0.1,0.5,0.1c0.1,0,0.2,0.1,0.2,0.1c0.1,0,0.2,0.1,0.3,0.1L91.5,90.8l0,0.3
			L91.5,90.8l0-0.3l0,0.1l0-0.1l0,0l0,0.1l0-0.1l0,0c-0.1,0-0.2-0.1-0.4-0.2c-0.2-0.1-0.4-0.1-0.7-0.1l-0.1,0l0,0l0,0
			c-0.3,0-0.5,0.2-0.7,0.3c-0.2,0.2-0.3,0.4-0.3,0.7c0,0.2,0.1,0.3,0.2,0.5c0.1,0.1,0.3,0.2,0.5,0.3l0,0c0.1,0,0.2,0,0.3,0
			c0.4,0,0.8-0.2,1-0.4c0.1-0.1,0.2-0.2,0.3-0.2l0.1,0l0-0.1l0,0.1l0,0l0-0.1l0,0.1l-0.1-0.2v0.2l0.1,0l-0.1-0.2v0.2v-0.2l0,0.2l0,0
			v-0.2l0,0.2l0,0l0,0l0,0v0l0,0l0,0v0v0l0,0l0,0v0l0,0l0,0l0,0l0,0l0,0l0,0c0,0,0.1,0.1,0.2,0.2c0,0.1,0.1,0.1,0.2,0.2
			c0.1,0.1,0.2,0.1,0.3,0.1l0,0l0,0c0.1,0,0.2-0.1,0.3-0.1c0.1-0.1,0.2-0.2,0.2-0.4c0-0.1,0.1-0.3,0.1-0.4c0-0.2,0-0.3-0.1-0.5
			c0-0.1-0.1-0.2-0.2-0.2c-0.1-0.1-0.2-0.1-0.3-0.1l-0.1,0l0,0l0,0c-0.2,0.1-0.4,0.2-0.5,0.3l-0.1,0.1l0,0l0,0l0,0l0,0L91.5,90.8z"
			/>
	</g>
	<g>
		<path class="st0" d="M425,62.6c-1.3,5.2,8.6,19.1-9,18.8c-19.6-0.3-9.6-13.6-10.3-18.8c-0.7-5,2.4-11.4,10-11.3
			C421.8,51.5,426.2,58.1,425,62.6z"/>
	</g>
	<g>
		<path class="st2" d="M425,62.6l-0.3-0.1c-0.1,0.4-0.1,0.8-0.1,1.2c0,1.5,0.4,3.2,0.9,5.1c0.4,1.9,0.9,3.8,0.9,5.6
			c0,0.9-0.1,1.8-0.4,2.6c-0.4,1.2-1.3,2.2-2.7,2.9c-1.5,0.7-3.6,1.2-6.6,1.2c-0.1,0-0.3,0-0.5,0c-4.9-0.1-7.9-1-9.6-2.3
			c-0.9-0.7-1.4-1.4-1.8-2.3c-0.4-0.8-0.5-1.8-0.5-2.8c0-1.8,0.5-3.7,1-5.6c0.5-1.8,1-3.6,1-5c0-0.2,0-0.4,0-0.7
			c-0.1-0.4-0.1-0.9-0.1-1.3c0-2.2,0.8-4.6,2.3-6.5c1.6-1.8,3.9-3.1,7.2-3.1c0.1,0,0.1,0,0.2,0c2.6,0,4.9,1.3,6.5,3.1
			c1.7,1.8,2.6,4.1,2.6,6.2c0,0.5-0.1,1-0.2,1.5L425,62.6l0.3,0.1c0.1-0.5,0.2-1.1,0.2-1.6c0-2.3-1.1-4.8-2.8-6.7
			c-1.7-1.9-4.2-3.3-7-3.3c-0.1,0-0.1,0-0.2,0c-3.5,0-6,1.3-7.7,3.3c-1.7,2-2.5,4.5-2.5,6.9c0,0.5,0,1,0.1,1.4c0,0.2,0,0.4,0,0.6
			c0,1.3-0.5,3-1,4.8c-0.5,1.8-1,3.8-1,5.7c0,1,0.2,2.1,0.5,3c0.6,1.4,1.7,2.6,3.7,3.5c1.9,0.9,4.6,1.4,8.3,1.4c0.2,0,0.3,0,0.5,0
			c4.1,0,6.7-0.8,8.3-2.1c0.8-0.7,1.3-1.5,1.7-2.4c0.3-0.9,0.5-1.8,0.5-2.8c0-1.9-0.4-3.8-0.9-5.7c-0.4-1.9-0.9-3.6-0.9-4.9
			c0-0.4,0-0.8,0.1-1.1L425,62.6z"/>
	</g>
	<g>
		<path class="st1" d="M411.7,72.3c0,0,0.8,6.1-2,7.4c-2.8,1.3-9.5,0.5-9.7,14.2c-0.1,6.9-0.1,13.3-0.1,13.3h32.4
			c0,0,0.2-7.1,0.1-11.7c-0.6-10.4-0.5-12.9-9-15.5c-2.9-0.9-3.7-1.5-3.8-7.6L411.7,72.3z"/>
	</g>
	<g>
		<path class="st2" d="M411.7,72.3l-0.3,0c0,0,0,0,0,0.1c0,0.3,0.1,0.9,0.1,1.7c0,0.9-0.1,2.1-0.4,3.1c-0.1,0.5-0.3,1-0.6,1.3
			c-0.3,0.4-0.6,0.7-0.9,0.8c-0.6,0.3-1.6,0.5-2.6,0.8c-1.6,0.5-3.4,1.3-4.8,3.3c-1.4,2-2.4,5.2-2.5,10.4
			c-0.1,6.9-0.1,13.3-0.1,13.3v0.3h33l0-0.3c0,0,0.1-5.1,0.1-9.4c0-0.8,0-1.5,0-2.2l0,0l0,0c-0.3-5.2-0.4-8.4-1.6-10.8
			c-0.6-1.2-1.4-2.1-2.7-2.9c-1.2-0.8-2.8-1.4-5-2.1c-0.7-0.2-1.3-0.4-1.7-0.7c-0.7-0.4-1.1-0.9-1.4-1.9c-0.3-1-0.5-2.5-0.5-4.8
			l0-0.3l-8.6-0.2l0,0.4L411.7,72.3l0,0.3l8,0.2l0-0.3l-0.3,0c0.1,3,0.3,4.8,0.9,5.9c0.3,0.6,0.7,1,1.3,1.3c0.5,0.3,1.1,0.5,1.9,0.7
			c2.1,0.6,3.7,1.3,4.8,2c1.7,1.1,2.6,2.4,3.1,4.5c0.5,2.1,0.6,4.8,0.9,8.7l0.3,0l-0.3,0c0,0.7,0,1.4,0,2.2c0,2.2,0,4.5-0.1,6.3
			c0,1.8-0.1,3.1-0.1,3.1l0.3,0v-0.3H400v0.3h0.3c0,0,0-0.4,0-1.1c0-2.1,0-7,0.1-12.2c0-3.4,0.5-5.9,1.2-7.8c1-2.7,2.5-4,4.1-4.8
			c1.5-0.7,3.1-0.9,4.2-1.5c0.5-0.2,0.9-0.6,1.2-1.1c0.9-1.3,1.1-3.3,1.1-4.8c0-1.1-0.1-1.9-0.1-1.9L411.7,72.3l0,0.3L411.7,72.3z"
			/>
	</g>
	<g>
		<path class="st3" d="M409.7,79.7c-2.8,1.3-9.5,0.5-9.7,14.2c-0.1,6.9-0.1,13.3-0.1,13.3h32.4c0,0,0.2-7.1,0.1-11.7
			c-0.6-10.4-0.5-12.9-9-15.5C419.2,85.7,412.2,86.1,409.7,79.7z"/>
	</g>
	<g>
		<path class="st2" d="M409.7,79.7l-0.1-0.3c-0.6,0.3-1.6,0.5-2.6,0.8c-1.6,0.5-3.4,1.3-4.8,3.3c-1.4,2-2.4,5.2-2.5,10.4
			c-0.1,6.9-0.1,13.3-0.1,13.3v0.3h33l0-0.3c0,0,0.1-5.1,0.1-9.4c0-0.8,0-1.5,0-2.2l0,0l0,0c-0.3-5.2-0.4-8.4-1.6-10.8
			c-0.6-1.2-1.4-2.1-2.7-2.9c-1.2-0.8-2.8-1.4-5-2.1l-0.2-0.1l-0.1,0.2c-2.1,2.7-4.8,4.2-7.3,4.2c-1.2,0-2.4-0.4-3.4-1.1
			c-1-0.7-1.9-1.8-2.5-3.4l-0.1-0.3l-0.3,0.1L409.7,79.7l-0.3,0.1c0.6,1.6,1.6,2.8,2.7,3.6c1.1,0.8,2.4,1.2,3.8,1.2
			c2.7,0,5.6-1.6,7.8-4.4l-0.3-0.2l-0.1,0.3c2.1,0.6,3.7,1.3,4.8,2c1.7,1.1,2.6,2.4,3.1,4.5c0.5,2.1,0.6,4.8,0.9,8.7l0.3,0l-0.3,0
			c0,0.7,0,1.4,0,2.2c0,2.2,0,4.5-0.1,6.3c0,1.8-0.1,3.1-0.1,3.1l0.3,0v-0.3H400v0.3h0.3c0,0,0-0.4,0-1.1c0-2.1,0-7,0.1-12.2
			c0-3.4,0.5-5.9,1.2-7.8c1-2.7,2.5-4,4.1-4.8c1.5-0.7,3.1-0.9,4.2-1.5L409.7,79.7l-0.3,0.1L409.7,79.7z"/>
	</g>
	<g>
		<path class="st1" d="M422.5,67.4c-1,4.7-3.1,8.6-6.9,8.6c-3.8,0-6.4-3.9-6.9-8.6c-0.5-4.5,1-6.2,3.2-6.9c1-0.3,2.4-2.3,3.6-2.3
			c1.3,0,2.4,2.1,3.6,2.4C421.6,61.4,423.3,63.2,422.5,67.4z"/>
	</g>
	<g>
		<path class="st2" d="M422.5,67.4l-0.3-0.1c-0.5,2.3-1.2,4.4-2.3,5.9c-1.1,1.5-2.5,2.4-4.3,2.4c-1.8,0-3.3-0.9-4.4-2.4
			c-1.1-1.5-1.9-3.6-2.2-5.9c-0.1-0.6-0.1-1.1-0.1-1.6c0-1.6,0.3-2.7,0.9-3.5c0.5-0.8,1.3-1.2,2.2-1.5c0.3-0.1,0.6-0.3,0.9-0.5
			c0.5-0.4,0.9-0.8,1.4-1.2c0.5-0.4,0.9-0.6,1.2-0.6c0.2,0,0.5,0.1,0.8,0.3c0.4,0.3,0.9,0.7,1.3,1.1c0.5,0.4,0.9,0.8,1.5,1
			c1,0.3,1.8,0.8,2.4,1.5c0.6,0.7,0.9,1.7,0.9,3c0,0.6-0.1,1.2-0.2,1.9L422.5,67.4l0.3,0.1c0.2-0.7,0.2-1.4,0.2-2
			c0-1.5-0.4-2.6-1.1-3.4c-0.7-0.8-1.6-1.4-2.7-1.7c-0.2-0.1-0.5-0.3-0.8-0.5c-0.4-0.4-0.9-0.8-1.3-1.2c-0.5-0.4-1-0.7-1.6-0.7
			c-0.4,0-0.7,0.2-1.1,0.4c-0.5,0.3-1,0.8-1.5,1.2c-0.5,0.4-0.9,0.7-1.2,0.8c-1,0.3-1.9,0.8-2.6,1.7c-0.6,0.9-1,2.1-1,3.8
			c0,0.5,0,1.1,0.1,1.7c0.3,2.4,1.1,4.6,2.3,6.2c1.2,1.6,2.9,2.7,4.9,2.7c2,0,3.6-1.1,4.8-2.7c1.2-1.6,2-3.8,2.4-6.2L422.5,67.4z"/>
	</g>
	<g>
		<path class="st0" d="M414.1,57.9c-0.4,4.5-3.6,5.4-6.6,4.5"/>
	</g>
	<g>
		<path class="st2" d="M413.8,57.9c-0.2,1.7-0.7,2.8-1.4,3.5c-0.7,0.7-1.7,1-2.8,1c-0.6,0-1.3-0.1-2-0.3l-0.2,0.6
			c0.7,0.2,1.4,0.3,2.1,0.3c1.2,0,2.3-0.3,3.2-1.2c0.9-0.8,1.5-2.1,1.6-3.9L413.8,57.9L413.8,57.9z"/>
	</g>
	<g>
		<path class="st0" d="M412.1,52.2c-0.3,6.7,5.3,12.2,11.5,10.2"/>
	</g>
	<g>
		<path class="st2" d="M411.8,52.2c0,0.2,0,0.4,0,0.6c0,2.8,1,5.4,2.7,7.3c1.7,1.9,4,3.1,6.6,3.1c0.9,0,1.7-0.1,2.6-0.4l-0.2-0.6
			c-0.8,0.3-1.7,0.4-2.4,0.4c-2.4,0-4.5-1.1-6.1-2.9c-1.6-1.8-2.6-4.2-2.6-6.9c0-0.2,0-0.4,0-0.5L411.8,52.2L411.8,52.2z"/>
	</g>
	<g>
		<path class="st1" d="M397.7,112.3h35.8c1.6,0,2.9-1.3,2.9-2.9v-20c0-1.6-1.3-2.9-2.9-2.9h-35.8c-1.6,0-2.9,1.3-2.9,2.9v20
			C394.8,111,396.1,112.3,397.7,112.3z"/>
	</g>
	<g>
		<path class="st2" d="M397.7,112.3v0.3h35.8c1.8,0,3.2-1.4,3.2-3.2v-20c0-1.8-1.4-3.2-3.2-3.2h-35.8c-1.8,0-3.2,1.4-3.2,3.2v20
			c0,1.8,1.4,3.2,3.2,3.2V112.3V112c-0.7,0-1.3-0.3-1.8-0.8c-0.5-0.5-0.8-1.1-0.8-1.8v-20c0-0.7,0.3-1.3,0.8-1.8
			c0.5-0.5,1.1-0.8,1.8-0.8h35.8c0.7,0,1.3,0.3,1.8,0.8c0.5,0.5,0.8,1.1,0.8,1.8v20c0,0.7-0.3,1.3-0.8,1.8c-0.5,0.5-1.1,0.8-1.8,0.8
			h-35.8V112.3z"/>
	</g>
	<g>
		<path class="st1" d="M65.3,109.2H32.9c-2.3,0-4.2-1.9-4.2-4.2V88.2c0-2.3,1.9-4.2,4.2-4.2h32.4c2.3,0,4.2,1.9,4.2,4.2V105
			C69.5,107.3,67.6,109.2,65.3,109.2z"/>
	</g>
	<g>
		<path class="st2" d="M65.3,109.2v-0.3H32.9c-1.1,0-2-0.4-2.8-1.1c-0.7-0.7-1.1-1.7-1.1-2.8V88.2c0-1.1,0.4-2,1.1-2.8
			c0.7-0.7,1.7-1.1,2.8-1.1h32.4c1.1,0,2,0.4,2.8,1.1c0.7,0.7,1.1,1.7,1.1,2.8V105c0,1.1-0.4,2-1.1,2.8c-0.7,0.7-1.7,1.1-2.8,1.1
			V109.2v0.3c2.5,0,4.5-2,4.5-4.5V88.2c0-2.5-2-4.5-4.5-4.5H32.9c-2.5,0-4.5,2-4.5,4.5V105c0,2.5,2,4.5,4.5,4.5h32.4V109.2z"/>
	</g>
	<g>
		<polygon class="st0" points="46.2,94.1 49.1,93.1 52.2,94.1 51.5,98.1 49.1,99.2 46.9,98 		"/>
	</g>
	<g>
		<polygon class="st2" points="46.2,94.1 46.3,94.4 49.1,93.4 51.9,94.3 51.2,97.9 49.1,98.9 47.1,97.8 46.5,94 46.2,94.1 
			46.3,94.4 46.2,94.1 45.9,94.1 46.6,98.3 49.1,99.6 51.8,98.3 52.6,93.9 49.1,92.8 45.9,93.9 45.9,94.1 		"/>
	</g>
	<g>
		<path class="st2" d="M66,92.7c0,0,0-0.8,0-1.6s0-1.6,0-1.6c0-0.5,0-1-0.1-1.4c-0.1-0.6-0.4-1-1-1.3c-0.5-0.3-1.1-0.3-2-0.3
			c-0.1,0-5.9,0-11.7,0c-2.9,0-5.8,0-8,0c-2.2,0-3.6,0-3.6,0l0,0.6c0,0,23.1,0,23.3,0c0.5,0,1,0,1.3,0.1c0.5,0.1,0.7,0.3,0.9,0.6
			c0.2,0.3,0.2,0.8,0.2,1.6c0,0.1,0,3.2,0,3.2H66L66,92.7z"/>
	</g>
	<g>
		<path class="st2" d="M66,97.2c0-0.9,0-1.8,0-2.7h-0.6c0,0.9,0,1.8,0,2.7H66L66,97.2z"/>
	</g>
	<g>
		<path class="st2" d="M50,96.9h-1.5l-0.3,0.9h-0.7l1.5-3.9h0.6l1.5,3.9h-0.7L50,96.9z M48.6,96.4h1.1l-0.6-1.6L48.6,96.4z"/>
	</g>
	<g>
		<rect x="27.6" y="115.9" class="st0" width="38.2" height="3.5"/>
	</g>
	<g>
		<rect x="39.3" y="113" class="st1" width="19.5" height="2.8"/>
	</g>
	<g>
		<polygon class="st2" points="58.8,115.8 58.8,115.5 39.6,115.5 39.6,113.3 58.5,113.3 58.5,115.8 58.8,115.8 58.8,115.5 
			58.8,115.8 59.1,115.8 59.1,112.7 39,112.7 39,116.1 59.1,116.1 59.1,115.8 		"/>
	</g>
	<g>
		<path class="st2" d="M39.4,113.3c2.4-0.7,3.7-1.6,4.4-2.4c0.4-0.4,0.6-0.8,0.7-1c0.1-0.1,0.1-0.3,0.1-0.4l0-0.1l0-0.1l0-0.1l0-0.1
			l-0.1-0.1c0,0-0.1-0.1-0.2-0.1c-0.1,0-0.2,0.1-0.2,0.1l-0.1,0.1l0,0l0.6,0.2l-0.3-0.1l0.3,0.1l0-0.1l-0.3-0.1l0.3,0.1l-0.3-0.2
			l0.2,0.2l0.1-0.1l-0.3-0.2l0.2,0.2l-0.2-0.2v0.3c0.1,0,0.2-0.1,0.2-0.1l-0.2-0.2v0.3v-0.3l-0.2,0.2c0,0,0.1,0.1,0.2,0.1v-0.3
			l-0.2,0.2l0.2-0.2l-0.3,0.1c0,0,0,0.1,0.1,0.1l0.2-0.2l-0.3,0.1l0.3-0.1l-0.3,0c0,0,0,0,0,0.1l0.3-0.1l-0.3,0h0.2l-0.2,0l0,0h0.2
			l-0.2,0c0,0,0,0.2-0.1,0.4c-0.3,0.7-1.4,2.1-4.7,3L39.4,113.3L39.4,113.3z"/>
	</g>
	<g>
		<path class="st2" d="M58.9,112.7c-2.3-0.6-3.5-1.5-4.2-2.2c-0.3-0.3-0.5-0.7-0.6-0.9c-0.1-0.1-0.1-0.2-0.1-0.3l0-0.1l0,0l-0.2,0
			h0.2l0,0l-0.2,0h0.2h-0.3l0.3,0.1l0-0.1h-0.3l0.3,0.1l-0.3-0.1l0.3,0.1l0-0.1l-0.3-0.1l0.3,0.1l-0.3-0.1l0.2,0.2l0.1-0.1l-0.3-0.1
			l0.2,0.2l-0.2-0.2v0.3c0.1,0,0.2,0,0.2-0.1l-0.2-0.2v0.3v-0.3l-0.2,0.2c0,0,0.1,0.1,0.2,0.1v-0.3l-0.2,0.2l0.2-0.2l-0.3,0.1
			l0.1,0.1l0.2-0.2l-0.3,0.1l0.3-0.1l-0.3,0.1l0,0l0.3-0.1l-0.3,0.1l0.6-0.2l0-0.1L54,109c0,0-0.1-0.1-0.2-0.1c-0.1,0-0.2,0-0.2,0.1
			c-0.1,0.1-0.1,0.1-0.1,0.1c0,0.1,0,0.1,0,0.1l0,0.1c0.1,0.5,0.9,2.7,5.3,3.9L58.9,112.7L58.9,112.7z"/>
	</g>
	<g>
		<path class="st2" d="M399,95.5c0,0,0-0.8,0-1.6c0-0.8,0-1.6,0-1.7c0-0.5,0-0.9,0.1-1.2c0.1-0.5,0.3-0.7,0.6-0.9
			c0.3-0.2,0.9-0.3,1.8-0.3c0.2,0,23.7,0,23.7,0l0-0.6c0,0-5.9,0-11.8,0c-5.9,0-11.8,0-11.9,0c-0.6,0-1.1,0-1.5,0.1
			c-0.6,0.1-1.1,0.5-1.3,1c-0.3,0.5-0.3,1.1-0.3,1.9c0,0.1,0,3.2,0,3.2H399L399,95.5z"/>
	</g>
	<g>
		<path class="st2" d="M399,100.1c0-0.9,0-1.8,0-2.7h-0.6c0,0.9,0,1.8,0,2.7H399L399,100.1z"/>
	</g>
	<g>
		<rect x="405.7" y="116.2" class="st1" width="19.8" height="2.9"/>
	</g>
	<g>
		<polygon class="st2" points="405.7,119.1 405.7,119.4 425.8,119.4 425.8,115.8 405.4,115.8 405.4,119.4 405.7,119.4 405.7,119.1 
			406,119.1 406,116.5 425.2,116.5 425.2,118.7 405.7,118.7 405.7,119.1 406,119.1 		"/>
	</g>
	<g>
		<path class="st2" d="M425.6,115.9c-2.3-0.7-3.6-1.5-4.2-2.3c-0.3-0.4-0.5-0.7-0.6-0.9c-0.1-0.1-0.1-0.2-0.1-0.3l0-0.1l0,0l-0.2,0
			h0.2l0,0l-0.2,0h0.2h-0.3l0.3,0l0,0h-0.3l0.3,0l-0.3-0.1l0.3,0.1l0-0.1l-0.3-0.1l0.3,0.1l-0.3-0.1l0.2,0.2l0.1-0.1l-0.3-0.1
			l0.2,0.2l-0.2-0.2v0.3c0.1,0,0.2,0,0.2-0.1l-0.2-0.2v0.3v-0.3l-0.2,0.2c0,0,0.1,0.1,0.2,0.1v-0.3l-0.2,0.2l0.2-0.2l-0.3,0.1
			l0.1,0.1l0.2-0.2l-0.3,0.1l0.3-0.1l-0.3,0.1l0,0l0.3-0.1l-0.3,0.1l0.6-0.2l0-0.1l-0.1-0.1c0,0-0.1-0.1-0.2-0.1
			c-0.1,0-0.2,0-0.2,0.1c-0.1,0.1-0.1,0.1-0.1,0.1c0,0.1,0,0.1,0,0.1l0,0.1c0.1,0.5,0.9,2.7,5.4,4L425.6,115.9L425.6,115.9z"/>
	</g>
	<g>
		<path class="st2" d="M405.7,116.5c2.4-0.7,3.8-1.6,4.5-2.4c0.4-0.4,0.6-0.8,0.7-1.1c0.1-0.1,0.1-0.3,0.1-0.4l0-0.1l0-0.1l0-0.1
			l0-0.1l-0.1-0.1c0,0-0.1-0.1-0.2-0.1c-0.1,0-0.2,0.1-0.2,0.1l-0.1,0.1l0,0l0.6,0.2l-0.3-0.1l0.3,0.1l0-0.1l-0.3-0.1l0.3,0.1
			l-0.3-0.2l0.2,0.2l0.1-0.1l-0.3-0.2l0.2,0.2l-0.2-0.2v0.3c0.1,0,0.2-0.1,0.2-0.1l-0.2-0.2v0.3v-0.3l-0.2,0.2c0,0,0.1,0.1,0.2,0.1
			v-0.3l-0.2,0.2l0.2-0.2l-0.3,0.1c0,0,0,0.1,0.1,0.1l0.2-0.2l-0.3,0.1l0.3-0.1l-0.3,0c0,0,0,0,0,0.1l0.3-0.1l-0.3,0h0.2l-0.2,0l0,0
			h0.2l-0.2,0c0,0,0,0.2-0.1,0.4c-0.3,0.7-1.4,2.1-4.8,3.1L405.7,116.5L405.7,116.5z"/>
	</g>
	<g>
		<path class="st3" d="M416.3,97.8c-0.1,0-0.2-0.1-0.3-0.2c-0.5-0.4-0.9-0.8-0.8-0.7c0,0-0.1,0.7-0.6,0.9c-0.8,0.4-1.5,1-1.7,1.9
			c-0.3,1.4,0.7,2.7,2.2,3c1.5,0.2,2.9-0.7,3.2-2.1C418.5,99.4,417.6,98.2,416.3,97.8z"/>
	</g>
	<g>
		<path class="st2" d="M416.3,97.8l0.1-0.3c-0.1,0-0.2-0.1-0.2-0.1c-0.2-0.1-0.4-0.3-0.5-0.5c-0.1-0.1-0.1-0.1-0.2-0.2l-0.1-0.1l0,0
			l0,0c0,0-0.1,0-0.1,0c-0.1,0-0.2,0-0.2,0.1c-0.1,0.1-0.1,0.2-0.1,0.2c0,0.1,0,0.1,0,0.1l0,0l0,0l0.2-0.2l-0.3,0c0,0,0,0,0,0.1
			l0.2-0.2l-0.3,0l0.2,0l-0.2,0l0,0l0.2,0l-0.2,0l0,0c0,0,0,0.2-0.1,0.3c-0.1,0.1-0.2,0.2-0.3,0.3c-0.9,0.4-1.7,1.1-1.9,2.2
			c0,0.2-0.1,0.4-0.1,0.5c0,1.4,1,2.6,2.5,2.8c0.2,0,0.4,0,0.5,0c1.4,0,2.7-1,3-2.4c0-0.2,0.1-0.4,0.1-0.5c0-1.3-0.9-2.4-2.2-2.8
			L416.3,97.8l-0.1,0.3c1,0.3,1.7,1.2,1.7,2.1c0,0.1,0,0.3,0,0.4c-0.2,1.1-1.2,1.9-2.4,1.9c-0.1,0-0.3,0-0.4,0c-1.2-0.2-2-1.1-2-2.2
			c0-0.1,0-0.3,0-0.4c0.2-0.8,0.7-1.4,1.5-1.7c0.3-0.1,0.5-0.4,0.6-0.6c0.1-0.1,0.1-0.2,0.1-0.3c0-0.1,0-0.2,0-0.3l0-0.1
			c0,0,0-0.1,0-0.1l0,0l-0.1,0.1l0.1-0.1l0,0l-0.1,0.1l0.1-0.1l-0.3,0.1l0.3,0c0-0.1,0-0.1,0-0.1l-0.3,0.1l0.3,0h-0.3l0.2,0.2
			c0.1-0.1,0.1-0.2,0.1-0.2h-0.3l0.2,0.2l-0.2-0.2v0.3c0.1,0,0.2,0,0.2-0.1l-0.2-0.2v0.3v-0.3l-0.1,0.3c0,0,0,0,0.1,0v-0.3l-0.1,0.3
			l0.1-0.2l-0.1,0.2l0,0l0.1-0.2l-0.1,0.2l0,0l0,0l0,0l0,0l0,0c0,0,0.1,0.1,0.3,0.3c0.1,0.1,0.3,0.3,0.5,0.4
			c0.1,0.1,0.3,0.2,0.5,0.2L416.3,97.8z"/>
	</g>
	<g>
		<path class="st1" d="M416.5,100.7c0.3,0,0.5-0.3,1-0.5c0.6-0.1,0.5,1.3,0,1.4c-0.3,0-0.4-0.7-0.9-0.7c-0.3,0-0.9,1-1.9,0.8
			c-1-0.2-0.6-1.5,0.3-1.5C415.7,100.2,416.2,100.7,416.5,100.7z"/>
	</g>
	<g>
		<path class="st2" d="M416.5,100.7l0,0.3l0.1,0c0.1,0,0.2,0,0.3-0.1c0.3-0.1,0.4-0.3,0.7-0.4l-0.1-0.3l0,0.3l0,0v0l0,0l0,0v0l0,0
			l0,0l0,0l0,0l0,0l0,0l0,0l0,0l0,0l0,0l0,0c0,0,0.1,0.1,0.1,0.3c0,0.1,0,0.3-0.1,0.4l-0.1,0.1l0,0l0,0l0,0.1v-0.1l0,0l0,0.1v-0.1
			v0.1l0-0.1l0,0v0.1l0-0.1l0,0c0,0-0.1-0.1-0.2-0.3c-0.1-0.1-0.1-0.2-0.2-0.2c-0.1-0.1-0.2-0.1-0.4-0.1L416.5,100.7l0.1,0.3l0-0.3
			L416.5,100.7c0-0.1-0.1,0-0.2,0c-0.1,0.1-0.2,0.1-0.3,0.2c-0.1,0.1-0.3,0.3-0.5,0.4c-0.2,0.1-0.3,0.2-0.6,0.2c-0.1,0-0.1,0-0.2,0
			c-0.1,0-0.2-0.1-0.3-0.1c0,0-0.1-0.1-0.1-0.2c0-0.1,0.1-0.3,0.2-0.4c0.1-0.1,0.3-0.2,0.4-0.2l0-0.3l0,0.3l0.1,0
			c0.2,0,0.5,0.1,0.7,0.2c0.1,0.1,0.2,0.1,0.3,0.2c0.1,0,0.2,0.1,0.3,0.1L416.5,100.7l0,0.3L416.5,100.7l0-0.3l0,0.1l0-0.1l0,0
			l0,0.1l0-0.1c0,0-0.1,0-0.2-0.1c-0.3-0.1-0.7-0.4-1.3-0.4l-0.1,0l0,0l0,0c-0.3,0-0.6,0.2-0.8,0.4c-0.2,0.2-0.3,0.5-0.3,0.8
			c0,0.2,0.1,0.4,0.2,0.6c0.1,0.2,0.4,0.3,0.6,0.3c0.1,0,0.2,0,0.3,0c0.5,0,0.9-0.3,1.2-0.5c0.1-0.1,0.3-0.2,0.3-0.3l0.1-0.1l0,0
			l0,0l0,0l0,0l0,0l0,0l0-0.1v0.1l0,0l0-0.1v0.1V101l0,0.2l0,0V101l0,0.2l0,0l0,0l0,0l0.1,0c0.1,0,0.1,0.2,0.2,0.3
			c0.1,0.1,0.1,0.1,0.2,0.2c0.1,0.1,0.2,0.1,0.4,0.1l0,0c0.1,0,0.3-0.1,0.4-0.2c0.1-0.1,0.2-0.3,0.3-0.4c0.1-0.2,0.1-0.3,0.1-0.5
			c0-0.2,0-0.4-0.1-0.6c0-0.1-0.1-0.2-0.2-0.2c-0.1-0.1-0.2-0.1-0.3-0.1l-0.1,0l0,0l0,0c-0.3,0.1-0.5,0.2-0.6,0.3
			c-0.1,0-0.1,0.1-0.2,0.1l-0.1,0l0,0l0,0l0,0L416.5,100.7z"/>
	</g>
	<g>
		<path class="st1" d="M50.7,77.4c0,2.1-1.1,3.9-3.2,3.9c-2.1,0-4.3-2.9-4.3-5s1.6-2.8,3.7-2.8S50.7,75.3,50.7,77.4z"/>
	</g>
	<g>
		<path class="st2" d="M50.7,77.4h-0.3c0,1-0.3,1.9-0.7,2.6c-0.5,0.7-1.2,1.1-2.1,1.1c-0.9,0-1.9-0.6-2.7-1.6
			c-0.8-0.9-1.3-2.1-1.3-3.1c0-1,0.3-1.5,0.9-1.9c0.6-0.4,1.4-0.6,2.5-0.5c1,0,1.9,0.4,2.5,1c0.6,0.6,1,1.5,1,2.4H50.7H51
			c0-1.1-0.5-2.2-1.2-2.9c-0.8-0.7-1.8-1.2-3-1.2c-1.1,0-2.1,0.2-2.8,0.7c-0.7,0.5-1.2,1.3-1.2,2.4c0,1.2,0.6,2.4,1.4,3.5
			c0.9,1,2,1.8,3.2,1.8c1.2,0,2.1-0.5,2.7-1.3c0.6-0.8,0.9-1.8,0.9-2.9H50.7z"/>
	</g>
	<g>
		<path class="st0" d="M43.6,75.9c0.7,2.7,0.9,5-2.6,5.8c-3.4,0.8-4.3-1.2-5-3.9c-0.7-2.7,1-3.2,3.1-3.7
			C41.2,73.5,42.9,73.2,43.6,75.9z"/>
	</g>
	<g>
		<path class="st2" d="M43.6,75.9L43.3,76c0.2,0.9,0.4,1.7,0.4,2.4c0,0.7-0.2,1.3-0.6,1.8c-0.4,0.5-1.1,0.9-2.2,1.1
			c-0.5,0.1-0.9,0.2-1.3,0.2c-1.1,0-1.7-0.4-2.2-1.1c-0.5-0.7-0.8-1.6-1.1-2.8c-0.1-0.4-0.1-0.7-0.1-1c0-0.4,0.1-0.7,0.2-0.9
			c0.2-0.4,0.6-0.6,1-0.9c0.5-0.2,1.1-0.4,1.8-0.5c0.8-0.2,1.5-0.3,2-0.3c0.5,0,0.9,0.1,1.2,0.4c0.3,0.3,0.6,0.8,0.8,1.6L43.6,75.9
			l0.3-0.1c-0.2-0.9-0.6-1.5-1-1.9c-0.5-0.4-1.1-0.5-1.7-0.5c-0.7,0-1.4,0.2-2.2,0.4c-0.9,0.2-1.7,0.4-2.4,0.9
			c-0.3,0.2-0.6,0.5-0.8,0.8c-0.2,0.3-0.3,0.8-0.3,1.3c0,0.3,0.1,0.7,0.2,1.1c0.3,1.2,0.6,2.2,1.2,3c0.6,0.8,1.5,1.3,2.7,1.3
			c0.4,0,0.9-0.1,1.4-0.2c1.2-0.3,2-0.7,2.6-1.4c0.5-0.6,0.7-1.4,0.7-2.2c0-0.8-0.2-1.7-0.4-2.6L43.6,75.9z"/>
	</g>
	<g>
		<path class="st2" d="M45.8,81.2c0.1,0.3,0.3,0.9,0.5,1.4c0.2,0.5,0.3,1.1,0.5,1.5l0.6-0.2c-0.1-0.3-0.3-0.9-0.5-1.4
			c-0.2-0.6-0.3-1.1-0.5-1.5L45.8,81.2L45.8,81.2z"/>
	</g>
	<g>
		<path class="st2" d="M50.3,78.6c0.6,1.7,1.8,4.1,2.8,5.4l0.5-0.4c-0.9-1.3-2.1-3.6-2.7-5.3L50.3,78.6L50.3,78.6z"/>
	</g>
	<g>
		<path class="st2" d="M43.7,75.9c0.1-0.1,0.4-0.2,0.6-0.1c0.1,0,0.2,0,0.3,0c0.1,0,0.1,0.1,0.1,0.1c0.2,0.3,0.2,0.6,0.3,1l0,0.1
			c0,0.2-0.1,0.4-0.2,0.6c-0.1,0.2-0.3,0.3-0.5,0.3c-0.1,0-0.1,0-0.2,0L44,78.5c0.1,0,0.2,0,0.3,0c0.4,0,0.8-0.2,1-0.5
			c0.2-0.3,0.4-0.6,0.4-1c0-0.1,0-0.1,0-0.2c-0.1-0.4-0.1-0.9-0.4-1.3c-0.1-0.2-0.3-0.2-0.4-0.3c-0.2-0.1-0.3-0.1-0.5-0.1
			c-0.3,0-0.7,0.1-1,0.3L43.7,75.9L43.7,75.9z"/>
	</g>
	<g>
		<path class="st2" d="M37.7,67.1c0.1,0.2,0.1,0.3,0.1,0.5c0,0.5-0.3,1.2-0.6,1.9c-0.3,0.7-0.6,1.4-0.6,2c0,0.4,0.2,0.9,0.6,1.2
			l0.4-0.5c-0.3-0.2-0.4-0.4-0.4-0.7c0-0.5,0.3-1.1,0.6-1.8c0.3-0.7,0.6-1.4,0.6-2.1c0-0.3,0-0.5-0.2-0.8L37.7,67.1L37.7,67.1z"/>
	</g>
	<g>
		<path class="st2" d="M39.3,67.1c0.1,0.2,0.1,0.3,0.1,0.5c0,0.5-0.3,1.2-0.6,1.9c-0.3,0.7-0.6,1.4-0.6,2c0,0.4,0.2,0.9,0.6,1.2
			l0.4-0.5c-0.3-0.2-0.4-0.4-0.4-0.7c0-0.5,0.3-1.1,0.6-1.8c0.3-0.7,0.6-1.4,0.6-2.1c0-0.3,0-0.5-0.2-0.8L39.3,67.1L39.3,67.1z"/>
	</g>
	<g>
		<path class="st2" d="M40.8,67.1c0.1,0.2,0.1,0.3,0.1,0.5c0,0.5-0.3,1.2-0.6,1.9c-0.3,0.7-0.6,1.4-0.6,2c0,0.4,0.2,0.9,0.6,1.2
			l0.4-0.5c-0.3-0.2-0.4-0.4-0.4-0.7c0-0.5,0.3-1.1,0.6-1.8c0.3-0.7,0.6-1.4,0.6-2.1c0-0.3,0-0.5-0.2-0.8L40.8,67.1L40.8,67.1z"/>
	</g>
	<g>
		<path class="st3" d="M11.3,87c-2.6,4.7-0.7,10.5-1.3,13.4c0.4,0.2,1.7-0.9,1.9-2.6c0.3-2.5-0.3-6.4,1-9c1.5-1.6,2.9-2.1,4.3-3.1
			c1.1-0.7,2.7-2.4,2.5-3.2c-0.1-0.4-1.2-0.6-1.8-1C16.1,80.2,13.9,82.3,11.3,87z"/>
	</g>
	<g>
		<path class="st2" d="M11.3,87L11,86.8c-1.2,2.1-1.5,4.5-1.5,6.7c0,2,0.2,3.9,0.2,5.4c0,0.6,0,1.1-0.1,1.5l0,0.2l0.2,0.1
			c0.1,0.1,0.2,0.1,0.3,0.1c0.2,0,0.4-0.1,0.7-0.2c0.6-0.4,1.3-1.4,1.4-2.6c0.1-1.3,0.1-2.9,0.1-4.5c0.1-1.6,0.2-3.2,0.9-4.4
			l-0.3-0.1l0.2,0.2c1.5-1.5,2.8-2.1,4.3-3.1c0.5-0.4,1.2-0.9,1.7-1.6c0.3-0.3,0.5-0.6,0.7-0.9c0.2-0.3,0.3-0.6,0.3-0.9l0-0.1
			c0-0.1-0.1-0.2-0.1-0.3c-0.1-0.1-0.3-0.2-0.4-0.3c-0.2-0.1-0.5-0.2-0.7-0.3c-0.3-0.1-0.5-0.2-0.7-0.3c-0.4-0.3-0.9-0.4-1.4-0.4
			c-0.5,0-0.9,0.2-1.4,0.4C14,82.1,12.6,84,11,86.8L11.3,87l0.3,0.2c1-1.9,2-3.3,2.9-4.2c0.4-0.5,0.9-0.8,1.2-1.1
			c0.4-0.2,0.7-0.3,1.1-0.3c0.3,0,0.7,0.1,1,0.3c0.4,0.3,0.8,0.4,1.2,0.5c0.2,0.1,0.3,0.1,0.4,0.2l0.1,0.1l0,0l0,0l0,0l0,0l0,0l0,0
			l0,0c0,0.1-0.1,0.3-0.2,0.6c-0.4,0.7-1.5,1.8-2.2,2.3c-1.4,0.9-2.8,1.5-4.4,3.2l0,0l0,0c-0.7,1.3-0.9,3-0.9,4.7
			c-0.1,1.6,0,3.2-0.1,4.5c-0.1,0.7-0.4,1.3-0.7,1.7c-0.2,0.2-0.3,0.4-0.5,0.5c-0.1,0.1-0.3,0.1-0.3,0.1l0,0l0,0.1l0-0.1l0,0l0,0.1
			l0-0.1l-0.2,0.3l0.3,0.1c0.1-0.5,0.1-1,0.1-1.6c0-1.5-0.2-3.4-0.2-5.4c0-2.2,0.3-4.4,1.4-6.4L11.3,87z"/>
	</g>
	<g>
		<path class="st2" d="M20.8,78.7c-0.3,1.3-0.7,2.7-1.4,4.1c-0.7,1.3-1.8,2.6-3.2,3.3c-1.8,1-3,1.7-3.7,2.9
			c-0.2,0.3-0.3,0.6-0.4,1.1c-0.3,1.4-0.3,3.9-0.3,6.6c0,6.2,0.5,14,0.5,14l0,0.1l0,0.1c0,0.1,0.4,0.8,2.4,1.9
			c2,1.2,5.5,2.8,11.8,4.6l0.2-0.6c-6.3-1.9-9.8-3.5-11.7-4.6c-0.9-0.6-1.5-1-1.8-1.3c-0.2-0.1-0.2-0.3-0.3-0.3l-0.1-0.1l0,0
			l-0.1,0.1l0.1-0.1l0,0l-0.1,0.1l0.1-0.1l-0.3,0.1l0.3,0c0,0,0-0.5-0.1-1.3c-0.1-2.5-0.4-8-0.4-12.6c0-1.8,0-3.5,0.1-4.9
			c0.1-0.7,0.1-1.2,0.2-1.7c0.1-0.4,0.2-0.8,0.3-0.9c0.7-1,1.8-1.7,3.5-2.7c1.5-0.8,2.7-2.2,3.4-3.6c0.8-1.4,1.2-3,1.5-4.3
			L20.8,78.7L20.8,78.7z"/>
	</g>
	<g>
		<path class="st3" d="M21,79.4c-0.7,3.2-1.2,3.2-2.8,3.2c-1.5,0-2.8-1.4-2.8-3.2s1.2-3.2,2.8-3.2C19.7,76.2,21.3,77.7,21,79.4z"/>
	</g>
	<g>
		<path class="st2" d="M21,79.4l-0.3-0.1c-0.2,0.8-0.3,1.4-0.5,1.8c-0.1,0.3-0.2,0.5-0.4,0.7c-0.2,0.2-0.3,0.3-0.6,0.4
			c-0.2,0.1-0.6,0.1-1,0.1l-0.1,0c-0.7,0-1.3-0.3-1.7-0.8c-0.5-0.5-0.7-1.2-0.7-2.1c0-0.8,0.3-1.5,0.7-2.1c0.5-0.5,1.1-0.8,1.7-0.8
			c0.6,0,1.2,0.3,1.7,0.7c0.5,0.4,0.8,1,0.8,1.7c0,0.1,0,0.3,0,0.4L21,79.4l0.3,0.1c0-0.2,0.1-0.4,0.1-0.5c0-0.9-0.4-1.6-1-2.2
			c-0.6-0.5-1.4-0.9-2.2-0.9c-0.9,0-1.7,0.4-2.2,1c-0.6,0.6-0.9,1.5-0.9,2.5c0,1,0.3,1.8,0.9,2.5c0.6,0.6,1.3,1,2.2,1l0.1,0
			c0.4,0,0.7,0,1-0.1c0.2,0,0.5-0.1,0.7-0.3c0.3-0.2,0.5-0.6,0.7-1.1c0.2-0.5,0.4-1.2,0.6-2.1L21,79.4z"/>
	</g>
	<g>
		<path class="st3" d="M20.8,78.5c-3.9,2-9.5-7.1-2.3-16.1c5.6-7,9.4-2.5,10.9-1.5L26.8,59c7.9-1.4,9.6,8.5,7.5,10.5
			c-1.2-9-7.2-5.4-8.3-2.6c-3,6.1-3.8,5.8-6.1,5.7c0,0-1.6,3.8,1.7,3.2c0,0,0,1.3-0.4,3.1L20.8,78.5z"/>
	</g>
	<g>
		<path class="st2" d="M20.8,78.5l-0.1-0.3c-0.3,0.2-0.7,0.2-1,0.2c-1,0-2.1-0.7-2.9-1.9c-0.8-1.2-1.4-3-1.4-5.1
			c0-2.6,0.9-5.7,3.4-8.9c2.3-2.9,4.2-3.7,5.8-3.7c1.1,0,2,0.4,2.8,0.9c0.8,0.5,1.4,1.1,1.9,1.4l0.4-0.5l-2.6-1.8L26.8,59l0.1,0.3
			c0.5-0.1,1-0.1,1.4-0.1c2.3,0,3.9,1.1,4.9,2.6c1.1,1.5,1.6,3.4,1.5,5c0,0.6-0.1,1.1-0.2,1.6c-0.1,0.4-0.3,0.8-0.5,1l0.2,0.2l0.3,0
			c-0.3-2.2-0.9-3.7-1.6-4.6c-0.8-1-1.7-1.4-2.7-1.4c-1,0-2,0.5-2.8,1.1c-0.8,0.6-1.5,1.4-1.8,2.2l0.3,0.1l-0.3-0.1
			c-1.2,2.5-2.1,3.9-2.8,4.7c-0.4,0.4-0.7,0.6-1,0.7c-0.3,0.1-0.6,0.2-1,0.2c-0.3,0-0.7,0-1.1-0.1l-0.2,0l-0.1,0.2
			c0,0-0.4,1-0.4,1.9c0,0.4,0.1,0.8,0.3,1.2c0.3,0.4,0.7,0.6,1.3,0.6c0.2,0,0.5,0,0.7-0.1l-0.1-0.3l-0.3,0c0,0,0,0.1,0,0.2
			c0,0.4-0.1,1.5-0.4,2.8l0.3,0.1l0.3-0.2l-0.3-0.3l-0.2-0.2l-0.2,0.1L20.8,78.5l-0.3,0.2l0.3,0.3l0.4,0.6l0.1-0.7
			c0.4-1.8,0.4-3.1,0.4-3.1l0-0.4l-0.4,0.1c-0.2,0-0.4,0.1-0.6,0.1c-0.5,0-0.7-0.1-0.8-0.3c-0.1-0.2-0.2-0.5-0.2-0.8
			c0-0.4,0.1-0.8,0.2-1.1c0-0.2,0.1-0.3,0.1-0.4l0-0.1l0,0l-0.3-0.1l0,0.3c0.4,0,0.8,0.1,1.1,0.1c0.4,0,0.8,0,1.2-0.2
			c0.6-0.2,1.2-0.7,1.8-1.6c0.6-0.9,1.4-2.2,2.3-4.1l0,0l0,0c0.3-0.7,0.9-1.4,1.6-2c0.7-0.6,1.6-0.9,2.5-0.9c0.8,0,1.5,0.3,2.2,1.1
			c0.7,0.8,1.2,2.2,1.5,4.3l0.1,0.6l0.4-0.4c0.3-0.3,0.6-0.7,0.7-1.3c0.2-0.5,0.2-1.1,0.2-1.7c0-1.7-0.5-3.7-1.7-5.3
			c-1.1-1.6-2.9-2.9-5.4-2.8c-0.5,0-1,0-1.6,0.1L26,58.9l3.3,2.3l0.2-0.3l0.2-0.3c-0.4-0.2-1.1-0.9-1.9-1.4c-0.8-0.5-1.9-1-3.1-1
			c-1.8,0-3.9,1-6.3,4c-2.6,3.2-3.6,6.5-3.6,9.3c0,2.2,0.6,4.1,1.5,5.4c0.9,1.4,2.2,2.2,3.4,2.2c0.4,0,0.9-0.1,1.3-0.3L20.8,78.5
			l-0.3,0.2L20.8,78.5z"/>
	</g>
	<g>
		<path class="st2" d="M415.5,53.2c1.6,0,2.7,0.3,3.4,0.7c0.7,0.4,1.2,0.8,1.6,1.2c0.3,0.3,0.9,1,1.4,1.8c0.5,0.8,1,1.7,1.2,2.4
			l0.6-0.1c-0.2-0.9-0.7-1.8-1.3-2.6c-0.5-0.8-1.1-1.5-1.5-1.9c-0.4-0.4-0.9-0.9-1.8-1.3c-0.8-0.4-2-0.7-3.7-0.7V53.2L415.5,53.2z"
			/>
	</g>
	<g>
		<path class="st2" d="M342,50.2c0.2-0.1,0.6-0.3,1.1-0.4c0.5-0.1,1.1-0.1,1.6-0.1c0.4,0,0.7,0,0.9,0.1c1.1,0.3,1.9,0.7,2.4,1.2
			c0.8,0.7,1.1,1.4,1.6,2.1c0.3,0.4,0.6,0.7,1,1c0.4,0.3,1,0.5,1.7,0.6l0.1-0.6c-0.9-0.1-1.4-0.4-1.8-0.7c-0.6-0.5-0.9-1.2-1.5-2
			c-0.6-0.8-1.6-1.6-3.4-2.1c-0.3-0.1-0.7-0.1-1.1-0.1c-0.5,0-1.1,0.1-1.7,0.2c-0.5,0.1-1,0.2-1.3,0.5L342,50.2L342,50.2z"/>
	</g>
</g>
</svg>
