
<svg version="1.1" id="Layer_1" xmlns="http://www.w3.org/2000/svg" xmlns:xlink="http://www.w3.org/1999/xlink" x="0px" y="0px"
	 viewBox="0 0 200 100" style="enable-background:new 0 0 200 100;" xml:space="preserve">
<g>
	<path d="M91,46.7c-0.3-0.1-0.5-0.1-0.8-0.2c-1-0.2-1.9,0.2-2.5,1.1c-0.6,0.9-1.1,1.9-1.7,2.9c-1.3,2.4-2.5,4.8-3.9,7.1
		c-2.4,3.8-5.3,7.2-9.2,9.6c-3.8,2.3-7.8,3.3-12.2,2.4c-4.4-0.9-7.9-3.4-10.8-6.8c-3.5-4.2-5.6-9-6.9-14.3c-0.3-1.1-0.5-2.3-0.7-3.5
		c0.4,0,0.6-0.1,0.8-0.1c1.9-0.1,3.7-0.3,5.6-0.4c1.7-0.2,2.6-1.1,2.5-2.8c0-0.9-0.2-1.9-0.4-2.8c-0.4-1.7-1.4-2.4-3.1-2.5
		c-0.3,0-0.6,0-1,0c-5.8,0-11.7,0-17.5,0c-0.4,0-0.7,0-1.1,0.1c-1.6,0.2-2.5,1-2.8,2.5c-0.1,0.5-0.2,1.1-0.3,1.6c0,0.4,0,0.9,0,1.3
		c0,0.2,0.1,0.4,0.1,0.6c0.2,2.4,1.5,3.5,3.9,3.4c0.3,0,0.6-0.1,0.9-0.1c1.3-0.1,2.6-0.2,3.9-0.3c0.1,0.4,0.1,0.6,0.2,0.9
		c1.1,6.1,2.7,12.1,5.5,17.7c2.6,5.3,6.1,10,11.1,13.3c5,3.3,10.5,4.5,16.4,3.5c5-0.9,9.3-3.2,13.1-6.5c4.5-3.9,7.8-8.6,10.3-14
		c1.4-3,2.7-6.1,3.3-9.4C94.3,48.5,93.5,47.4,91,46.7z"/>
	<path d="M161.5,69.5c0-6,0-12,0-18c0-1.5-0.4-2-1.9-2.2c-1.2-0.1-2.4-0.1-3.6,0.1c-1,0.1-1.4,0.7-1.5,1.7c0,0.3,0,0.6,0,1
		c0,4.9,0,9.8,0,14.7c0,2.7-1.2,4.2-4,4.5c-3.6,0.4-4.6-1.2-4.5-3.9c0.1-5.1,0-10.3,0-15.4c0-0.3,0-0.6,0-1
		c-0.1-0.9-0.5-1.5-1.4-1.6c-1.4-0.1-2.8-0.1-4.1,0c-1,0.1-1.4,0.8-1.4,1.7c0,6-0.1,12.1,0,18.1c0.1,4.2,2.6,7.2,6.6,7.9
		c3.5,0.6,6.8,0.3,9.7-2.1c0.1,0.3,0.2,0.5,0.4,0.7c0.8,1.4,1.7,1.8,3.2,1.3c0.8-0.3,1.6-0.7,2.4-1.1c1.1-0.6,1.3-1.3,0.8-2.5
		C161.7,72.1,161.5,70.9,161.5,69.5z"/>
	<path d="M135.6,49.6c-0.2-0.1-0.5-0.2-0.8-0.3c-0.4-0.1-0.8-0.1-1.2-0.1c-4.3,0-8.7,0-13,0c-0.3,0-0.7,0-1,0.1
		c-1,0.1-1.7,0.7-1.9,1.6c-0.2,0.8-0.3,1.7-0.3,2.6c0.1,2.3,1,3.1,3.3,3c0.3,0,0.6-0.1,0.9-0.1c0.7,0,1.3-0.1,2.1-0.1
		c0,0.4,0,0.7,0,1c0,5.8,0,11.6,0,17.3c0,1.3,0.3,1.9,1.3,2c1.4,0.1,2.9,0.1,4.3,0c0.9-0.1,1.3-0.7,1.3-1.6c0-0.3,0-0.7,0-1
		c0-5.8,0-11.5,0-17.3c0-0.3,0-0.6,0-1c1.4-0.1,2.8-0.2,4.1-0.3c0.7-0.1,1.5-0.2,2-0.8C137.5,53.5,136.9,50.3,135.6,49.6z"/>
	<path d="M175.1,52c0-0.3,0-0.6,0-1c-0.1-1-0.5-1.5-1.5-1.6c-1.2-0.1-2.3-0.2-3.5-0.1c-1.5,0.1-2,0.7-2,2.3c0,3.9,0,7.7,0,11.6h0
		c0,3.9,0,7.9,0,11.8c0,1.1,0.4,1.7,1.5,1.8c1.3,0.1,2.6,0.2,3.9,0c1.1-0.1,1.5-0.7,1.5-1.8c0-0.3,0-0.5,0-0.8
		C175.1,66.8,175.1,59.4,175.1,52z"/>
	<path d="M96.3,19c-3.8,0-6.9,3-6.9,6.9c0,3.8,3.1,6.8,6.9,6.8c3.8,0,6.8-3.1,6.8-6.9C103.2,22,100.1,19,96.3,19z"/>
</g>
</svg>
