<?xml version="1.0" encoding="utf-8"?>
<!-- Generator: Adobe Illustrator 20.1.0, SVG Export Plug-In . SVG Version: 6.00 Build 0)  -->
<svg version="1.1" id="Layer_1" xmlns="http://www.w3.org/2000/svg" xmlns:xlink="http://www.w3.org/1999/xlink" x="0px" y="0px"
	 viewBox="0 0 200 200" style="enable-background:new 0 0 200 200;" xml:space="preserve">
<g>
	<path d="M169.1,36.3H30.9c-4,0-7.3,3.3-7.3,7.3V140c0,4,3.3,7.3,7.3,7.3h52.7v10.8H70c-1.5,0-2.7,1.2-2.7,2.7s1.2,2.7,2.7,2.7h60.1
		c1.5,0,2.7-1.2,2.7-2.7s-1.2-2.7-2.7-2.7h-13.8v-10.8h52.7c4,0,7.3-3.3,7.3-7.3V43.7C176.4,39.6,173.1,36.3,169.1,36.3z M30.9,41.8
		h138.2c1,0,1.8,0.8,1.8,1.8v78.1H29.1V43.7C29.1,42.7,29.9,41.8,30.9,41.8z M110.9,158.2H89.1v-10.8h21.8V158.2z M169.1,141.8H30.9
		c-1,0-1.8-0.8-1.8-1.8v-12.7h141.9V140C170.9,141,170.1,141.8,169.1,141.8z"/>
	<path d="M74.5,112.7h50.9c0.7,0,1.4-0.3,1.9-0.8c0.5-0.5,0.8-1.2,0.8-1.9c0-12.1-7.6-22.4-18.2-26.5c4.2-3.1,6.9-8.1,6.9-13.7
		c0-9.4-7.6-17-16.9-17c-9.3,0-16.9,7.6-16.9,17c0,5.6,2.7,10.6,6.9,13.7C79.4,87.5,71.8,97.8,71.8,110c0,0.7,0.3,1.4,0.8,1.9
		C73.1,112.4,73.8,112.7,74.5,112.7z M91.9,61.7c2.1-2.1,4.9-3.4,8.1-3.4s6,1.3,8.1,3.4c2.1,2.1,3.3,4.9,3.3,8.1
		c0,3.2-1.3,6-3.3,8.1c-2.1,2.1-4.9,3.4-8.1,3.4c-3.2,0-6-1.3-8.1-3.4c-2.1-2.1-3.3-4.9-3.3-8.1C88.6,66.6,89.9,63.7,91.9,61.7z
		 M83.9,93.8c4.1-4.1,9.8-6.7,16.1-6.7s12,2.6,16.1,6.7c3.5,3.5,5.9,8.2,6.5,13.4H77.4C78.1,102,80.4,97.3,83.9,93.8z"/>
</g>
</svg>
