<?xml version="1.0" encoding="utf-8"?>
<!-- Generator: Adobe Illustrator 20.1.0, SVG Export Plug-In . SVG Version: 6.00 Build 0)  -->
<svg version="1.1" id="Layer_1" xmlns="http://www.w3.org/2000/svg" xmlns:xlink="http://www.w3.org/1999/xlink" x="0px" y="0px"
	 viewBox="0 0 334 144" style="enable-background:new 0 0 334 144;" xml:space="preserve">
<style type="text/css">
	.st0{fill:#284D8D;}
	.st1{fill:#F2A428;}
	.st2{enable-background:new    ;}
	.st3{fill:#FFFFFF;}
</style>
<g>
	<g>
		<rect x="18.4" y="17.3" class="st0" width="119.4" height="28.7"/>
	</g>
	<g>
		<path class="st1" d="M152,80.1V53.6h8.6c2.2,0,4.4,0.5,6.3,1.6c1.9,1.1,3.4,2.6,4.4,4.5c1.1,2,1.6,4.2,1.6,6.5v1.2
			c0,2.3-0.5,4.5-1.5,6.5c-1,1.9-2.5,3.5-4.3,4.5c-1.9,1.1-4.1,1.7-6.2,1.7H152z M158.4,58.5v16.7h2.2c1.7,0.1,3.2-0.7,4.2-2
			c1.1-1.7,1.6-3.8,1.5-5.8v-1.1c0.1-2-0.4-4.1-1.5-5.8c-1-1.3-2.6-2.1-4.3-2L158.4,58.5z"/>
	</g>
	<g>
		<path class="st1" d="M198.3,80.1H192l-9.4-16.5v16.5h-6.4V53.6h6.4l9.4,16.5V53.6h6.4V80.1z"/>
	</g>
	<g>
		<path class="st1" d="M218.8,68.8h-10.1v6.3h11.9v4.9h-18.3V53.6h18.3v4.9h-11.9v5.6h10.1L218.8,68.8z"/>
	</g>
	<g>
		<path class="st1" d="M237,73.1c0-0.8-0.3-1.7-1-2.2c-1.1-0.7-2.2-1.3-3.5-1.6c-1.4-0.5-2.7-1-4-1.6c-3.4-1.7-5.2-4-5.2-7
			c0-1.4,0.4-2.8,1.3-3.9c0.9-1.2,2.2-2.1,3.6-2.6c1.7-0.6,3.5-1,5.3-0.9c1.8,0,3.5,0.3,5.1,1c1.4,0.6,2.7,1.6,3.5,2.9
			c0.8,1.3,1.3,2.8,1.3,4.3H237c0.1-0.9-0.3-1.9-1-2.5c-0.8-0.6-1.7-0.9-2.7-0.9c-1-0.1-1.9,0.2-2.7,0.8c-1,0.7-1.3,2.1-0.6,3.1
			c0.2,0.3,0.4,0.5,0.7,0.7c1.2,0.8,2.5,1.3,3.9,1.7c1.6,0.5,3.1,1.1,4.5,1.9c2.9,1.7,4.3,3.9,4.3,6.8c0.1,2.1-0.9,4.2-2.6,5.5
			c-2.1,1.4-4.6,2.1-7.2,2c-2,0-4-0.4-5.8-1.2c-1.6-0.6-3-1.8-3.9-3.2c-0.9-1.4-1.4-3-1.4-4.6h6.4c-0.1,1.2,0.3,2.3,1.1,3.2
			c1,0.8,2.3,1.1,3.6,1c0.9,0.1,1.8-0.2,2.5-0.7C236.6,74.5,237,73.8,237,73.1z"/>
	</g>
	<g>
		<path class="st1" d="M246.6,80.1V53.6h8.6c2.2,0,4.4,0.5,6.3,1.6c1.9,1.1,3.4,2.6,4.4,4.5c1.1,2,1.6,4.2,1.6,6.5v1.2
			c0,2.3-0.5,4.5-1.5,6.5c-1,1.9-2.5,3.5-4.3,4.5c-1.9,1.1-4,1.7-6.2,1.7H246.6z M253,58.5v16.7h2.2c1.7,0.1,3.2-0.7,4.2-2
			c1.1-1.7,1.6-3.8,1.5-5.8v-1.1c0.1-2-0.4-4.1-1.5-5.8c-1-1.3-2.6-2.1-4.3-2L253,58.5z"/>
	</g>
	<g>
		<path class="st1" d="M285.9,75.2h-8.8l-1.5,5h-6.8l9.7-26.6h6l9.8,26.6h-6.8L285.9,75.2z M278.6,70.2h5.7l-2.9-9.2L278.6,70.2z"/>
	</g>
	<g>
		<path class="st1" d="M303.2,65.1l4.9-11.5h6.9l-8.5,17v9.5H300v-9.5l-8.5-17h6.9L303.2,65.1z"/>
	</g>
	<g>
		<polygon class="st1" points="149.7,58.1 149.7,53.1 139.4,53.1 130.7,66.5 130.7,80.1 149.7,80.1 149.7,74.1 137.7,74.1 
			137.7,69.1 146.7,69.1 146.7,64.1 137.7,64.1 137.7,58.1 		"/>
	</g>
	<g>
		<path class="st0" d="M135.3,126.3V89.9h13.1c4.7,0,8.2,0.9,10.7,2.6c2.4,1.7,3.8,4.5,3.7,7.5c0.1,1.7-0.4,3.4-1.3,4.8
			c-0.9,1.4-2.3,2.4-3.8,3c1.7,0.4,3.3,1.4,4.4,2.8c1,1.5,1.6,3.2,1.5,5c0,3.6-1.1,6.2-3.4,8c-2.3,1.8-5.6,2.7-10,2.7L135.3,126.3z
			 M144.1,105.1h4.6c1.4,0.1,2.9-0.3,4.1-1.1c0.8-0.8,1.3-1.9,1.2-3c0.1-1.3-0.4-2.5-1.3-3.3c-1.3-0.8-2.8-1.1-4.3-1h-4.3
			L144.1,105.1z M144.1,110.8v8.7h5.7c1.3,0.1,2.6-0.3,3.6-1.1c0.9-0.8,1.3-1.9,1.3-3.1c0-3-1.5-4.6-4.5-4.6H144.1z"/>
	</g>
	<g>
		<path class="st0" d="M177.7,126.3h-8.8V89.9h8.8V126.3z"/>
	</g>
	<g>
		<path class="st0" d="M214.2,126.3h-8.8l-12.9-22.7v22.7h-8.8V89.9h8.8l12.9,22.7V89.9h8.8L214.2,126.3z"/>
	</g>
	<g>
		<path class="st0" d="M240.4,119.5h-12l-2.1,6.8h-9.4l13.4-36.4h8.2l13.4,36.4h-9.4L240.4,119.5z M230.5,112.7h7.8l-3.9-12.6
			L230.5,112.7z"/>
	</g>
	<g>
		<path class="st0" d="M268.2,113.4h-4.7v12.9h-8.8V89.9H269c4.3,0,7.7,1,10.1,2.9c2.5,2,3.8,5,3.6,8.1c0.1,2.2-0.4,4.4-1.5,6.3
			c-1.2,1.8-2.9,3.2-4.8,4l7.6,14.7v0.4h-9.4L268.2,113.4z M263.4,106.7h5.6c1.4,0.1,2.7-0.4,3.8-1.3c0.9-1,1.3-2.3,1.3-3.7
			c0.1-1.4-0.4-2.7-1.3-3.7c-1-1-2.4-1.4-3.8-1.3h-5.5V106.7z"/>
	</g>
	<g>
		<path class="st0" d="M306.8,116.6c0.1-1.2-0.5-2.3-1.4-3c-1.5-1-3.1-1.7-4.8-2.2c-1.9-0.6-3.8-1.4-5.6-2.2
			c-4.7-2.3-7.1-5.5-7.1-9.6c0-1.9,0.6-3.8,1.8-5.3c1.3-1.6,3-2.9,5-3.6c2.3-0.9,4.8-1.3,7.2-1.3c2.4,0,4.8,0.4,7,1.4
			c2,0.8,3.6,2.2,4.8,4c1.2,1.8,1.8,3.8,1.7,5.9h-8.8c0.1-1.3-0.4-2.6-1.4-3.4c-1-0.9-2.3-1.3-3.7-1.2c-1.3-0.1-2.6,0.3-3.7,1
			c-1.4,0.9-1.8,2.8-0.8,4.2c0.3,0.4,0.6,0.7,1,0.9c1.6,1,3.4,1.8,5.3,2.3c2.2,0.7,4.2,1.5,6.2,2.6c3.9,2.3,5.9,5.4,5.9,9.4
			c0.1,2.9-1.2,5.8-3.6,7.5c-2.4,1.8-5.7,2.7-9.9,2.7c-2.7,0-5.5-0.5-8-1.6c-2.2-0.9-4.1-2.4-5.4-4.4c-1.2-1.9-1.9-4.1-1.8-6.4h8.8
			c-0.1,1.6,0.4,3.2,1.5,4.3c1,0.9,2.6,1.4,4.9,1.4c1.2,0.1,2.4-0.3,3.4-0.9C306.4,118.6,306.9,117.6,306.8,116.6z"/>
	</g>
	<g>
		<polygon class="st0" points="105.7,104.7 105.7,126.1 131.7,126.1 131.7,119.1 115.7,119.1 115.7,111.1 129.7,111.1 129.7,104.1 
			115.7,104.1 115.7,97.1 131.7,97.1 131.7,90.1 116.1,90.1 		"/>
	</g>
	<g>
		<polygon class="st0" points="41.8,124.3 19.6,124.3 66.4,51.2 88.7,51.2 		"/>
	</g>
	<g>
		<polygon class="st1" points="40.7,51.1 18.7,51.1 18.7,124.3 40.7,89.5 		"/>
	</g>
	<g>
		<polygon class="st0" points="91,125.5 68.8,125.5 115.6,52.3 137.8,52.3 		"/>
	</g>
	<g>
		<polygon class="st1" points="88.7,92.5 88.7,53 66.7,87.7 66.7,125.1 67.9,125.1 		"/>
	</g>
	<g class="st2">
		<path class="st3" d="M37,36.4c0-0.7-0.3-1.3-0.8-1.7c-0.5-0.4-1.4-0.8-2.8-1.2c-1.3-0.4-2.4-0.9-3.2-1.3c-1.5-1-2.3-2.2-2.3-3.7
			c0-1.3,0.5-2.4,1.6-3.3c1.1-0.9,2.5-1.3,4.3-1.3c1.2,0,2.2,0.2,3.1,0.6c0.9,0.4,1.6,1,2.1,1.8c0.5,0.8,0.8,1.7,0.8,2.6H37
			c0-0.9-0.3-1.5-0.8-2c-0.5-0.5-1.3-0.7-2.3-0.7c-0.9,0-1.7,0.2-2.2,0.6c-0.5,0.4-0.8,1-0.8,1.7c0,0.6,0.3,1.1,0.8,1.5
			c0.6,0.4,1.5,0.8,2.8,1.2c1.3,0.4,2.3,0.8,3.1,1.3c0.8,0.5,1.4,1.1,1.7,1.7s0.5,1.4,0.5,2.2c0,1.4-0.5,2.5-1.6,3.3
			s-2.5,1.2-4.3,1.2c-1.2,0-2.3-0.2-3.3-0.7c-1-0.4-1.8-1.1-2.4-1.8s-0.8-1.7-0.8-2.7h2.9c0,0.9,0.3,1.7,0.9,2.2
			c0.6,0.5,1.5,0.8,2.7,0.8c1,0,1.8-0.2,2.3-0.6S37,37.1,37,36.4z"/>
		<path class="st3" d="M53.2,34.3H50v6.4h-2.9V24.1H53c1.9,0,3.4,0.4,4.4,1.3c1,0.9,1.6,2.1,1.6,3.7c0,1.1-0.3,2-0.8,2.8
			c-0.5,0.8-1.3,1.3-2.2,1.7l3.7,6.9v0.1h-3.1L53.2,34.3z M50,32h3c1,0,1.7-0.2,2.3-0.7c0.5-0.5,0.8-1.2,0.8-2
			c0-0.9-0.3-1.6-0.8-2.1c-0.5-0.5-1.3-0.7-2.3-0.8H50V32z"/>
		<path class="st3" d="M69.5,40.7h-2.9V24.1h2.9V40.7z"/>
	</g>
	<g class="st2">
		<path class="st3" d="M86,24.1h2.9v11.7c0,1.6-0.5,2.9-1.5,3.8c-1,0.9-2.3,1.4-3.9,1.4c-1.7,0-3.1-0.4-4-1.3S78,37.5,78,36h2.9
			c0,0.9,0.2,1.5,0.7,2c0.4,0.4,1.1,0.7,1.9,0.7c0.8,0,1.4-0.3,1.9-0.8c0.5-0.5,0.7-1.2,0.7-2.1V24.1z"/>
	</g>
	<g class="st2">
		<path class="st3" d="M106,36.8h-6.4l-1.3,3.9h-3l6.3-16.6h2.6l6.3,16.6h-3L106,36.8z M100.3,34.5h4.8l-2.4-6.9L100.3,34.5z"/>
		<path class="st3" d="M130.1,40.7h-2.9l-7.4-11.8v11.8h-2.9V24.1h2.9l7.4,11.9V24.1h2.9V40.7z"/>
	</g>
</g>
</svg>
