<svg>
	<defs>
<g id="blog">
	<circle id="background" class="background" cx="16" cy="16" r="14"/>
	<g>
		<g>
			<g>
				<polygon fill="#FFFFFF" points="18.4,14.8 19.3,15.3 21.2,14.3 18.4,12.6 				"/>
				<path fill="#FFFFFF" d="M24,11.4l0.7-1.2c0.5-0.9-1-2-1.7-2.4c-0.7-0.4-2.4-1.3-2.9-0.3l-0.9,1.6c-0.9-0.2-2-0.3-3.1-0.3
					c-5.5,0-10,3-10,6.7c0,3.7,4.5,6.7,10,6.7c0,0,0,0,0.1,0c0.1,0.8-0.9,2.1-2.2,2.8c5.3,0,7.7-3.9,7.7-3.9
					c2.7-1.2,4.4-3.2,4.4-5.5C26.1,13.9,25.3,12.5,24,11.4z M10.6,17.3c-0.5,0-0.9-0.4-0.9-0.9c0-0.5,0.4-0.9,0.9-0.9
					s0.9,0.4,0.9,0.9C11.5,16.9,11.1,17.3,10.6,17.3z M13.1,17.3c-0.5,0-0.9-0.4-0.9-0.9c0-0.5,0.4-0.9,0.9-0.9s0.9,0.4,0.9,0.9
					C14,16.9,13.6,17.3,13.1,17.3z M15.6,17.3c-0.5,0-0.9-0.4-0.9-0.9c0-0.5,0.4-0.9,0.9-0.9s0.9,0.4,0.9,0.9
					C16.5,16.9,16.1,17.3,15.6,17.3z M21.5,14.5l-1.9,1.1L18,16.4v-1.8v-2.2l2.7-4.6c0.1-0.3,1.1,0,2.1,0.5c1,0.5,1.7,1.2,1.5,1.5
					L21.5,14.5z"/>
			</g>
		</g>
	</g>
</g>
<g id="social">
	<circle id="background_1_" class="background"  cx="16" cy="16" r="14"/>
	<g>
		<circle fill="#FFFFFF" cx="18.8" cy="20.5" r="4.1"/>
		<circle fill="#FFFFFF" cx="11.8" cy="14.6" r="2.7"/>
		<circle fill="#FFFFFF" cx="17" cy="9.5" r="2.2"/>
		<polygon fill="#FFFFFF" points="18.2,18 16.3,20.3 12.1,15.6 12.8,14.8 		"/>
		<polygon fill="#FFFFFF" points="12.3,15.9 10.3,13.6 15.6,10.2 16.3,11 		"/>
	</g>
</g>
<g id="whitepaper">
	<circle id="background_2_" class="background"  cx="16" cy="16" r="14"/>
	<g>
		<path fill="#FFFFFF" d="M21.6,25.5H10.4c-1.3,0-2.3-1-2.3-2.3V8.8c0-1.3,1-2.3,2.3-2.3h11.2c1.3,0,2.3,1,2.3,2.3v14.3
			C23.9,24.4,22.9,25.5,21.6,25.5z"/>
		<path class="background" d="M21.1,11.7H10.9c-0.4,0-0.7-0.3-0.7-0.7v0c0-0.4,0.3-0.7,0.7-0.7h10.2c0.4,0,0.7,0.3,0.7,0.7v0
			C21.8,11.4,21.5,11.7,21.1,11.7z"/>
		<path class="background" d="M21.1,13.7H10.9c-0.4,0-0.7-0.3-0.7-0.7v0c0-0.4,0.3-0.7,0.7-0.7h10.2c0.4,0,0.7,0.3,0.7,0.7v0
			C21.8,13.4,21.5,13.7,21.1,13.7z"/>
		<path class="background" d="M21.1,15.7H10.9c-0.4,0-0.7-0.3-0.7-0.7v0c0-0.4,0.3-0.7,0.7-0.7h10.2c0.4,0,0.7,0.3,0.7,0.7v0
			C21.8,15.4,21.5,15.7,21.1,15.7z"/>
		<path class="background" d="M21.1,17.7H10.9c-0.4,0-0.7-0.3-0.7-0.7s0.3-0.7,0.7-0.7h10.2c0.4,0,0.7,0.3,0.7,0.7S21.5,17.7,21.1,17.7z
			"/>
		<path class="background" d="M21.1,19.7H10.9c-0.4,0-0.7-0.3-0.7-0.7s0.3-0.7,0.7-0.7h10.2c0.4,0,0.7,0.3,0.7,0.7S21.5,19.7,21.1,19.7z
			"/>
		<path class="background" d="M21.1,21.7H10.9c-0.4,0-0.7-0.3-0.7-0.7s0.3-0.7,0.7-0.7h10.2c0.4,0,0.7,0.3,0.7,0.7S21.5,21.7,21.1,21.7z
			"/>
	</g>
</g>
<g id="bylined">
	<circle id="background_3_" class="background"  cx="16" cy="16" r="14"/>
	<g>
		<path fill="#FFFFFF" d="M21.6,25.5H10.4c-1.3,0-2.3-1-2.3-2.3V8.8c0-1.3,1-2.3,2.3-2.3h11.2c1.3,0,2.3,1,2.3,2.3v14.3
			C23.9,24.4,22.9,25.5,21.6,25.5z"/>
		<g>
			<path class="background" d="M21.1,15H10.9c-0.4,0-0.7-0.3-0.7-0.7v0c0-0.4,0.3-0.7,0.7-0.7h10.2c0.4,0,0.7,0.3,0.7,0.7v0
				C21.8,14.7,21.5,15,21.1,15z"/>
			<path class="background"  d="M21.1,17H10.9c-0.4,0-0.7-0.3-0.7-0.7v0c0-0.4,0.3-0.7,0.7-0.7h10.2c0.4,0,0.7,0.3,0.7,0.7v0
				C21.8,16.7,21.5,17,21.1,17z"/>
			<path class="background"  d="M21.1,19H10.9c-0.4,0-0.7-0.3-0.7-0.7s0.3-0.7,0.7-0.7h10.2c0.4,0,0.7,0.3,0.7,0.7S21.5,19,21.1,19z"/>
			<path class="background"  d="M21.1,21H10.9c-0.4,0-0.7-0.3-0.7-0.7s0.3-0.7,0.7-0.7h10.2c0.4,0,0.7,0.3,0.7,0.7S21.5,21,21.1,21z"/>
			<path class="background"  d="M21.1,23H10.9c-0.4,0-0.7-0.3-0.7-0.7s0.3-0.7,0.7-0.7h10.2c0.4,0,0.7,0.3,0.7,0.7S21.5,23,21.1,23z"/>
			<circle class="background"  cx="13" cy="9.9" r="1"/>
			<path class="background"  d="M13,10.5c-1.2,0-2.1,1.5-2.1,2.5h4.2C15.1,12,14.2,10.5,13,10.5z"/>
		</g>
	</g>
</g>
<g id="press">
	<circle id="background_4_" class="background"  cx="16" cy="16" r="14"/>
	<g>
		<path fill="#FFFFFF" d="M21.6,25.5H10.4c-1.3,0-2.3-1-2.3-2.3V8.8c0-1.3,1-2.3,2.3-2.3h11.2c1.3,0,2.3,1,2.3,2.3v14.3
			C23.9,24.4,22.9,25.5,21.6,25.5z"/>
		<g>
			<path class="background" d="M15.1,11.7h-4.2c-0.4,0-0.7-0.3-0.7-0.7v0c0-0.4,0.3-0.7,0.7-0.7h4.2c0.4,0,0.7,0.3,0.7,0.7v0
				C15.8,11.4,15.5,11.7,15.1,11.7z"/>
			<path class="background" d="M21.1,11.7h-4.2c-0.4,0-0.7-0.3-0.7-0.7v0c0-0.4,0.3-0.7,0.7-0.7h4.2c0.4,0,0.7,0.3,0.7,0.7v0
				C21.8,11.4,21.5,11.7,21.1,11.7z"/>
			<path class="background" d="M15.1,13.7h-4.2c-0.4,0-0.7-0.3-0.7-0.7v0c0-0.4,0.3-0.7,0.7-0.7h4.2c0.4,0,0.7,0.3,0.7,0.7v0
				C15.8,13.4,15.5,13.7,15.1,13.7z"/>
			<path class="background" d="M21.1,13.7h-4.2c-0.4,0-0.7-0.3-0.7-0.7v0c0-0.4,0.3-0.7,0.7-0.7h4.2c0.4,0,0.7,0.3,0.7,0.7v0
				C21.8,13.4,21.5,13.7,21.1,13.7z"/>
			<path class="background" d="M15.1,15.7h-4.2c-0.4,0-0.7-0.3-0.7-0.7v0c0-0.4,0.3-0.7,0.7-0.7h4.2c0.4,0,0.7,0.3,0.7,0.7v0
				C15.8,15.4,15.5,15.7,15.1,15.7z"/>
			<path class="background" d="M21.1,15.7h-4.2c-0.4,0-0.7-0.3-0.7-0.7v0c0-0.4,0.3-0.7,0.7-0.7h4.2c0.4,0,0.7,0.3,0.7,0.7v0
				C21.8,15.4,21.5,15.7,21.1,15.7z"/>
			<path class="background" d="M15.1,17.7h-4.2c-0.4,0-0.7-0.3-0.7-0.7l0,0c0-0.4,0.3-0.7,0.7-0.7h4.2c0.4,0,0.7,0.3,0.7,0.7l0,0
				C15.8,17.4,15.5,17.7,15.1,17.7z"/>
			<path class="background" d="M21.1,17.7h-4.2c-0.4,0-0.7-0.3-0.7-0.7l0,0c0-0.4,0.3-0.7,0.7-0.7h4.2c0.4,0,0.7,0.3,0.7,0.7l0,0
				C21.8,17.4,21.5,17.7,21.1,17.7z"/>
			<path class="background" d="M15.1,19.7h-4.2c-0.4,0-0.7-0.3-0.7-0.7l0,0c0-0.4,0.3-0.7,0.7-0.7h4.2c0.4,0,0.7,0.3,0.7,0.7l0,0
				C15.8,19.4,15.5,19.7,15.1,19.7z"/>
			<path class="background" d="M21.1,19.7h-4.2c-0.4,0-0.7-0.3-0.7-0.7l0,0c0-0.4,0.3-0.7,0.7-0.7h4.2c0.4,0,0.7,0.3,0.7,0.7l0,0
				C21.8,19.4,21.5,19.7,21.1,19.7z"/>
			<path class="background" d="M15.1,21.7h-4.2c-0.4,0-0.7-0.3-0.7-0.7l0,0c0-0.4,0.3-0.7,0.7-0.7h4.2c0.4,0,0.7,0.3,0.7,0.7l0,0
				C15.8,21.4,15.5,21.7,15.1,21.7z"/>
			<path class="background" d="M21.1,21.7h-4.2c-0.4,0-0.7-0.3-0.7-0.7l0,0c0-0.4,0.3-0.7,0.7-0.7h4.2c0.4,0,0.7,0.3,0.7,0.7l0,0
				C21.8,21.4,21.5,21.7,21.1,21.7z"/>
		</g>
	</g>
</g>
<g id="copy">
	<circle id="background_5_" class="background"  cx="16" cy="16" r="14"/>
	<g>
		<path fill="#FFFFFF" d="M11,7L9.3,17c5,3.3,5.8,10,5.8,10h0.5V16.5c-0.5-0.1-0.9-0.6-0.9-1.2c0-0.7,0.6-1.3,1.3-1.3
			s1.3,0.6,1.3,1.3c0,0.6-0.4,1.1-0.9,1.2V27h0.5c0,0,0.8-6.7,5.8-10L21,7H11z"/>
	</g>
</g>
<g id="web">
	<circle id="background_6_" class="background"  cx="16" cy="16" r="14"/>
	<g>
		<path fill="#FFFFFF" d="M20.9,16.5c0-0.2,0.1-0.5,0.1-0.7c0-0.9-0.2-1.7-0.6-2.4c-0.2,0.1-0.5,0.3-0.6,0.4
			c-0.2,0.3,0.1,1.3,0.4,1.5C20.6,15.7,20.8,16.1,20.9,16.5z"/>
		<path fill="#FFFFFF" d="M24,9.3C24,8,23,7,21.7,7H10.3C9,7,8,8,8,9.3v14.4C8,25,9,26,10.3,26h11.4c1.3,0,2.3-1,2.3-2.3V9.3z
			 M15.9,21.5c-3.2,0-5.8-2.6-5.8-5.8c0-3.2,2.6-5.8,5.8-5.8c3.2,0,5.8,2.6,5.8,5.8c0,0.6-0.1,1.2-0.3,1.8l-2.6-1.6
			c0.2-0.3,0.5-0.7,0.6-1c0.1-0.4-0.2-1.5-0.5-1.6c-0.2-0.1-0.9-0.8-1.5-1.1c-0.3-0.2-0.5-0.9-0.6-1.5c-0.3-0.1-0.6-0.1-0.9-0.1
			c-1.2,0-2.2,0.4-3.1,1.1c0.3,0.4,0.7,1,0.4,1.4c-0.3,0.4-1.2,0.4-1.2,0.9c0,0.4-0.1,0.9,0,1c0.1,0.2,0.6,0.3,0.2,0.6
			c-0.3,0.2-0.9,0.6-1.4,0.8c0.1,0.6,0.3,1.1,0.5,1.6c0.1-0.3,0.5-1.2,0.9-1.3c0.4-0.1,0.7-0.2,1.1,0.3c0.4,0.5,0.9,0.6,1.2,0.6
			c0.3,0-0.1,1-1,1.2c-0.8,0.2,0.4,1.2-0.3,1.2c0.8,0.5,1.7,0.7,2.6,0.7c0.1,0,0.1,0,0.2,0l0.1,0.7C16.2,21.5,16,21.5,15.9,21.5z
			 M18.3,21C18.3,21,18.3,21,18.3,21C18.3,21,18.3,21,18.3,21C18.3,21,18.3,21,18.3,21z M19.4,19l1.3,1.8c0.2,0.3,0.2,0.8-0.1,1
			c-0.3,0.2-0.7,0.1-1-0.3l-1.3-1.8L17,21.9l-1.3-7l0.1-0.1l6,3.8L19.4,19z"/>
	</g>
</g>
<g id="video">
	<circle id="background_7_" class="background"  cx="16" cy="16" r="14"/>
	<g>
		<rect x="9.5" y="16.1" fill="#FFFFFF" width="13.6" height="7.9"/>
		<polygon fill="#FFFFFF" points="12.2,15.5 12.2,15.5 14.4,15.5 14.5,15.5 15.9,13.4 13.6,13.4 		"/>
		<polygon fill="#FFFFFF" points="16.6,15.5 16.6,15.5 18.8,15.5 18.9,15.5 20.3,13.4 18,13.4 		"/>
		<polygon fill="#FFFFFF" points="9.5,15.5 10,15.5 10.1,15.5 11.5,13.4 9.5,13.4 9.5,15.5 		"/>
		<polygon fill="#FFFFFF" points="21,15.5 23.1,15.5 23.1,15.5 23.1,13.4 22.5,13.4 21,15.5 		"/>
		<polygon fill="#FFFFFF" points="11.6,10.7 13.5,12.4 15.7,11.8 13.8,10.1 		"/>
		<polygon fill="#FFFFFF" points="15.9,9.6 17.8,11.3 19.9,10.7 18,9 		"/>
		<polygon fill="#FFFFFF" points="20.1,8.5 22.1,10.2 22.6,10.1 22.1,8 		"/>
		<polygon fill="#FFFFFF" points="9.5,11.2 8.9,11.4 9.5,13.4 11.4,12.9 		"/>
	</g>
	<path class="background" d="M21.4,17.4h-9.9c-0.3,0-0.6,0.3-0.6,0.6v0c0,0.3,0.3,0.6,0.6,0.6h9.9c0.3,0,0.6-0.3,0.6-0.6v0
		C22,17.7,21.8,17.4,21.4,17.4z"/>
	<path class="background" d="M21.4,19.4h-9.9c-0.3,0-0.6,0.3-0.6,0.6v0c0,0.3,0.3,0.6,0.6,0.6h9.9c0.3,0,0.6-0.3,0.6-0.6v0
		C22,19.7,21.8,19.4,21.4,19.4z"/>
	<path class="background" d="M21.4,21.4h-9.9c-0.3,0-0.6,0.3-0.6,0.6v0c0,0.3,0.3,0.6,0.6,0.6h9.9c0.3,0,0.6-0.3,0.6-0.6v0
		C22,21.7,21.8,21.4,21.4,21.4z"/>
</g>
<g id="speech">
	<circle id="background_8_" class="background"  cx="16" cy="16" r="14"/>
	<g>
		<path fill="#FFFFFF" d="M19.5,17c0,1.5-1.5,3-3,3h-1c-1.5,0-3-1.5-3-3v-3h-1v3c0,2,2,4,4,4v2h-3v1h7v-1h-3v-2c2,0,4-2,4-4v-3h-1
			V17z"/>
		<path fill="#FFFFFF" d="M16.5,19c1.1,0,2-0.9,2-2v-7c0-1.1-0.9-2-2-2h-1c-1.1,0-2,0.9-2,2v7c0,1.1,0.9,2,2,2H16.5z"/>
	</g>
</g>
<g id="editing">
	<circle id="background_9_" class="background"  cx="16" cy="16" r="14"/>
	<g>
		<circle fill="#FFFFFF" cx="19.7" cy="21.1" r="1.4"/>
		<path fill="#FFFFFF" d="M24,9.3C24,8,23,7,21.7,7H10.3C9,7,8,8,8,9.3v14.4C8,25,9,26,10.3,26h11.4c1.3,0,2.3-1,2.3-2.3V9.3z
			 M9.5,9.8l0.3-1.2c0.2-0.7,0.7-0.8,1.1-0.3c0,0,3.2,4.3,4.2,5.8c0.2,0.2,0.1,0.4,0,0.6c-0.3,0.4-0.8,1.1-1.2,1.5
			c-0.1,0.2-0.3,0.2-0.4,0c-0.9-1.1-3.5-4.4-3.5-4.4C9.6,11.4,9.3,10.4,9.5,9.8z M14.5,23c-1.2,1.2-3,1.2-4.2,0
			c-1.2-1.2-1.2-3,0-4.2c0.8-0.8,2.1-1.1,3.1-0.7c0.1-0.1,0.1-0.2,0.2-0.3l7-9.3c0.4-0.5,0.9-0.4,1.1,0.3L22,10
			c0.2,0.7-0.1,1.6-0.6,2.1l-6.4,7.6C15.6,20.7,15.4,22.1,14.5,23z M21.7,23.1c-1.2,1.2-3,1.2-4.2,0c-0.9-0.9-1.1-2.2-0.6-3.3
			c0,0-0.3-0.3-0.3-0.4c-0.1-0.2-0.1-0.3,0.1-0.5c0.3-0.3,0.7-0.9,1-1.2c0.1-0.2,0.3-0.2,0.5,0c0.1,0.1,0.4,0.5,0.4,0.6
			c1-0.4,2.3-0.2,3.1,0.7C22.9,20.1,22.9,22,21.7,23.1z"/>
		<circle fill="#FFFFFF" cx="12.4" cy="20.9" r="1.4"/>
	</g>
</g>
<g id="cart">
	<g>
		<g id="shopping-basket">
			<path d="M21.5,13.3l-4.6-6.9C16.7,6.2,16.4,6,16.1,6c-0.3,0-0.6,0.1-0.8,0.4l-4.6,6.9h-5c-0.6,0-1,0.4-1,1c0,0.1,0,0.2,0,0.3
				l2.6,9.7c0.2,0.8,1,1.6,2,1.6h13.6c0.9,0,1.8-0.6,2-1.6l2.6-9.7c0-0.1,0-0.2,0-0.3c0-0.6-0.4-1-1-1L21.5,13.3L21.5,13.3z
				 M13,13.3l3.1-4.6l3.1,4.6H13z M16.1,21.7c-1.2,0-2.1-0.9-2.1-2.1s0.9-2.1,2.1-2.1s2.1,0.9,2.1,2.1S17.3,21.7,16.1,21.7z"/>
		</g>
	</g>
</g>
<g id="standard">
	<path  class="background" d="M25.1,30H6.9c-2.6,0-4.8-2.1-4.8-4.8V6.8C2.1,4.1,4.2,2,6.9,2h18.3
			c2.6,0,4.8,2.1,4.8,4.8v18.5C29.9,27.9,27.8,30,25.1,30z"/>
	<g>
		<path fill="#fff" d="M22.9,6C24.6,6,26,7.4,26,9.1c0,0.7-0.2,1.4-0.6,1.9l-1.2,1.2l-4.4-4.4L21,6.6C21.5,6.2,22.2,6,22.9,6z M7.2,20.4L6,26
			l5.6-1.2l11.6-11.6l-4.4-4.4L7.2,20.4z M20,13.1l-8.8,8.8l-1.1-1.1l8.8-8.8L20,13.1z"/>
	</g>
</g>
<g id="expert">
		<path  class="background" d="M25.1,30H6.9c-2.6,0-4.8-2.1-4.8-4.8V6.8C2.1,4.1,4.2,2,6.9,2h18.3
			c2.6,0,4.8,2.1,4.8,4.8v18.5C29.9,27.9,27.8,30,25.1,30z"/>

	<g>
		<path fill="#fff" d="M16.5,18.8c-4.3,3.8-9.6,7.9-10.4,7.1c-0.7-0.7,3.4-6.1,7.1-10.4L16.5,18.8z M25.6,12.6l-1.5-1.5c0.7-1,0.9-1.7,0.8-2.2
			L26,7.7L24.3,6l-1.2,1.2c-1-0.1-2.4,0.6-5,3.3c-1,1-2.2,2.3-3.4,3.7l3.3,3.3c1.4-1.2,2.7-2.4,3.7-3.4c0.7-0.7,1.2-1.3,1.7-1.8l1,1
			l-3.1,3.1c-0.2,0.2-0.2,0.6,0,0.9c0.2,0.2,0.6,0.2,0.9,0l3.5-3.5C25.8,13.3,25.8,12.9,25.6,12.6z"/>
	</g>
</g>
<g id="premium">
		<path  class="background" d="M25.1,30H6.9c-2.6,0-4.8-2.1-4.8-4.8V6.8C2.1,4.1,4.2,2,6.9,2h18.3
			c2.6,0,4.8,2.1,4.8,4.8v18.5C29.9,27.9,27.8,30,25.1,30z"/>
	<g>
		<g>
			<polygon fill="#fff" points="25.2,14.4 22.7,14.4 17.6,9.3 17.6,6.8 18.1,6 26,13.9 			"/>
			<path fill="#fff" d="M22.2,14.9l-5.1-5.1l-7.9,5.1L6,25.3l6.2-6.2c-0.3-0.6-0.2-1.3,0.3-1.7c0.6-0.6,1.6-0.6,2.1,0c0.6,0.6,0.6,1.6,0,2.1
				c-0.5,0.5-1.2,0.6-1.7,0.3L6.7,26l10.4-3.3L22.2,14.9z"/>
		</g>
	</g>
</g>
<g id="photo">
	<g>
		<path d="M28.3,6H3.7C3.5,6,3.3,6.2,3.3,6.4v19.2c0,0.2,0.2,0.4,0.4,0.4h24.6c0.2,0,0.4-0.2,0.4-0.4V6.4C28.7,6.2,28.5,6,28.3,6z
			 M26.3,22.8l-5.5-5.7c-0.1-0.1-0.2-0.1-0.2,0l-3.8,3.4l-4.9-6c0,0-0.1-0.1-0.1-0.1c-0.1,0-0.1,0-0.1,0.1l-5.8,7.8V8.4h20.5
			C26.3,8.4,26.3,22.8,26.3,22.8z"/>
		<path d="M20.2,14.2c1.1,0,2-0.9,2-2c0-1.1-0.9-2-2-2c-1.1,0-2,0.9-2,2C18.2,13.3,19.1,14.2,20.2,14.2z"/>
	</g>
</g>

<g id="longblog">
	<g>
		<path id="Background_1_" class="background" d="M25.1,30H6.9c-2.6,0-4.8-2.1-4.8-4.8V6.8C2.1,4.1,4.2,2,6.9,2h18.3
			c2.6,0,4.8,2.1,4.8,4.8v18.5C29.9,27.9,27.8,30,25.1,30z"/>
		<g>
			<path fill="#FFFFFF" d="M8,11h16c0.8,0,1.5-0.7,1.5-1.5C25.5,8.7,24.8,8,24,8H8C7.2,8,6.5,8.7,6.5,9.5C6.5,10.3,7.2,11,8,11z"/>
			<path fill="#FFFFFF" d="M8,7h16c0.8,0,1.5-0.7,1.5-1.5C25.5,4.7,24.8,4,24,4H8C7.2,4,6.5,4.7,6.5,5.5C6.5,6.3,7.2,7,8,7z"/>
			<path fill="#FFFFFF" d="M24,12H8c-0.8,0-1.5,0.7-1.5,1.5C6.5,14.3,7.2,15,8,15h16c0.8,0,1.5-0.7,1.5-1.5C25.5,12.7,24.8,12,24,12
				z"/>
			<path fill="#FFFFFF" d="M24,16H8c-0.8,0-1.5,0.7-1.5,1.5C6.5,18.3,7.2,19,8,19h16c0.8,0,1.5-0.7,1.5-1.5C25.5,16.7,24.8,16,24,16
				z"/>
			<path fill="#FFFFFF" d="M24,20H8c-0.8,0-1.5,0.7-1.5,1.5C6.5,22.3,7.2,23,8,23h16c0.8,0,1.5-0.7,1.5-1.5C25.5,20.7,24.8,20,24,20
				z"/>
			<path fill="#FFFFFF" d="M24,24H8c-0.8,0-1.5,0.7-1.5,1.5C6.5,26.3,7.2,27,8,27h16c0.8,0,1.5-0.7,1.5-1.5C25.5,24.7,24.8,24,24,24
				z"/>
		</g>
	</g>
</g>

<g id="shortblog">
	<g>
		<path id="Background" class="background" d="M25.1,30H6.9c-2.6,0-4.8-2.1-4.8-4.8V6.8C2.1,4.1,4.2,2,6.9,2h18.3c2.6,0,4.8,2.1,4.8,4.8
			v18.5C29.9,27.9,27.8,30,25.1,30z"/>
		<g>
			<path fill="#FFFFFF" d="M8,12h16c0.8,0,1.5-0.7,1.5-1.5C25.5,9.7,24.8,9,24,9H8c-0.8,0-1.5,0.7-1.5,1.5C6.5,11.3,7.2,12,8,12z"/>
			<path fill="#FFFFFF" d="M24,13H8c-0.8,0-1.5,0.7-1.5,1.5C6.5,15.3,7.2,16,8,16h16c0.8,0,1.5-0.7,1.5-1.5C25.5,13.7,24.8,13,24,13
				z"/>
			<path fill="#FFFFFF" d="M24,17H8c-0.8,0-1.5,0.7-1.5,1.5C6.5,19.3,7.2,20,8,20h16c0.8,0,1.5-0.7,1.5-1.5C25.5,17.7,24.8,17,24,17
				z"/>
			<path fill="#FFFFFF" d="M24,21H8c-0.8,0-1.5,0.7-1.5,1.5C6.5,23.3,7.2,24,8,24h16c0.8,0,1.5-0.7,1.5-1.5C25.5,21.7,24.8,21,24,21
				z"/>
		</g>
	</g>
</g>


</defs>
</svg>
