<?xml version="1.0" encoding="utf-8"?>
<!-- Generator: Adobe Illustrator 20.1.0, SVG Export Plug-In . SVG Version: 6.00 Build 0)  -->
<svg version="1.1" id="Layer_1" xmlns="http://www.w3.org/2000/svg" xmlns:xlink="http://www.w3.org/1999/xlink" x="0px" y="0px"
	 viewBox="0 0 1366 516" style="enable-background:new 0 0 1366 516;" xml:space="preserve">
<style type="text/css">
	.st0{fill:none;stroke:#333333;stroke-width:2;stroke-linecap:round;stroke-linejoin:round;stroke-miterlimit:10;}
	.st1{fill:#FBB03B;}
	.st2{fill:#FFFFFF;stroke:#333333;stroke-width:2;stroke-miterlimit:10;}
	.st3{fill:none;stroke:#333333;stroke-width:2;stroke-miterlimit:10;}
	.st4{fill:#94C7EB;stroke:#333333;stroke-width:2;stroke-miterlimit:10;}
	.st5{fill:#FFFFFF;}
	.st6{fill:#F07A7A;}
	.st7{fill:none;stroke:#333333;stroke-width:1.3283;stroke-linecap:round;stroke-linejoin:round;stroke-miterlimit:10;}
	.st8{fill:none;stroke:#333333;stroke-width:2;stroke-linecap:round;stroke-miterlimit:10;}
	.st9{fill:#94C7EB;}
	.st10{fill:none;stroke:#333333;stroke-width:1.7896;stroke-linecap:round;stroke-linejoin:round;stroke-miterlimit:10;}
</style>
<line class="st0" x1="316.8" y1="315.4" x2="323.8" y2="307"/>
<line class="st0" x1="300.8" y1="334" x2="313.8" y2="318.7"/>
<path class="st0" d="M326.5,303.8l52.6-61.1c14.9-21.9,47.2-21.9,62.1,0l154.2,179.4H410.1H224.9l72.9-84.8"/>
<path class="st1" d="M482.5,281.1l-8.7-10.1l-8.7-10.1l-8.7-10.1l-8.7-10.1c-3.7-5.5-8.5-9.6-13.9-12.3c-5.4-2.7-11.2-4.1-17.1-4.1
	c-5.9,0-11.8,1.4-17.1,4.1c-5.4,2.7-10.2,6.8-13.9,12.3l-8.7,10.1l-8.7,10.1l-8.7,10.1l-8.7,10.1l23.5-13.6c5.8-3.3,12.9-3.3,18.7,0
	l14.1,8.2c5.8,3.3,12.9,3.3,18.7,0l14.1-8.2c5.8-3.3,12.9-3.3,18.7,0L482.5,281.1z"/>
<path class="st0" d="M475.8,283.1l-8.7-10.1l-8.7-10.1l-8.7-10.1l-8.7-10.1c-3.7-5.5-8.5-9.6-13.9-12.3c-5.4-2.7-11.2-4.1-17.1-4.1
	s-11.8,1.4-17.1,4.1c-5.4,2.7-10.2,6.8-13.9,12.3l-8.7,10.1l-8.7,10.1L353,273l-8.7,10.1l23.5-13.6c5.8-3.3,12.9-3.3,18.7,0
	l14.1,8.2c5.8,3.3,12.9,3.3,18.7,0l14.1-8.2c5.8-3.3,12.9-3.3,18.7,0L475.8,283.1z"/>
<rect x="494.4" y="114.6" class="st2" width="41.5" height="306.7"/>
<rect x="499.3" y="111.3" class="st1" width="41.5" height="306.7"/>
<rect x="833" y="111.3" class="st1" width="41.5" height="306.7"/>
<rect x="494.4" y="114.6" class="st3" width="41.5" height="306.7"/>
<line class="st2" x1="827.2" y1="421.3" x2="827.2" y2="114.6"/>
<rect x="827.2" y="114.6" class="st3" width="41.5" height="306.7"/>
<g>
	<path class="st2" d="M467.9,171.8v-14.9c0-9.4,7.6-17,17-17H883c9.4,0,17,7.6,17,17v63.6c0,9.4-7.6,17-17,17H484.9
		c-9.4,0-17-7.6-17-17V171.8"/>
	<path class="st4" d="M467.8,157.9v40.3l54.3-58.3h-36.2C475.9,139.8,467.8,147.9,467.8,157.9z"/>
	<path class="st4" d="M535.9,237.3l90.5-97.5h-64.1L474.9,234c0,0,4.5,4,9.6,3.3C484.6,237.3,535.9,237.3,535.9,237.3z"/>
	<polygon class="st4" points="640.3,237.3 730.8,139.8 666.7,139.8 576.2,237.3 	"/>
	<polygon class="st4" points="747.1,237.3 837.6,139.8 773.6,139.8 683,237.3 	"/>
	<path class="st4" d="M882.1,139.8h-3.4l-90.5,97.5h64.1l47.8-52.2l0.3-26.4C900.3,148.3,892.9,139.7,882.1,139.8z"/>
</g>
<g>
	<path class="st2" d="M467.9,296.8v-14.9c0-9.4,7.6-17,17-17H883c9.4,0,17,7.6,17,17v63.6c0,9.4-7.6,17-17,17H484.9
		c-9.4,0-17-7.6-17-17V296.8"/>
	<path class="st4" d="M467.8,282.9v40.3l54.3-58.3h-36.2C475.9,264.8,467.8,272.9,467.8,282.9z"/>
	<path class="st4" d="M535.9,362.3l90.5-97.5h-64.1L474.9,359c0,0,4.5,4,9.6,3.3C484.6,362.3,535.9,362.3,535.9,362.3z"/>
	<polygon class="st4" points="640.3,362.3 730.8,264.8 666.7,264.8 576.2,362.3 	"/>
	<polygon class="st4" points="747.1,362.3 837.6,264.8 773.6,264.8 683,362.3 	"/>
	<path class="st4" d="M882.1,264.8h-3.4l-90.5,97.5h64.1l47.8-52.2l0.3-26.4C900.3,273.3,892.9,264.7,882.1,264.8z"/>
</g>
<g>
	<path class="st5" d="M575.5,213.5l3-4.8 M569.7,222.6l4.1-6.6 M579.7,206.9l15.5-24.9v-0.2h25.6v67.2h11.1v19.7h-11.1v23.2h-25.6
		v-23.2h-42.6L551,253l17.4-28 M573.8,248.9h21.3v-34l-0.5-0.2l-2,3.1L573.8,248.9z"/>
	<path class="st5" d="M644.7,208.4c0.3-1.7,0.2-1.1,0.7-2.7 M643.2,216.9c0.2-2.4,0.4-3.5,1-6.4 M646.4,203c1.8-5,3.3-7.7,6.7-11.5
		c6.9-7.6,16.2-11.4,28-11.4c11.7,0,21.1,3.8,28,11.4c6.9,7.6,10.4,18.8,10.4,33.6v23.1c0,14.9-3.5,26.1-10.4,33.7
		c-6.9,7.6-16.2,11.4-27.9,11.4c-11.8,0-21.1-3.8-28-11.4c-6.9-7.6-10.4-18.8-10.4-33.7v-23.1c0-1.9,0.1-3.8,0.2-5.6 M694,223.5
		c0-8.4-1.1-14.5-3.3-18.1c-2.2-3.7-5.4-5.5-9.6-5.5c-4.2,0-7.4,1.8-9.6,5.5c-2.1,3.7-3.2,9.7-3.2,18.1v26.5
		c0,8.6,1.1,14.7,3.3,18.3c2.2,3.7,5.4,5.5,9.7,5.5c4.2,0,7.4-1.8,9.5-5.5c2.2-3.7,3.3-9.8,3.3-18.3V223.5z"/>
	<path class="st5" d="M760.2,205.2l1.8-3.1 M753.5,216l4.9-8.2 M763.5,199.4l11-17.5v-0.2h25.6v67.2h11.1v19.7h-11.1v23.2h-25.6
		v-23.2h-42.6l-1.5-15.6l20.6-33.2 M753.2,248.9h21.3v-34l-0.5-0.2l-2,3.1L753.2,248.9z"/>
</g>
<g>
	<path class="st1" d="M626.5,245.6h11.1v19.7h-11.1v23.2H601v-23.2h-42.6l-1.5-15.6l44.2-71v-0.2h25.6V245.6z M579.6,245.6H601v-34
		l-0.5-0.2l-2,3.1L579.6,245.6z"/>
	<path class="st1" d="M725.3,245c0,14.9-3.5,26.1-10.4,33.7c-6.9,7.6-16.2,11.4-27.9,11.4c-11.8,0-21.1-3.8-28-11.4
		c-6.9-7.6-10.4-18.8-10.4-33.7v-23.1c0-14.9,3.4-26.1,10.3-33.7c6.9-7.6,16.2-11.4,28-11.4c11.7,0,21.1,3.8,28,11.4
		c6.9,7.6,10.4,18.8,10.4,33.6V245z M699.8,220.2c0-8.4-1.1-14.5-3.3-18.1c-2.2-3.7-5.4-5.5-9.6-5.5c-4.2,0-7.4,1.8-9.6,5.5
		c-2.1,3.7-3.2,9.7-3.2,18.1v26.5c0,8.6,1.1,14.7,3.3,18.3c2.2,3.7,5.4,5.5,9.7,5.5c4.2,0,7.4-1.8,9.5-5.5c2.2-3.7,3.3-9.8,3.3-18.3
		V220.2z"/>
	<path class="st1" d="M805.8,245.6H817v19.7h-11.1v23.2h-25.6v-23.2h-42.6l-1.5-15.6l44.2-71v-0.2h25.6V245.6z M759,245.6h21.3v-34
		l-0.5-0.2l-2,3.1L759,245.6z"/>
</g>
<g>
	<path class="st0" d="M575.5,213.5l3-4.8 M569.7,222.6l4.1-6.6 M579.7,206.9l15.5-24.9v-0.2h25.6v67.2h11.1v19.7h-11.1v23.2h-25.6
		v-23.2h-42.6L551,253l17.4-28 M573.8,248.9h21.3v-34l-0.5-0.2l-2,3.1L573.8,248.9z"/>
	<path class="st0" d="M644.7,208.4c0.3-1.7,0.2-1.1,0.7-2.7 M643.2,216.9c0.2-2.4,0.4-3.5,1-6.4 M646.4,203c1.8-5,3.3-7.7,6.7-11.5
		c6.9-7.6,16.2-11.4,28-11.4c11.7,0,21.1,3.8,28,11.4c6.9,7.6,10.4,18.8,10.4,33.6v23.1c0,14.9-3.5,26.1-10.4,33.7
		c-6.9,7.6-16.2,11.4-27.9,11.4c-11.8,0-21.1-3.8-28-11.4c-6.9-7.6-10.4-18.8-10.4-33.7v-23.1c0-1.9,0.1-3.8,0.2-5.6 M694,223.5
		c0-8.4-1.1-14.5-3.3-18.1c-2.2-3.7-5.4-5.5-9.6-5.5c-4.2,0-7.4,1.8-9.6,5.5c-2.1,3.7-3.2,9.7-3.2,18.1v26.5
		c0,8.6,1.1,14.7,3.3,18.3c2.2,3.7,5.4,5.5,9.7,5.5c4.2,0,7.4-1.8,9.5-5.5c2.2-3.7,3.3-9.8,3.3-18.3V223.5z"/>
	<path class="st0" d="M760.2,205.2l1.8-3.1 M753.5,216l4.9-8.2 M763.5,199.4l11-17.5v-0.2h25.6v67.2h11.1v19.7h-11.1v23.2h-25.6
		v-23.2h-42.6l-1.5-15.6l20.6-33.2 M753.2,248.9h21.3v-34l-0.5-0.2l-2,3.1L753.2,248.9z"/>
</g>
<g id="warning">
	<circle class="st6" cx="611.8" cy="70.2" r="21.4">
		<animate attributeName="opacity" dur="1s" from="1" to="0.5" calcMode="discrete" repeatCount="indefinite">
	</circle>
	<circle class="st6" cx="757.8" cy="70.2" r="21.4">
		<animate attributeName="opacity" dur="1s" from="1" to="0.5" calcMode="discrete" repeatCount="indefinite">
	</circle>
</g>
<g>
	<path class="st1" d="M612.1,97.1c-14.8,0-26.9-12.1-26.9-26.9s12.1-26.9,26.9-26.9S639,55.4,639,70.2S626.9,97.1,612.1,97.1z
		 M612.1,49.5c-11.4,0-20.7,9.3-20.7,20.7s9.3,20.7,20.7,20.7s20.7-9.3,20.7-20.7S623.5,49.5,612.1,49.5z"/>
</g>
<path class="st7" d="M610.3,98.2c-14.8,0-26.9-12.1-26.9-26.9s12.1-26.9,26.9-26.9c14.8,0,26.9,12.1,26.9,26.9
	S625.1,98.2,610.3,98.2z"/>
<path class="st7" d="M633.2,48.8c12.4,12.6,12.2,33-0.4,45.5"/>
<path class="st7" d="M587.3,93.9c-12.4-12.6-12.2-33,0.4-45.5"/>
<g id="l2rays">
	<path class="st7" d="M638.1,44c15.1,15.4,14.9,40.1-0.5,55.2">
		<animate attributeName="opacity" dur="1s" from="1" to="0" calcMode="discrete" repeatCount="indefinite">
	</path>
	<path class="st7" d="M582.4,98.7c-15.1-15.4-14.9-40.1,0.5-55.2">
		<animate attributeName="opacity" dur="1s" from="1" to="0" calcMode="discrete" repeatCount="indefinite">
	</path>
</g>
<path class="st7" d="M610.3,50.6c-11.4,0-20.7,9.3-20.7,20.7S598.9,92,610.3,92c11.4,0,20.7-9.3,20.7-20.7S621.7,50.6,610.3,50.6z"
	/>
<path class="st7" d="M595.5,72.3c0,8.1,6.6,14.8,14.8,14.8"/>
<g>
	<path class="st1" d="M758.1,97.1c-14.8,0-26.9-12.1-26.9-26.9s12.1-26.9,26.9-26.9S785,55.4,785,70.2S772.9,97.1,758.1,97.1z
		 M758.1,49.5c-11.4,0-20.7,9.3-20.7,20.7s9.3,20.7,20.7,20.7s20.7-9.3,20.7-20.7S769.5,49.5,758.1,49.5z"/>
</g>
<path class="st7" d="M756.4,98.2c-14.8,0.1-26.9-12-27-26.8c-0.1-14.8,12-26.9,26.8-27c14.8-0.1,26.9,12,27,26.8
	C783.2,86.1,771.2,98.2,756.4,98.2z"/>
<path class="st7" d="M778.6,47.7c13,12.3,13.7,32.9,1.3,46"/>
<path class="st7" d="M733.9,95c-13-12.3-13.7-32.9-1.3-46"/>
<g id="l1rays">
	<path class="st7" d="M783.6,42.3c16,15.1,16.8,40.4,1.7,56.4">
		<animate attributeName="opacity" dur="1s" from="1" to="0" calcMode="discrete" repeatCount="indefinite">
	</path>
	<path class="st7" d="M728.9,100.4c-16-15.1-16.8-40.4-1.7-56.4">
		<animate attributeName="opacity" dur="1s" from="1" to="0" calcMode="discrete" repeatCount="indefinite">
	</path>
</g>
<path class="st7" d="M756.2,50.6c-11.4,0-20.7,9.4-20.6,20.8c0,11.4,9.4,20.7,20.8,20.6c11.4,0,20.7-9.4,20.6-20.8
	S767.6,50.6,756.2,50.6z"/>
<path class="st7" d="M740.5,71.4c0,9.2,7.6,16.7,16.8,16.7"/>
<line class="st8" x1="1126" y1="422.5" x2="1142" y2="422.5"/>
<line class="st8" x1="1096.7" y1="422.5" x2="1119" y2="422.5"/>
<line class="st8" x1="1063" y1="451" x2="1079" y2="451"/>
<line class="st8" x1="1033.7" y1="451" x2="1056" y2="451"/>
<line class="st8" x1="797.7" y1="474.3" x2="813.7" y2="474.3"/>
<line class="st8" x1="768.3" y1="474.3" x2="790.7" y2="474.3"/>
<line class="st8" x1="479.7" y1="474.3" x2="495.7" y2="474.3"/>
<line class="st8" x1="450.3" y1="474.3" x2="472.7" y2="474.3"/>
<line class="st8" x1="185.3" y1="422.5" x2="1089.7" y2="422.5"/>
<line class="st8" x1="154.7" y1="422.5" x2="179.3" y2="422.5"/>
<line class="st8" x1="133" y1="422.5" x2="148.7" y2="422.5"/>
<line class="st8" x1="202.2" y1="442" x2="226.8" y2="442"/>
<line class="st8" x1="180.5" y1="442" x2="196.2" y2="442"/>
<line class="st0" x1="326.8" y1="336.8" x2="349" y2="311.5"/>
<line class="st0" x1="318.2" y1="346" x2="324.1" y2="339.4"/>
<line class="st0" x1="260" y1="411.5" x2="315.1" y2="349.6"/>
<line class="st0" x1="347.1" y1="340.1" x2="351" y2="335.5"/>
<line class="st0" x1="338.5" y1="349.3" x2="344.5" y2="342.8"/>
<line class="st0" x1="296.7" y1="396.5" x2="335.4" y2="353"/>
<path class="st5" d="M1043.3,392.3l-95.7,29l-18-59.3c-5.3-17.4,4.6-35.9,22-41.2l32.5-9.9c17.4-5.3,35.9,4.6,41.2,22L1043.3,392.3z
	"/>
<rect x="935.1" y="165.7" transform="matrix(0.957 -0.2902 0.2902 0.957 -29.8401 284.2307)" class="st5" width="17" height="154"/>
<path class="st5" d="M879,140.1l4.4,14.6c4,13.1,17.8,20.5,30.9,16.5l12.9-3.9c13.1-4,20.5-17.8,16.5-30.9l-4.4-14.6L879,140.1z
	 M933,141.5c2.5,8.2-2.1,16.8-10.3,19.3l-8.1,2.4c-8.2,2.5-16.8-2.1-19.3-10.3l-1.6-5.3l37.7-11.4L933,141.5z"/>
<path class="st9" d="M1046.6,386l-95.7,29l-18-59.3c-5.3-17.4,4.6-35.9,22-41.2l32.5-9.9c17.4-5.3,35.9,4.6,41.2,22L1046.6,386z"/>
<path class="st9" d="M984,416.8"/>
<rect x="938.4" y="159.5" transform="matrix(0.957 -0.2902 0.2902 0.957 -27.8874 284.9299)" class="st1" width="17" height="154"/>
<path class="st9" d="M883.6,134.5l4.4,14.6c4,13.1,17.8,20.5,30.9,16.5l12.9-3.9c13.1-4,20.5-17.8,16.5-30.9l-4.4-14.6L883.6,134.5z
	 M937.5,135.9c2.5,8.2-2.1,16.8-10.3,19.3l-8.1,2.4c-8.2,2.5-16.8-2.1-19.3-10.3l-1.6-5.3l37.7-11.4L937.5,135.9z"/>
<path class="st10" d="M1043.3,392.3l-95.7,29l-18-59.3c-5.3-17.4,4.6-35.9,22-41.2l32.5-9.9c17.4-5.3,35.9,4.6,41.2,22L1043.3,392.3
	z"/>
<path class="st10" d="M979.5,422.4"/>
<path class="st10" d="M955.5,407.4l-13.8-45.6c-4.1-13.4,3.5-27.6,16.9-31.6l25-7.6c13.4-4.1,27.6,3.5,31.6,16.9l13.8,45.6"/>
<line class="st10" x1="925.7" y1="212.8" x2="924" y2="207.5"/>
<line class="st10" x1="929.5" y1="225.4" x2="926.6" y2="215.9"/>
<polyline class="st10" points="923.1,204.4 913.1,171.5 929.4,166.6 974.1,314 957.8,318.9 930.4,228.5 "/>
<path class="st10" d="M879,140.1l4.4,14.6c4,13.1,17.8,20.5,30.9,16.5l12.9-3.9c13.1-4,20.5-17.8,16.5-30.9l-4.4-14.6L879,140.1z
	 M933,141.5c2.5,8.2-2.1,16.8-10.3,19.3l-8.1,2.4c-8.2,2.5-16.8-2.1-19.3-10.3l-1.6-5.3l37.7-11.4L933,141.5z"/>
<polyline class="st10" points="883.5,154.7 879,140.1 939.3,121.8 943.8,136.4 "/>
<line class="st10" x1="961.6" y1="359" x2="974.2" y2="400.7"/>
<line class="st10" x1="978.8" y1="353.8" x2="991.5" y2="395.4"/>
<line class="st10" x1="997" y1="348.3" x2="1009.7" y2="389.9"/>
<line class="st8" x1="236.1" y1="442.1" x2="539.1" y2="442.1"/>
<line class="st8" x1="501.6" y1="474.1" x2="756.6" y2="474.1"/>
<line class="st8" x1="743.1" y1="451.6" x2="1023.6" y2="451.6"/>
<polygon class="st1" points="634,136.5 613.3,136.5 592.5,136.5 592.5,118 600,99.5 613.3,99.5 626.5,99.5 634,118 "/>
<polygon class="st7" points="631,138.5 610.3,138.5 589.5,138.5 589.5,120 597,101.5 610.3,101.5 623.5,101.5 631,120 "/>
<polygon class="st1" points="780,136.5 759.3,136.5 738.5,136.5 738.5,118 746,99.5 759.3,99.5 772.5,99.5 780,118 "/>
<polygon class="st7" points="777,138.5 756.3,138.5 735.5,138.5 735.5,120 743,101.5 756.3,101.5 769.5,101.5 777,120 "/>
<g>
	<path class="st5" d="M949.1,407.1h-63h-63l50.6-196.4c3.3-12.8,21.5-12.8,24.8,0L949.1,407.1z"/>
	<path class="st1" d="M910.1,228.5l-5.6-21.8c-3.3-12.8-21.5-12.8-24.8,0l-5.6,21.8H910.1z"/>
	<polygon class="st1" points="933.3,318.5 920.7,269.9 863.4,269.9 850.9,318.5 	"/>
	<polygon class="st1" points="840.2,359.9 829.1,403.1 955.1,403.1 943.9,359.9 	"/>
	<path class="st10" d="M949.1,407.1h-63h-63l50.6-196.4c3.3-12.8,21.5-12.8,24.8,0L949.1,407.1z"/>
	<path class="st10" d="M904.1,232.5l-5.6-21.8c-3.3-12.8-21.5-12.8-24.8,0l-5.6,21.8H904.1z"/>
	<polygon class="st10" points="927.3,322.5 914.7,273.9 857.4,273.9 844.9,322.5 	"/>
	<path class="st5" d="M972.3,422.2H797.7v-4.5c0-5.6,4.6-10.2,10.2-10.2h154.3c5.6,0,10.2,4.6,10.2,10.2V422.2z"/>
	<path class="st1" d="M978.3,417.2H803.7v-4.5c0-5.6,4.6-10.2,10.2-10.2h154.3c5.6,0,10.2,4.6,10.2,10.2V417.2z"/>
	<path class="st10" d="M972.3,422.2H797.7v-4.5c0-5.6,4.6-10.2,10.2-10.2h154.3c5.6,0,10.2,4.6,10.2,10.2V422.2z"/>
	<polygon class="st10" points="834.2,363.9 823.1,407.1 949.1,407.1 937.9,363.9 	"/>
</g>
</svg>
