<?xml version="1.0" encoding="utf-8"?>
<!-- Generator: Adobe Illustrator 21.0.0, SVG Export Plug-In . SVG Version: 6.00 Build 0)  -->
<svg version="1.1" id="Layer_1" xmlns="http://www.w3.org/2000/svg" xmlns:xlink="http://www.w3.org/1999/xlink" x="0px" y="0px"
	 viewBox="0 0 1366 768" style="enable-background:new 0 0 1366 768;" xml:space="preserve">
<style type="text/css">
	.st0{fill:#FFFFFF;}
	.st1{fill:none;stroke:#333333;stroke-width:2;stroke-linecap:round;stroke-linejoin:round;stroke-miterlimit:10;}
	.st2{fill:#FBB03B;}
	.st3{fill:#FFFFFF;stroke:#333333;stroke-width:2;stroke-miterlimit:10;}
	.st4{fill:none;stroke:#333333;stroke-width:2;stroke-miterlimit:10;}
	.st5{clip-path:url(#SVGID_2_);fill:#94C7EB;stroke:#333333;stroke-width:2;stroke-miterlimit:10;}
	.st6{clip-path:url(#SVGID_4_);fill:#94C7EB;stroke:#333333;stroke-width:2;stroke-miterlimit:10;}
	.st7{fill:none;stroke:#333333;stroke-width:1.3283;stroke-linecap:round;stroke-linejoin:round;stroke-miterlimit:10;}
	.st8{fill:none;stroke:#333333;stroke-width:2;stroke-linecap:round;stroke-miterlimit:10;}
	.st9{fill:#94C7EB;}
	.st10{fill:none;stroke:#333333;stroke-width:1.7896;stroke-linecap:round;stroke-linejoin:round;stroke-miterlimit:10;}
	.st11{fill:#333333;}
	.st12{font-family:'Roboto-Black';}
	.st13{font-size:48px;}
</style>
<rect class="st0" width="1366" height="768.1"/>
<line class="st1" x1="316.8" y1="374.9" x2="323.8" y2="366.5"/>
<line class="st1" x1="300.8" y1="393.5" x2="313.8" y2="378.2"/>
<path class="st1" d="M326.5,363.3l52.6-61.1c14.9-21.9,47.2-21.9,62.1,0l154.2,179.4H410.1H224.9l72.9-84.8"/>
<path class="st2" d="M482.5,340.6l-8.7-10.1l-8.7-10.1l-8.7-10.1l-8.7-10.1c-3.7-5.5-8.5-9.6-13.9-12.3c-5.4-2.7-11.2-4.1-17.1-4.1
	c-5.9,0-11.8,1.4-17.1,4.1s-10.2,6.8-13.9,12.3l-8.7,10.1l-8.7,10.1l-8.7,10.1l-8.7,10.1l23.5-13.6c5.8-3.3,12.9-3.3,18.7,0
	l14.1,8.2c5.8,3.3,12.9,3.3,18.7,0l14.1-8.2c5.8-3.3,12.9-3.3,18.7,0L482.5,340.6z"/>
<path class="st1" d="M475.8,342.6l-8.7-10.1l-8.7-10.1l-8.7-10.1l-8.7-10.1c-3.7-5.5-8.5-9.6-13.9-12.3s-11.2-4.1-17.1-4.1
	s-11.8,1.4-17.1,4.1s-10.2,6.8-13.9,12.3l-8.7,10.1l-8.7,10.1l-8.7,10.1l-8.7,10.1l23.5-13.6c5.8-3.3,12.9-3.3,18.7,0l14.1,8.2
	c5.8,3.3,12.9,3.3,18.7,0l14.1-8.2c5.8-3.3,12.9-3.3,18.7,0L475.8,342.6z"/>
<rect x="494.4" y="174.1" class="st3" width="41.5" height="306.7"/>
<rect x="499.3" y="170.8" class="st2" width="41.5" height="306.7"/>
<rect x="833" y="170.8" class="st2" width="41.5" height="306.7"/>
<rect x="494.4" y="174.1" class="st4" width="41.5" height="306.7"/>
<line class="st3" x1="827.2" y1="480.8" x2="827.2" y2="174.1"/>
<rect x="827.2" y="174.1" class="st4" width="41.5" height="306.7"/>
<path class="st3" d="M883,427H484.9c-9.4,0-17-7.6-17-17v-63.6c0-9.4,7.6-17,17-17H883c9.4,0,17,7.6,17,17V410
	C900,419.4,892.4,427,883,427z"/>
<g>
	<defs>
		<path id="SVGID_1_" d="M883,427H484.9c-9.4,0-17-7.6-17-17v-63.6c0-9.4,7.6-17,17-17H883c9.4,0,17,7.6,17,17V410
			C900,419.4,892.4,427,883,427z"/>
	</defs>
	<clipPath id="SVGID_2_">
		<use xlink:href="#SVGID_1_"  style="overflow:visible;"/>
	</clipPath>
	
		<rect x="172.2" y="247.4" transform="matrix(0.6764 -0.7366 0.7366 0.6764 -58.0615 409.9214)" class="st5" width="530.6" height="47.2"/>
	
		<rect x="277.3" y="247.4" transform="matrix(0.6764 -0.7366 0.7366 0.6764 -24.0301 487.3759)" class="st5" width="530.6" height="47.2"/>
	
		<rect x="381.6" y="247.4" transform="matrix(0.6764 -0.7366 0.7366 0.6764 9.7333 564.2205)" class="st5" width="530.6" height="47.2"/>
	
		<rect x="486" y="247.4" transform="matrix(0.6764 -0.7366 0.7366 0.6764 43.4968 641.0651)" class="st5" width="530.6" height="47.2"/>
	
		<rect x="592.8" y="247.4" transform="matrix(0.6764 -0.7366 0.7366 0.6764 78.0641 719.7393)" class="st5" width="530.6" height="47.2"/>
	
		<rect x="697.9" y="247.4" transform="matrix(0.6764 -0.7366 0.7366 0.6764 112.0955 797.1938)" class="st5" width="530.6" height="47.2"/>
	<use xlink:href="#SVGID_1_"  style="overflow:visible;fill:none;stroke:#333333;stroke-width:2;stroke-miterlimit:10;"/>
</g>
<path class="st3" d="M883,297H484.9c-9.4,0-17-7.6-17-17v-63.6c0-9.4,7.6-17,17-17H883c9.4,0,17,7.6,17,17V280
	C900,289.4,892.4,297,883,297z"/>
<g>
	<defs>
		<path id="SVGID_3_" d="M467.9,231.3v-14.9c0-9.4,7.6-17,17-17H883c9.4,0,17,7.6,17,17V280c0,9.4-7.6,17-17,17H484.9
			c-9.4,0-17-7.6-17-17V231.3"/>
	</defs>
	<clipPath id="SVGID_4_">
		<use xlink:href="#SVGID_3_"  style="overflow:visible;"/>
	</clipPath>
	
		<rect x="172.2" y="117.4" transform="matrix(0.6764 -0.7366 0.7366 0.6764 37.6893 367.851)" class="st6" width="530.6" height="47.2"/>
	
		<rect x="277.3" y="117.4" transform="matrix(0.6764 -0.7366 0.7366 0.6764 71.7207 445.3055)" class="st6" width="530.6" height="47.2"/>
	
		<rect x="381.6" y="117.4" transform="matrix(0.6764 -0.7366 0.7366 0.6764 105.4841 522.1501)" class="st6" width="530.6" height="47.2"/>
	
		<rect x="486" y="117.4" transform="matrix(0.6764 -0.7366 0.7366 0.6764 139.2476 598.9948)" class="st6" width="530.6" height="47.2"/>
	
		<rect x="592.8" y="117.4" transform="matrix(0.6764 -0.7366 0.7366 0.6764 173.8149 677.669)" class="st6" width="530.6" height="47.2"/>
	
		<rect x="697.9" y="117.4" transform="matrix(0.6764 -0.7366 0.7366 0.6764 207.8463 755.1235)" class="st6" width="530.6" height="47.2"/>
	<use xlink:href="#SVGID_3_"  style="overflow:visible;fill:none;stroke:#333333;stroke-width:2;stroke-miterlimit:10;"/>
</g>
<g>
	<path class="st0" d="M575.5,273l3-4.8 M569.7,282.1l4.1-6.6 M579.7,266.3l15.5-24.9v-0.2h25.6v67.2h11.1v19.7h-11.1v23.2h-25.6
		v-23.2h-42.6l-1.5-15.6l17.4-28 M573.8,308.4h21.3v-34l-0.5-0.2l-2,3.1L573.8,308.4z"/>
	<path class="st0" d="M644.7,267.9c0.3-1.7,0.2-1.1,0.7-2.7 M643.2,276.4c0.2-2.4,0.4-3.5,1-6.4 M646.4,262.5
		c1.8-5,3.3-7.7,6.7-11.5c6.9-7.6,16.2-11.4,28-11.4c11.7,0,21.1,3.8,28,11.4c6.9,7.6,10.4,18.8,10.4,33.6v23.1
		c0,14.9-3.5,26.1-10.4,33.7c-6.9,7.6-16.2,11.4-27.9,11.4c-11.8,0-21.1-3.8-28-11.4c-6.9-7.6-10.4-18.8-10.4-33.7v-23.1
		c0-1.9,0.1-3.8,0.2-5.6 M694,283c0-8.4-1.1-14.5-3.3-18.1c-2.2-3.7-5.4-5.5-9.6-5.5c-4.2,0-7.4,1.8-9.6,5.5
		c-2.1,3.7-3.2,9.7-3.2,18.1v26.5c0,8.6,1.1,14.7,3.3,18.3c2.2,3.7,5.4,5.5,9.7,5.5c4.2,0,7.4-1.8,9.5-5.5c2.2-3.7,3.3-9.8,3.3-18.3
		V283z"/>
	<path class="st0" d="M760.2,264.7l1.8-3.1 M753.5,275.5l4.9-8.2 M763.5,258.9l11-17.5v-0.2h25.6v67.2h11.1v19.7h-11.1v23.2h-25.6
		v-23.2h-42.6l-1.5-15.6l20.6-33.2 M753.2,308.4h21.3v-34l-0.5-0.2l-2,3.1L753.2,308.4z"/>
</g>
<g>
	<path class="st2" d="M626.5,305.1h11.1v19.7h-11.1V348H601v-23.2h-42.6l-1.5-15.6l44.2-71v-0.2h25.6V305.1z M579.6,305.1H601v-34
		l-0.5-0.2l-2,3.1L579.6,305.1z"/>
	<path class="st2" d="M725.3,304.5c0,14.9-3.5,26.1-10.4,33.7c-6.9,7.6-16.2,11.4-27.9,11.4c-11.8,0-21.1-3.8-28-11.4
		c-6.9-7.6-10.4-18.8-10.4-33.7v-23.1c0-14.9,3.4-26.1,10.3-33.7c6.9-7.6,16.2-11.4,28-11.4c11.7,0,21.1,3.8,28,11.4
		c6.9,7.6,10.4,18.8,10.4,33.6V304.5z M699.8,279.6c0-8.4-1.1-14.5-3.3-18.1c-2.2-3.7-5.4-5.5-9.6-5.5c-4.2,0-7.4,1.8-9.6,5.5
		c-2.1,3.7-3.2,9.7-3.2,18.1v26.5c0,8.6,1.1,14.7,3.3,18.3c2.2,3.7,5.4,5.5,9.7,5.5c4.2,0,7.4-1.8,9.5-5.5c2.2-3.7,3.3-9.8,3.3-18.3
		V279.6z"/>
	<path class="st2" d="M805.8,305.1H817v19.7h-11.1V348h-25.6v-23.2h-42.6l-1.5-15.6l44.2-71v-0.2h25.6V305.1z M759,305.1h21.3v-34
		l-0.5-0.2l-2,3.1L759,305.1z"/>
</g>
<g>
	<path class="st1" d="M575.5,273l3-4.8 M569.7,282.1l4.1-6.6 M579.7,266.3l15.5-24.9v-0.2h25.6v67.2h11.1v19.7h-11.1v23.2h-25.6
		v-23.2h-42.6l-1.5-15.6l17.4-28 M573.8,308.4h21.3v-34l-0.5-0.2l-2,3.1L573.8,308.4z"/>
	<path class="st1" d="M644.7,267.9c0.3-1.7,0.2-1.1,0.7-2.7 M643.2,276.4c0.2-2.4,0.4-3.5,1-6.4 M646.4,262.5
		c1.8-5,3.3-7.7,6.7-11.5c6.9-7.6,16.2-11.4,28-11.4c11.7,0,21.1,3.8,28,11.4c6.9,7.6,10.4,18.8,10.4,33.6v23.1
		c0,14.9-3.5,26.1-10.4,33.7c-6.9,7.6-16.2,11.4-27.9,11.4c-11.8,0-21.1-3.8-28-11.4c-6.9-7.6-10.4-18.8-10.4-33.7v-23.1
		c0-1.9,0.1-3.8,0.2-5.6 M694,283c0-8.4-1.1-14.5-3.3-18.1c-2.2-3.7-5.4-5.5-9.6-5.5c-4.2,0-7.4,1.8-9.6,5.5
		c-2.1,3.7-3.2,9.7-3.2,18.1v26.5c0,8.6,1.1,14.7,3.3,18.3c2.2,3.7,5.4,5.5,9.7,5.5c4.2,0,7.4-1.8,9.5-5.5c2.2-3.7,3.3-9.8,3.3-18.3
		V283z"/>
	<path class="st1" d="M760.2,264.7l1.8-3.1 M753.5,275.5l4.9-8.2 M763.5,258.9l11-17.5v-0.2h25.6v67.2h11.1v19.7h-11.1v23.2h-25.6
		v-23.2h-42.6l-1.5-15.6l20.6-33.2 M753.2,308.4h21.3v-34l-0.5-0.2l-2,3.1L753.2,308.4z"/>
</g>
<g>
	<path class="st2" d="M612.1,156.6c-14.8,0-26.9-12.1-26.9-26.9c0-14.8,12.1-26.9,26.9-26.9s26.9,12.1,26.9,26.9
		C639,144.6,626.9,156.6,612.1,156.6z M612.1,109c-11.4,0-20.7,9.3-20.7,20.7s9.3,20.7,20.7,20.7s20.7-9.3,20.7-20.7
		S623.5,109,612.1,109z"/>
</g>
<g>
	<path class="st7" d="M610.3,157.7c-14.8,0-26.9-12.1-26.9-26.9s12.1-26.9,26.9-26.9c14.8,0,26.9,12.1,26.9,26.9
		S625.1,157.7,610.3,157.7z M633.2,108.3c12.4,12.6,12.2,33-0.4,45.5 M587.3,153.4c-12.4-12.6-12.2-33,0.4-45.5 M638.1,103.4
		c15.1,15.4,14.9,40.1-0.5,55.2 M582.4,158.2c-15.1-15.4-14.9-40.1,0.5-55.2 M610.3,110.1c-11.4,0-20.7,9.3-20.7,20.7
		s9.3,20.7,20.7,20.7c11.4,0,20.7-9.3,20.7-20.7S621.7,110.1,610.3,110.1z M595.5,131.8c0,8.1,6.6,14.8,14.8,14.8"/>
</g>
<g>
	<path class="st2" d="M758.1,156.6c-14.8,0-26.9-12.1-26.9-26.9c0-14.8,12.1-26.9,26.9-26.9s26.9,12.1,26.9,26.9
		C785,144.6,772.9,156.6,758.1,156.6z M758.1,109c-11.4,0-20.7,9.3-20.7,20.7s9.3,20.7,20.7,20.7s20.7-9.3,20.7-20.7
		S769.5,109,758.1,109z"/>
</g>
<g>
	<path class="st7" d="M756.4,157.7c-14.8,0.1-26.9-12-27-26.8c-0.1-14.8,12-26.9,26.8-27c14.8-0.1,26.9,12,27,26.8
		C783.2,145.5,771.2,157.7,756.4,157.7z M778.6,107.2c13,12.3,13.7,32.9,1.3,46 M733.9,154.5c-13-12.3-13.7-32.9-1.3-46
		 M756.2,110.1c-11.4,0-20.7,9.4-20.6,20.8c0,11.4,9.4,20.7,20.8,20.6c11.4,0,20.7-9.4,20.6-20.8S767.6,110.1,756.2,110.1z"/>
</g>
<g>
	<path class="st7" d="M756.4,157.7c-14.8,0.1-26.9-12-27-26.8c-0.1-14.8,12-26.9,26.8-27c14.8-0.1,26.9,12,27,26.8
		C783.2,145.5,771.2,157.7,756.4,157.7z M778.6,107.2c13,12.3,13.7,32.9,1.3,46 M733.9,154.5c-13-12.3-13.7-32.9-1.3-46
		 M783.6,101.8c16,15.1,16.8,40.4,1.7,56.4 M728.9,159.9c-16-15.1-16.8-40.4-1.7-56.4 M756.2,110.1c-11.4,0-20.7,9.4-20.6,20.8
		c0,11.4,9.4,20.7,20.8,20.6c11.4,0,20.7-9.4,20.6-20.8S767.6,110.1,756.2,110.1z M740.5,130.9c0,9.2,7.6,16.7,16.8,16.7"/>
</g>
<line class="st8" x1="1126" y1="482" x2="1142" y2="482"/>
<line class="st8" x1="1096.7" y1="482" x2="1119" y2="482"/>
<line class="st8" x1="1063" y1="510.5" x2="1079" y2="510.5"/>
<line class="st8" x1="1033.7" y1="510.5" x2="1056" y2="510.5"/>
<line class="st8" x1="797.7" y1="533.8" x2="813.7" y2="533.8"/>
<line class="st8" x1="768.3" y1="533.8" x2="790.7" y2="533.8"/>
<line class="st8" x1="479.7" y1="533.8" x2="495.7" y2="533.8"/>
<line class="st8" x1="450.3" y1="533.8" x2="472.7" y2="533.8"/>
<line class="st8" x1="185.3" y1="482" x2="1089.7" y2="482"/>
<line class="st8" x1="154.7" y1="482" x2="179.3" y2="482"/>
<line class="st8" x1="133" y1="482" x2="148.7" y2="482"/>
<line class="st8" x1="202.2" y1="501.5" x2="226.8" y2="501.5"/>
<line class="st8" x1="180.5" y1="501.5" x2="196.2" y2="501.5"/>
<line class="st1" x1="326.8" y1="396.3" x2="349" y2="371"/>
<line class="st1" x1="318.2" y1="405.5" x2="324.1" y2="398.9"/>
<line class="st1" x1="260" y1="471" x2="315.1" y2="409.1"/>
<line class="st1" x1="347.1" y1="399.6" x2="351" y2="395"/>
<line class="st1" x1="338.5" y1="408.8" x2="344.5" y2="402.3"/>
<line class="st1" x1="296.7" y1="456" x2="335.4" y2="412.5"/>
<path class="st0" d="M1043.3,451.7l-95.7,29l-18-59.3c-5.3-17.4,4.6-35.9,22-41.2l32.5-9.9c17.4-5.3,35.9,4.6,41.2,22L1043.3,451.7z
	"/>
<rect x="935.1" y="225.2" transform="matrix(0.957 -0.2902 0.2902 0.957 -47.1004 286.7898)" class="st0" width="17" height="154"/>
<path class="st0" d="M879,199.6l4.4,14.6c4,13.1,17.8,20.5,30.9,16.5l12.9-3.9c13.1-4,20.5-17.8,16.5-30.9l-4.4-14.6L879,199.6z
	 M933,201c2.5,8.2-2.1,16.8-10.3,19.3l-8.1,2.4c-8.2,2.5-16.8-2.1-19.3-10.3l-1.6-5.3l37.7-11.4L933,201z"/>
<path class="st9" d="M1046.6,445.5l-95.7,29l-18-59.3c-5.3-17.4,4.6-35.9,22-41.2l32.5-9.9c17.4-5.3,35.9,4.6,41.2,22L1046.6,445.5z
	"/>
<path class="st9" d="M984,476.3"/>
<rect x="938.4" y="219" transform="matrix(0.957 -0.2902 0.2902 0.957 -45.1477 287.489)" class="st2" width="17" height="154"/>
<path class="st9" d="M883.6,194l4.4,14.6c4,13.1,17.8,20.5,30.9,16.5l12.9-3.9c13.1-4,20.5-17.8,16.5-30.9l-4.4-14.6L883.6,194z
	 M937.5,195.4c2.5,8.2-2.1,16.8-10.3,19.3l-8.1,2.4c-8.2,2.5-16.8-2.1-19.3-10.3l-1.6-5.3l37.7-11.4L937.5,195.4z"/>
<path class="st10" d="M1043.3,451.7l-95.7,29l-18-59.3c-5.3-17.4,4.6-35.9,22-41.2l32.5-9.9c17.4-5.3,35.9,4.6,41.2,22L1043.3,451.7
	z"/>
<path class="st10" d="M979.5,481.9"/>
<path class="st10" d="M955.5,466.9l-13.8-45.6c-4.1-13.4,3.5-27.6,16.9-31.6l25-7.6c13.4-4.1,27.6,3.5,31.6,16.9l13.8,45.6"/>
<line class="st10" x1="925.7" y1="272.3" x2="924" y2="266.9"/>
<line class="st10" x1="929.5" y1="284.9" x2="926.6" y2="275.4"/>
<polyline class="st10" points="923.1,263.9 913.1,231 929.4,226.1 974.1,373.5 957.8,378.4 930.4,288 "/>
<path class="st10" d="M879,199.6l4.4,14.6c4,13.1,17.8,20.5,30.9,16.5l12.9-3.9c13.1-4,20.5-17.8,16.5-30.9l-4.4-14.6L879,199.6z
	 M933,201c2.5,8.2-2.1,16.8-10.3,19.3l-8.1,2.4c-8.2,2.5-16.8-2.1-19.3-10.3l-1.6-5.3l37.7-11.4L933,201z"/>
<polyline class="st10" points="883.5,214.1 879,199.6 939.3,181.3 943.8,195.9 "/>
<line class="st10" x1="961.6" y1="418.5" x2="974.2" y2="460.1"/>
<line class="st10" x1="978.8" y1="413.3" x2="991.5" y2="454.9"/>
<line class="st10" x1="997" y1="407.8" x2="1009.7" y2="449.4"/>
<line class="st8" x1="236.1" y1="501.6" x2="539.1" y2="501.6"/>
<line class="st8" x1="501.6" y1="533.6" x2="756.6" y2="533.6"/>
<line class="st8" x1="743.1" y1="511.1" x2="1023.6" y2="511.1"/>
<polygon class="st2" points="634,196 613.3,196 592.5,196 592.5,177.5 600,159 613.3,159 626.5,159 634,177.5 "/>
<polygon class="st7" points="631,198 610.3,198 589.5,198 589.5,179.5 597,161 610.3,161 623.5,161 631,179.5 "/>
<polygon class="st2" points="780,196 759.3,196 738.5,196 738.5,177.5 746,159 759.3,159 772.5,159 780,177.5 "/>
<polygon class="st7" points="777,198 756.3,198 735.5,198 735.5,179.5 743,161 756.3,161 769.5,161 777,179.5 "/>
<g>
	<path class="st0" d="M949.1,466.6h-63h-63l50.6-196.4c3.3-12.8,21.5-12.8,24.8,0L949.1,466.6z"/>
	<path class="st2" d="M910.1,287.9l-5.6-21.8c-3.3-12.8-21.5-12.8-24.8,0l-5.6,21.8H910.1z"/>
	<polygon class="st2" points="933.3,377.9 920.7,329.4 863.4,329.4 850.9,377.9 	"/>
	<polygon class="st2" points="840.2,419.4 829.1,462.6 955.1,462.6 943.9,419.4 	"/>
	<path class="st10" d="M949.1,466.6h-63h-63l50.6-196.4c3.3-12.8,21.5-12.8,24.8,0L949.1,466.6z"/>
	<path class="st10" d="M904.1,291.9l-5.6-21.8c-3.3-12.8-21.5-12.8-24.8,0l-5.6,21.8H904.1z"/>
	<polygon class="st10" points="927.3,381.9 914.7,333.4 857.4,333.4 844.9,381.9 	"/>
	<path class="st0" d="M972.3,481.7H797.7v-4.5c0-5.6,4.6-10.2,10.2-10.2h154.3c5.6,0,10.2,4.6,10.2,10.2V481.7z"/>
	<path class="st2" d="M978.3,476.7H803.7v-4.5c0-5.6,4.6-10.2,10.2-10.2h154.3c5.6,0,10.2,4.6,10.2,10.2V476.7z"/>
	<path class="st10" d="M972.3,481.7H797.7v-4.5c0-5.6,4.6-10.2,10.2-10.2h154.3c5.6,0,10.2,4.6,10.2,10.2V481.7z"/>
	<polygon class="st10" points="834.2,423.4 823.1,466.6 949.1,466.6 937.9,423.4 	"/>
</g>
<text transform="matrix(1 0 0 1 495.1568 588.58)"><tspan x="0" y="0" class="st11 st12 st13">NOTHING AHEAD</tspan><tspan x="20.2" y="57.6" class="st11 st12 st13">RETURN HOME</tspan></text>
</svg>
