<?xml version="1.0" encoding="utf-8"?>
<!-- Generator: Adobe Illustrator 21.0.0, SVG Export Plug-In . SVG Version: 6.00 Build 0)  -->
<svg version="1.1" id="Layer_1" xmlns="http://www.w3.org/2000/svg" xmlns:xlink="http://www.w3.org/1999/xlink" x="0px" y="0px"
	 viewBox="0 0 1366 768" style="enable-background:new 0 0 1366 768;" xml:space="preserve">
<style type="text/css">
	.st0{fill:#94C7EB;}
	.st1{fill:none;stroke:#666666;stroke-width:4;stroke-linecap:round;stroke-linejoin:round;stroke-miterlimit:10;}
	.st2{fill:#FBB03B;}
	.st3{fill:none;stroke:#666666;stroke-width:2;stroke-linecap:round;stroke-linejoin:round;stroke-miterlimit:10;}
	.st4{fill:#FFFFFF;stroke:#666666;stroke-width:4;stroke-linecap:round;stroke-linejoin:round;stroke-miterlimit:10;}
	.st5{fill:#999999;stroke:#666666;stroke-width:4;stroke-linecap:round;stroke-linejoin:round;stroke-miterlimit:10;}
	.st6{fill:#FBB03B;stroke:#666666;stroke-width:6;stroke-linecap:round;stroke-linejoin:round;stroke-miterlimit:10;}
	.st7{fill:none;stroke:#666666;stroke-width:3;stroke-linecap:round;stroke-linejoin:round;}
	.st8{fill:none;stroke:#666666;stroke-width:3;stroke-linecap:round;stroke-linejoin:round;stroke-dasharray:4.0478,4.0478;}
	.st9{fill:none;stroke:#666666;stroke-width:3;stroke-linecap:round;stroke-linejoin:round;stroke-miterlimit:10;}
	.st10{fill:#5DA3CE;}
	.st11{font-family:'Romantiques';}
	.st12{font-size:22.8704px;}
</style>
<path class="st0" d="M669.1,295.4c-55.5,0-100.6,45.1-100.6,100.6s45.1,100.6,100.6,100.6c55.5,0,100.6-45.1,100.6-100.6
	S724.6,295.4,669.1,295.4z M747.8,388h-58.5c0,0,0,0,0,0c-0.3-0.7-0.6-1.4-1-2.1c0,0,0,0,0,0l41-41
	C739.5,356.7,746.2,371.6,747.8,388z M678.3,376.3c-0.6-0.3-1.2-0.5-1.9-0.8c0,0,0,0,0,0v-58.3c16.3,1.5,31.2,7.9,43.1,17.8
	L678.3,376.3z M669.1,404c-4.4,0-7.9-3.6-7.9-7.9c0-4.4,3.6-7.9,7.9-7.9s7.9,3.6,7.9,7.9C677.1,400.4,673.5,404,669.1,404z
	 M662.6,375.3c-0.7,0.2-1.4,0.5-2.1,0.8c0,0,0,0,0,0l-41.3-41.3c12-9.8,27-16.2,43.4-17.6V375.3z M658.9,415.2
	C658.9,415.2,658.9,415.2,658.9,415.2c1.2,0.6,2.4,1.1,3.7,1.5v58.1c-17-1.4-32.4-8.2-44.7-18.6L658.9,415.2z M676.4,416.5
	c1.2-0.4,2.3-0.9,3.4-1.6c0,0,0,0,0,0l40.9,40.9c-12.1,10.5-27.5,17.3-44.3,18.9L676.4,416.5C676.4,416.5,676.4,416.5,676.4,416.5z
	 M609.2,344.4l40.9,40.9c-0.5,0.8-0.9,1.7-1.3,2.6c0,0,0,0,0,0h-58.5C592.1,371.4,598.9,356.3,609.2,344.4z M590.2,401.8h57.9
	c0,0,0,0,0,0c0.3,1.2,0.7,2.3,1.3,3.4l-41.2,41.2C598,434.1,591.4,418.7,590.2,401.8z M730.4,446l-41.3-41.3c0.4-0.9,0.7-1.9,1-2.9
	c0,0,0,0,0,0H748C746.8,418.5,740.4,433.8,730.4,446z"/>
<path class="st1" d="M592.3,326.3c-1,1-5.7,5.7-6.7,6.7 M599.9,318.6l-1.9,1.9 M580.9,339.9c-12.1,16.6-19.3,37.1-19.3,59.2
	c0,55.5,45.1,100.6,100.6,100.6c55.5,0,100.6-45.1,100.6-100.6s-45.1-100.6-100.6-100.6c-20.3,0-39.3,6.1-55.1,16.5 M776.6,399.1
	c0-55.5-45.1-100.6-100.6-100.6h-12.7 M663.4,499.7H676c55.5,0,100.6-45.1,100.6-100.6 M740.9,391h-58.5c0,0,0,0,0,0
	c-0.3-0.7-0.6-1.4-1-2.1c0,0,0,0,0,0l41-41C732.6,359.8,739.2,374.7,740.9,391z M671.4,379.4c-0.6-0.3-1.2-0.5-1.9-0.8c0,0,0,0,0,0
	v-58.3c16.3,1.5,31.2,7.9,43.1,17.8L671.4,379.4z M662.2,407c-4.4,0-7.9-3.6-7.9-7.9c0-4.4,3.6-7.9,7.9-7.9s7.9,3.6,7.9,7.9
	C670.1,403.5,666.6,407,662.2,407z M655.7,378.3c-0.7,0.2-1.4,0.5-2.1,0.8c0,0,0,0,0,0l-41.3-41.3c12-9.8,27-16.2,43.4-17.6V378.3z
	 M652,418.3C652,418.3,652,418.3,652,418.3c1.2,0.6,2.4,1.1,3.7,1.5v58.1c-17-1.4-32.4-8.2-44.7-18.6L652,418.3z M669.5,419.6
	c1.2-0.4,2.3-0.9,3.4-1.6c0,0,0,0,0,0l40.9,40.9c-12.1,10.5-27.5,17.3-44.3,18.9L669.5,419.6C669.5,419.6,669.5,419.6,669.5,419.6z
	 M602.3,347.5l40.9,40.9c-0.5,0.8-0.9,1.7-1.3,2.6c0,0,0,0,0,0h-58.5C585.2,374.5,592,359.4,602.3,347.5z M583.3,404.9h57.9
	c0,0,0,0,0,0c0.3,1.2,0.7,2.3,1.3,3.4l-41.2,41.2C591.1,437.2,584.5,421.7,583.3,404.9z M723.5,449.1l-41.3-41.3
	c0.4-0.9,0.7-1.9,1-2.9c0,0,0,0,0,0h57.9C739.9,421.6,733.5,436.8,723.5,449.1z"/>
<path class="st2" d="M510.1,498.2c4.3,0,7.8,2.7,9.4,6.4c1.3-1.6,3.4-2.7,6.1-2.7c1.6,0,2.9,0.4,4,0.9V289.3
	c0-10.8-8.7-19.5-19.5-19.5c-10.8,0-19.5,8.7-19.5,19.5v90.4l-39.2,0c-9,0-16.4-7.4-16.4-16.4V261.5c0-10.8-8.7-19.5-19.5-19.5
	c-10.8,0-19.5,8.7-19.5,19.5v101.7c0,30.6,24.9,55.4,55.4,55.5l39.3,0v83.8c1.3-1,2.9-1.5,5-1.5c2.5,0,4.4,0.9,5.7,2.2
	C503.2,500.2,506.6,498.2,510.1,498.2z"/>
<path class="st1" d="M389.9,316.3v48.9c0,30.6,24.9,55.4,55.4,55.5l39.3,0v83.8c1.3-1,2.9-1.5,5-1.5c2.5,0,4.4,0.9,5.7,2.2
	c1.9-3,5.3-5,8.8-5c4.3,0,7.8,2.7,9.4,6.4c1.3-1.6,3.4-2.7,6.1-2.7c1.6,0,2.9,0.4,4,0.9V291.3c0-10.8-8.7-19.5-19.5-19.5
	c-10.8,0-19.5,8.7-19.5,19.5v90.4l-39.2,0c-9,0-16.4-7.4-16.4-16.4V263.5c0-10.8-8.7-19.5-19.5-19.5c-10.8,0-19.5,8.7-19.5,19.5
	v10.6"/>
<line class="st1" x1="389.9" y1="282.7" x2="389.9" y2="287.7"/>
<line class="st1" x1="389.9" y1="296" x2="389.9" y2="308.6"/>
<g>
	<line class="st3" x1="421.7" y1="247.2" x2="423.6" y2="241.5"/>
	<line class="st3" x1="414.5" y1="267.4" x2="423.1" y2="264.6"/>
	<line class="st3" x1="398.8" y1="255.7" x2="394.1" y2="252.9"/>
	<line class="st3" x1="396" y1="267.2" x2="392.1" y2="265.3"/>
	<line class="st3" x1="396" y1="275.8" x2="390.2" y2="275.8"/>
	<line class="st3" x1="389.3" y1="285.3" x2="384.5" y2="285.3"/>
	<line class="st3" x1="387.4" y1="270" x2="383.6" y2="270"/>
	<line class="st3" x1="388.3" y1="261.5" x2="382.6" y2="259.6"/>
	<line class="st3" x1="394.1" y1="248.1" x2="390.2" y2="245.3"/>
	<line class="st3" x1="402.6" y1="242.4" x2="400.7" y2="239.5"/>
	<line class="st3" x1="412.2" y1="241.5" x2="414.1" y2="236.7"/>
	<line class="st3" x1="387.4" y1="294.8" x2="383.6" y2="294.8"/>
	<line class="st3" x1="387.4" y1="305.3" x2="381.7" y2="306.3"/>
	<line class="st3" x1="388.3" y1="316.7" x2="383.6" y2="316.7"/>
	<line class="st3" x1="387.4" y1="332.9" x2="383.6" y2="332.9"/>
	<line class="st3" x1="387.4" y1="340.6" x2="384.5" y2="340.6"/>
	<line class="st3" x1="388.3" y1="345.3" x2="382.6" y2="347.2"/>
	<line class="st3" x1="388.3" y1="360.6" x2="381.7" y2="361.5"/>
	<line class="st3" x1="388.3" y1="374.9" x2="383.6" y2="374.9"/>
	<line class="st3" x1="392.1" y1="387.3" x2="387.4" y2="389.2"/>
	<line class="st3" x1="396.9" y1="395.8" x2="393.1" y2="399.6"/>
	<line class="st3" x1="405.5" y1="404.4" x2="401.7" y2="409.2"/>
	<line class="st3" x1="416.9" y1="413" x2="413.1" y2="417.7"/>
	<line class="st3" x1="429.3" y1="418.7" x2="427.4" y2="424.4"/>
	<line class="st3" x1="441.7" y1="421.6" x2="440.7" y2="428.2"/>
	<line class="st3" x1="455" y1="422.5" x2="455" y2="428.2"/>
	<line class="st3" x1="465.5" y1="422.5" x2="466.5" y2="428.2"/>
	<line class="st3" x1="476" y1="421.6" x2="474.1" y2="428.2"/>
	<line class="st3" x1="482.7" y1="433" x2="477.9" y2="434.9"/>
	<line class="st3" x1="482.7" y1="442.5" x2="478.9" y2="441.6"/>
	<line class="st3" x1="483.6" y1="454" x2="477.9" y2="453"/>
	<line class="st3" x1="483.6" y1="464.4" x2="477.9" y2="464.4"/>
	<line class="st3" x1="483.6" y1="469.2" x2="477.9" y2="471.1"/>
	<line class="st3" x1="482.7" y1="485.4" x2="475.1" y2="488.3"/>
	<line class="st3" x1="483.6" y1="494.9" x2="476" y2="495.9"/>
	<line class="st3" x1="426.5" y1="252.9" x2="432.2" y2="249.1"/>
	<line class="st3" x1="428.4" y1="268.1" x2="434.1" y2="268.1"/>
	<line class="st3" x1="429.3" y1="278.6" x2="436" y2="279.6"/>
	<line class="st3" x1="429.3" y1="292.9" x2="437.9" y2="292.9"/>
	<line class="st3" x1="429.3" y1="303.4" x2="436" y2="304.3"/>
	<line class="st3" x1="429.3" y1="321.5" x2="435" y2="318.6"/>
	<line class="st3" x1="430.3" y1="330.1" x2="434.1" y2="330.1"/>
	<line class="st3" x1="429.3" y1="337.7" x2="436.9" y2="338.7"/>
	<line class="st3" x1="428.4" y1="349.1" x2="435" y2="348.2"/>
	<line class="st3" x1="429.3" y1="360.6" x2="435" y2="357.7"/>
	<line class="st3" x1="431.2" y1="372" x2="436" y2="369.1"/>
	<line class="st3" x1="439.8" y1="379.6" x2="442.7" y2="374.9"/>
	<line class="st3" x1="452.2" y1="380.6" x2="452.2" y2="373.9"/>
	<line class="st3" x1="462.7" y1="380.6" x2="461.7" y2="373"/>
	<line class="st3" x1="472.2" y1="380.6" x2="471.2" y2="373"/>
	<line class="st3" x1="484.6" y1="374.9" x2="478.9" y2="371.1"/>
	<line class="st3" x1="483.6" y1="357.7" x2="477" y2="357.7"/>
	<line class="st3" x1="484.6" y1="346.3" x2="477" y2="346.3"/>
	<line class="st3" x1="484.6" y1="332" x2="478.9" y2="331"/>
	<line class="st3" x1="484.6" y1="318.6" x2="477" y2="320.5"/>
	<line class="st3" x1="484.6" y1="308.2" x2="477.9" y2="307.2"/>
	<line class="st3" x1="483.6" y1="296.7" x2="478.9" y2="295.8"/>
	<line class="st3" x1="485.5" y1="283.4" x2="479.8" y2="281.5"/>
	<line class="st3" x1="492.2" y1="274.8" x2="487.4" y2="269.1"/>
	<line class="st3" x1="500.8" y1="271" x2="498.9" y2="263.4"/>
	<line class="st3" x1="512.2" y1="272.9" x2="515.1" y2="266.2"/>
	<line class="st3" x1="519.8" y1="279.6" x2="526.5" y2="277.7"/>
	<line class="st3" x1="523.7" y1="292.9" x2="530.3" y2="292"/>
	<line class="st3" x1="524.6" y1="307.2" x2="530.3" y2="306.3"/>
	<line class="st3" x1="523.7" y1="316.7" x2="532.2" y2="317.7"/>
	<line class="st3" x1="523.7" y1="327.2" x2="530.3" y2="329.1"/>
	<line class="st3" x1="524.6" y1="340.6" x2="531.3" y2="340.6"/>
	<line class="st3" x1="523.7" y1="353.9" x2="531.3" y2="352"/>
	<line class="st3" x1="523.7" y1="363.4" x2="530.3" y2="364.4"/>
	<line class="st3" x1="523.7" y1="375.8" x2="529.4" y2="377.7"/>
	<line class="st3" x1="524.6" y1="386.3" x2="531.3" y2="387.3"/>
	<line class="st3" x1="523.7" y1="400.6" x2="531.3" y2="398.7"/>
	<line class="st3" x1="523.7" y1="412" x2="531.3" y2="410.1"/>
	<line class="st3" x1="523.7" y1="424.4" x2="529.4" y2="426.3"/>
	<line class="st3" x1="523.7" y1="439.7" x2="530.3" y2="440.6"/>
	<line class="st3" x1="522.7" y1="453" x2="530.3" y2="455.9"/>
	<line class="st3" x1="523.7" y1="468.3" x2="530.3" y2="467.3"/>
	<line class="st3" x1="523.7" y1="481.6" x2="529.4" y2="478.7"/>
	<line class="st3" x1="523.7" y1="490.2" x2="530.3" y2="492.1"/>
	<line class="st3" x1="407.4" y1="252.9" x2="406.4" y2="246.2"/>
	<line class="st3" x1="415" y1="251.9" x2="418.8" y2="249.1"/>
	<line class="st3" x1="418.8" y1="259.6" x2="424.5" y2="256.7"/>
	<line class="st3" x1="418.8" y1="275.8" x2="423.6" y2="274.8"/>
	<line class="st3" x1="418.8" y1="283.4" x2="426.5" y2="284.3"/>
	<line class="st3" x1="416" y1="292.9" x2="423.6" y2="292.9"/>
	<line class="st3" x1="417.9" y1="300.5" x2="425.5" y2="300.5"/>
	<line class="st3" x1="419.8" y1="306.3" x2="425.5" y2="307.2"/>
	<line class="st3" x1="417.9" y1="314.8" x2="424.5" y2="314.8"/>
	<line class="st3" x1="418.8" y1="320.5" x2="423.6" y2="322.5"/>
	<line class="st3" x1="417.9" y1="327.2" x2="424.5" y2="328.2"/>
	<line class="st3" x1="419.8" y1="334.8" x2="426.5" y2="334.8"/>
	<line class="st3" x1="419.8" y1="340.6" x2="426.5" y2="341.5"/>
	<line class="st3" x1="417.9" y1="347.2" x2="423.6" y2="347.2"/>
	<line class="st3" x1="418.8" y1="352.9" x2="425.5" y2="351"/>
	<line class="st3" x1="418.8" y1="359.6" x2="424.5" y2="357.7"/>
	<line class="st3" x1="401.7" y1="261.5" x2="396" y2="260.5"/>
	<line class="st3" x1="403.6" y1="254.8" x2="399.8" y2="250"/>
	<line class="st3" x1="399.8" y1="281.5" x2="393.1" y2="280.5"/>
	<line class="st3" x1="397.9" y1="289.1" x2="391.2" y2="288.1"/>
	<line class="st3" x1="401.7" y1="298.6" x2="392.1" y2="297.7"/>
	<line class="st3" x1="399.8" y1="307.2" x2="392.1" y2="308.2"/>
	<line class="st3" x1="400.7" y1="321.5" x2="393.1" y2="321.5"/>
	<line class="st3" x1="398.8" y1="333.9" x2="393.1" y2="334.8"/>
	<line class="st3" x1="399.8" y1="327.2" x2="392.1" y2="327.2"/>
	<line class="st3" x1="402.6" y1="312.9" x2="394.1" y2="313.9"/>
	<line class="st3" x1="398.8" y1="344.4" x2="393.1" y2="345.3"/>
	<line class="st3" x1="399.8" y1="352" x2="392.1" y2="352"/>
	<line class="st3" x1="402.6" y1="359.6" x2="392.1" y2="361.5"/>
	<line class="st3" x1="398.8" y1="367.2" x2="393.1" y2="370.1"/>
	<line class="st3" x1="402.6" y1="373.9" x2="395" y2="377.7"/>
	<line class="st3" x1="404.5" y1="379.6" x2="398.8" y2="383.4"/>
	<line class="st3" x1="410.3" y1="384.4" x2="402.6" y2="389.2"/>
	<line class="st3" x1="411.2" y1="393" x2="406.4" y2="398.7"/>
	<line class="st3" x1="415" y1="399.6" x2="411.2" y2="405.4"/>
	<line class="st3" x1="422.6" y1="406.3" x2="419.8" y2="412"/>
	<line class="st3" x1="430.3" y1="405.4" x2="426.5" y2="413"/>
	<line class="st3" x1="435" y1="409.2" x2="434.1" y2="415.8"/>
	<line class="st3" x1="442.7" y1="410.1" x2="441.7" y2="416.8"/>
	<line class="st3" x1="448.4" y1="409.2" x2="448.4" y2="415.8"/>
	<line class="st3" x1="455" y1="410.1" x2="456" y2="415.8"/>
	<line class="st3" x1="462.7" y1="409.2" x2="461.7" y2="415.8"/>
	<line class="st3" x1="468.4" y1="409.2" x2="469.3" y2="416.8"/>
	<line class="st3" x1="475.1" y1="409.2" x2="477" y2="415.8"/>
	<line class="st3" x1="484.6" y1="410.1" x2="482.7" y2="416.8"/>
	<line class="st3" x1="487.4" y1="422.5" x2="492.2" y2="421.6"/>
	<line class="st3" x1="486.5" y1="429.2" x2="492.2" y2="429.2"/>
	<line class="st3" x1="486.5" y1="433.9" x2="493.2" y2="435.9"/>
	<line class="st3" x1="488.4" y1="443.5" x2="494.1" y2="443.5"/>
	<line class="st3" x1="488.4" y1="449.2" x2="494.1" y2="449.2"/>
	<line class="st3" x1="487.4" y1="457.8" x2="493.2" y2="455.9"/>
	<line class="st3" x1="489.3" y1="462.5" x2="495.1" y2="462.5"/>
	<line class="st3" x1="488.4" y1="468.3" x2="494.1" y2="469.2"/>
	<line class="st3" x1="488.4" y1="474.9" x2="492.2" y2="474.9"/>
	<line class="st3" x1="486.5" y1="482.5" x2="495.1" y2="482.5"/>
	<line class="st3" x1="488.4" y1="487.3" x2="494.1" y2="488.3"/>
	<line class="st3" x1="488.4" y1="493" x2="493.2" y2="493"/>
	<line class="st3" x1="517" y1="494.9" x2="522.7" y2="494.9"/>
	<line class="st3" x1="517" y1="483.5" x2="521.7" y2="483.5"/>
	<line class="st3" x1="517" y1="490.2" x2="521.7" y2="489.2"/>
	<line class="st3" x1="515.1" y1="475.9" x2="521.7" y2="474"/>
	<line class="st3" x1="516" y1="465.4" x2="522.7" y2="465.4"/>
	<line class="st3" x1="516" y1="454.9" x2="521.7" y2="454.9"/>
	<line class="st3" x1="516" y1="446.3" x2="521.7" y2="447.3"/>
	<line class="st3" x1="515.1" y1="434.9" x2="522.7" y2="435.9"/>
	<line class="st3" x1="514.1" y1="430.1" x2="520.8" y2="429.2"/>
	<line class="st3" x1="516" y1="421.6" x2="521.7" y2="420.6"/>
	<line class="st3" x1="515.1" y1="413" x2="521.7" y2="413"/>
	<line class="st3" x1="514.1" y1="403.5" x2="521.7" y2="404.4"/>
	<line class="st3" x1="517.9" y1="396.8" x2="523.7" y2="397.7"/>
	<line class="st3" x1="515.1" y1="387.3" x2="523.7" y2="386.3"/>
	<line class="st3" x1="515.1" y1="377.7" x2="523.7" y2="376.8"/>
	<line class="st3" x1="516" y1="369.1" x2="523.7" y2="370.1"/>
	<line class="st3" x1="516" y1="358.7" x2="522.7" y2="358.7"/>
	<line class="st3" x1="514.1" y1="352.9" x2="521.7" y2="352"/>
	<line class="st3" x1="516" y1="343.4" x2="521.7" y2="343.4"/>
	<line class="st3" x1="515.1" y1="333.9" x2="521.7" y2="334.8"/>
	<line class="st3" x1="515.1" y1="323.4" x2="521.7" y2="323.4"/>
	<line class="st3" x1="517" y1="313.9" x2="523.7" y2="314.8"/>
	<line class="st3" x1="516" y1="306.3" x2="522.7" y2="305.3"/>
	<line class="st3" x1="516" y1="297.7" x2="522.7" y2="295.8"/>
	<line class="st3" x1="515.1" y1="288.1" x2="521.7" y2="286.2"/>
	<line class="st3" x1="513.2" y1="281.5" x2="516" y2="275.8"/>
	<line class="st3" x1="505.5" y1="272.9" x2="506.5" y2="278.6"/>
	<line class="st3" x1="497" y1="274.8" x2="499.8" y2="279.6"/>
	<line class="st3" x1="491.3" y1="280.5" x2="495.1" y2="282.4"/>
	<line class="st3" x1="489.3" y1="286.2" x2="495.1" y2="287.2"/>
	<line class="st3" x1="488.4" y1="292" x2="493.2" y2="292.9"/>
	<line class="st3" x1="487.4" y1="297.7" x2="492.2" y2="297.7"/>
	<line class="st3" x1="488.4" y1="304.3" x2="492.2" y2="305.3"/>
	<line class="st3" x1="486.5" y1="310.1" x2="493.2" y2="311"/>
	<line class="st3" x1="488.4" y1="316.7" x2="493.2" y2="316.7"/>
	<line class="st3" x1="487.4" y1="324.4" x2="494.1" y2="324.4"/>
	<line class="st3" x1="488.4" y1="332" x2="495.1" y2="331"/>
	<line class="st3" x1="487.4" y1="340.6" x2="496" y2="339.6"/>
	<line class="st3" x1="487.4" y1="345.3" x2="494.1" y2="345.3"/>
	<line class="st3" x1="487.4" y1="351" x2="494.1" y2="351"/>
	<line class="st3" x1="487.4" y1="357.7" x2="493.2" y2="358.7"/>
	<line class="st3" x1="486.5" y1="363.4" x2="495.1" y2="365.3"/>
	<line class="st3" x1="488.4" y1="369.1" x2="495.1" y2="369.1"/>
	<line class="st3" x1="490.3" y1="373.9" x2="497" y2="373.9"/>
	<line class="st3" x1="489.3" y1="377.7" x2="492.2" y2="380.6"/>
	<line class="st3" x1="421.7" y1="366.3" x2="427.4" y2="364.4"/>
	<line class="st3" x1="428.4" y1="371.1" x2="424.5" y2="373"/>
	<line class="st3" x1="431.2" y1="377.7" x2="427.4" y2="381.5"/>
	<line class="st3" x1="436.9" y1="386.3" x2="439.8" y2="381.5"/>
	<line class="st3" x1="445.5" y1="390.1" x2="448.4" y2="382.5"/>
	<line class="st3" x1="455" y1="391.1" x2="455" y2="385.3"/>
	<line class="st3" x1="461.7" y1="391.1" x2="461.7" y2="384.4"/>
	<line class="st3" x1="469.3" y1="389.2" x2="470.3" y2="384.4"/>
	<line class="st3" x1="479.8" y1="389.2" x2="477.9" y2="383.4"/>
	<line class="st3" x1="490.3" y1="389.2" x2="486.5" y2="384.4"/>
	<line class="st3" x1="404.5" y1="269.1" x2="401.7" y2="266.2"/>
	<line class="st3" x1="408.3" y1="262.4" x2="408.3" y2="258.6"/>
	<line class="st3" x1="404.5" y1="277.7" x2="402.6" y2="275.8"/>
	<line class="st3" x1="411.2" y1="276.7" x2="414.1" y2="273.9"/>
	<line class="st3" x1="407.4" y1="289.1" x2="404.5" y2="287.2"/>
	<line class="st3" x1="411.2" y1="288.1" x2="414.1" y2="288.1"/>
	<line class="st3" x1="407.4" y1="297.7" x2="404.5" y2="297.7"/>
	<line class="st3" x1="412.2" y1="297.7" x2="415" y2="298.6"/>
	<line class="st3" x1="408.3" y1="306.3" x2="404.5" y2="306.3"/>
	<line class="st3" x1="411.2" y1="310.1" x2="415" y2="309.1"/>
	<line class="st3" x1="408.3" y1="318.6" x2="405.5" y2="317.7"/>
	<line class="st3" x1="411.2" y1="320.5" x2="415" y2="321.5"/>
	<line class="st3" x1="406.4" y1="329.1" x2="403.6" y2="329.1"/>
	<line class="st3" x1="410.3" y1="333.9" x2="416.9" y2="331"/>
	<line class="st3" x1="404.5" y1="340.6" x2="399.8" y2="339.6"/>
	<line class="st3" x1="410.3" y1="341.5" x2="415" y2="340.6"/>
	<line class="st3" x1="405.5" y1="349.1" x2="400.7" y2="348.2"/>
	<line class="st3" x1="411.2" y1="351" x2="414.1" y2="350.1"/>
	<line class="st3" x1="408.3" y1="361.5" x2="404.5" y2="363.4"/>
	<line class="st3" x1="407.4" y1="354.9" x2="402.6" y2="355.8"/>
	<line class="st3" x1="412.2" y1="355.8" x2="416" y2="355.8"/>
	<line class="st3" x1="409.3" y1="368.2" x2="404.5" y2="370.1"/>
	<line class="st3" x1="414.1" y1="366.3" x2="419.8" y2="363.4"/>
	<line class="st3" x1="415" y1="377.7" x2="410.3" y2="379.6"/>
	<line class="st3" x1="413.1" y1="373.9" x2="417.9" y2="372"/>
	<line class="st3" x1="416.9" y1="386.3" x2="416" y2="389.2"/>
	<line class="st3" x1="418.8" y1="380.6" x2="423.6" y2="378.7"/>
	<line class="st3" x1="422.6" y1="392" x2="419.8" y2="395.8"/>
	<line class="st3" x1="429.3" y1="390.1" x2="433.1" y2="384.4"/>
	<line class="st3" x1="427.4" y1="398.7" x2="424.5" y2="402.5"/>
	<line class="st3" x1="436.9" y1="394.9" x2="440.7" y2="389.2"/>
	<line class="st3" x1="439.8" y1="398.7" x2="438.8" y2="406.3"/>
	<line class="st3" x1="448.4" y1="396.8" x2="451.2" y2="389.2"/>
	<line class="st3" x1="452.2" y1="398.7" x2="452.2" y2="406.3"/>
	<line class="st3" x1="457.9" y1="398.7" x2="458.9" y2="391.1"/>
	<line class="st3" x1="462.7" y1="396.8" x2="462.7" y2="405.4"/>
	<line class="st3" x1="469.3" y1="395.8" x2="473.1" y2="389.2"/>
	<line class="st3" x1="472.2" y1="397.7" x2="472.2" y2="406.3"/>
	<line class="st3" x1="479.8" y1="399.6" x2="479.8" y2="409.2"/>
	<line class="st3" x1="484.6" y1="396.8" x2="484.6" y2="389.2"/>
	<line class="st3" x1="501.7" y1="291" x2="497" y2="290.1"/>
	<line class="st3" x1="507.5" y1="292" x2="511.3" y2="290.1"/>
	<line class="st3" x1="502.7" y1="298.6" x2="498.9" y2="297.7"/>
	<line class="st3" x1="504.6" y1="303.4" x2="511.3" y2="301.5"/>
	<line class="st3" x1="501.7" y1="309.1" x2="497" y2="307.2"/>
	<line class="st3" x1="508.4" y1="312" x2="513.2" y2="310.1"/>
	<line class="st3" x1="501.7" y1="319.6" x2="497" y2="318.6"/>
	<line class="st3" x1="507.5" y1="322.5" x2="513.2" y2="319.6"/>
	<line class="st3" x1="503.6" y1="330.1" x2="497" y2="329.1"/>
	<line class="st3" x1="508.4" y1="331" x2="512.2" y2="331"/>
	<line class="st3" x1="505.5" y1="337.7" x2="500.8" y2="336.7"/>
	<line class="st3" x1="505.5" y1="343.4" x2="511.3" y2="341.5"/>
	<line class="st3" x1="502.7" y1="349.1" x2="496" y2="348.2"/>
	<line class="st3" x1="507.5" y1="352.9" x2="512.2" y2="350.1"/>
	<line class="st3" x1="502.7" y1="356.8" x2="496" y2="355.8"/>
	<line class="st3" x1="505.5" y1="360.6" x2="512.2" y2="359.6"/>
	<line class="st3" x1="503.6" y1="365.3" x2="513.2" y2="365.3"/>
	<line class="st3" x1="502.7" y1="370.1" x2="497.9" y2="369.1"/>
	<line class="st3" x1="500.8" y1="361.5" x2="497" y2="361.5"/>
	<line class="st3" x1="505.5" y1="376.8" x2="513.2" y2="373.9"/>
	<line class="st3" x1="500.8" y1="380.6" x2="497" y2="379.6"/>
	<line class="st3" x1="508.4" y1="384.4" x2="513.2" y2="382.5"/>
	<line class="st3" x1="498.9" y1="390.1" x2="494.1" y2="387.3"/>
	<line class="st3" x1="506.5" y1="392" x2="512.2" y2="391.1"/>
	<line class="st3" x1="501.7" y1="397.7" x2="495.1" y2="394.9"/>
	<line class="st3" x1="506.5" y1="399.6" x2="511.3" y2="396.8"/>
	<line class="st3" x1="494.1" y1="402.5" x2="489.3" y2="399.6"/>
	<line class="st3" x1="492.2" y1="408.2" x2="489.3" y2="406.3"/>
	<line class="st3" x1="507.5" y1="410.1" x2="513.2" y2="408.2"/>
	<line class="st3" x1="499.8" y1="407.3" x2="506.5" y2="403.5"/>
	<line class="st3" x1="499.8" y1="414.9" x2="493.2" y2="413"/>
	<line class="st3" x1="493.2" y1="418.7" x2="489.3" y2="416.8"/>
	<line class="st3" x1="511.3" y1="419.7" x2="517" y2="416.8"/>
	<line class="st3" x1="504.6" y1="420.6" x2="510.3" y2="416.8"/>
	<line class="st3" x1="503.6" y1="426.3" x2="497" y2="426.3"/>
	<line class="st3" x1="509.4" y1="427.3" x2="516" y2="424.4"/>
	<line class="st3" x1="499.8" y1="434.9" x2="495.1" y2="433"/>
	<line class="st3" x1="506.5" y1="437.8" x2="510.3" y2="437.8"/>
	<line class="st3" x1="501.7" y1="444.4" x2="497" y2="443.5"/>
	<line class="st3" x1="509.4" y1="445.4" x2="516" y2="441.6"/>
	<line class="st3" x1="499.8" y1="454" x2="494.1" y2="453"/>
	<line class="st3" x1="505.5" y1="454.9" x2="512.2" y2="452.1"/>
	<line class="st3" x1="503.6" y1="463.5" x2="498.9" y2="462.5"/>
	<line class="st3" x1="510.3" y1="463.5" x2="515.1" y2="461.6"/>
	<line class="st3" x1="500.8" y1="473" x2="498.9" y2="472.1"/>
	<line class="st3" x1="506.5" y1="473" x2="514.1" y2="471.1"/>
	<line class="st3" x1="506.5" y1="480.6" x2="498.9" y2="478.7"/>
	<line class="st3" x1="506.5" y1="485.4" x2="514.1" y2="485.4"/>
	<line class="st3" x1="502.7" y1="493" x2="499.8" y2="492.1"/>
	<line class="st3" x1="508.4" y1="494" x2="515.1" y2="492.1"/>
</g>
<path class="st2" d="M924.7,498.2c4.3,0,7.8,2.7,9.4,6.4c1.3-1.6,3.4-2.7,6.1-2.7c1.6,0,2.9,0.4,4,0.9V289.3
	c0-10.8-8.7-19.5-19.5-19.5s-19.5,8.7-19.5,19.5v90.4l-39.2,0c-9,0-16.4-7.4-16.4-16.4V261.5c0-10.8-8.7-19.5-19.5-19.5
	s-19.5,8.7-19.5,19.5v101.7c0,30.6,24.9,55.4,55.4,55.5l39.3,0v83.8c1.3-1,2.9-1.5,5-1.5c2.5,0,4.4,0.9,5.7,2.2
	C917.7,500.2,921.1,498.2,924.7,498.2z"/>
<path class="st1" d="M804.5,322.8v42.4c0,30.6,24.9,55.4,55.4,55.5l39.3,0v83.8c1.3-1,2.9-1.5,5-1.5c2.5,0,4.4,0.9,5.7,2.2
	c1.9-3,5.3-5,8.8-5c4.3,0,7.8,2.7,9.4,6.4c1.3-1.6,3.4-2.7,6.1-2.7c1.6,0,2.9,0.4,4,0.9V291.3c0-10.8-8.7-19.5-19.5-19.5
	c-10.8,0-19.5,8.7-19.5,19.5v90.4l-39.2,0c-9,0-16.4-7.4-16.4-16.4V263.5c0-10.8-8.7-19.5-19.5-19.5s-19.5,8.7-19.5,19.5v15.3"/>
<line class="st1" x1="804.5" y1="303.7" x2="804.5" y2="312.3"/>
<line class="st1" x1="804.5" y1="290.2" x2="804.5" y2="294.2"/>
<g>
	<line class="st3" x1="836.2" y1="247.2" x2="838.1" y2="241.5"/>
	<line class="st3" x1="829.1" y1="267.4" x2="837.6" y2="264.6"/>
	<line class="st3" x1="813.3" y1="255.7" x2="808.6" y2="252.9"/>
	<line class="st3" x1="810.5" y1="267.2" x2="806.7" y2="265.3"/>
	<line class="st3" x1="810.5" y1="275.8" x2="804.8" y2="275.8"/>
	<line class="st3" x1="803.8" y1="285.3" x2="799.1" y2="285.3"/>
	<line class="st3" x1="801.9" y1="270" x2="798.1" y2="270"/>
	<line class="st3" x1="802.9" y1="261.5" x2="797.1" y2="259.6"/>
	<line class="st3" x1="808.6" y1="248.1" x2="804.8" y2="245.3"/>
	<line class="st3" x1="817.2" y1="242.4" x2="815.3" y2="239.5"/>
	<line class="st3" x1="826.7" y1="241.5" x2="828.6" y2="236.7"/>
	<line class="st3" x1="801.9" y1="294.8" x2="798.1" y2="294.8"/>
	<line class="st3" x1="801.9" y1="305.3" x2="796.2" y2="306.3"/>
	<line class="st3" x1="802.9" y1="316.7" x2="798.1" y2="316.7"/>
	<line class="st3" x1="801.9" y1="332.9" x2="798.1" y2="332.9"/>
	<line class="st3" x1="801.9" y1="340.6" x2="799.1" y2="340.6"/>
	<line class="st3" x1="802.9" y1="345.3" x2="797.1" y2="347.2"/>
	<line class="st3" x1="802.9" y1="360.6" x2="796.2" y2="361.5"/>
	<line class="st3" x1="802.9" y1="374.9" x2="798.1" y2="374.9"/>
	<line class="st3" x1="806.7" y1="387.3" x2="801.9" y2="389.2"/>
	<line class="st3" x1="811.4" y1="395.8" x2="807.6" y2="399.6"/>
	<line class="st3" x1="820" y1="404.4" x2="816.2" y2="409.2"/>
	<line class="st3" x1="831.5" y1="413" x2="827.6" y2="417.7"/>
	<line class="st3" x1="843.8" y1="418.7" x2="841.9" y2="424.4"/>
	<line class="st3" x1="856.2" y1="421.6" x2="855.3" y2="428.2"/>
	<line class="st3" x1="869.6" y1="422.5" x2="869.6" y2="428.2"/>
	<line class="st3" x1="880.1" y1="422.5" x2="881" y2="428.2"/>
	<line class="st3" x1="890.5" y1="421.6" x2="888.6" y2="428.2"/>
	<line class="st3" x1="897.2" y1="433" x2="892.4" y2="434.9"/>
	<line class="st3" x1="897.2" y1="442.5" x2="893.4" y2="441.6"/>
	<line class="st3" x1="898.2" y1="454" x2="892.4" y2="453"/>
	<line class="st3" x1="898.2" y1="464.4" x2="892.4" y2="464.4"/>
	<line class="st3" x1="898.2" y1="469.2" x2="892.4" y2="471.1"/>
	<line class="st3" x1="897.2" y1="485.4" x2="889.6" y2="488.3"/>
	<line class="st3" x1="898.2" y1="494.9" x2="890.5" y2="495.9"/>
	<line class="st3" x1="841" y1="252.9" x2="846.7" y2="249.1"/>
	<line class="st3" x1="842.9" y1="268.1" x2="848.6" y2="268.1"/>
	<line class="st3" x1="843.8" y1="278.6" x2="850.5" y2="279.6"/>
	<line class="st3" x1="843.8" y1="292.9" x2="852.4" y2="292.9"/>
	<line class="st3" x1="843.8" y1="303.4" x2="850.5" y2="304.3"/>
	<line class="st3" x1="843.8" y1="321.5" x2="849.6" y2="318.6"/>
	<line class="st3" x1="844.8" y1="330.1" x2="848.6" y2="330.1"/>
	<line class="st3" x1="843.8" y1="337.7" x2="851.5" y2="338.7"/>
	<line class="st3" x1="842.9" y1="349.1" x2="849.6" y2="348.2"/>
	<line class="st3" x1="843.8" y1="360.6" x2="849.6" y2="357.7"/>
	<line class="st3" x1="845.7" y1="372" x2="850.5" y2="369.1"/>
	<line class="st3" x1="854.3" y1="379.6" x2="857.2" y2="374.9"/>
	<line class="st3" x1="866.7" y1="380.6" x2="866.7" y2="373.9"/>
	<line class="st3" x1="877.2" y1="380.6" x2="876.2" y2="373"/>
	<line class="st3" x1="886.7" y1="380.6" x2="885.8" y2="373"/>
	<line class="st3" x1="899.1" y1="374.9" x2="893.4" y2="371.1"/>
	<line class="st3" x1="898.2" y1="357.7" x2="891.5" y2="357.7"/>
	<line class="st3" x1="899.1" y1="346.3" x2="891.5" y2="346.3"/>
	<line class="st3" x1="899.1" y1="332" x2="893.4" y2="331"/>
	<line class="st3" x1="899.1" y1="318.6" x2="891.5" y2="320.5"/>
	<line class="st3" x1="899.1" y1="308.2" x2="892.4" y2="307.2"/>
	<line class="st3" x1="898.2" y1="296.7" x2="893.4" y2="295.8"/>
	<line class="st3" x1="900.1" y1="283.4" x2="894.3" y2="281.5"/>
	<line class="st3" x1="906.7" y1="274.8" x2="902" y2="269.1"/>
	<line class="st3" x1="915.3" y1="271" x2="913.4" y2="263.4"/>
	<line class="st3" x1="926.7" y1="272.9" x2="929.6" y2="266.2"/>
	<line class="st3" x1="934.4" y1="279.6" x2="941" y2="277.7"/>
	<line class="st3" x1="938.2" y1="292.9" x2="944.9" y2="292"/>
	<line class="st3" x1="939.1" y1="307.2" x2="944.9" y2="306.3"/>
	<line class="st3" x1="938.2" y1="316.7" x2="946.8" y2="317.7"/>
	<line class="st3" x1="938.2" y1="327.2" x2="944.9" y2="329.1"/>
	<line class="st3" x1="939.1" y1="340.6" x2="945.8" y2="340.6"/>
	<line class="st3" x1="938.2" y1="353.9" x2="945.8" y2="352"/>
	<line class="st3" x1="938.2" y1="363.4" x2="944.9" y2="364.4"/>
	<line class="st3" x1="938.2" y1="375.8" x2="943.9" y2="377.7"/>
	<line class="st3" x1="939.1" y1="386.3" x2="945.8" y2="387.3"/>
	<line class="st3" x1="938.2" y1="400.6" x2="945.8" y2="398.7"/>
	<line class="st3" x1="938.2" y1="412" x2="945.8" y2="410.1"/>
	<line class="st3" x1="938.2" y1="424.4" x2="943.9" y2="426.3"/>
	<line class="st3" x1="938.2" y1="439.7" x2="944.9" y2="440.6"/>
	<line class="st3" x1="937.2" y1="453" x2="944.9" y2="455.9"/>
	<line class="st3" x1="938.2" y1="468.3" x2="944.9" y2="467.3"/>
	<line class="st3" x1="938.2" y1="481.6" x2="943.9" y2="478.7"/>
	<line class="st3" x1="938.2" y1="490.2" x2="944.9" y2="492.1"/>
	<line class="st3" x1="821.9" y1="252.9" x2="821" y2="246.2"/>
	<line class="st3" x1="829.5" y1="251.9" x2="833.4" y2="249.1"/>
	<line class="st3" x1="833.4" y1="259.6" x2="839.1" y2="256.7"/>
	<line class="st3" x1="833.4" y1="275.8" x2="838.1" y2="274.8"/>
	<line class="st3" x1="833.4" y1="283.4" x2="841" y2="284.3"/>
	<line class="st3" x1="830.5" y1="292.9" x2="838.1" y2="292.9"/>
	<line class="st3" x1="832.4" y1="300.5" x2="840" y2="300.5"/>
	<line class="st3" x1="834.3" y1="306.3" x2="840" y2="307.2"/>
	<line class="st3" x1="832.4" y1="314.8" x2="839.1" y2="314.8"/>
	<line class="st3" x1="833.4" y1="320.5" x2="838.1" y2="322.5"/>
	<line class="st3" x1="832.4" y1="327.2" x2="839.1" y2="328.2"/>
	<line class="st3" x1="834.3" y1="334.8" x2="841" y2="334.8"/>
	<line class="st3" x1="834.3" y1="340.6" x2="841" y2="341.5"/>
	<line class="st3" x1="832.4" y1="347.2" x2="838.1" y2="347.2"/>
	<line class="st3" x1="833.4" y1="352.9" x2="840" y2="351"/>
	<line class="st3" x1="833.4" y1="359.6" x2="839.1" y2="357.7"/>
	<line class="st3" x1="816.2" y1="261.5" x2="810.5" y2="260.5"/>
	<line class="st3" x1="818.1" y1="254.8" x2="814.3" y2="250"/>
	<line class="st3" x1="814.3" y1="281.5" x2="807.6" y2="280.5"/>
	<line class="st3" x1="812.4" y1="289.1" x2="805.7" y2="288.1"/>
	<line class="st3" x1="816.2" y1="298.6" x2="806.7" y2="297.7"/>
	<line class="st3" x1="814.3" y1="307.2" x2="806.7" y2="308.2"/>
	<line class="st3" x1="815.3" y1="321.5" x2="807.6" y2="321.5"/>
	<line class="st3" x1="813.3" y1="333.9" x2="807.6" y2="334.8"/>
	<line class="st3" x1="814.3" y1="327.2" x2="806.7" y2="327.2"/>
	<line class="st3" x1="817.2" y1="312.9" x2="808.6" y2="313.9"/>
	<line class="st3" x1="813.3" y1="344.4" x2="807.6" y2="345.3"/>
	<line class="st3" x1="814.3" y1="352" x2="806.7" y2="352"/>
	<line class="st3" x1="817.2" y1="359.6" x2="806.7" y2="361.5"/>
	<line class="st3" x1="813.3" y1="367.2" x2="807.6" y2="370.1"/>
	<line class="st3" x1="817.2" y1="373.9" x2="809.5" y2="377.7"/>
	<line class="st3" x1="819.1" y1="379.6" x2="813.3" y2="383.4"/>
	<line class="st3" x1="824.8" y1="384.4" x2="817.2" y2="389.2"/>
	<line class="st3" x1="825.7" y1="393" x2="821" y2="398.7"/>
	<line class="st3" x1="829.5" y1="399.6" x2="825.7" y2="405.4"/>
	<line class="st3" x1="837.2" y1="406.3" x2="834.3" y2="412"/>
	<line class="st3" x1="844.8" y1="405.4" x2="841" y2="413"/>
	<line class="st3" x1="849.6" y1="409.2" x2="848.6" y2="415.8"/>
	<line class="st3" x1="857.2" y1="410.1" x2="856.2" y2="416.8"/>
	<line class="st3" x1="862.9" y1="409.2" x2="862.9" y2="415.8"/>
	<line class="st3" x1="869.6" y1="410.1" x2="870.5" y2="415.8"/>
	<line class="st3" x1="877.2" y1="409.2" x2="876.2" y2="415.8"/>
	<line class="st3" x1="882.9" y1="409.2" x2="883.9" y2="416.8"/>
	<line class="st3" x1="889.6" y1="409.2" x2="891.5" y2="415.8"/>
	<line class="st3" x1="899.1" y1="410.1" x2="897.2" y2="416.8"/>
	<line class="st3" x1="902" y1="422.5" x2="906.7" y2="421.6"/>
	<line class="st3" x1="901" y1="429.2" x2="906.7" y2="429.2"/>
	<line class="st3" x1="901" y1="433.9" x2="907.7" y2="435.9"/>
	<line class="st3" x1="902.9" y1="443.5" x2="908.6" y2="443.5"/>
	<line class="st3" x1="902.9" y1="449.2" x2="908.6" y2="449.2"/>
	<line class="st3" x1="902" y1="457.8" x2="907.7" y2="455.9"/>
	<line class="st3" x1="903.9" y1="462.5" x2="909.6" y2="462.5"/>
	<line class="st3" x1="902.9" y1="468.3" x2="908.6" y2="469.2"/>
	<line class="st3" x1="902.9" y1="474.9" x2="906.7" y2="474.9"/>
	<line class="st3" x1="901" y1="482.5" x2="909.6" y2="482.5"/>
	<line class="st3" x1="902.9" y1="487.3" x2="908.6" y2="488.3"/>
	<line class="st3" x1="902.9" y1="493" x2="907.7" y2="493"/>
	<line class="st3" x1="931.5" y1="494.9" x2="937.2" y2="494.9"/>
	<line class="st3" x1="931.5" y1="483.5" x2="936.3" y2="483.5"/>
	<line class="st3" x1="931.5" y1="490.2" x2="936.3" y2="489.2"/>
	<line class="st3" x1="929.6" y1="475.9" x2="936.3" y2="474"/>
	<line class="st3" x1="930.6" y1="465.4" x2="937.2" y2="465.4"/>
	<line class="st3" x1="930.6" y1="454.9" x2="936.3" y2="454.9"/>
	<line class="st3" x1="930.6" y1="446.3" x2="936.3" y2="447.3"/>
	<line class="st3" x1="929.6" y1="434.9" x2="937.2" y2="435.9"/>
	<line class="st3" x1="928.7" y1="430.1" x2="935.3" y2="429.2"/>
	<line class="st3" x1="930.6" y1="421.6" x2="936.3" y2="420.6"/>
	<line class="st3" x1="929.6" y1="413" x2="936.3" y2="413"/>
	<line class="st3" x1="928.7" y1="403.5" x2="936.3" y2="404.4"/>
	<line class="st3" x1="932.5" y1="396.8" x2="938.2" y2="397.7"/>
	<line class="st3" x1="929.6" y1="387.3" x2="938.2" y2="386.3"/>
	<line class="st3" x1="929.6" y1="377.7" x2="938.2" y2="376.8"/>
	<line class="st3" x1="930.6" y1="369.1" x2="938.2" y2="370.1"/>
	<line class="st3" x1="930.6" y1="358.7" x2="937.2" y2="358.7"/>
	<line class="st3" x1="928.7" y1="352.9" x2="936.3" y2="352"/>
	<line class="st3" x1="930.6" y1="343.4" x2="936.3" y2="343.4"/>
	<line class="st3" x1="929.6" y1="333.9" x2="936.3" y2="334.8"/>
	<line class="st3" x1="929.6" y1="323.4" x2="936.3" y2="323.4"/>
	<line class="st3" x1="931.5" y1="313.9" x2="938.2" y2="314.8"/>
	<line class="st3" x1="930.6" y1="306.3" x2="937.2" y2="305.3"/>
	<line class="st3" x1="930.6" y1="297.7" x2="937.2" y2="295.8"/>
	<line class="st3" x1="929.6" y1="288.1" x2="936.3" y2="286.2"/>
	<line class="st3" x1="927.7" y1="281.5" x2="930.6" y2="275.8"/>
	<line class="st3" x1="920.1" y1="272.9" x2="921" y2="278.6"/>
	<line class="st3" x1="911.5" y1="274.8" x2="914.4" y2="279.6"/>
	<line class="st3" x1="905.8" y1="280.5" x2="909.6" y2="282.4"/>
	<line class="st3" x1="903.9" y1="286.2" x2="909.6" y2="287.2"/>
	<line class="st3" x1="902.9" y1="292" x2="907.7" y2="292.9"/>
	<line class="st3" x1="902" y1="297.7" x2="906.7" y2="297.7"/>
	<line class="st3" x1="902.9" y1="304.3" x2="906.7" y2="305.3"/>
	<line class="st3" x1="901" y1="310.1" x2="907.7" y2="311"/>
	<line class="st3" x1="902.9" y1="316.7" x2="907.7" y2="316.7"/>
	<line class="st3" x1="902" y1="324.4" x2="908.6" y2="324.4"/>
	<line class="st3" x1="902.9" y1="332" x2="909.6" y2="331"/>
	<line class="st3" x1="902" y1="340.6" x2="910.5" y2="339.6"/>
	<line class="st3" x1="902" y1="345.3" x2="908.6" y2="345.3"/>
	<line class="st3" x1="902" y1="351" x2="908.6" y2="351"/>
	<line class="st3" x1="902" y1="357.7" x2="907.7" y2="358.7"/>
	<line class="st3" x1="901" y1="363.4" x2="909.6" y2="365.3"/>
	<line class="st3" x1="902.9" y1="369.1" x2="909.6" y2="369.1"/>
	<line class="st3" x1="904.8" y1="373.9" x2="911.5" y2="373.9"/>
	<line class="st3" x1="903.9" y1="377.7" x2="906.7" y2="380.6"/>
	<line class="st3" x1="836.2" y1="366.3" x2="841.9" y2="364.4"/>
	<line class="st3" x1="842.9" y1="371.1" x2="839.1" y2="373"/>
	<line class="st3" x1="845.7" y1="377.7" x2="841.9" y2="381.5"/>
	<line class="st3" x1="851.5" y1="386.3" x2="854.3" y2="381.5"/>
	<line class="st3" x1="860" y1="390.1" x2="862.9" y2="382.5"/>
	<line class="st3" x1="869.6" y1="391.1" x2="869.6" y2="385.3"/>
	<line class="st3" x1="876.2" y1="391.1" x2="876.2" y2="384.4"/>
	<line class="st3" x1="883.9" y1="389.2" x2="884.8" y2="384.4"/>
	<line class="st3" x1="894.3" y1="389.2" x2="892.4" y2="383.4"/>
	<line class="st3" x1="904.8" y1="389.2" x2="901" y2="384.4"/>
	<line class="st3" x1="819.1" y1="269.1" x2="816.2" y2="266.2"/>
	<line class="st3" x1="822.9" y1="262.4" x2="822.9" y2="258.6"/>
	<line class="st3" x1="819.1" y1="277.7" x2="817.2" y2="275.8"/>
	<line class="st3" x1="825.7" y1="276.7" x2="828.6" y2="273.9"/>
	<line class="st3" x1="821.9" y1="289.1" x2="819.1" y2="287.2"/>
	<line class="st3" x1="825.7" y1="288.1" x2="828.6" y2="288.1"/>
	<line class="st3" x1="821.9" y1="297.7" x2="819.1" y2="297.7"/>
	<line class="st3" x1="826.7" y1="297.7" x2="829.5" y2="298.6"/>
	<line class="st3" x1="822.9" y1="306.3" x2="819.1" y2="306.3"/>
	<line class="st3" x1="825.7" y1="310.1" x2="829.5" y2="309.1"/>
	<line class="st3" x1="822.9" y1="318.6" x2="820" y2="317.7"/>
	<line class="st3" x1="825.7" y1="320.5" x2="829.5" y2="321.5"/>
	<line class="st3" x1="821" y1="329.1" x2="818.1" y2="329.1"/>
	<line class="st3" x1="824.8" y1="333.9" x2="831.5" y2="331"/>
	<line class="st3" x1="819.1" y1="340.6" x2="814.3" y2="339.6"/>
	<line class="st3" x1="824.8" y1="341.5" x2="829.5" y2="340.6"/>
	<line class="st3" x1="820" y1="349.1" x2="815.3" y2="348.2"/>
	<line class="st3" x1="825.7" y1="351" x2="828.6" y2="350.1"/>
	<line class="st3" x1="822.9" y1="361.5" x2="819.1" y2="363.4"/>
	<line class="st3" x1="821.9" y1="354.9" x2="817.2" y2="355.8"/>
	<line class="st3" x1="826.7" y1="355.8" x2="830.5" y2="355.8"/>
	<line class="st3" x1="823.8" y1="368.2" x2="819.1" y2="370.1"/>
	<line class="st3" x1="828.6" y1="366.3" x2="834.3" y2="363.4"/>
	<line class="st3" x1="829.5" y1="377.7" x2="824.8" y2="379.6"/>
	<line class="st3" x1="827.6" y1="373.9" x2="832.4" y2="372"/>
	<line class="st3" x1="831.5" y1="386.3" x2="830.5" y2="389.2"/>
	<line class="st3" x1="833.4" y1="380.6" x2="838.1" y2="378.7"/>
	<line class="st3" x1="837.2" y1="392" x2="834.3" y2="395.8"/>
	<line class="st3" x1="843.8" y1="390.1" x2="847.7" y2="384.4"/>
	<line class="st3" x1="841.9" y1="398.7" x2="839.1" y2="402.5"/>
	<line class="st3" x1="851.5" y1="394.9" x2="855.3" y2="389.2"/>
	<line class="st3" x1="854.3" y1="398.7" x2="853.4" y2="406.3"/>
	<line class="st3" x1="862.9" y1="396.8" x2="865.8" y2="389.2"/>
	<line class="st3" x1="866.7" y1="398.7" x2="866.7" y2="406.3"/>
	<line class="st3" x1="872.4" y1="398.7" x2="873.4" y2="391.1"/>
	<line class="st3" x1="877.2" y1="396.8" x2="877.2" y2="405.4"/>
	<line class="st3" x1="883.9" y1="395.8" x2="887.7" y2="389.2"/>
	<line class="st3" x1="886.7" y1="397.7" x2="886.7" y2="406.3"/>
	<line class="st3" x1="894.3" y1="399.6" x2="894.3" y2="409.2"/>
	<line class="st3" x1="899.1" y1="396.8" x2="899.1" y2="389.2"/>
	<line class="st3" x1="916.3" y1="291" x2="911.5" y2="290.1"/>
	<line class="st3" x1="922" y1="292" x2="925.8" y2="290.1"/>
	<line class="st3" x1="917.2" y1="298.6" x2="913.4" y2="297.7"/>
	<line class="st3" x1="919.1" y1="303.4" x2="925.8" y2="301.5"/>
	<line class="st3" x1="916.3" y1="309.1" x2="911.5" y2="307.2"/>
	<line class="st3" x1="922.9" y1="312" x2="927.7" y2="310.1"/>
	<line class="st3" x1="916.3" y1="319.6" x2="911.5" y2="318.6"/>
	<line class="st3" x1="922" y1="322.5" x2="927.7" y2="319.6"/>
	<line class="st3" x1="918.2" y1="330.1" x2="911.5" y2="329.1"/>
	<line class="st3" x1="922.9" y1="331" x2="926.7" y2="331"/>
	<line class="st3" x1="920.1" y1="337.7" x2="915.3" y2="336.7"/>
	<line class="st3" x1="920.1" y1="343.4" x2="925.8" y2="341.5"/>
	<line class="st3" x1="917.2" y1="349.1" x2="910.5" y2="348.2"/>
	<line class="st3" x1="922" y1="352.9" x2="926.7" y2="350.1"/>
	<line class="st3" x1="917.2" y1="356.8" x2="910.5" y2="355.8"/>
	<line class="st3" x1="920.1" y1="360.6" x2="926.7" y2="359.6"/>
	<line class="st3" x1="918.2" y1="365.3" x2="927.7" y2="365.3"/>
	<line class="st3" x1="917.2" y1="370.1" x2="912.5" y2="369.1"/>
	<line class="st3" x1="915.3" y1="361.5" x2="911.5" y2="361.5"/>
	<line class="st3" x1="920.1" y1="376.8" x2="927.7" y2="373.9"/>
	<line class="st3" x1="915.3" y1="380.6" x2="911.5" y2="379.6"/>
	<line class="st3" x1="922.9" y1="384.4" x2="927.7" y2="382.5"/>
	<line class="st3" x1="913.4" y1="390.1" x2="908.6" y2="387.3"/>
	<line class="st3" x1="921" y1="392" x2="926.7" y2="391.1"/>
	<line class="st3" x1="916.3" y1="397.7" x2="909.6" y2="394.9"/>
	<line class="st3" x1="921" y1="399.6" x2="925.8" y2="396.8"/>
	<line class="st3" x1="908.6" y1="402.5" x2="903.9" y2="399.6"/>
	<line class="st3" x1="906.7" y1="408.2" x2="903.9" y2="406.3"/>
	<line class="st3" x1="922" y1="410.1" x2="927.7" y2="408.2"/>
	<line class="st3" x1="914.4" y1="407.3" x2="921" y2="403.5"/>
	<line class="st3" x1="914.4" y1="414.9" x2="907.7" y2="413"/>
	<line class="st3" x1="907.7" y1="418.7" x2="903.9" y2="416.8"/>
	<line class="st3" x1="925.8" y1="419.7" x2="931.5" y2="416.8"/>
	<line class="st3" x1="919.1" y1="420.6" x2="924.8" y2="416.8"/>
	<line class="st3" x1="918.2" y1="426.3" x2="911.5" y2="426.3"/>
	<line class="st3" x1="923.9" y1="427.3" x2="930.6" y2="424.4"/>
	<line class="st3" x1="914.4" y1="434.9" x2="909.6" y2="433"/>
	<line class="st3" x1="921" y1="437.8" x2="924.8" y2="437.8"/>
	<line class="st3" x1="916.3" y1="444.4" x2="911.5" y2="443.5"/>
	<line class="st3" x1="923.9" y1="445.4" x2="930.6" y2="441.6"/>
	<line class="st3" x1="914.4" y1="454" x2="908.6" y2="453"/>
	<line class="st3" x1="920.1" y1="454.9" x2="926.7" y2="452.1"/>
	<line class="st3" x1="918.2" y1="463.5" x2="913.4" y2="462.5"/>
	<line class="st3" x1="924.8" y1="463.5" x2="929.6" y2="461.6"/>
	<line class="st3" x1="915.3" y1="473" x2="913.4" y2="472.1"/>
	<line class="st3" x1="921" y1="473" x2="928.7" y2="471.1"/>
	<line class="st3" x1="921" y1="480.6" x2="913.4" y2="478.7"/>
	<line class="st3" x1="921" y1="485.4" x2="928.7" y2="485.4"/>
	<line class="st3" x1="917.2" y1="493" x2="914.4" y2="492.1"/>
	<line class="st3" x1="922.9" y1="494" x2="929.6" y2="492.1"/>
</g>
<line class="st1" x1="484.6" y1="504.5" x2="457.9" y2="504.5"/>
<line class="st1" x1="449.3" y1="504.5" x2="363.6" y2="504.5"/>
<line class="st1" x1="351.2" y1="504.5" x2="320.7" y2="504.5"/>
<line class="st1" x1="670.4" y1="537.8" x2="597" y2="537.8"/>
<line class="st1" x1="524.6" y1="505.4" x2="553.2" y2="505.4"/>
<line class="st1" x1="898.2" y1="505.4" x2="818.1" y2="505.4"/>
<line class="st1" x1="803.8" y1="505.4" x2="789.5" y2="505.4"/>
<line class="st1" x1="733.3" y1="505.4" x2="700.9" y2="505.4"/>
<line class="st1" x1="646.6" y1="505.4" x2="593.2" y2="505.4"/>
<line class="st1" x1="1084.9" y1="506.4" x2="1052.5" y2="506.4"/>
<line class="st1" x1="1043" y1="552.1" x2="1010.6" y2="552.1"/>
<line class="st1" x1="389.3" y1="537.8" x2="356.9" y2="537.8"/>
<line class="st1" x1="1069.7" y1="552.1" x2="1057.3" y2="552.1"/>
<line class="st1" x1="941" y1="506.4" x2="1038.2" y2="506.4"/>
<path class="st4" d="M647.2,504.5c0-2.9,2.9-5.2,6.5-5.2c3.6,0,6.5,2.3,6.5,5.2h0.5c0-4.7,4.8-8.6,10.7-8.6c5.9,0,10.7,3.8,10.7,8.6
	h1.2c0-3.8,3.9-7,8.7-7c4.8,0,8.7,3.1,8.7,7"/>
<path class="st4" d="M542.4,536.9c0-2.9,2.9-5.2,6.5-5.2c3.6,0,6.5,2.3,6.5,5.2h0.5c0-4.7,4.8-8.6,10.7-8.6c5.9,0,10.7,3.8,10.7,8.6
	h1.2c0-3.8,3.9-7,8.7-7c4.8,0,8.7,3.1,8.7,7"/>
<line class="st1" x1="541.8" y1="537.8" x2="406.4" y2="537.8"/>
<line class="st1" x1="996.3" y1="552.1" x2="922.9" y2="552.1"/>
<path class="st4" d="M868.3,551.2c0-2.9,2.9-5.2,6.5-5.2c3.6,0,6.5,2.3,6.5,5.2h0.5c0-4.7,4.8-8.6,10.7-8.6c5.9,0,10.7,3.8,10.7,8.6
	h1.2c0-3.8,3.9-7,8.7-7c4.8,0,8.7,3.1,8.7,7"/>
<line class="st1" x1="867.7" y1="552.1" x2="770.5" y2="552.1"/>
<line class="st1" x1="784.8" y1="575" x2="752.4" y2="575"/>
<line class="st1" x1="811.4" y1="575" x2="799.1" y2="575"/>
<line class="st1" x1="738.1" y1="575" x2="664.7" y2="575"/>
<path class="st4" d="M610,574c0-2.9,2.9-5.2,6.5-5.2c3.6,0,6.5,2.3,6.5,5.2h0.5c0-4.7,4.8-8.6,10.7-8.6c5.9,0,10.7,3.8,10.7,8.6h1.2
	c0-3.8,3.9-7,8.7-7c4.8,0,8.7,3.1,8.7,7"/>
<line class="st1" x1="609.4" y1="575" x2="512.2" y2="575"/>
<g>
	<path class="st2" d="M870.5,448.7c-1-0.1-40.2,0.7-45.9-1.8c-6.9-3-8.8-9.3-8.8-29.9c0-18.6-19.2,34.4-2.3,43.6
		c11.2,6.4,43,8.2,52,6.9C874.7,466.2,870.5,448.7,870.5,448.7z"/>
	<path class="st1" d="M802.1,447.7c0.4,6.6,2.3,12.3,6.9,14.8c11.2,6.4,43,8.2,52,6.9c9-1.3,4.9-18.8,4.9-18.8
		c-1-0.1-40.2,0.7-45.9-1.8c-6.9-3-8.8-9.3-8.8-29.9c0-9.9-5.4,0.5-8,13.7"/>
	<path class="st1" d="M802,438c-0.3,2.3-0.1,2.3,0,4"/>
	<path class="st4" d="M853.4,459.2c0,0-2.6,3-7.9,4.5c-5.3,1.5-4.9,9-4.9,9s4.1-6.4,8.6-0.8c4.5,5.6-7.1,16.2-10.9,12.4
		s-14.7,21.8-14.7,21.8s6.4-6.4,6-1.5s-2.3,5.6-6.8,8.3c-4.5,2.6-7.9,9-7.9,9l-1.1,1.9c0,0-4.1,5.3-3,6c1.1,0.8,3.4,1.9,4.5,2.3
		s2.3-4.5,2.3-4.5v4.9l6,1.5l1.9-4.5l1.5,5.3c0,0,4.5,1.5,5.6,0.4c1.1-1.1,0-6,0-6l3.4,4.5c0,0,4.5-0.4,5.3-2.3
		c0.8-1.9-1.9-5.6-1.9-5.6l-3-1.1c0,0-1.9-4.5,2.3-7.1c4.1-2.6,13.9-5.6,16.9-3c3,2.6,1.1,4.1,4.1,3.8s3.8-1.1,3.8-1.1l0.4-3.8
		l1.5,3c0,0,3.8,0,4.1-2.3c0.4-2.3-0.8-4.1-0.8-4.1l3,2.6c0,0,3.4-1.1,3.8-2.6c0.4-1.5-1.1-3-1.1-3l3.4,1.9c0,0,3.8,0,3.4-2.6
		c-0.4-2.6-0.8-4.1-0.8-4.1l1.9,4.1c0,0,3,0,3.4-2.3s-2.6-7.5-2.6-7.5s-9.4-10.9-3-11.6c6.4-0.8,4.5,4.9,7.9,4.5s10.5,0.4,12.4-4.5
		c1.9-4.9,6.4-17.3,3-19.2s-7.1-15-13.9-14.7s-9.4-8.6-16.5-4.5c-7.1,4.1-16.2,2.6-18,6.8C853,457.3,853.4,459.2,853.4,459.2z"/>
	<path class="st0" d="M860.5,457c0,0-2.6,3-7.9,4.5c-5.3,1.5-4.9,9-4.9,9s4.1-6.4,8.6-0.8c4.5,5.6-7.1,16.2-10.9,12.4
		s-14.7,21.8-14.7,21.8s6.4-6.4,6-1.5s-2.3,5.6-6.8,8.3c-4.5,2.6-7.9,9-7.9,9l-1.1,1.9c0,0-4.1,5.3-3,6c1.1,0.8,3.4,1.9,4.5,2.3
		c1.1,0.4,2.3-4.5,2.3-4.5v4.9l6,1.5l1.9-4.5l1.5,5.3c0,0,4.5,1.5,5.6,0.4c1.1-1.1,0-6,0-6l3.4,4.5c0,0,4.5-0.4,5.3-2.3
		c0.8-1.9-1.9-5.6-1.9-5.6l-3-1.1c0,0-1.9-4.5,2.3-7.1c4.1-2.6,13.9-5.6,16.9-3c3,2.6,1.1,4.1,4.1,3.8s3.8-1.1,3.8-1.1l0.4-3.8
		l1.5,3c0,0,3.8,0,4.1-2.3c0.4-2.3-0.8-4.1-0.8-4.1l3,2.6c0,0,3.4-1.1,3.8-2.6c0.4-1.5-1.1-3-1.1-3l3.4,1.9c0,0,3.8,0,3.4-2.6
		c-0.4-2.6-0.8-4.1-0.8-4.1l1.9,4.1c0,0,3,0,3.4-2.3c0.4-2.3-2.6-7.5-2.6-7.5s-9.4-10.9-3-11.6c6.4-0.8,4.5,4.9,7.9,4.5
		s10.5,0.4,12.4-4.5c1.9-4.9,6.4-17.3,3-19.2c-3.4-1.9-7.1-15-13.9-14.7s-9.4-8.6-16.5-4.5c-7.1,4.1-16.2,2.6-18,6.8
		C860.2,455.1,860.5,457,860.5,457z"/>
	<path class="st1" d="M853.4,459.2c0,0-2.6,3-7.9,4.5c-5.3,1.5-4.9,9-4.9,9s4.1-6.4,8.6-0.8c4.5,5.6-7.1,16.2-10.9,12.4
		s-14.7,21.8-14.7,21.8s6.4-6.4,6-1.5s-2.3,5.6-6.8,8.3c-4.5,2.6-7.9,9-7.9,9l-1.1,1.9c0,0-4.1,5.3-3,6c1.1,0.8,3.4,1.9,4.5,2.3
		s2.3-4.5,2.3-4.5v4.9l6,1.5l1.9-4.5l1.5,5.3c0,0,4.5,1.5,5.6,0.4c1.1-1.1,0-6,0-6l3.4,4.5c0,0,4.5-0.4,5.3-2.3
		c0.8-1.9-1.9-5.6-1.9-5.6l-3-1.1c0,0-1.9-4.5,2.3-7.1c4.1-2.6,13.9-5.6,16.9-3c3,2.6,1.1,4.1,4.1,3.8s3.8-1.1,3.8-1.1l0.4-3.8
		l1.5,3c0,0,3.8,0,4.1-2.3c0.4-2.3-0.8-4.1-0.8-4.1l3,2.6c0,0,3.4-1.1,3.8-2.6c0.4-1.5-1.1-3-1.1-3l3.4,1.9c0,0,3.8,0,3.4-2.6
		c-0.4-2.6-0.8-4.1-0.8-4.1l1.9,4.1c0,0,3,0,3.4-2.3s-2.6-7.5-2.6-7.5s-9.4-10.9-3-11.6c6.4-0.8,4.5,4.9,7.9,4.5s10.5,0.4,12.4-4.5
		c1.9-4.9,6.4-17.3,3-19.2s-7.1-15-13.9-14.7s-9.4-8.6-16.5-4.5c-7.1,4.1-16.2,2.6-18,6.8C853,457.3,853.4,459.2,853.4,459.2z"/>
	<path class="st5" d="M849.3,472c4.5,5.6-6.5,15.3-10.2,11.5c0,0,4.1-3.5,1.9-9.5C840.2,471.9,846.7,468.3,849.3,472"/>
	<path class="st5" d="M855.9,470.1c0,0,8.1-5.9,14-0.7c5.9,5.2,10.3,8.9,0.7,13.3c-9.6,4.4-14.8,2.2-13.3-1.5
		c1.5-3.7,2.2-11.1,2.2-11.1H855.9z"/>
	<path class="st2" d="M894.3,452.4c1,0,39.9,4.8,45.8,3c7.1-2.3,9.7-8.4,11.8-28.8c1.9-18.5,15.5,36.2-2.2,43.6
		c-11.8,5.2-43.6,3.7-52.4,1.5C888.4,469.3,894.3,452.4,894.3,452.4z"/>
	<path class="st1" d="M889.1,453.8c1,0,39.9,4.8,45.8,3c7.1-2.3,9.7-8.4,11.8-28.8c1.9-18.5,15.5,36.2-2.2,43.6
		c-11.8,5.2-43.6,3.7-52.4,1.5C883.2,470.8,889.1,453.8,889.1,453.8z"/>
</g>
<path class="st6" d="M892-195H721c-11,0-20-9-20-20v0c0-11,9-20,20-20h171c11,0,20,9,20,20v0C912-204,903-195,892-195z"/>
<path class="st0" d="M629.2,148.9l-20.8,0c-4.5,0-8.1-3.7-8.1-8.1v-0.5c0-4.5,3.7-8.1,8.1-8.1l20.8,0c4.5,0,8.1,3.7,8.1,8.1v0.5
	C637.4,145.3,633.7,148.9,629.2,148.9z"/>
<path class="st0" d="M648.7,98h-148c-4.6,0-8.4,3.8-8.4,8.4v0c0,4.6,3.8,8.4,8.4,8.4c0,0,22.6,0,22.6,0c4.6,0,8.4,3.8,8.4,8.4v0
	c0,4.6-3.8,8.4-8.4,8.4h-12.2h-72.5c-4.6,0-8.4,3.8-8.4,8.4v0c0,4.6,3.8,8.4,8.4,8.4h71.6h21.4c4.6,0,8.4,3.8,8.4,8.4v0
	c0,4.6-3.8,8.4-8.4,8.4h-5.9c-4.6,0-8.4,3.8-8.4,8.4v0c0,4.6,3.8,8.4,8.4,8.4h93.7c4.6,0,8.4-3.8,8.4-8.4v0c0-4.6-3.8-8.4-8.4-8.4
	H582h-10.8c-4.6,0-8.4-3.8-8.4-8.4v0c0-4.6,3.8-8.4,8.4-8.4h6.9c4.6,0,8.4-3.8,8.4-8.4v0c0-4.6-3.8-8.4-8.4-8.4h-13.2
	c-4.6,0-8.4-3.8-8.4-8.4v0c0-4.6,3.8-8.4,8.4-8.4H642h6.7c4.6,0,8.4-3.8,8.4-8.4v0C657.1,101.8,653.3,98,648.7,98z"/>
<path class="st1" d="M620.7,153.7l-20.8,0c-4.5,0-8.1-3.7-8.1-8.1V145c0-4.5,3.7-8.1,8.1-8.1l20.8,0c4.5,0,8.1,3.7,8.1,8.1v0.5
	C628.8,150,625.1,153.7,620.7,153.7z"/>
<path class="st0" d="M859.9,211.8l-20.8,0c-4.5,0-8.1-3.7-8.1-8.1l0-0.5c0-4.5,3.7-8.1,8.1-8.1l20.8,0c4.5,0,8.1,3.7,8.1,8.1v0.5
	C868,208.1,864.3,211.8,859.9,211.8z"/>
<path class="st0" d="M883.7,125.6h123.2c4.6,0,8.4,3.8,8.4,8.4v0c0,4.6-3.8,8.4-8.4,8.4c0,0-22.6,0-22.6,0c-4.6,0-8.4,3.8-8.4,8.4v0
	c0,4.6,3.8,8.4,8.4,8.4h12.2h43.9c4.6,0,8.4,3.8,8.4,8.4v0c0,4.6-3.8,8.4-8.4,8.4h-43h-52.9c-4.6,0-8.4,3.8-8.4,8.4v0
	c0,4.6,3.8,8.4,8.4,8.4h37.3c4.6,0,8.4,3.8,8.4,8.4v0c0,4.6-3.8,8.4-8.4,8.4h-93.7c-4.6,0-8.4-3.8-8.4-8.4v0c0-4.6,3.8-8.4,8.4-8.4
	h4.1H903c4.6,0,8.4-3.8,8.4-8.4v0c0-4.6-3.8-8.4-8.4-8.4H802.8c-4.6,0-8.4-3.8-8.4-8.4v0c0-4.6,3.8-8.4,8.4-8.4h140
	c4.6,0,8.4-3.8,8.4-8.4v0c0-4.6-3.8-8.4-8.4-8.4h-52.3h-6.7c-4.6,0-8.4-3.8-8.4-8.4v0C875.3,129.4,879.1,125.6,883.7,125.6z"/>
<path class="st1" d="M851.3,216.6l-20.8,0c-4.5,0-8.1-3.7-8.1-8.1v-0.5c0-4.5,3.7-8.1,8.1-8.1l20.8,0c4.5,0,8.1,3.7,8.1,8.1v0.5
	C859.4,212.9,855.7,216.6,851.3,216.6z"/>
<path class="st1" d="M640.1,102.8h-148c-4.6,0-8.4,3.8-8.4,8.4v0c0,4.6,3.8,8.4,8.4,8.4c0,0,22.6,0,22.6,0c4.6,0,8.4,3.8,8.4,8.4v0
	c0,4.6-3.8,8.4-8.4,8.4h-12.2h-72.5c-4.6,0-8.4,3.8-8.4,8.4v0c0,4.6,3.8,8.4,8.4,8.4h71.6h21.4c4.6,0,8.4,3.8,8.4,8.4v0
	c0,4.6-3.8,8.4-8.4,8.4h-5.9c-4.6,0-8.4,3.8-8.4,8.4v0c0,4.6,3.8,8.4,8.4,8.4h93.7c4.6,0,8.4-3.8,8.4-8.4v0c0-4.6-3.8-8.4-8.4-8.4
	h-37.4h-10.8c-4.6,0-8.4-3.8-8.4-8.4v0c0-4.6,3.8-8.4,8.4-8.4h6.9c4.6,0,8.4-3.8,8.4-8.4v0c0-4.6-3.8-8.4-8.4-8.4h-13.2
	c-4.6,0-8.4-3.8-8.4-8.4v0c0-4.6,3.8-8.4,8.4-8.4h77.1h6.7c4.6,0,8.4-3.8,8.4-8.4v0C648.5,106.5,644.7,102.8,640.1,102.8z"/>
<path class="st1" d="M875.1,130.4h123.2c4.6,0,8.4,3.8,8.4,8.4v0c0,4.6-3.8,8.4-8.4,8.4c0,0-22.6,0-22.6,0c-4.6,0-8.4,3.8-8.4,8.4v0
	c0,4.6,3.8,8.4,8.4,8.4h12.2h43.9c4.6,0,8.4,3.8,8.4,8.4v0c0,4.6-3.8,8.4-8.4,8.4h-43h-52.9c-4.6,0-8.4,3.8-8.4,8.4v0
	c0,4.6,3.8,8.4,8.4,8.4h37.3c4.6,0,8.4,3.8,8.4,8.4v0c0,4.6-3.8,8.4-8.4,8.4h-93.7c-4.6,0-8.4-3.8-8.4-8.4v0c0-4.6,3.8-8.4,8.4-8.4
	h4.1h10.8c4.6,0,8.4-3.8,8.4-8.4v0c0-4.6-3.8-8.4-8.4-8.4H794.2c-4.6,0-8.4-3.8-8.4-8.4v0c0-4.6,3.8-8.4,8.4-8.4h140
	c4.6,0,8.4-3.8,8.4-8.4v0c0-4.6-3.8-8.4-8.4-8.4h-52.3h-6.7c-4.6,0-8.4-3.8-8.4-8.4v0C866.7,134.2,870.5,130.4,875.1,130.4z"/>
<g>
	<g>
		<path class="st7" d="M975.3,436.5c0.3-0.6,0.7-1.2,1-1.7"/>
		<path class="st8" d="M978.6,431.4c17.3-23.7,40-10.4,53.4-26.5c16.1-19.3,5.7-62.9-7.6-44.8s41,25.7,50.5-8.6
			c4.3-15.6-7.2-48.5-28.5-56.1"/>
		<path class="st7" d="M1044.5,294.8c-0.6-0.2-1.3-0.3-1.9-0.5"/>
	</g>
</g>
<path class="st0" d="M1038.2,293.9h-4.8c-2.1,0-3.8-1.7-3.8-3.8l0,0c0-2.1,1.7-3.8,3.8-3.8h4.8c2.1,0,3.8,1.7,3.8,3.8l0,0
	C1042,292.2,1040.3,293.9,1038.2,293.9z"/>
<path class="st2" d="M1027.3,304.3L1027.3,304.3L1027.3,304.3c-1.4,0-2.8-0.6-3.7-1.5c-0.9-0.9-1.5-2.3-1.5-3.7l3.7-10l-3.7-10
	c0-1.4,0.6-2.8,1.5-3.7c1-0.9,2.3-1.5,3.7-1.5l0,0l0,0c1.4,0,2.8,0.6,3.7,1.5s1.5,2.3,1.5,3.7l-3.7,10l3.7,10c0,1.4-0.6,2.8-1.5,3.7
	S1028.7,304.3,1027.3,304.3z"/>
<path class="st9" d="M1034.4,295.8h-4.8c-2.1,0-3.8-1.7-3.8-3.8l0,0c0-2.1,1.7-3.8,3.8-3.8h4.8c2.1,0,3.8,1.7,3.8,3.8l0,0
	C1038.2,294.1,1036.5,295.8,1034.4,295.8z"/>
<path class="st9" d="M1023.5,306.3L1023.5,306.3L1023.5,306.3c-1.4,0-2.8-0.6-3.7-1.5c-1-0.9-1.5-2.3-1.5-3.7l3.7-10l-3.7-10
	c0-1.4,0.6-2.8,1.5-3.7c0.9-0.9,2.3-1.5,3.7-1.5l0,0l0,0c1.4,0,2.8,0.6,3.7,1.5s1.5,2.3,1.5,3.7l-3.7,10l3.7,10
	c0,1.4-0.6,2.8-1.5,3.7C1026.2,305.7,1024.9,306.3,1023.5,306.3z"/>
<text transform="matrix(1 0 0 1 240.4736 627.4668)"><tspan x="0" y="0" class="st10 st11 st12">LOOKS LIKE YOU CAME TO THE WRONG TOWN PARTNER</tspan><tspan x="268" y="35" class="st10 st11 st12">YOU BETTER RIDE HOME</tspan></text>
</svg>
