<?xml version="1.0" encoding="utf-8"?>
<!-- Generator: Adobe Illustrator 18.1.1, SVG Export Plug-In . SVG Version: 6.00 Build 0)  -->
<svg version="1.1" xmlns="http://www.w3.org/2000/svg" xmlns:xlink="http://www.w3.org/1999/xlink" x="0px" y="0px"
	 viewBox="0 0 260 260" enable-background="new 0 0 260 260" xml:space="preserve">
<g id="circle">
	<circle fill="#FFFFFF" cx="130" cy="130" r="129"/>
</g>
<g id="shapes">
	<path id="Bubble" fill="#284d8d" d="M124.8,20c6.2,13,17.8,19.3,28.8,26.3c13.8,8.8,27.7,17.2,39.1,29.2
		c14.6,15.3,21.8,33.6,22.2,54.6c0.5,28.1-10.1,51.4-31,69.9C172,210.6,158,217,142.2,219.1c-25.7,3.5-48.1-3.5-67.1-20.9
		c-17.1-15.7-27.4-35-29.5-58.3c-2.4-26.1,6-48.6,24.1-67.5c9.4-9.8,20.4-17.8,31.2-26c6.8-5.2,13.7-10.3,19-17.3
		C121.8,26.5,123.1,23.5,124.8,20z"/>
	<g id="Acquia">
		<path fill="#FFFFFF" d="M150.6,142.1c-7.3,0-12.6-5.9-12.6-14v-13.3h5.3v13.3c0,5.5,2.8,8.9,7.3,8.9s7.3-3.4,7.3-8.9v-13.3h5.3
			v13.3C163.2,136.2,157.9,142.1,150.6,142.1L150.6,142.1z"/>
		<rect x="168.1" y="114.8" fill="#FFFFFF" width="5.3" height="26.5"/>
		<path fill="#FFFFFF" d="M96.7,137.3c-5,0-9-4-9-9c0-5,4-9,9-9c2.3,0,4.5,0.9,6,2.4c0.6-1.6,1.5-3.2,2.6-4.5
			c-2.4-1.9-5.3-2.9-8.6-2.9c-7.8,0-14,6.3-14,14c0,7.8,6.3,14,14,14c3.3,0,6.2-1.1,8.6-2.9c-1-1.4-1.9-2.9-2.6-4.5
			C101.2,136.3,99.1,137.3,96.7,137.3z"/>
		<path fill="#FFFFFF" d="M189.8,142c-3.6,0-6.7-1.3-9.1-4c-2.3-2.7-3.6-6.1-3.6-10.2c0-4,1.2-7.3,3.6-9.9c2.3-2.6,5.3-4,8.8-4
			c3,0,5.8,1.2,8.2,3.8l1,1v-4h5.3v26.4h-5.3v-3.6l-1,0.9C195.4,140.8,192.7,142,189.8,142L189.8,142z M190.8,118.6
			c-2.3,0-4.3,0.9-6,2.7c-1.6,1.8-2.3,4-2.3,6.6c0,2.8,0.8,5.1,2.2,6.8c1.6,1.8,3.6,2.7,6,2.7c2.6,0,4.6-0.9,6.1-2.6
			c1.6-1.8,2.3-4.1,2.3-6.8s-0.8-5-2.3-6.8C195.4,119.5,193.3,118.6,190.8,118.6L190.8,118.6z"/>
		<g>
			<path fill="#FFFFFF" d="M120.8,114.3L120.8,114.3c-0.3,0-0.4,0.1-0.3,0.3c0,0,0,0.1,0.1,0.1c0.5,1.1,1.8,3.6,4,5.3
				c2.9,2.2,4.7,5,4.7,8.3c0,4.3-3.3,8.9-8.8,8.9s-8.8-4.7-8.8-8.9c0-3.3,1.8-6,4.7-8.3c2.2-1.8,3.6-4.4,4-5.4
				c0.1-0.2,0.1-0.3-0.2-0.3c0,0,0,0-0.1,0c-7.6,0.2-13.8,6.4-13.8,14c0,6.3,5.3,13.6,13.9,13.6s14.3-5.8,14.3-13.6
				C134.2,120.6,128.2,114.6,120.8,114.3z"/>
			<polygon fill="#FFFFFF" points="130.6,132.5 127,136.3 132.2,141.2 139.8,141.2 			"/>
		</g>
		<path fill="#FFFFFF" d="M78.1,141.3h5.6l-14-30.8c-0.4-0.8-1.2-1.3-2-1.3c-0.9,0-1.7,0.5-2,1.3l-14,30.8h5.6l2-4.4h16.8
			L78.1,141.3z M61.5,131.9l6.2-13.7l6.2,13.7H61.5z"/>
	</g>
</g>
</svg>
