<svg xmlns="http://www.w3.org/2000/svg" viewBox="0 0 316.97 384.35"><defs><style>.cls-1{fill:#fff;}</style></defs><title>askme</title><g id="Layer_2" data-name="Layer 2"><g id="Layer_1-2" data-name="Layer 1"><path class="cls-1" d="M60.56,88.8c10.11,12.78,26-4.42,26-4.42V70S53,71.57,60.56,88.8Z"/><path class="cls-1" d="M207.52,140.6c-16.59-.69-16.67,17.42-16.67,17.42h31.81S222.69,141.23,207.52,140.6Z"/><ellipse class="cls-1" cx="103.54" cy="245.78" rx="5.91" ry="8.76"/><path class="cls-1" d="M315.43,22.09S315.79-.29,289.81,0c-7.59.09-33,.17-65.35.25l.41,53.65L247,29.6l30-.88L247.84,57,277,106H252.7L234.14,71.57,224,82.17V106H201.45V.3C123.9.47,24.74.59,24.74.59S4.57.3,1.77,22.24L0,279.21s.88,24.74,27.39,30c153.3,10.6,180.54,54.93,180.54,54.93l13.84,20.17s10.15-39.81-13.71-75.15l82.62-1.72s20.85,3.6,24.74-23.86C318.89,259.2,315.43,22.09,315.43,22.09ZM162.87,78.93c-10-5-34.75.29-44.18-20.62,0,0-4.12-17.67,9.13-26.51s44-4.2,46.53-1.77c2.68,1.7,11.19,4.42,13.25,18l-20,2.06s-17.49-13.84-27.39-4.71c-8.43,10.86,32.72,15.83,32.72,15.83s24.42,6,17.35,27.46-38.29,20-38.29,20-33.28-.88-36.82-25.62l20.61-1.9s3.55,10,13.47,11.36c4.69.45,14.44,1,17.17-2.69C168.76,86.81,169.53,82.17,162.87,78.93ZM74.66,43.61c-14.58-2-15.17,10.82-15.17,10.82L38.88,50c7.07-19.44,22.31-21.65,22.31-21.65,45.95-7.07,47,15,47,15l.66,54.77,4.42,9.06H90.12l-.24-8.36c-8.45,8.43-20.23,9.46-20.23,9.46s-32.84,1.91-33.43-23.41c2.36-24.74,47.71-26.51,47.71-26.51C95.43,44.27,74.66,43.61,74.66,43.61ZM45.21,260.18a5.63,5.63,0,1,1,5.63-5.63A5.63,5.63,0,0,1,45.21,260.18Zm23.71,2.36c-8.95,0-16.2-7.79-16.2-17.4s7.25-17.4,16.2-17.4c7.88,0,14.45,6.05,15.89,14.06h-11s-.93-6.72-5.41-5.89a5.49,5.49,0,0,0-3.73,3,13.26,13.26,0,0,0-.8,10.51A6.62,6.62,0,0,0,66.53,253c1.44.89,3.52,1.34,5.63-1.17l1.4-3.46H84.83C83.42,256.42,76.84,262.53,68.92,262.53Zm34.51,0c-9,0-16.29-7.79-16.29-17.4s7.29-17.4,16.29-17.4,16.29,7.79,16.29,17.4S112.43,262.53,103.43,262.53ZM111.92,152V204.4H89.28l0-53.46s-.15-8.84-11.8-10.4c-11.1-1.49-14.12,11.28-14.12,11.28V204.4h-23v-78l21.5.31-.29,9.41s8-11.78,25-11.52,22.09,11.81,22.09,11.81,6.48-11.82,26.21-11.49c18.83.32,25.62,18.55,25.62,18.55v61H137.25V150.21a12.63,12.63,0,0,0-10.9-8.39C116.12,140.77,111.92,152,111.92,152Zm59.35,110.15h-8.84V240.92c-5.6-7.8-10.31.15-10.31.15v21.35h-9.28V239.6c-3.83-5.3-8.69,0-8.69,0l.29,22.94h-8.84V229.14l8.54.29v4.86s2.5-5.33,7.66-5.77,10,5.18,10,5.18,2.5-5.15,9.57-5.15,9.87,7.51,9.87,7.51Zm72.89-89.68-52.61-.15s-1.43,16.64,16.39,18c0,0,9.42.52,12.66-10.09l22.09.88s-.88,25.32-36.41,25.18c-37,.74-38.4-35.2-38.4-35.2s-3.58-44.85,36.82-46.57C248.58,122.67,244.16,172.45,244.16,172.45Z"/></g></g></svg>