<?xml version="1.0" encoding="utf-8"?>
<!-- Generator: Adobe Illustrator 20.1.0, SVG Export Plug-In . SVG Version: 6.00 Build 0)  -->
<svg version="1.1" id="Layer_1" xmlns="http://www.w3.org/2000/svg" xmlns:xlink="http://www.w3.org/1999/xlink" x="0px" y="0px"
	 viewBox="0 0 100 100" style="enable-background:new 0 0 100 100;" xml:space="preserve">
<title>DRUPAL CAMP</title>
<g>
	<path d="M50.4,21.2c-16-0.1-29.2,13.1-29.2,29.1c0,16,13,29,29,29.1c16,0.1,29.1-13,29.2-29.1C79.4,34.3,66.3,21.2,50.4,21.2z
		 M50.2,26.7c3.2,0,5.8,2.5,5.9,5.7c0.1,3.1-2.5,5.8-5.7,5.9c-3.2,0.1-5.9-2.6-5.9-5.8C44.5,29.3,47.1,26.7,50.2,26.7z M67.9,42.6
		c-0.8,0.2-1.7,0.3-2.5,0.3c-2.7,0.2-5.5,0.3-8.2,0.5c-2.6,0.2-3.3,1-3.3,3.6c0.1,6.1,1.3,12.1,2.9,18c0.5,1.9,1.2,3.8,1.8,5.7
		c0.2,0.7,0.6,1.4-0.5,1.9c-0.9,0.4-1.7,0.3-2.4-0.5c-0.5-0.6-0.8-1.3-1.1-2.1c-1.2-3.6-2-7.4-3-11c-0.2-0.8-0.2-2-1.4-1.9
		c-1.1,0.1-1.1,1.3-1.3,2.1c-0.6,3.4-1.6,6.7-2.6,10c-0.3,0.9-0.6,1.8-1.2,2.7c-0.6,0.9-1.5,1.3-2.5,0.9c-1-0.4-0.8-1.4-0.5-2.2
		c1.3-4.6,2.6-9.1,3.6-13.8l1.2-10.1c0-2.3-0.7-3-3-3.1c-3.5-0.1-7-0.4-10.4-0.8c-0.5-0.1-1-0.2-1.5-0.4c-0.7-0.4-0.9-1-0.7-1.8
		c0.1-0.7,0.7-1,1.3-1c0.5,0,0.9,0,1.2,0c6.5,0.6,12.9,1.1,19.2,0.9c4.6-0.1,9.1-0.6,13.7-0.9c0.4,0,0.7,0,1.1,0
		c0.9,0.1,1.5,0.4,1.6,1.4C69.4,42,68.7,42.4,67.9,42.6z"/>
	<path d="M50.3,92.3c-23.2,0-42.1-18.9-42.1-42.1c0-23.2,18.9-42.1,42.1-42.1c23.2,0,42.1,18.9,42.1,42.1
		C92.3,73.5,73.5,92.3,50.3,92.3z M50.3,13.2c-20.4,0-37.1,16.6-37.1,37.1s16.6,37.1,37.1,37.1s37.1-16.6,37.1-37.1
		S70.7,13.2,50.3,13.2z"/>
</g>
</svg>
