<?xml version="1.0" encoding="utf-8"?>
<!-- Generator: Adobe Illustrator 20.0.0, SVG Export Plug-In . SVG Version: 6.00 Build 0)  -->
<svg version="1.1" id="Layer_1" xmlns="http://www.w3.org/2000/svg" xmlns:xlink="http://www.w3.org/1999/xlink" x="0px" y="0px"
	 viewBox="0 0 100 100" style="enable-background:new 0 0 100 100;" xml:space="preserve">
<g>
	<g id="check-circle-outline">
		<path d="M37.7,43.3l-4.2,4.2L47,61l30-30l-4.2-4.2L47,52.6L37.7,43.3z M75,49c0,13.2-11.8,25-25,25S25,62.2,25,49s11.8-25,25-25
			c2.4,0,4.5,0.3,6.6,0.9l4.8-3.8C57.8,19.9,53.9,19,50,19c-16.5,0-30,13.5-30,30s13.5,30,30,30s30-13.5,30-30H75z"/>
	</g>
</g>
</svg>
