<?xml version="1.0" encoding="utf-8"?>
<!-- Generator: Adobe Illustrator 20.1.0, SVG Export Plug-In . SVG Version: 6.00 Build 0)  -->
<svg version="1.1" id="Layer_1" xmlns="http://www.w3.org/2000/svg" xmlns:xlink="http://www.w3.org/1999/xlink" x="0px" y="0px"
	 viewBox="0 0 100 100" enable-background="new 0 0 100 100" xml:space="preserve">
<g>
	<path fill="#231F20" d="M73.2,57.2c1.6,0.7,3.5,1.3,5.7,1.3c1.5,0,2.8-0.3,4.1-0.7c1.8-0.6,3.3-1.5,4.4-2.1c0.5-0.3,1-0.7,1.3-0.9
		c0.2-0.1,0.3-0.2,0.3-0.2l0,0l0,0l-0.2-0.5l0,0.6c0.2,0,0.2,0,0.2,0l-0.2-0.5l0,0.6c0.9,0,1.7,0.1,2.4,0.4c0.6,0.2,1.1,0.5,1.6,0.8
		c0.9,0.6,1.6,1.4,2.2,2.5c0.9,1.5,1.5,3.4,1.8,5.4c0.3,2,0.5,4,0.5,5.7c0,1-0.2,1.9-0.5,2.6c-0.2,0.6-0.5,1-0.9,1.5
		c-0.5,0.6-1.2,1.1-2,1.5c-0.8,0.3-1.8,0.5-2.9,0.5H73v2.2l18,0c1.2,0,2.4-0.2,3.4-0.6c1.5-0.6,2.9-1.5,3.7-2.9
		c0.9-1.3,1.4-3,1.4-4.9c0-1.6-0.1-3.4-0.4-5.3c-0.2-1.4-0.5-2.8-1-4.1c-0.3-1-0.8-2-1.3-2.9c-0.8-1.3-1.8-2.5-3.2-3.4
		c-1.3-0.8-3-1.3-4.9-1.3c-0.3,0-0.4,0.1-0.6,0.1c-0.1,0.1-0.3,0.1-0.4,0.2c-0.2,0.1-0.4,0.3-0.7,0.4c-0.4,0.3-0.9,0.6-1.5,0.9
		c-0.8,0.5-1.8,1.1-3,1.5c-1.1,0.4-2.4,0.7-3.8,0.7c-1.8,0-3.4-0.5-4.8-1.1L73.2,57.2L73.2,57.2z"/>
	<path fill="#231F20" d="M78.9,53.1V52c-2.6,0-5-1.1-6.7-2.8c-1.7-1.7-2.8-4.1-2.8-6.7c0-2.6,1.1-5,2.8-6.7c1.7-1.7,4.1-2.8,6.7-2.8
		c2.6,0,5,1.1,6.7,2.8c1.7,1.7,2.8,4.1,2.8,6.7c0,2.6-1.1,5-2.8,6.7c-1.7,1.7-4.1,2.8-6.7,2.8V53.1v1.1c3.2,0,6.2-1.3,8.3-3.4
		c2.1-2.1,3.4-5.1,3.4-8.3c0-3.2-1.3-6.2-3.4-8.3c-2.1-2.1-5.1-3.4-8.3-3.4c-3.2,0-6.2,1.3-8.3,3.4c-2.1,2.1-3.4,5.1-3.4,8.3
		c0,3.2,1.3,6.2,3.4,8.3c2.1,2.1,5.1,3.4,8.3,3.4V53.1z"/>
	<path fill="#231F20" d="M27.3,75.4H9c-1,0-1.9-0.2-2.6-0.4c-1.1-0.4-2-1.1-2.6-2c-0.6-0.9-1-2.1-1-3.6c0-1.5,0.1-3.2,0.3-4.9
		c0.2-1.3,0.5-2.6,0.9-3.7c0.3-0.9,0.7-1.7,1.1-2.4c0.7-1.1,1.5-2,2.4-2.6c1-0.6,2.2-1,3.7-1v-0.6L11,54.7c0,0,0,0,0.2,0v-0.6
		L11,54.7c0,0,0,0,0.1,0c0.1,0.1,0.3,0.2,0.5,0.3c0.4,0.3,0.9,0.6,1.5,1c0.9,0.6,2,1.2,3.4,1.7c1.3,0.5,2.9,0.8,4.6,0.8
		c2.4,0,4.5-0.7,6.1-1.5l-1-2c-1.4,0.7-3.2,1.3-5.2,1.3c-1.2,0-2.3-0.2-3.4-0.5c-1.5-0.5-2.8-1.2-3.8-1.9c-0.5-0.3-0.9-0.6-1.3-0.9
		c-0.2-0.1-0.4-0.2-0.6-0.3c-0.1,0-0.2-0.1-0.3-0.1c-0.1,0-0.3-0.1-0.5-0.1c-1.1,0-2.2,0.2-3.1,0.5c-1.6,0.6-3,1.6-4,2.8
		c-0.8,0.9-1.4,2-1.8,3.1c-0.7,1.7-1.1,3.5-1.4,5.4c-0.3,1.8-0.4,3.6-0.4,5.2c0,1.2,0.2,2.4,0.6,3.4c0.3,0.8,0.7,1.5,1.2,2.1
		c0.8,0.9,1.8,1.6,2.9,2.1c1.1,0.5,2.4,0.7,3.8,0.7h18.3V75.4L27.3,75.4z"/>
	<path fill="#231F20" d="M21.1,53.1V52c-2.6,0-5-1.1-6.7-2.8c-1.7-1.7-2.8-4.1-2.8-6.7c0-2.6,1.1-5,2.8-6.7c1.7-1.7,4.1-2.8,6.7-2.8
		c2.6,0,5,1.1,6.7,2.8c1.7,1.7,2.8,4.1,2.8,6.7c0,2.6-1.1,5-2.8,6.7c-1.7,1.7-4.1,2.8-6.7,2.8V53.1v1.1c3.2,0,6.2-1.3,8.3-3.4
		c2.1-2.1,3.4-5.1,3.4-8.3c0-3.2-1.3-6.2-3.4-8.3c-2.1-2.1-5.1-3.4-8.3-3.4c-3.2,0-6.2,1.3-8.3,3.4c-2.1,2.1-3.4,5.1-3.4,8.3
		c0,3.2,1.3,6.2,3.4,8.3c2.1,2.1,5.1,3.4,8.3,3.4V53.1z"/>
	<path fill="#231F20" d="M66.1,78.9v-1.1H34.2c-1.3,0-2.5-0.2-3.6-0.6c-1.6-0.6-2.8-1.5-3.7-2.8c-0.9-1.3-1.4-2.9-1.4-5
		c0-2,0.1-4.3,0.5-6.6c0.3-1.7,0.6-3.4,1.2-5c0.4-1.2,0.9-2.3,1.5-3.3c0.9-1.5,2-2.7,3.3-3.6c1.4-0.9,3-1.4,5.1-1.4v-0.6L37,49.7
		c0,0,0.1,0,0.1,0v-0.6L37,49.7l0-0.2L37,49.7l0,0l0-0.2L37,49.7l0,0l0,0l0,0l0,0l0,0c0,0,0.1,0,0.1,0.1c0.1,0.1,0.4,0.2,0.7,0.4
		c0.5,0.3,1.2,0.8,2,1.3c1.2,0.7,2.7,1.6,4.4,2.2c1.8,0.6,3.8,1.1,6,1.1c1.9,0,3.7-0.3,5.2-0.8c2.3-0.8,4.3-1.9,5.7-2.8
		c0.7-0.5,1.3-0.9,1.7-1.1c0.2-0.1,0.4-0.2,0.5-0.3c0,0,0,0,0.1,0l0,0l0,0l-0.1-0.5v0.5c0.1,0,0.1,0,0.1,0l-0.1-0.5v0.5
		c1.2,0,2.3,0.2,3.3,0.5c1.7,0.6,3,1.6,4.1,2.9c0.8,1,1.5,2.2,2,3.5c0.8,2,1.4,4.2,1.7,6.4c0.3,2.2,0.4,4.5,0.4,6.5
		c0,1.4-0.2,2.5-0.6,3.6c-0.3,0.8-0.7,1.4-1.2,2c-0.7,0.9-1.7,1.6-2.8,2c-1.1,0.5-2.5,0.7-4,0.7V78.9V80c1.6,0,3-0.2,4.3-0.7
		c2-0.7,3.6-2,4.8-3.6c1.1-1.7,1.7-3.8,1.7-6.2c0-2.1-0.1-4.5-0.5-6.9c-0.3-1.8-0.7-3.6-1.3-5.4c-0.4-1.3-1-2.6-1.7-3.7
		c-1-1.7-2.4-3.2-4.1-4.3c-1.7-1.1-3.8-1.7-6.3-1.7c-0.3,0-0.5,0.1-0.6,0.1c-0.2,0.1-0.3,0.1-0.5,0.2c-0.3,0.1-0.6,0.3-0.9,0.5
		c-0.5,0.4-1.2,0.8-1.9,1.3c-1.1,0.7-2.5,1.4-4,2c-1.5,0.6-3.3,1-5.2,1c-1.7,0-3.2-0.3-4.6-0.7c-2.1-0.7-3.8-1.7-5.2-2.6
		c-0.7-0.4-1.2-0.8-1.7-1.1c-0.2-0.2-0.5-0.3-0.7-0.4c-0.1-0.1-0.2-0.1-0.4-0.2c-0.1,0-0.3-0.1-0.5-0.1c-1.4,0-2.8,0.2-4,0.6
		c-2.1,0.7-3.8,2-5.1,3.6c-1,1.2-1.8,2.6-2.4,4c-0.9,2.2-1.5,4.6-1.8,7c-0.3,2.4-0.5,4.7-0.5,6.8c0,1.6,0.3,3.1,0.8,4.4
		c0.4,1,0.9,1.9,1.6,2.6c1,1.2,2.2,2.1,3.7,2.7c1.4,0.6,3.1,0.9,4.8,0.9h31.9V78.9z"/>
	<path fill="#231F20" d="M50.2,49.1V48c-3.6,0-6.8-1.4-9.1-3.8c-2.3-2.3-3.8-5.6-3.8-9.1c0-3.6,1.4-6.8,3.8-9.1
		c2.3-2.3,5.6-3.8,9.1-3.8c3.6,0,6.8,1.4,9.1,3.8c2.3,2.3,3.8,5.6,3.8,9.1c0,3.6-1.4,6.8-3.8,9.1C57,46.5,53.7,48,50.2,48V49.1v1.1
		c4.2,0,8-1.7,10.7-4.4c2.7-2.7,4.4-6.5,4.4-10.7c0-4.2-1.7-8-4.4-10.7c-2.7-2.7-6.5-4.4-10.7-4.4c-4.2,0-8,1.7-10.7,4.4
		c-2.7,2.7-4.4,6.5-4.4,10.7c0,4.2,1.7,8,4.4,10.7c2.7,2.7,6.5,4.4,10.7,4.4V49.1z"/>
</g>
</svg>
