<?xml version="1.0" encoding="utf-8"?>
<!-- Generator: Adobe Illustrator 20.0.0, SVG Export Plug-In . SVG Version: 6.00 Build 0)  -->
<svg version="1.1" id="Layer_1" xmlns="http://www.w3.org/2000/svg" xmlns:xlink="http://www.w3.org/1999/xlink" x="0px" y="0px"
	 viewBox="0 0 100 100" style="enable-background:new 0 0 100 100;" xml:space="preserve">
<g>
	<path d="M56,80H44c-0.4,0-0.8-0.4-0.8-0.8v-4.3c-2-0.6-4.1-1.3-6-2.5l-3,3c-0.3,0.3-0.8,0.3-1.2,0L24.4,67
		c-0.1-0.1-0.3-0.4-0.3-0.6c0-0.3,0.1-0.4,0.3-0.6l3-3c-1-1.8-1.7-3.7-2.4-5.8h-4.3c-0.4,0-0.8-0.4-0.8-0.8v-12
		c0-0.4,0.4-0.8,0.8-0.8H25c0.5-2.1,1.3-4.1,2.4-6l-3-3c-0.1-0.1-0.3-0.4-0.3-0.6c0-0.3,0.1-0.4,0.3-0.6l8.4-8.6
		c0.3-0.3,0.9-0.3,1.2,0l2.9,2.9c1.9-1.1,3.9-2,6-2.5v-4.2c0-0.4,0.4-0.8,0.8-0.8h12.1c0.4,0,0.8,0.4,0.8,0.8v4.3
		c2.1,0.6,4.1,1.3,6,2.5l3-3c0.3-0.3,0.9-0.3,1.2,0l8.7,8.4c0.3,0.3,0.3,0.8,0,1.2l-3,3c1.1,1.9,2,3.9,2.5,6h4.3
		c0.4,0,0.8,0.4,0.8,0.8v12.1c0,0.4-0.4,0.8-0.8,0.8H75c-0.6,2-1.5,4-2.5,5.8l3.1,3.1c0.3,0.3,0.3,0.8,0,1.2L67,75.6
		c-0.3,0.3-0.8,0.3-1.2,0l-3.1-3c-1.8,1.1-3.7,1.8-5.8,2.4v4.2C56.9,79.6,56.5,80,56,80z M44.8,78.4h10.3v-4.1
		c0-0.4,0.3-1.8,0.6-1.8c2.3-0.6,4.5-1.5,6.5-2.7c0.3-0.3,0.8,0.9,1.1,1.1l3,3l7.4-7.3l-2.9-2.9c-0.3-0.3-1.3-0.7-1.1-1.1
		c1.3-2,2.2-4.3,2.8-6.6c0.1-0.4,1.4-0.6,1.8-0.6h4.1V44.9h-4.1c-0.4,0-1.8-0.3-1.8-0.7c-0.6-2.4-1.5-4.6-2.8-6.8
		c-0.3-0.3,0.9-0.8,1.1-1.1l2.9-2.9l-7.4-7.3l-2.9,3c-0.3,0.3-1.7,0.3-2.1,0.1c-2-1.3-4.3-2.2-6.6-2.8c-0.4-0.1,0.4-0.4,0.4-0.8v-4
		H44.8v4.1c0,0.4-0.3,0.8-0.6,0.8c-2.4,0.6-4.6,1.5-6.8,2.8c-0.3,0.3-0.8,0.1-1.1-0.1l-2.8-2.8l-6.3,7.4l2.9,2.9
		c0.3,0.3,0.3,0.7,0.1,1.1c-1.3,2.1-2.2,4.4-2.7,6.7c-0.1,0.4-0.4,0.7-0.8,0.7h-4.1v10.3h4.1c0.4,0,0.8,0.3,0.8,0.6
		c0.6,2.3,1.5,4.5,2.7,6.5c0.3,0.3,0.1,0.8-0.1,1.1l-2.9,2.9l7.4,7.4l2.9-2.9c0.3-0.3,0.7-0.3,1.1-0.1c2,1.3,3.3,2.2,5.6,2.8
		c0.4,0.1,0.6,0.4,0.6,0.8C44.8,74.4,44.8,78.4,44.8,78.4z"/>
</g>
<g>
	<path d="M51.9,59.6h-3.7c-0.4,0-0.8-0.4-0.8-0.8v-0.9c-0.4-0.1-0.8-0.3-1.1-0.4L45.7,58c-0.3,0.3-0.8,0.3-1.2,0l-2.7-2.6
		c-0.1-0.1-0.3-0.4-0.3-0.6c0-0.3,0.1-0.4,0.3-0.6l0.6-0.6c-0.1-0.4-0.3-0.8-0.4-1.1h-1c-0.4,0-0.8-0.4-0.8-0.8V48
		c0-0.4,0.4-0.8,0.8-0.8h0.9c0.1-0.4,0.3-0.8,0.4-1.1l-0.6-0.7c-0.1-0.1-0.3-0.4-0.3-0.6c0-0.3,0.1-0.4,0.3-0.6l2.6-2.6
		c0.3-0.3,0.9-0.3,1.2,0l0.6,0.6c0.4-0.3,0.8-0.4,1.1-0.4v-0.9c0-0.4,0.4-0.8,0.8-0.8h3.7c0.4,0,0.8,0.4,0.8,0.8v0.9
		c0.4,0.1,0.8,0.3,1.1,0.4l0.6-0.6c0.3-0.3,0.8-0.3,1.2,0l2.6,2.6c0.3,0.3,0.3,0.8,0,1.2l-0.5,0.5c0.3,0.4,0.4,0.8,0.4,1.2h1
		c0.4,0,0.8,0.4,0.8,0.8v3.7c0,0.4-0.4,0.8-0.8,0.8H58c-0.1,0.4-0.3,0.8-0.4,1.1l0.7,0.7c0.3,0.3,0.3,0.8,0,1.2l-2.7,2.7
		c-0.1,0.1-0.4,0.3-0.6,0.3l0,0c-0.3,0-0.4-0.1-0.6-0.3l-0.8-0.7c-0.4,0.1-0.8,0.3-1.1,0.4v0.9C52.7,59.2,52.4,59.6,51.9,59.6z
		 M48.9,57.9h2v-0.7c0-0.4,0.3-0.8,0.6-0.8c0.7-0.1,1.3-0.4,1.9-0.8c0.3-0.3,0.8-0.1,1.1,0.1l0.5,0.5l1.5-1.5L56,54.2
		c-0.3-0.3-0.3-0.7-0.1-1.1c0.4-0.6,0.6-1.2,0.8-1.9c0.1-0.4,0.4-0.6,0.8-0.6h0.7v-2h-0.6c-0.4,0-0.8-0.3-0.8-0.7
		c-0.1-0.7-0.4-1.3-0.8-2c-0.3-0.3-0.1-0.8,0.1-1.1l0.4-0.4L55,42.9l-0.5,0.6c-0.3,0.3-0.7,0.3-1.1,0.1c-0.6-0.4-1.2-0.6-1.9-0.8
		c-0.4-0.1-0.7-0.4-0.7-0.8v-0.7h-2V42c0,0.4-0.3,0.8-0.7,0.8c-0.7,0.1-1.3,0.4-1.9,0.8c-0.3,0.3-0.8,0.1-1.1-0.1l-0.4-0.4l-1.5,1.5
		l0.4,0.4c0.3,0.3,0.3,0.7,0.1,1.1c-0.4,0.6-0.6,1.2-0.8,1.9c-0.1,0.4-0.4,0.7-0.8,0.7h-0.7v2h0.7c0.4,0,0.8,0.3,0.8,0.6
		c0.1,0.7,0.4,1.3,0.8,1.9c0.3,0.3,0.1,0.8-0.1,1.1l-0.4,0.4l1.5,1.5l0.4-0.4c0.3-0.3,0.7-0.3,1.1-0.1c0.6,0.4,1.2,0.6,1.9,0.8
		c0.4,0.1,0.6,0.4,0.6,0.8v0.8h0.2V57.9z"/>
</g>
</svg>
