<?xml version="1.0" encoding="utf-8"?>
<!-- Generator: Adobe Illustrator 20.1.0, SVG Export Plug-In . SVG Version: 6.00 Build 0)  -->
<svg version="1.1" id="Layer_1" xmlns="http://www.w3.org/2000/svg" xmlns:xlink="http://www.w3.org/1999/xlink" x="0px" y="0px"
	 viewBox="0 0 100 100" enable-background="new 0 0 100 100" xml:space="preserve">
<title>DRUPAL CAMP</title>
<g>
	<path fill="#2E3191" d="M71.7,40.3h1l0,0c0-6.6-5.4-12-12-12l0,0l0,0c-6.6,0-12,5.4-12,12l0,0l0,0c0,6.6,5.4,12,12,12l0,0h0h0h0
		c6.6,0,12-5.4,12-12v0H71.7l-1,0c0,5.5-4.5,10-10,10h0h0l0,0c-5.5,0-10-4.5-10-10h-0.2l0.2,0l0,0h-0.2l0.2,0l0,0l0,0
		c0-5.5,4.5-10,10-10v-0.6l0,0.6l0,0v-0.6l0,0.6l0,0l0,0c5.5,0,10,4.5,10,10l0,0v0L71.7,40.3z"/>
	<path fill="#2E3191" d="M47.9,61.3v-1c-8.7,0-15.7,7-15.7,15.7c0,8.7,7,15.7,15.7,15.7c8.7,0,15.7-7,15.7-15.7v0
		c0-8.7-7-15.7-15.7-15.7h0V61.3l0,1c7.6,0,13.7,6.1,13.7,13.7v0c0,3.8-1.5,7.2-4,9.7c-2.5,2.5-5.9,4-9.7,4c-3.8,0-7.2-1.5-9.7-4
		c-2.5-2.5-4-5.9-4-9.7c0-3.8,1.5-7.2,4-9.7c2.5-2.5,5.9-4,9.7-4h0L47.9,61.3z"/>
	<path fill="#2E3191" d="M22.8,76l1,0c0-12.2,9.2-22.5,21.3-24l1.7-0.2l-0.9-1.4c-2.2-3.1-3.2-6.7-3.2-10.2c0-5.7,2.7-11.3,7.8-14.8
		c3-2.1,6.6-3.2,10.2-3.2c0.9,0,1.7,0.1,2.6,0.2l3.6,0.5l-3-2.5l-0.6,0.8l0.6-0.8C55.2,13.3,50.7,8.8,46.3,3.6L44,1l0.5,3.5
		c0.2,1.1,0.3,2.4,0.3,3.9c0,3.3-0.7,7.1-3.2,10.3l0.8,0.6l-0.8-0.7c-2.1,2.4-4.4,3.9-7,5.4c-2.6,1.4-5.6,2.8-8.7,4.7l0.5,0.9
		L26,28.5c-7.5,4.2-11.9,9.7-14.4,15.2C9,49.2,8.3,54.7,8.3,58.8c0,3.4,0.4,6,0.7,7.1l1-0.2l-1,0.1c1.5,11.5,8.8,21.4,19.2,27.3
		l4.8,2.7l-3.6-4.2c-3.7-4.3-5.7-9.8-5.7-15.5l0,0v0L22.8,76l-1,0l0,0c0,6.1,2.2,12.1,6.2,16.8l0.8-0.6l0.5-0.9
		C19.3,85.8,12.4,76.4,11,65.6l0,0l0,0c-0.2-1-0.6-3.4-0.6-6.7c0-4,0.6-9.1,3-14.2c2.4-5.1,6.5-10.3,13.6-14.3l0,0l0,0
		c3-1.8,5.9-3.2,8.6-4.7c2.7-1.5,5.3-3.2,7.6-5.8l0,0l0,0c2.9-3.7,3.6-8,3.6-11.5c0-1.6-0.1-3-0.3-4.2l-1,0.2l-0.8,0.7
		c4.5,5.3,9.1,9.8,17.7,17.1l0,0l0.2,0.2l0.6-0.8l0.1-1c-1-0.1-1.9-0.2-2.9-0.2c-4,0-8,1.2-11.4,3.6c-5.6,3.9-8.6,10.1-8.6,16.5
		c0,3.9,1.2,7.9,3.6,11.4l0.8-0.6l-0.1-1C31.7,51.7,21.8,62.8,21.8,76v0L22.8,76z"/>
	<path fill="#2E3191" d="M79.2,36.2l-1,0.2c0.3,1.3,0.4,2.7,0.4,4c0,7.9-5.2,15.1-13.1,17.3l-1.6,0.5l1.2,1.2C69.7,64,72,70,72,76.1
		c0,6.3-2.4,12.5-7.3,17.3c-0.6,0.6-1.2,1.1-1.9,1.6l-4.3,3.3l5.2-1.6c8.1-2.5,15.1-7.2,20-13.4c5-6.1,7.9-13.7,7.9-21.9l0,0
		c0-10.1-4.5-19.3-11.7-26l-2.4-2.2l0.7,3.1L79.2,36.2l-0.7,0.7c6.9,6.4,11.1,15,11.1,24.5l0,0c0,7.7-2.8,14.8-7.5,20.6
		c-4.7,5.8-11.3,10.3-19.1,12.7l0.3,1l0.6,0.8c0.7-0.6,1.4-1.2,2-1.8c5.3-5.1,7.9-11.9,7.9-18.7c0-6.5-2.4-13.1-7.4-18.1l-0.7,0.7
		l0.3,1c8.7-2.5,14.5-10.5,14.5-19.2c0-1.5-0.2-2.9-0.5-4.4L79.2,36.2l-0.7,0.7L79.2,36.2z"/>
</g>
</svg>
