<?xml version="1.0" encoding="utf-8"?>
<!-- Generator: Adobe Illustrator 20.1.0, SVG Export Plug-In . SVG Version: 6.00 Build 0)  -->
<svg version="1.1" id="Layer_1" xmlns="http://www.w3.org/2000/svg" xmlns:xlink="http://www.w3.org/1999/xlink" x="0px" y="0px"
	 viewBox="0 0 100 100" style="enable-background:new 0 0 100 100;" xml:space="preserve">
<title>DRUPAL CAMP</title>
<g>
	<path d="M91.8,69.9l-0.9-0.4L90,71.7l-10.1,1.8l-0.2,0.6c-1.5,5.5-6.4,9.5-12.4,9.5h-1v2.7c0,0.2-0.1,0.4-0.2,0.5
		c-0.1,0.1-0.3,0.2-0.5,0.2h-3.5c-0.2,0-0.4-0.1-0.5-0.2c-0.1-0.1-0.2-0.3-0.2-0.5V55.2c0-0.2,0.1-0.4,0.2-0.5
		c0.1-0.1,0.3-0.2,0.5-0.2h3.5c0.2,0,0.4,0.1,0.5,0.2c0.1,0.1,0.2,0.3,0.2,0.5v2.7h1c4.8,0,9,2.7,11.2,6.6l0.3,0.6l5-0.9l0.2-0.6
		c1.1-3.4,1.6-7,1.6-10.7c0-8.5-4.2-16.4-10.7-22.2C68.4,25,59.5,21.3,50,21.3c-9.5,0-18.4,3.7-24.9,9.4
		c-6.5,5.8-10.7,13.7-10.7,22.2c0,3.7,0.6,7.3,1.6,10.7l0.2,0.6l5,0.9l0.3-0.6c2.2-3.9,6.4-6.6,11.2-6.6h1v-2.7
		c0-0.2,0.1-0.4,0.2-0.5c0.1-0.1,0.3-0.2,0.5-0.2h3.5c0.2,0,0.4,0.1,0.5,0.2c0.1,0.1,0.2,0.3,0.2,0.5v31.2c0,0.2-0.1,0.4-0.2,0.5
		c-0.1,0.1-0.3,0.2-0.5,0.2h-3.5c-0.2,0-0.4-0.1-0.5-0.2c-0.1-0.1-0.2-0.3-0.2-0.5v-2.7h-1c-6,0-10.9-4.1-12.4-9.5l-0.2-0.6L10,71.7
		l-0.9-2.1l0,0C7.1,64.3,6,58.7,6,52.9c0-10.8,5-20.8,13-28.1c8-7.3,19-11.9,31-11.9c11.9,0,23,4.6,31,11.9c8,7.3,13,17.3,13,28.1
		c0,5.8-1.1,11.4-3.2,16.6l0,0L91.8,69.9l0.9,0.4c2.2-5.5,3.3-11.3,3.3-17.4c0-11.4-5.3-21.9-13.7-29.6C73.9,15.7,62.5,10.9,50,10.9
		c-12.5,0-23.9,4.8-32.3,12.4C9.3,31,4,41.5,4,52.9c0,6,1.1,11.9,3.3,17.4l0,0l1.3,3.2l10.5,1.9l0.2-1l-1,0.3
		c1.7,6.3,7.4,11,14.3,11v-1h-1v1.7c0,0.7,0.3,1.4,0.8,1.9c0.5,0.5,1.2,0.8,1.9,0.8h3.5c0.7,0,1.4-0.3,1.9-0.8
		c0.5-0.5,0.8-1.2,0.8-1.9V55.2c0-0.7-0.3-1.4-0.8-1.9c-0.5-0.5-1.2-0.8-1.9-0.8h-3.5c-0.7,0-1.4,0.3-1.9,0.8
		c-0.5,0.5-0.8,1.2-0.8,1.9v1.7h1v-1c-5.6,0-10.4,3.1-12.9,7.6l0.9,0.5l0.2-1l-3.7-0.6l-0.2,1l1-0.3c-1-3.3-1.5-6.6-1.5-10.1
		c0-7.8,3.9-15.2,10.1-20.7c6.2-5.5,14.6-8.9,23.6-8.9c9,0,17.4,3.5,23.6,8.9c6.2,5.5,10.1,12.9,10.1,20.7c0,3.5-0.5,6.9-1.5,10.1
		l1,0.3l-0.2-1L79.2,63l0.2,1l0.9-0.5c-2.5-4.5-7.4-7.6-12.9-7.6v1h1v-1.7c0-0.7-0.3-1.4-0.8-1.9c-0.5-0.5-1.2-0.8-1.9-0.8h-3.5
		c-0.7,0-1.4,0.3-1.9,0.8c-0.5,0.5-0.8,1.2-0.8,1.9v31.2c0,0.7,0.3,1.4,0.8,1.9c0.5,0.5,1.2,0.8,1.9,0.8h3.5c0.7,0,1.4-0.3,1.9-0.8
		c0.5-0.5,0.8-1.2,0.8-1.9v-1.7h-1v1c6.9,0,12.6-4.7,14.3-11l-1-0.3l0.2,1l10.5-1.9l1.3-3.2l0,0L91.8,69.9z"/>
</g>
</svg>
