<svg xmlns="http://www.w3.org/2000/svg" viewBox="0 0 273.91 308.13"><defs><style>.cls-1{fill:#2e3191;}</style></defs><title>DRUPAL 8</title><g id="Layer_2" data-name="Layer 2"><g id="Layer_1-2" data-name="Layer 1"><path class="cls-1" d="M210,121.46a37.13,37.13,0,1,0-37.12,37.12A37.17,37.17,0,0,0,210,121.46Z"/><path class="cls-1" d="M129.86,192.25a49.54,49.54,0,1,0,49.54,49.54A49.6,49.6,0,0,0,129.86,192.25Z"/><path class="cls-1" d="M45.32,241.79a84.65,84.65,0,0,1,74.77-84,64.08,64.08,0,0,1,62-99.83l-.82-.67C152.24,32.83,137,17.58,121.91,0c1.83,12,2.74,33.51-10.33,50.17C96.91,66.83,78.57,72,57.74,84.67-11.41,124-.33,195,2.18,206.93c4.91,37.65,28.9,70.08,63.06,89.29A84.15,84.15,0,0,1,45.32,241.79Z"/><path class="cls-1" d="M235.44,107.49a64.05,64.05,0,0,1-44.84,75.58,84.36,84.36,0,0,1-8.43,125.06c53.39-16.57,91.73-62,91.73-115.55C273.91,159.5,259.24,129.49,235.44,107.49Z"/></g></g></svg>