<?xml version="1.0" encoding="utf-8"?>
<!-- Generator: Adobe Illustrator 20.0.0, SVG Export Plug-In . SVG Version: 6.00 Build 0)  -->
<svg version="1.1" id="Layer_1" xmlns="http://www.w3.org/2000/svg" xmlns:xlink="http://www.w3.org/1999/xlink" x="0px" y="0px"
	 viewBox="0 0 100 100" style="enable-background:new 0 0 100 100;" xml:space="preserve">
<g>
	<g>
		<path d="M78.3,80C78.2,80,78.2,80,78.3,80H21.7c-0.3,0-0.4-0.1-0.6-0.3c-0.1-0.1-0.2-0.4-0.1-0.6l7.9-47.6
			c0.1-0.4,0.4-0.7,0.8-0.7h40.7c0.4,0,0.8,0.3,0.8,0.7l7.9,47.3c0.1,0.1,0.1,0.3,0.1,0.4C79.1,79.6,78.7,80,78.3,80z M22.8,78.4
			h54.4l-7.6-45.9H30.4L22.8,78.4z"/>
	</g>
	<g>
		<path d="M60,37.6c-0.4,0-0.8-0.4-0.8-0.8c0-8.3-4.1-15.1-9.2-15.1s-9.2,6.8-9.2,15.1c0,0.4-0.4,0.8-0.8,0.8
			c-0.4,0-0.8-0.4-0.8-0.8C39.1,27.5,44,20,50,20s10.9,7.5,10.9,16.8C60.9,37.2,60.5,37.6,60,37.6z"/>
	</g>
	<g>
		<path d="M60,39.5c-1.5,0-2.7-1.2-2.7-2.7s1.2-2.7,2.7-2.7c1.5,0,2.7,1.2,2.7,2.7C62.6,38.3,61.5,39.5,60,39.5z M60,35.9
			c-0.5,0-0.9,0.4-0.9,0.9c0,0.5,0.4,0.9,0.9,0.9s0.9-0.4,0.9-0.9C60.9,36.3,60.5,35.9,60,35.9z"/>
	</g>
	<g>
		<path d="M40,39.5c-1.5,0-2.7-1.2-2.7-2.7s1.2-2.7,2.7-2.7s2.7,1.2,2.7,2.7C42.6,38.3,41.4,39.5,40,39.5z M40,35.9
			c-0.5,0-0.9,0.4-0.9,0.9c0,0.5,0.4,0.9,0.9,0.9c0.5,0,0.9-0.4,0.9-0.9S40.5,35.9,40,35.9z"/>
	</g>
	<g>
		<path d="M78.3,80C78.2,80,78.2,80,78.3,80H21.7c-0.3,0-0.4-0.1-0.6-0.3c-0.1-0.1-0.2-0.4-0.1-0.6l7.9-47.6
			c0.1-0.4,0.4-0.7,0.8-0.7h40.7c0.4,0,0.8,0.3,0.8,0.7l7.9,47.3c0.1,0.1,0.1,0.3,0.1,0.4C79.1,79.6,78.7,80,78.3,80z M22.8,78.4
			h54.4l-7.6-45.9H30.4L22.8,78.4z"/>
	</g>
	<g>
		<path d="M60,37.6c-0.4,0-0.8-0.4-0.8-0.8c0-8.3-4.1-15.1-9.2-15.1s-9.2,6.8-9.2,15.1c0,0.4-0.4,0.8-0.8,0.8
			c-0.4,0-0.8-0.4-0.8-0.8C39.1,27.5,44,20,50,20s10.9,7.5,10.9,16.8C60.9,37.2,60.5,37.6,60,37.6z"/>
	</g>
	<g>
		<path d="M60,39.5c-1.5,0-2.7-1.2-2.7-2.7s1.2-2.7,2.7-2.7c1.5,0,2.7,1.2,2.7,2.7C62.6,38.3,61.5,39.5,60,39.5z M60,35.9
			c-0.5,0-0.9,0.4-0.9,0.9c0,0.5,0.4,0.9,0.9,0.9s0.9-0.4,0.9-0.9C60.9,36.3,60.5,35.9,60,35.9z"/>
	</g>
	<g>
		<path d="M40,39.5c-1.5,0-2.7-1.2-2.7-2.7s1.2-2.7,2.7-2.7s2.7,1.2,2.7,2.7C42.6,38.3,41.4,39.5,40,39.5z M40,35.9
			c-0.5,0-0.9,0.4-0.9,0.9c0,0.5,0.4,0.9,0.9,0.9c0.5,0,0.9-0.4,0.9-0.9S40.5,35.9,40,35.9z"/>
	</g>
</g>
</svg>
