<?xml version="1.0" encoding="utf-8"?>
<!-- Generator: Adobe Illustrator 20.1.0, SVG Export Plug-In . SVG Version: 6.00 Build 0)  -->
<svg version="1.1" xmlns="http://www.w3.org/2000/svg" xmlns:xlink="http://www.w3.org/1999/xlink" x="0px" y="0px"
	 viewBox="0 0 300 300" style="enable-background:new 0 0 300 300;" xml:space="preserve">
<style type="text/css">
	.st0{fill:#47709D;}
	.st1{fill:#F4E1C9;}
	.st2{fill:#EAEAEA;}
	.st3{fill:#F7F8F9;}
	.st4{fill:#FFFFFF;}
	.st5{fill:#a5d449;}
	.st8{fill:#E54545;}
</style>
<g id="Layer_1">
	<title>Thank You</title>
	<g id="background">
		<polygon class="st0" points="17.9,106.3 17,107.1 17,269.2 283,269.2 283,107.1 282.1,106.3"/>
	</g>
	<g id="flap">
		<path fill="#f7f8f9" d="M283,118.8l-122,83.5c-6.8,4.7-15.4,4.7-22.2,0L17,118.8v-12.9h266V118.8z" >
			<animate attributeName="d" begin="1s" dur="0.3s" from="M283,118.8l-122,83.5c-6.8,4.7-15.4,4.7-22.2,0L17,118.8v-12.9h266V118.8z" to="M283,95.4l-122-74c-6.8-4.1-15.4-4.1-22.2,0L17,95.4v11.5h266V95.4z" repeatCount="1" fill="freeze" />
			<animate attributeName="fill" begin="1s" dur="0.3s" from="#f7f8f9" to="#47709d" calcMode="paced" fill="freeze">
		</path>
		<path fill="#f7f8f9" d="M138.8,188.8c6.8,4.7,15.4,4.7,22.2,0l122-83.5v13.5l-122,83.5c-6.8,4.7-15.4,4.7-22.2,0L17,118.8v-12.9
			L138.8,188.8z">

			<animate attributeName="d" begin="1s" dur="0.3s" from="M138.8,188.8c6.8,4.7,15.4,4.7,22.2,0l122-83.5v13.5l-122,83.5c-6.8,4.7-15.4,4.7-22.2,0L17,118.8v-12.9
			L138.8,188.8z" to="M138.8,33.4c6.8-4.1,15.4-4.1,22.2,0l122,73.9v-12L161,21.4c-6.8-4.1-15.4-4.1-22.2,0L17,95.4v11.5
			L138.8,33.4z" repeatCount="1" fill="freeze" />
			<animate attributeName="fill" begin="1s" dur="0.3s" from="#f7f8f9" to="#284d8d" calcMode="paced" fill="freeze">
		</path>
	</g>
	<g id="paper">
		<polygon class="st1" points="237,227.2 46.5,227.2 46.5,209.3 253.5,210.6">
			<animate attributeName="points" dur="0.3s" begin="1.7s" from="237,227.2 46.5,227.2 46.5,209.3 253.5,210.6" to="237,227.2 46.5,227.2 46.5,75 253.5,85.4" calcMode="paced" fill="freeze">

		</polygon>
	</g>
	<g id="cover">
		<polygon class="st2" points="17,270 17,107.5 146.3,201.2"/>
		<polygon class="st2" points="283,270 283,107.5 153.7,201.2"/>
		<polygon class="st3" points="149.9,194 17,270 283,270"/>
	</g>
	<!-- <g id="tick">
		<path opacity="0" class="st5" d="M190.8,116.3l-33.8,33.7l-6.3,6.3c-0.8,0.8-2,1.3-3.2,1.3s-2.3-0.5-3.2-1.3l-6.3-6.3l-16.9-16.9
			c-0.8-0.8-1.3-2-1.3-3.2s0.5-2.3,1.3-3.2l6.3-6.3c0.8-0.8,2-1.3,3.2-1.3c1.2,0,2.3,0.5,3.2,1.3l13.7,13.8l30.6-30.6
			c0.8-0.8,2-1.3,3.2-1.3c1.2,0,2.3,0.5,3.2,1.3l6.3,6.3c0.8,0.8,1.3,2,1.3,3.2C192.1,114.3,191.6,115.5,190.8,116.3z">
			<animate attributeName="opacity" dur="0.3s" begin="2.4s" from="0" to="1" calcMode="paced" opacity="1" fill="freeze">
		</path>
	</g> -->
	<g id="heart">
		<path opacity="0"  class="st8" d="M145.8,158.9l-18.9-18.3c-0.2-0.2-6.9-6.3-6.9-13.6c0-8.9,5.4-14.2,14.5-14.2c5.3,0,10.3,4.2,12.7,6.5
		c2.4-2.4,7.4-6.5,12.7-6.5c9.1,0,14.5,5.3,14.5,14.2c0,7.3-6.7,13.4-6.9,13.6l-18.9,18.2c-0.4,0.4-0.8,0.5-1.3,0.5S146.2,159.3,145.8,158.9z">
			<animate attributeName="opacity" dur="0.3s" begin="2.4s" from="0" to="1" calcMode="paced" opacity="1" fill="freeze">
		</path>
	</g>
</svg>
