<svg xmlns="http://www.w3.org/2000/svg" viewBox="0 0 331.77 371.96"><defs><style>.cls-1{fill:#2e3191;}</style></defs><title>JS LOGO</title><g id="Layer_2" data-name="Layer 2"><g id="Layer_1-2" data-name="Layer 1"><path class="cls-1" d="M166,372a39.22,39.22,0,0,1-19.56-5.21l-46-27.21,26.83-11.19L158.91,345a14.32,14.32,0,0,0,14.3,0l126.44-73.56A14.38,14.38,0,0,0,306.77,259l-.33-146.1a14.39,14.39,0,0,0-7.12-12.37L172.88,27a14.31,14.31,0,0,0-14.36,0L32.12,100.51A14.39,14.39,0,0,0,25,112.91V259.73a14.38,14.38,0,0,0,7.14,12.41c12.51,7,31.44,17.64,33.75,18.9,10.94,5.25,19.54,6.65,24.22,3.94s6-10,6.23-11.43l.83-166.73,25,.13-.83,167.81,0,.44c-.17,2.21-2.1,21.9-18.7,31.49-12.45,7.2-28.53,6.13-47.79-3.18-.42-.21-1.13-.55-35-19.54l-.11-.06A39.5,39.5,0,0,1,0,259.73V112.91A39.53,39.53,0,0,1,19.57,78.84L146,5.31a39.31,39.31,0,0,1,39.46,0L311.86,78.86a39.54,39.54,0,0,1,19.57,34l.33,146.1a39.52,39.52,0,0,1-19.57,34.16L185.76,366.65A39.24,39.24,0,0,1,166,372Zm-100.33-81,0,0Z"/><path class="cls-1" d="M207.57,262.62c-56.56,0-71.76-23-73.9-54.5l25.92,0c.21,17.84,7.86,30.33,47.38,30,39.92-.33,41.88-13.83,41.88-20.54s-4.93-12.29-11.33-15-17.14-3.73-39.5-6.17c-33.67-3.67-36.94-8-46.17-13.33S138.78,165,138.78,151.58q0-18.21,17.2-30.14c11.46-8,27-11.14,46.2-11.14,54.17,0,67.54,24.85,68.5,52.17l-25.5-.17c-1.07-13.79-8.84-27.16-41.33-28-32.17-.83-37.56,12.49-37.5,18.83.17,17,28.13,15.56,48.67,19.83s34.19,5.3,44.17,11,16.55,18.34,16.55,32.32c0,13.34-5.06,25.07-17.38,33.85S228.37,262.62,207.57,262.62Z"/></g></g></svg>