<?xml version="1.0" encoding="utf-8"?>
<!-- Generator: Adobe Illustrator 20.0.0, SVG Export Plug-In . SVG Version: 6.00 Build 0)  -->
<svg version="1.1" id="Layer_1" xmlns="http://www.w3.org/2000/svg" xmlns:xlink="http://www.w3.org/1999/xlink" x="0px" y="0px"
	 viewBox="0 0 100 100" style="enable-background:new 0 0 100 100;" xml:space="preserve">
<g>
	<g>
		<path d="M41.8,80.1c-0.3,0-0.4-0.1-0.6-0.1c-0.6-0.3-1-0.9-0.9-1.6l0.4-8.3L29.9,59.4l-8.3,0.4c-0.7,0.1-1.3-0.3-1.6-0.9
			c-0.3-0.6-0.1-1.3,0.3-1.8l7.5-7.5c0.4-0.4,1-0.6,1.6-0.4l4.6,1.3l13.5-16.9c0.1-0.1,0.1-0.1,0.1-0.1c2.7-2.7,5.8-4.9,8.9-6.5
			c0.1-0.1,0.3-0.1,0.4-0.2l20.9-6.6c0.6-0.2,1.2-0.1,1.6,0.4c0.4,0.4,0.6,1.1,0.4,1.6l-6.6,20.9c-0.1,0.1-0.1,0.3-0.2,0.4
			c-1.6,3.1-3.8,6.2-6.5,8.9c-0.1,0.1-0.1,0.1-0.1,0.1L49.5,65.9l1.3,4.6c0.2,0.6,0,1.2-0.4,1.6l-7.6,7.5
			C42.6,79.9,42.2,80.1,41.8,80.1z M30.6,56.2c0.4,0,0.8,0.2,1.1,0.4l11.7,11.7c0.3,0.3,0.5,0.8,0.4,1.2l-0.3,4.8l3.9-3.9l-1.3-4.7
			c-0.2-0.6,0-1.3,0.6-1.7l17.7-14.2c2.4-2.5,4.5-5.3,5.9-8.1l5.7-17.7l-17.7,5.7c-2.8,1.5-5.6,3.5-8.1,5.9L35.9,53.3
			c-0.4,0.5-1.1,0.8-1.7,0.6l-4.7-1.3l-3.9,3.9l4.8-0.3C30.5,56.2,30.6,56.2,30.6,56.2z"/>
	</g>
</g>
</svg>
