<?xml version="1.0" encoding="utf-8"?>
<!-- Generator: Adobe Illustrator 20.1.0, SVG Export Plug-In . SVG Version: 6.00 Build 0)  -->
<svg version="1.1" id="Layer_1" xmlns="http://www.w3.org/2000/svg" xmlns:xlink="http://www.w3.org/1999/xlink" x="0px" y="0px"
	 viewBox="0 0 234.4 327.9" style="enable-background:new 0 0 234.4 327.9;" xml:space="preserve">
<style type="text/css">
	.st0{fill:#2B4C8B;}
</style>
<title>PRODUCCT ENG</title>
<g id="Layer_2">
	<g id="Layer_1-2">
		<path class="st0" d="M74.2,298.9h7.4c1.1,0,2.1,0.9,2.1,2.1v7.4c0,1.1-0.9,2.1-2.1,2.1h-7.4c-1.1,0-2.1-0.9-2.1-2.1V301
			C72.1,299.9,73.1,298.9,74.2,298.9z"/>
		<path class="st0" d="M138.1,304.1c-5.9,0.1-11-4.3-11.9-10.2l-1.5-9.9h-10.6l-3.3,2.5c-2.2,1.8-4.9,2.7-7.7,2.7
			c-3.1,0-6-1.2-8.2-3.4l-1-0.9l-1.1-1H9.5V45.8h135.8v74.1h9.4V24.5c0-12.5-10.1-22.5-22.6-22.6h-2.3V0h-26.3v1.9H22.6
			C10.1,2,0,12.1,0,24.5v280.8c0,12.5,10.1,22.5,22.6,22.6h109.5c12.5,0,22.5-10.1,22.6-22.6v-1.3H138.1z M77.5,14
			c1.9,0,3.4,1.5,3.4,3.4c0,1.9-1.5,3.4-3.4,3.4c-1.9,0-3.4-1.5-3.4-3.4v0C74.1,15.5,75.6,14,77.5,14z M64.1,29.6
			c0-1.1,0.9-2.1,2.1-2.1h23.4c1.1,0,2.1,0.9,2.1,2.1v0.1c0,1.1-0.9,2.1-2.1,2.1H66.2c-1.1,0-2.1-0.9-2.1-2.1L64.1,29.6z M56.5,27
			c1.5,0,2.7,1.2,2.7,2.7c0,1.5-1.2,2.7-2.7,2.7c-1.5,0-2.7-1.2-2.7-2.7v0C53.8,28.3,55,27,56.5,27C56.5,27,56.5,27,56.5,27z
			 M77.9,318.9c-8.1,0-14.7-6.6-14.7-14.7s6.6-14.7,14.7-14.7s14.7,6.6,14.7,14.7l0,0C92.6,312.4,86,318.9,77.9,318.9z"/>
		<path class="st0" d="M234.4,224.4c0,1.8-1.3,3.4-3.1,3.9l-20.3,3.1c-1.1,3.5-2.6,6.8-4.3,10c3.7,5.4,7.7,10.2,11.7,15.1
			c0.7,0.8,1.1,1.7,1.1,2.7c0,0.9-0.4,1.8-1,2.5c-2.6,3.5-17.4,19.6-21.1,19.6c-1-0.1-2-0.4-2.9-1l-15.1-11.8c-3.2,1.7-6.6,3-10,4.2
			c-0.8,6.7-1.4,13.8-3.2,20.4c-0.4,1.8-2.1,3.1-3.9,3.1H138c-1.9,0-3.6-1.4-3.9-3.3l-3.1-20.1c-3.4-1.1-6.7-2.4-9.8-4l-15.4,11.7
			c-0.8,0.6-1.7,1-2.7,1c-1,0-2-0.5-2.7-1.2c-5.8-5.3-13.5-12-18.1-18.4c-0.5-0.7-0.8-1.6-0.8-2.5c0-0.9,0.3-1.8,0.9-2.5
			c3.7-5,7.8-9.9,11.5-15c-1.9-3.5-3.4-7.1-4.5-10.8l-20-3c-1.9-0.4-3.2-2-3.2-3.9v-24.3c0-1.8,1.3-3.4,3-3.9l20.4-3.1
			c1.1-3.5,2.5-6.9,4.3-10.1c-3.7-5.3-7.7-10.2-11.7-15.1c-0.7-0.7-1-1.7-1.1-2.6c0-0.9,0.4-1.8,1-2.5c2.6-3.6,17.4-19.6,21.1-19.6
			c1,0,2,0.4,2.8,1.1l15,11.7c3.2-1.7,6.6-3,10-4.2c0.8-6.7,1.4-13.8,3.2-20.4c0.4-1.8,2.1-3.1,3.9-3.1h24.3c1.9,0,3.6,1.4,3.9,3.3
			l3.1,20.1c3.4,1.1,6.7,2.4,9.9,4.1l15.6-11.7c0.7-0.7,1.7-1,2.6-1c1,0,2,0.4,2.7,1.1c5.8,5.4,13.5,12.1,18.1,18.6
			c0.5,0.7,0.8,1.5,0.8,2.4c0,0.9-0.3,1.8-0.9,2.5c-3.7,5-7.8,9.9-11.5,15c1.8,3.4,3.3,7,4.5,10.7l20,3.1c1.9,0.4,3.2,2,3.2,3.9
			L234.4,224.4z M150.3,184c-15.5,0-28,12.5-28,28s12.5,28,28,28s28-12.5,28-28C178.2,196.6,165.7,184,150.3,184z"/>
	</g>
</g>
</svg>
