<?xml version="1.0" encoding="utf-8"?>
<!-- Generator: Adobe Illustrator 20.1.0, SVG Export Plug-In . SVG Version: 6.00 Build 0)  -->
<svg version="1.1" id="Layer_1" xmlns="http://www.w3.org/2000/svg" xmlns:xlink="http://www.w3.org/1999/xlink" x="0px" y="0px"
	 viewBox="0 0 172.5 218" style="enable-background:new 0 0 172.5 218;" xml:space="preserve">
<style type="text/css">
	.st0{fill:#2E3191;}
</style>
<title>RUBY ON RAILS</title>
<g id="Layer_2">
	<g id="Layer_1-2">
		<path class="st0" d="M19.3,170.5c-1.2-39.3,11-85.8,39-125C88.7,2.9,139.8-1.2,172.5,33.2c0-0.3-4.3,5.1-4.2,5
			c-7.5-6.1-23-15.2-46.9-1c-13.6,8-28.5,25.7-31.8,50C83.8,128,103,170.4,103,170.4S19.7,170.8,19.3,170.5z"/>
		<polygon class="st0" points="2.2,128 19.4,128.1 16.7,146.1 0,143.9 		"/>
		<polygon class="st0" points="96.2,143.1 111.2,143.1 117.2,155.8 100.5,156 		"/>
		<polygon class="st0" points="92.1,103.1 92,115.9 106.2,121.8 105.9,110 		"/>
		<polygon class="st0" points="97.9,74 107.7,81.9 104.3,93.9 92.2,83 		"/>
		<polygon class="st0" points="103.3,55.1 110.1,48.1 117.4,58.2 112.7,65.2 		"/>
		<polygon class="st0" points="122.1,38.9 131.3,35.5 134.1,41.7 127,47.1 		"/>
		<polygon class="st0" points="149.9,33.6 159.2,36.1 159,41.2 150.1,39.9 		"/>
		<polygon class="st0" points="151.2,16 151.2,8.6 163.1,17.3 160.7,21.2 		"/>
		<polygon class="st0" points="108.1,0 123.3,0.1 123.1,9 109.4,9.5 		"/>
		<polygon class="st0" points="70.8,10.8 81.7,4.8 90,13.4 79.1,20.2 		"/>
		<polygon class="st0" points="36.9,42.6 46.7,31.8 58.2,39.8 48.7,50.4 		"/>
		<polygon class="st0" points="18.4,73.8 33.9,80.8 28,93.3 12.9,88.4 		"/>
		<g>
			<path class="st0" d="M31.9,206.8c0,0,9.5-1.3,9.3-13.7s-10.6-12.1-10.6-12.1L10.1,181l0.1,37l9.9-0.1l0.1-8.9l8,8.9l15.9,0.1
				L31.9,206.8z M29.1,197.9H20v-7.1h9.1L29.1,197.9z"/>
			<path class="st0" d="M69.2,180.9H58c-4.9,0-8.8,4-8.8,8.8V218h9.9v-6h9v6h9.9v-28.3C78,184.9,74.1,180.9,69.2,180.9z M68.1,201
				h-9v-10h9V201z"/>
			<rect x="87.1" y="181" class="st0" width="12" height="36.9"/>
			<polygon class="st0" points="133.1,207.9 119.1,207.9 119.1,181 107.1,181 107.1,217.9 119.1,217.9 119.1,217.8 133.1,217.8 			
				"/>
			<path class="st0" d="M156.1,194h-7.9v-3h16.9v-10h-15.9c-6.6,0-12,5.4-12,12l0,0c0,6.6,5.3,11.9,11.9,12h7c1.1,0,1.9,0.9,1.9,1.9
				v0.1c0,1.1-0.9,2-1.9,2h-17.9v9h17c6.6,0,12-5.4,12-12l0,0C167.1,199.7,162.3,194.5,156.1,194z"/>
		</g>
	</g>
</g>
</svg>
