<?xml version="1.0" encoding="iso-8859-1"?>
<!-- Generator: Adobe Illustrator 16.0.0, SVG Export Plug-In . SVG Version: 6.00 Build 0)  -->
<!DOCTYPE svg PUBLIC "-//W3C//DTD SVG 1.1//EN" "http://www.w3.org/Graphics/SVG/1.1/DTD/svg11.dtd">
<svg version="1.1" id="Capa_1" xmlns="http://www.w3.org/2000/svg" xmlns:xlink="http://www.w3.org/1999/xlink" x="0px" y="0px"
	 width="612px" height="612px" viewBox="0 0 612 612" style="enable-background:new 0 0 612 612;" xml:space="preserve">
<g>
	<g>
		<g>
			<path d="M337.667,258.176c-5.279,0-9.563-4.283-9.563-9.563c0-5.28,4.283-9.563,9.563-9.563h226.539
				c6.354,0,12.511,1.315,18.169,3.666c5.817,2.431,11.097,5.977,15.5,10.38c4.402,4.383,8.028,9.702,10.439,15.54
				c2.351,5.638,3.686,11.834,3.686,18.229c0,6.296-1.275,12.492-3.666,18.269c-2.391,5.778-5.896,11.077-10.34,15.52
				c-4.362,4.362-9.662,7.909-15.539,10.359c-5.678,2.351-11.854,3.666-18.249,3.666H425.186c-5.278,0-9.562-4.305-9.562-9.563
				c0-5.278,4.283-9.562,9.562-9.562h139.021c3.885,0,7.59-0.777,10.917-2.151c3.467-1.454,6.654-3.605,9.324-6.275
				c2.729-2.729,4.841-5.917,6.256-9.304c1.395-3.387,2.15-7.112,2.15-10.938c0-3.885-0.776-7.57-2.172-10.917
				c-1.454-3.506-3.626-6.694-6.274-9.324c-2.67-2.65-5.877-4.821-9.385-6.275c-3.307-1.375-6.991-2.152-10.856-2.152H337.667
				V258.176z"/>
			<path d="M345.457,52.795c2.51-4.622,8.308-6.335,12.93-3.825c4.621,2.51,6.335,8.308,3.824,12.93l-85.507,156.591
				c-2.53,4.602-8.308,6.315-12.93,3.805s-6.315-8.308-3.825-12.93L345.457,52.795z"/>
			<path d="M260.726,208.131c3.188-4.184,9.204-4.98,13.368-1.793c4.184,3.208,4.98,9.205,1.793,13.368
				c-14.464,18.986-27.414,28.628-41.379,33.569c-13.826,4.901-27.553,4.901-44.606,4.901c-5.279,0-9.563-4.283-9.563-9.563
				c0-5.28,4.283-9.563,9.563-9.563c15.281,0,27.613-0.02,38.251-3.765C238.652,231.58,248.772,223.81,260.726,208.131z"/>
			<path d="M353.824,66.9c-5.279,0-9.563-4.284-9.563-9.563s4.283-9.563,9.563-9.563c3.586,0,7.451,0.438,11.354,1.295l0.498,0.119
				c9.424,2.152,19.386,6.874,27.075,14.125c8.248,7.77,13.966,18.349,13.966,31.697h0.039c0,3.347-0.378,6.873-1.175,10.559
				c-1.116,5.16-6.216,8.427-11.356,7.312c-5.14-1.116-8.427-6.216-7.312-11.355c0.498-2.271,0.737-4.463,0.737-6.515h0.04
				c0-7.372-3.269-13.349-8.01-17.791c-5.08-4.801-11.874-7.969-18.368-9.403l-0.238-0.04C358.546,67.199,356.075,66.9,353.824,66.9
				z"/>
			<path d="M387.055,100.908c1.436-5.061,6.714-8.009,11.794-6.575s8.01,6.714,6.575,11.794l-25.761,90.229
				c-1.434,5.06-6.714,8.009-11.794,6.574c-5.08-1.434-8.009-6.714-6.574-11.794L387.055,100.908z"/>
			<path d="M19.125,545.1h114.734V239.071H19.125V545.1L19.125,545.1z M143.422,564.226H9.822H9.563
				c-5.28,0-9.563-4.283-9.563-9.563V229.747v-0.239c0-5.279,4.283-9.563,9.563-9.563h133.62h0.259c5.279,0,9.563,4.283,9.563,9.563
				v324.917v0.238C153.005,559.943,148.702,564.226,143.422,564.226z"/>
			<path d="M337.248,545.479c5.081,1.395,8.049,6.654,6.635,11.733c-1.395,5.062-6.654,8.05-11.733,6.636l-91.725-25.401h-50.404
				c-5.279,0-9.563-4.283-9.563-9.562s4.284-9.563,9.563-9.563h51.56v0.04c0.837,0,1.693,0.119,2.55,0.358L337.248,545.479z"/>
			<path d="M592.874,363.347c0-5.279,4.284-9.563,9.563-9.563c5.278,0,9.562,4.283,9.562,9.563c0,6.296-1.275,12.512-3.666,18.249
				c-2.391,5.776-5.896,11.077-10.34,15.52c-4.362,4.363-9.662,7.909-15.539,10.36c-5.678,2.351-11.854,3.665-18.249,3.665H425.186
				c-5.278,0-9.562-4.283-9.562-9.563c0-5.279,4.283-9.562,9.562-9.562h139.021c3.885,0,7.59-0.777,10.917-2.151
				c3.467-1.455,6.654-3.605,9.324-6.276c2.729-2.729,4.841-5.896,6.256-9.304C592.117,370.898,592.874,367.193,592.874,363.347z"/>
			<path d="M554.604,439.91c0-5.278,4.283-9.562,9.563-9.562s9.563,4.283,9.563,9.562c0,6.275-1.274,12.473-3.665,18.229
				l-0.021,0.039h0.021c-2.393,5.758-5.917,11.077-10.341,15.5l-0.638,0.578c-4.283,4.124-9.344,7.471-14.922,9.78
				c-5.678,2.353-11.854,3.666-18.229,3.666h-139.02c-5.279,0-9.563-4.283-9.563-9.562c0-5.28,4.283-9.563,9.563-9.563h139.02
				c3.865,0,7.592-0.776,10.918-2.151c3.308-1.396,6.354-3.366,8.905-5.797l0.438-0.479c2.729-2.729,4.859-5.917,6.255-9.304h0.021
				C553.846,447.48,554.604,443.753,554.604,439.91z"/>
			<path d="M480.631,516.413c0-5.279,4.283-9.562,9.563-9.562c5.279,0,9.562,4.283,9.562,9.562c0,13.168-5.38,25.122-14.024,33.788
				l-0.639,0.578c-8.587,8.287-20.302,13.447-33.11,13.447H334.698c-5.279,0-9.563-4.283-9.563-9.563
				c0-5.279,4.283-9.562,9.563-9.562h117.284c7.689,0,14.683-3.048,19.803-7.969l0.419-0.458
				C477.403,531.473,480.631,524.301,480.631,516.413z"/>
		</g>
	</g>
</g>
<g>
</g>
<g>
</g>
<g>
</g>
<g>
</g>
<g>
</g>
<g>
</g>
<g>
</g>
<g>
</g>
<g>
</g>
<g>
</g>
<g>
</g>
<g>
</g>
<g>
</g>
<g>
</g>
<g>
</g>
</svg>
