<?xml version="1.0" encoding="utf-8"?>
<!-- Generator: Adobe Illustrator 20.1.0, SVG Export Plug-In . SVG Version: 6.00 Build 0)  -->
<svg version="1.1" id="Layer_1" xmlns="http://www.w3.org/2000/svg" xmlns:xlink="http://www.w3.org/1999/xlink" x="0px" y="0px"
	 viewBox="0 0 174.4 119.9" style="enable-background:new 0 0 174.4 119.9;" xml:space="preserve">
<style type="text/css">
	.st0{fill:#2B4C8B;}
</style>
<title>UX LOGO</title>
<g id="Layer_2">
	<g id="Layer_1-2">
		<path class="st0" d="M69.3,29.4v39.5c0,4.5-0.7,8.9-2.1,13.2c-1.3,3.9-3.4,7.5-6.1,10.6c-2.7,3-6,5.4-9.8,7
			c-4.1,1.7-8.5,2.6-13,2.5c-4.5,0.1-8.9-0.8-13-2.6c-3.7-1.6-7-4-9.7-7.1c-2.7-3.1-4.8-6.7-6.1-10.5C8,77.8,7.3,73.3,7.4,68.8V14H0
			v54.9c0,5.3,0.8,10.6,2.6,15.6c1.7,4.7,4.3,9,7.6,12.6c3.4,3.6,7.5,6.5,12.1,8.5c5.1,2.1,10.5,3.2,16,3.1c5.5,0.1,10.9-1,16-3.1
			c4.6-1.9,8.7-4.8,12.1-8.5c3.4-3.7,5.9-8,7.6-12.6c1.8-5,2.7-10.3,2.6-15.6V39.6L69.3,29.4z"/>
		<polygon class="st0" points="95.7,44.2 64.6,0 56.2,0 91.2,49.8 		"/>
		<polygon class="st0" points="123.3,83.3 118.8,88.9 140.6,119.9 149.1,119.9 		"/>
		<polygon class="st0" points="136.8,66.6 132.3,72.2 166,119.9 174.4,119.9 		"/>
		<polygon class="st0" points="109.2,27.4 89.9,0 81.5,0 104.7,33 		"/>
		<path class="st0" d="M138.4,0h8.4L62.4,119.9H54L138.4,0z"/>
		<path class="st0" d="M163.8,0h8.4L87.8,119.9h-8.4L163.8,0z"/>
	</g>
</g>
</svg>
